<?xml version="1.0" standalone="no"?>
<!DOCTYPE svg PUBLIC "-//W3C//DTD SVG 1.1//EN" "http://www.w3.org/Graphics/SVG/1.1/DTD/svg11.dtd" >
<svg xmlns="http://www.w3.org/2000/svg" xmlns:xlink="http://www.w3.org/1999/xlink" version="1.1">
<metadata></metadata>
<defs>
<font id="cs_prajadbold" horiz-adv-x="0" >
<font-face units-per-em="2048" ascent="1638" descent="-410" />
<missing-glyph horiz-adv-x="528" />
<glyph unicode=" "  horiz-adv-x="528" />
<glyph unicode="&#x09;" horiz-adv-x="528" />
<glyph unicode="&#xa0;" horiz-adv-x="528" />
<glyph unicode="!" horiz-adv-x="449" d="M118 101.5q0 43.5 30.5 72.5t75.5 29q30 0 55 -13.5t39.5 -36.5t14.5 -52q0 -43 -31.5 -72t-77 -29t-76 29t-30.5 72.5zM145 301v906h160v-906h-160z" />
<glyph unicode="&#x22;" horiz-adv-x="573" d="M118 1189h125l-14 -336h-97zM330 1189h127l-15 -336h-97z" />
<glyph unicode="#" horiz-adv-x="1118" d="M88 357l25 125h185l43 216h-185l26 127h185l66 339h148l-68 -339h184l66 339h149l-68 -339h186l-25 -127h-186l-44 -216h185l-23 -125h-189l-69 -357h-148l71 357h-182q-42 -210 -69 -357h-148l70 357h-185zM446 482h181l44 216h-183z" />
<glyph unicode="$" horiz-adv-x="1081" d="M118 374l154 21q10 -88 39.5 -151t72.5 -98t100 -46v458q-38 11 -66.5 20.5t-65 24.5t-63 31t-54 39.5t-45 50.5t-28.5 62.5t-11 76.5q0 63 18.5 115.5t49.5 90t73.5 65.5t90.5 44t101 23v141h143v-141q130 -20 215 -116t101 -256l-149 -19q-25 228 -167 263v-431 q40 -12 69 -21.5t66.5 -25.5t64 -32.5t54 -41t44.5 -52t28 -65t11 -80.5q0 -77 -28 -140t-76.5 -104t-107 -66t-125.5 -35v-148h-143v144q-145 16 -244.5 120t-121.5 279zM303 863q0 -31 10.5 -57t27 -44.5t41.5 -34t48.5 -25t53.5 -19.5v391q-86 -17 -133.5 -72t-47.5 -139 zM627 106q37 9 69 26t58.5 43.5t42 64.5t15.5 84q0 41 -15.5 73.5t-43.5 55.5t-58 38.5t-68 27.5v-413z" />
<glyph unicode="%" horiz-adv-x="1084" d="M118 38l726 1173l124 -69l-725 -1173zM129 955q0 99 66.5 169t161.5 70q46 0 88 -19t72.5 -51t48 -76t17.5 -93q0 -99 -65.5 -169t-160.5 -70q-47 0 -89 19t-72.5 51t-48.5 76.5t-18 92.5zM274 955q0 -21 7 -40t18 -32.5t26.5 -21.5t31.5 -8q34 0 57.5 29.5t23.5 72.5 q0 28 -10.5 51.5t-29.5 37t-41 13.5q-33 0 -58 -30t-25 -72zM509 223q0 100 66.5 170.5t159.5 70.5q95 0 161.5 -70.5t66.5 -170.5t-66.5 -169.5t-161.5 -69.5q-93 0 -159.5 70t-66.5 169zM654 223q0 -41 24 -70.5t57 -29.5q34 0 58.5 29.5t24.5 70.5q0 42 -24.5 71.5 t-58.5 29.5q-33 0 -57 -29.5t-24 -71.5z" />
<glyph unicode="&#x26;" horiz-adv-x="1229" d="M147 322q0 37 10.5 72t25.5 62.5t43 58t49.5 50.5t60 47t60.5 41t63 40q-124 146 -124 250q0 73 38.5 130.5t97 86.5t123.5 29q68 0 128.5 -27.5t100.5 -80.5t40 -120q0 -38 -11.5 -75.5t-30 -67t-46 -59.5t-53.5 -52t-57 -45l204 -274q25 70 43 170l147 -20 q-9 -56 -33.5 -135.5t-57.5 -147.5q121 -120 203 -182l-87 -104q-97 74 -191 168q-131 -152 -319 -152q-51 0 -100.5 8t-98 24.5t-89.5 44t-72.5 63.5t-49 87t-17.5 110zM292 322q0 -47 19 -84t48 -59t67.5 -36.5t74.5 -19.5t73 -5q122 0 224 129l-252 340l-35 -20 q-39 -24 -61.5 -39t-56.5 -42t-53 -49t-33.5 -53t-14.5 -62zM480 954q0 -40 26 -84t72 -98q66 48 103 93.5t37 95.5q0 23 -12 42t-30.5 31t-40 18.5t-41.5 6.5q-43 0 -78.5 -29.5t-35.5 -75.5z" />
<glyph unicode="'" horiz-adv-x="360" d="M118 1189h125l-14 -336h-97z" />
<glyph unicode="(" horiz-adv-x="501" d="M132 513q0 92 15.5 187t38 171t53.5 150.5t57 125t55 97.5l122 -66q-20 -32 -39 -70.5t-40 -88.5t-38.5 -107t-32 -120t-23 -135t-8.5 -144q0 -107 17.5 -212t46.5 -190.5t57.5 -149.5t59.5 -115l-124 -66q-36 58 -68.5 124.5t-69 161.5t-58 211.5t-21.5 235.5z" />
<glyph unicode=")" horiz-adv-x="571" d="M100 -122q31 51 59.5 115t57.5 149t46 190.5t17 212t-17 211.5t-46 190.5t-57.5 149.5t-59.5 115l123 66q36 -59 69 -125t69 -161t57.5 -211.5t21.5 -235.5q0 -114 -21.5 -229t-57.5 -210t-69 -163t-70 -129z" />
<glyph unicode="*" horiz-adv-x="706" d="M87 985l35 113l169 -55v172h129v-172l166 55l35 -113l-168 -53l108 -139l-102 -75l-106 139l-104 -139l-97 78l101 136z" />
<glyph unicode="+" horiz-adv-x="845" d="M118 411v127h235v233h139v-233h236v-127h-236v-233h-139v233h-235z" />
<glyph unicode="," horiz-adv-x="499" d="M132 102q0 41 29 69.5t71 28.5q27 0 49.5 -13.5t35.5 -35.5q21 -35 21 -83q0 -61 -44 -123.5t-122 -102.5l-8 40q23 21 40.5 51t23.5 50t4 20q-42 0 -71 28t-29 71z" />
<glyph unicode="-" horiz-adv-x="860" d="M147 415v103h568v-103h-568z" />
<glyph unicode="." horiz-adv-x="432" d="M118 94q0 38 30.5 68.5t69.5 30.5q36 0 67 -30.5t31 -68.5q0 -39 -31 -69.5t-67 -30.5q-39 0 -69.5 30.5t-30.5 69.5z" />
<glyph unicode="/" horiz-adv-x="712" d="M58 15l465 1174l131 -51l-463 -1176z" />
<glyph unicode="0" horiz-adv-x="1100" d="M113 583q0 98 12 182t43 163t79.5 134.5t126 88.5t176.5 33q72 0 132 -17.5t104.5 -48t79 -75t57.5 -95.5t38 -112.5t21 -123t6 -129.5q0 -97 -12.5 -180t-44 -160.5t-80 -132.5t-125 -89t-174.5 -37h-3q-99 3 -175.5 36.5t-125 88.5t-79.5 132t-43.5 160.5t-12.5 181.5z M255 583q0 -76 7.5 -140t28 -127.5t52.5 -107.5t85 -71t122 -27t122 27.5t85 72t52.5 108t28 127.5t7.5 138q0 77 -7 141.5t-27 127t-52.5 106t-85.5 70.5t-123 27q-70 -1 -122.5 -27.5t-85 -69.5t-52.5 -105.5t-27.5 -127t-7.5 -142.5z" />
<glyph unicode="1" horiz-adv-x="829" d="M118 976q79 36 157 88t108 77t40 35h125v-1176h-143v989q-106 -74 -230 -131z" />
<glyph unicode="2" horiz-adv-x="1100" d="M116 2v108q0 148 139 273q73 61 268 170q44 24 70 38.5t64 38t60.5 41t49 42t41 47t24 49.5t9.5 55q0 55 -25 95t-69 62t-95 32t-110 10q-55 0 -101.5 -14.5t-83 -43t-57 -75.5t-20.5 -108h-142q0 90 31.5 161.5t87 116t128 67.5t157.5 23q65 0 126 -10.5t119 -35 t101.5 -61t70 -93t26.5 -126.5q0 -33 -8 -64.5t-18.5 -57.5t-32 -53.5t-39.5 -47.5t-50 -45t-53.5 -40.5t-60.5 -39t-60.5 -36t-63.5 -35.5q-5 -3 -7 -5q-58 -31 -90.5 -50t-77.5 -48.5t-75 -55.5q-82 -68 -91 -155h727v-129h-869z" />
<glyph unicode="3" horiz-adv-x="1100" d="M113 378h142q2 -87 43.5 -147.5t106 -88.5t145.5 -28t146 25t107 80t42 132q0 76 -41.5 130.5t-107.5 80t-146 24.5h-99v127h98q51 2 94 12.5t80.5 30t58.5 53.5t21 80q0 44 -22 78t-59.5 53.5t-80.5 29.5t-91 10q-49 0 -91.5 -11t-78 -33.5t-57.5 -62t-25 -91.5h-142 q3 82 36.5 146t88.5 102.5t123.5 58.5t145.5 20q50 0 97.5 -8t91.5 -23.5t81 -41t64.5 -57.5t43 -75.5t15.5 -94.5q0 -70 -36 -134t-99 -103q84 -48 132 -127.5t48 -173.5q0 -86 -36 -156.5t-97 -115t-139.5 -68.5t-165.5 -24q-89 0 -167 25.5t-138 73t-95.5 123 t-36.5 169.5z" />
<glyph unicode="4" horiz-adv-x="1100" d="M114 224v108l608 839h128v-818h136v-129h-136v-224h-140v224h-596zM299 353h411v565z" />
<glyph unicode="5" horiz-adv-x="993" d="M83 508l71 663h725v-129h-594q-5 -45 -18 -141t-19 -166q101 58 259 58q204 0 320 -106t116 -298q0 -193 -115 -299t-321 -106q-314 0 -418 257l131 48q42 -97 113 -138t174 -41q143 0 219 70t76 209q0 92 -35 154t-100.5 92t-159.5 30q-113 0 -183 -32t-101 -108z" />
<glyph unicode="6" horiz-adv-x="1101" d="M125 586q0 73 7.5 139.5t24 127.5t41 112t60 92.5t80 70t101.5 44.5t123 16q143 0 245.5 -81t153.5 -235l-132 -44q-78 231 -267 231q-60 0 -108 -20.5t-80.5 -56.5t-55.5 -88t-34.5 -111t-15.5 -130q57 56 136 85.5t167 29.5q87 0 162.5 -30t129 -81.5t84.5 -124 t31 -154.5q0 -117 -54.5 -207.5t-146.5 -138t-206 -47.5q-95 2 -170 32t-126.5 82.5t-85.5 127.5t-49 163.5t-15 195.5zM305 378q0 -117 77 -191t189 -74q114 0 189 75t75 190q0 77 -35.5 137.5t-95.5 92.5t-133 32q-115 0 -190.5 -74t-75.5 -188z" />
<glyph unicode="7" horiz-adv-x="1100" d="M114 1045v129h872v-108q-234 -311 -393 -715q-21 -53 -39 -110t-29.5 -100.5t-20 -80t-12.5 -55t-4 -20.5l-139 30q0 25 6 45v-2q43 176 106 338q145 370 342 649h-689z" />
<glyph unicode="8" horiz-adv-x="1100" d="M113 347q0 94 49 174.5t131 128.5q-62 40 -99 103t-37 134q0 50 16 93.5t43.5 76t64.5 57.5t81.5 40.5t91.5 23.5t96 8q50 0 97.5 -8t91.5 -23.5t81 -40.5t64.5 -57.5t43 -76t15.5 -93.5q0 -73 -35.5 -135t-99.5 -102q84 -47 132 -127.5t48 -175.5q0 -86 -36 -156 t-97 -114t-139.5 -68t-165.5 -24q-88 0 -166 23.5t-139 67.5t-96.5 114t-35.5 157zM255 347.5q0 -76.5 42 -131.5t107.5 -79.5t145.5 -24.5q81 0 146.5 25t107 79.5t41.5 130.5t-41.5 131t-107 80t-146.5 25q-79 0 -144.5 -24.5t-108 -79.5t-42.5 -131.5zM299 887 q0 -46 22 -80.5t58.5 -53.5t79.5 -28.5t91 -9.5t91 9.5t80.5 29t59.5 54t22 79.5q0 44 -22 78t-59.5 53.5t-80.5 29t-91 9.5q-37 0 -72 -5.5t-68 -18.5t-57 -32.5t-39 -48.5t-15 -65z" />
<glyph unicode="9" horiz-adv-x="1101" d="M125 797q0 117 54 207t146 137.5t206 47.5q95 -2 170.5 -32t127 -82.5t85 -127.5t49 -163.5t15.5 -195.5q0 -104 -15 -192.5t-48.5 -165t-83.5 -130t-124 -83.5t-167 -30q-143 0 -245.5 80.5t-155.5 235.5l134 44q78 -231 267 -231q270 0 293 405q-58 -56 -136.5 -85 t-165.5 -29q-69 0 -132 19t-112.5 54.5t-86 83t-56 107.5t-19.5 126zM267 797q0 -117 76.5 -190t187.5 -73q116 0 191 74.5t75 188.5q0 77 -35.5 138t-96 93.5t-134.5 32.5q-115 0 -189.5 -74.5t-74.5 -189.5z" />
<glyph unicode=":" horiz-adv-x="461" d="M132 94q0 38 30.5 68.5t69.5 30.5q37 0 67.5 -30.5t30.5 -68.5q0 -39 -30.5 -69.5t-67.5 -30.5q-25 0 -48 14t-37.5 37t-14.5 49zM132 673.5q0 38.5 30.5 68.5t69.5 30q24 0 46.5 -13.5t37 -37t14.5 -48.5q0 -38 -30.5 -68t-67.5 -30q-39 0 -69.5 30t-30.5 68.5z" />
<glyph unicode=";" horiz-adv-x="469" d="M118 710q0 39 30.5 68.5t69.5 29.5q36 0 67 -30t31 -68t-31 -68.5t-67 -30.5q-39 0 -69.5 30t-30.5 69zM132 102q0 41 29 69.5t71 28.5q27 0 49.5 -13.5t35.5 -35.5q21 -35 21 -83q0 -61 -44 -123.5t-122 -102.5l-8 40q23 21 40.5 51t23.5 50t4 20q-42 0 -71 28t-29 71z " />
<glyph unicode="&#x3c;" horiz-adv-x="864" d="M118 426v102l572 259l53 -128l-461 -182l465 -186l-57 -127z" />
<glyph unicode="=" horiz-adv-x="862" d="M118 247v137h520v-137h-520zM118 567v137h520v-137h-520z" />
<glyph unicode="&#x3e;" horiz-adv-x="821" d="M75 648l57 127l572 -262v-102l-572 -259l-53 128l461 183z" />
<glyph unicode="?" horiz-adv-x="921" d="M88 914q0 193 96 296t275 103q54 0 107.5 -12t101.5 -37t85 -60t58.5 -83.5t21.5 -104.5q0 -58 -13 -109.5t-39.5 -98t-49 -77t-58.5 -73.5q-32 -37 -54 -69t-44 -76t-33.5 -96.5t-11.5 -112.5h-140q-12 206 173 436q61 71 95.5 137.5t34.5 138.5q0 42 -22.5 76t-58 53.5 t-75 30t-78.5 10.5q-113 0 -167.5 -71t-54.5 -201h-149zM353 101q0 43 31 72.5t77 29.5q45 0 76 -29.5t31 -72.5t-31 -72t-76 -29q-46 0 -77 29t-31 72z" />
<glyph unicode="@" horiz-adv-x="1680" d="M118 486q0 147 59.5 281.5t158.5 231.5t233.5 154.5t278.5 57.5q120 0 231 -38.5t198 -107.5t152 -159.5t99.5 -198.5t34.5 -221q0 -47 -5.5 -92t-18.5 -91t-33.5 -85.5t-51 -75t-69.5 -59.5q-68 -43 -161 -43q-64 0 -115.5 30.5t-75.5 92.5q-111 -125 -265 -125 q-58 0 -106 13.5t-82.5 38t-60.5 57.5t-41 73.5t-22.5 84t-7.5 91.5q0 46 7 98q9 72 30.5 136t57 120t82 97t111 64.5t139.5 23.5q61 0 118 -29t99 -81l28 89l130 -20l-97 -687q-2 -19 18.5 -28.5t51.5 -9.5q53 0 83 22q27 20 49 54.5t36.5 75t22.5 83.5t8 82 q0 122 -48 236.5t-130 195.5q-80 77 -182.5 120.5t-213.5 43.5q-118 0 -227 -48t-188.5 -128t-127 -190.5t-47.5 -229.5t47.5 -229.5t127 -190.5t188.5 -128t227 -48q88 0 184.5 29.5t178.5 82.5l72 -112q-93 -60 -209.5 -94.5t-225.5 -34.5q-148 0 -284 60t-233.5 159 t-155 231.5t-57.5 274.5zM588 392q0 -49 10 -89.5t30.5 -72t56 -49t83.5 -17.5q52 0 95.5 19.5t73.5 51t52.5 75.5t36 89t21.5 95q7 47 7 87q0 50 -9.5 89.5t-30 71t-56 49t-83.5 17.5q-52 0 -95.5 -20t-73.5 -52t-53 -75.5t-36.5 -88.5t-20.5 -95q-8 -55 -8 -85z" />
<glyph unicode="A" horiz-adv-x="1147" d="M44 23l457 1150h149l453 -1150l-133 -51l-145 370h-503l-146 -370zM378 474h394l-195 530z" />
<glyph unicode="B" horiz-adv-x="1170" d="M147 0v1174h428q68 0 126.5 -10t110.5 -34t89 -60t58 -90.5t21 -123.5q0 -155 -130 -233q98 -39 151 -116t53 -175q0 -332 -441 -332h-466zM292 132h321q59 0 101 4.5t80.5 17t62 34.5t37.5 58t14 86q0 51 -18 89.5t-46.5 60.5t-70.5 35t-82 17t-89 4h-310v-406zM292 675 h294q249 0 249 181q0 44 -14 77t-37.5 53.5t-57.5 33.5t-70.5 17.5t-80.5 4.5h-283v-367z" />
<glyph unicode="C" horiz-adv-x="1216" d="M132 574q0 97 22 188.5t68 171.5t111 140t156.5 94.5t200.5 34.5q103 0 185.5 -31.5t140.5 -85.5t108 -137l-113 -89q-58 104 -134 158t-187 54q-82 0 -151 -27.5t-116.5 -75t-80.5 -111t-48.5 -135.5t-15.5 -149q0 -73 15.5 -140.5t49 -127.5t81 -105t116 -71t150.5 -26 q111 0 187.5 47t140.5 141l110 -86q-52 -77 -112 -126.5t-142 -78t-184 -28.5q-108 0 -200 33t-157 90t-110.5 133.5t-68 163.5t-22.5 181z" />
<glyph unicode="D" horiz-adv-x="1154" d="M147 0v1174h397q110 0 197 -30.5t145 -83t96 -127.5t54.5 -160.5t16.5 -185.5q0 -99 -17 -184t-55 -160.5t-96 -128.5t-144.5 -83.5t-196.5 -30.5h-397zM292 132h252q363 0 363 455t-363 455h-252v-910z" />
<glyph unicode="E" horiz-adv-x="1075" d="M147 0v1174l798 -1v-131h-653v-386h595v-132h-595v-392h682v-132h-827z" />
<glyph unicode="F" horiz-adv-x="1003" d="M147 2v1174l798 -2v-132h-653v-384h595v-133h-595v-523h-145z" />
<glyph unicode="G" horiz-adv-x="1269" d="M132 587q0 80 15 155t44 144.5t75.5 127t107 100t141.5 66t175 23.5q103 0 186 -30t141.5 -81.5t108.5 -130.5l-113 -88q-58 98 -134.5 148.5t-188.5 50.5q-82 0 -150.5 -27t-116 -73t-81 -108t-49 -131.5t-15.5 -145.5q0 -74 17 -144.5t51.5 -132.5t82.5 -108t115.5 -73 t145.5 -27q174 0 302 164v258h-340v132h486v-656h-116l-30 102q-60 -67 -129.5 -98.5t-172.5 -31.5q-108 0 -200 34t-157 92.5t-110.5 137t-68 167.5t-22.5 184z" />
<glyph unicode="H" horiz-adv-x="1204" d="M147 0v1174h145v-518h621v518h146v-1174h-146v524h-621v-524h-145z" />
<glyph unicode="I" horiz-adv-x="497" d="M176 0v1174h146v-1174h-146z" />
<glyph unicode="J" horiz-adv-x="877" d="M44 286h145q0 -83 52 -132.5t129 -49.5q83 0 134.5 42t51.5 118v910h146v-910q0 -93 -44.5 -160t-118.5 -99t-169 -32q-64 0 -121.5 20t-104 57.5t-74.5 98.5q-26 59 -26 132v5z" />
<glyph unicode="K" horiz-adv-x="1111" d="M147 0v1174h145v-568l618 593l94 -98l-466 -449l516 -588l-105 -93l-515 584l-142 -138v-417h-145z" />
<glyph unicode="L" horiz-adv-x="915" d="M147 0v1174h146v-1042h594v-132h-740z" />
<glyph unicode="M" horiz-adv-x="1385" d="M147 0v1174h171l373 -942l377 942h170v-1174h-145v883l-328 -849h-147l-326 849v-883h-145z" />
<glyph unicode="N" horiz-adv-x="1186" d="M147 0v1174h133l615 -902v902h146v-1174h-133l-616 903v-903h-145z" />
<glyph unicode="O" horiz-adv-x="1320" d="M102 586q0 66 12.5 130t36.5 123.5t59 112.5t82 96.5t102.5 74.5t123.5 48.5t142 17.5q105 0 195.5 -33.5t156 -91t113 -133.5t71 -164.5t23.5 -180.5t-23.5 -179.5t-71 -164t-113.5 -134t-156.5 -90.5t-194.5 -33q-103 0 -193 33t-156 90.5t-113.5 133.5t-71.5 164 t-24 180zM248 586q0 -60 12 -118t35.5 -110.5t59 -96.5t80.5 -76.5t103 -50.5t122 -18q78 0 145.5 26t116 70.5t83 104.5t51.5 128t17 141q0 71 -16.5 139.5t-51.5 128.5t-83 105t-115.5 71.5t-146.5 26.5q-77 0 -144.5 -26.5t-116 -71.5t-83 -105t-51.5 -128.5t-17 -139.5z " />
<glyph unicode="P" horiz-adv-x="1069" d="M147 0v1174h431q69 0 125.5 -8t109.5 -29.5t89.5 -56.5t58 -91.5t21.5 -131.5q0 -76 -23 -133.5t-59.5 -91t-90.5 -54t-106.5 -27.5t-116.5 -7h-294v-544h-145zM292 677h294q27 0 44.5 0.5t44 2.5t43.5 7.5t37.5 13.5t33.5 21.5t25 32t17.5 44.5t5.5 58q0 37 -7.5 65.5 t-19.5 48t-32.5 33t-40 21t-49 11.5t-53 5t-57.5 1h-286v-365z" />
<glyph unicode="Q" horiz-adv-x="1350" d="M118 586q0 94 23 184t70.5 168.5t113 137t156 92.5t194.5 34t194.5 -34t156.5 -92.5t113 -137t70.5 -168.5t23.5 -184q0 -122 -45 -242.5t-124 -208.5q23 -16 51.5 -37t60 -44.5t48.5 -36.5l-81 -110l-189 139q-125 -75 -279 -75q-103 0 -193.5 34t-156.5 93t-113 137 t-70.5 167.5t-23.5 183.5zM262 586q0 -47 7 -92t20 -88t33.5 -82t46 -72.5t58.5 -61t70.5 -47t83 -30.5t94.5 -11q80 0 157 31l-142 104l79 110l182 -131q66 69 101.5 165.5t35.5 204.5q0 73 -17 143.5t-51.5 132.5t-83 108.5t-116 74t-145.5 27.5q-44 0 -85 -9t-75.5 -25 t-65.5 -38.5t-56.5 -50.5t-46.5 -60.5t-36.5 -68.5t-26 -74.5t-16 -79t-5.5 -80.5z" />
<glyph unicode="R" horiz-adv-x="1172" d="M147 0v1174h497q67 0 125.5 -10t110.5 -34t89 -59.5t58.5 -90t21.5 -123.5q0 -89 -46.5 -158t-134.5 -106q78 -58 112.5 -133.5t43.5 -176.5q4 -44 6.5 -62t10.5 -52.5t22 -59.5t36 -49l-104 -95q-35 38 -58 77.5t-34 81.5t-15.5 72t-8.5 76q-4 52 -7 77.5t-13.5 61 t-27.5 56.5l1 -2q-34 41 -88.5 60t-150.5 19h-301v-544h-145zM292 677h302h47.5t45.5 1.5t44.5 4t40 7t37 11.5t31.5 16.5t27 23t19.5 30.5t13.5 38.5t4 47.5q0 44 -14 77.5t-37.5 53.5t-58 32.5t-70.5 17t-80 4.5h-352v-365z" />
<glyph unicode="S" horiz-adv-x="1166" d="M118 374l144 21q20 -144 107 -218.5t217 -74.5q56 0 110.5 13t102 38t76.5 69.5t29 101.5q0 29 -10.5 53.5t-26.5 42.5t-42.5 34.5t-49.5 27t-58 21.5t-57.5 16.5t-57.5 13.5l3 -2l-17 5q-8 2 -25 6q-53 13 -81 20.5t-78 24t-79 31.5t-66.5 40.5t-57.5 53t-34.5 67 t-14.5 84.5q0 72 26 130t69.5 97t102 65t122 38t131.5 12q111 0 201 -42t149.5 -128t74.5 -206l-143 -19q-17 130 -92.5 196.5t-189.5 66.5q-141 0 -223 -56.5t-82 -153.5q0 -22 7 -42t21.5 -36t30.5 -29t40.5 -24t44.5 -19.5t49 -16.5t48 -12.5t47 -10.5l16 -5q6 -1 18 -4 q55 -14 84.5 -22t82 -25.5t82.5 -33.5t69 -42.5t60 -56t36 -71t15 -89.5q0 -72 -27.5 -132t-73 -100t-106 -67.5t-125 -40t-131.5 -12.5h-5q-117 0 -213 44q-98 45 -165 137t-85 221z" />
<glyph unicode="T" horiz-adv-x="972" d="M44 1042v131h885v-131h-367v-1042h-145v1042h-373z" />
<glyph unicode="U" horiz-adv-x="1173" d="M132 374v800h146v-800q0 -129 80 -201t225 -72q314 0 314 283v790h145v-790q0 -204 -120.5 -309.5t-338.5 -105.5q-137 0 -239.5 49.5t-157 141.5t-54.5 214z" />
<glyph unicode="V" horiz-adv-x="1147" d="M44 1151l132 51l397 -1032l397 1032l133 -51l-457 -1151h-147z" />
<glyph unicode="W" horiz-adv-x="1512" d="M44 1159l139 36l257 -948l247 926h154l245 -919l241 941l142 -36l-308 -1159h-147l-249 939l-252 -939h-146z" />
<glyph unicode="X" horiz-adv-x="1142" d="M44 52l436 553l-399 516l112 87l378 -490l380 490l110 -87l-401 -515q74 -94 224.5 -283t214.5 -271l-111 -86l-417 528q-70 -89 -212 -270t-203 -259z" />
<glyph unicode="Y" horiz-adv-x="1140" d="M44 1120l110 87l415 -554l417 554l110 -87l-453 -596v-524h-145v524z" />
<glyph unicode="Z" horiz-adv-x="1060" d="M88 0v126l695 916h-667v132h858v-125l-696 -917h696v-132h-886z" />
<glyph unicode="[" horiz-adv-x="495" d="M132 -170v1400h306v-116h-160v-1166h160v-118h-306z" />
<glyph unicode="\" horiz-adv-x="712" d="M58 1138l133 51l463 -1174l-131 -53z" />
<glyph unicode="]" horiz-adv-x="495" d="M58 -52h160v1167h-160v118h306v-1401h-306v116z" />
<glyph unicode="^" horiz-adv-x="862" d="M102 719l278 483h106l274 -483l-143 -51l-185 362l-189 -365z" />
<glyph unicode="_" horiz-adv-x="567" d="M0 37h568v-106h-568v106z" />
<glyph unicode="`" horiz-adv-x="588" d="M102 1174h202l182 -266h-148z" />
<glyph unicode="a" horiz-adv-x="1000" d="M118 251q0 52 20 96t54.5 73.5t76 52t89 35t89.5 18t81 5.5q6 0 18 2q132 20 150 38v17q0 92 -58 143.5t-158 51.5q-99 0 -160 -60t-63 -165l-139 9q9 165 105 254t257 89q160 0 260 -89q95 -85 95 -219v-14v-413q0 -18 36 -46.5t72 -43.5l-42 -112q-42 13 -98 57.5 t-84 94.5q-132 -142 -266 -142q-113 0 -187.5 29.5t-111 89t-36.5 149.5zM257 251q0 -21 2.5 -37t9.5 -33t21 -29.5t35 -22.5t53.5 -15.5t74.5 -5.5q39 0 72.5 10t57.5 26t44 38.5t32.5 46.5t21 50t12 49.5t3.5 45.5v60q-23 -6 -45.5 -10.5t-55.5 -9.5t-45 -7q-4 -1 -12 -2 q-35 -6 -54 -9.5t-53.5 -11.5t-54.5 -15t-45.5 -19t-39.5 -25.5t-24 -32.5t-10 -41z" />
<glyph unicode="b" horiz-adv-x="1053" d="M162 0v1209h141v-420q52 55 118 89.5t129.5 34.5t117.5 -16.5t94 -47.5t71 -73.5t50.5 -94.5t29 -109.5t9.5 -120.5q0 -77 -13.5 -145t-43 -127t-72.5 -101.5t-105 -66.5t-138 -24q-68 0 -127.5 32t-119.5 89l-8 -108h-133zM304 451q0 -57 7.5 -105.5t25 -92t44.5 -74.5 t68 -48.5t94 -17.5q64 0 112 26.5t75 74.5t40 106.5t13 130t-13 130t-40 106.5t-74.5 74.5t-112.5 26.5t-113 -27.5t-74.5 -76t-39 -107t-12.5 -126.5z" />
<glyph unicode="c" horiz-adv-x="982" d="M118 449q0 96 26.5 179.5t76.5 147t129.5 100t179.5 36.5q113 0 202 -49.5t149 -144.5l-115 -72q-89 141 -236 141q-69 0 -121.5 -26.5t-85 -73.5t-49 -107t-16.5 -131q0 -72 16.5 -132.5t49 -107t85.5 -72t122 -25.5q147 0 235 141l115 -74q-60 -95 -148.5 -144.5 t-201.5 -49.5q-100 0 -180 36.5t-130.5 99.5t-76.5 146.5t-26 181.5z" />
<glyph unicode="d" horiz-adv-x="1051" d="M132 451q0 76 13.5 143.5t42.5 126.5t72 101.5t105 66.5t137 24q146 0 250 -124v422h139v-1211h-132l-7 116q-55 -57 -120 -93t-130 -36q-75 0 -137 24t-105 66.5t-72 101.5t-42.5 127t-13.5 145zM270 450.5q0 -71.5 12.5 -130t39.5 -106.5t75 -74.5t112 -26.5 q52 0 93.5 17.5t68.5 48.5t44.5 74.5t25 92t7.5 105.5q0 68 -12.5 126.5t-39.5 107t-74.5 76t-112 27.5t-112.5 -26.5t-75 -74.5t-39.5 -106.5t-12.5 -130z" />
<glyph unicode="e" horiz-adv-x="1072" d="M132 448q0 98 27 181.5t78.5 147t132.5 99.5t182 36q173 0 278 -94t125 -265v-169h-679q9 -134 75.5 -205t200.5 -71q100 0 164 47.5t98 152.5l131 -41q-86 -283 -393 -283q-420 3 -420 464zM276 511h540v31q-17 114 -85 179.5t-179 65.5q-120 0 -191.5 -75.5 t-84.5 -200.5z" />
<glyph unicode="f" horiz-adv-x="563" d="M102 766v128h122v130q0 102 55 153q12 12 26 20.5t25.5 14t30.5 8.5t29.5 5t34.5 1.5t33 -1t38 -2t38 -2.5v-122q-33 7 -74 7h-16q-50 -2 -66 -18q-12 -12 -12 -64v-130h141v-128h-141v-766h-142v766h-122z" />
<glyph unicode="g" horiz-adv-x="1037" d="M132 446q0 78 13.5 146t42.5 126.5t71.5 101t104.5 66.5t138 24q133 0 250 -132l7 105h132v-905q-8 -157 -109 -242t-269 -85q-160 0 -261 78t-119 237l140 11q23 -201 240 -201q105 0 172 54.5t67 150.5v127q-126 -125 -235 -125q-8 0 -16 1h-14q-56 0 -104 14 q-54 17 -94 48t-70 74t-49 95.5t-28.5 110.5t-9.5 120zM270 446q0 -71 12.5 -130t40 -107t75 -74.5t111.5 -26.5q54 0 96 20t68.5 52.5t43.5 77.5t24 91t7 97q0 70 -12.5 128t-39.5 106.5t-75 75.5t-112 27t-112 -26.5t-75 -74t-39.5 -106t-12.5 -130.5z" />
<glyph unicode="h" horiz-adv-x="993" d="M162 0v1211h139v-418q116 121 220 121q157 0 249 -84t92 -236v-594h-141v594q0 96 -53.5 145t-154.5 49q-50 0 -91.5 -22t-67 -58.5t-39.5 -82t-14 -94.5v-531h-139z" />
<glyph unicode="i" horiz-adv-x="490" d="M176 0v888h138v-888h-138zM176 999v206h138v-206h-138z" />
<glyph unicode="j" horiz-adv-x="515" d="M29 -204l100 -2q39 0 53 17.5t16 61.5v1016h141v-1016q0 -90 -52 -145.5t-144 -55.5q-31 0 -114 4v120zM198 999v206h140v-206h-140z" />
<glyph unicode="k" horiz-adv-x="920" d="M162 0v1211h141v-723q17 17 190 182t254 244l92 -94l-346 -332q69 -79 204 -232t179 -204l-101 -87l-379 430l-93 -90v-305h-141z" />
<glyph unicode="l" horiz-adv-x="520" d="M191 0v1215h139v-1215h-139z" />
<glyph unicode="m" horiz-adv-x="1415" d="M147 0v882h133l8 -91q115 123 221 123q72 0 131.5 -41.5t93.5 -112.5q109 154 238 154q141 0 226.5 -91t85.5 -230v-593h-138v593q0 56 -21 99.5t-65 69.5t-105 26q-57 0 -99 -39t-60.5 -95.5t-18.5 -119.5v-534h-141v656q0 132 -143 132q-65 0 -112.5 -38.5t-70 -95 t-22.5 -120.5v-534h-141z" />
<glyph unicode="n" horiz-adv-x="976" d="M147 0v881h131l7 -103q123 129 228 129q72 0 133 -21t105.5 -60t69 -98.5t24.5 -133.5v-594h-141v594q0 96 -52.5 145t-152.5 49q-68 0 -118 -38t-73 -95.5t-23 -123.5v-531h-138z" />
<glyph unicode="o" horiz-adv-x="1030" d="M102 446q0 97 26.5 180.5t76.5 147t129 100t179 36.5q101 0 180.5 -35.5t130.5 -98.5t77.5 -147t26.5 -183q0 -97 -26.5 -181t-76.5 -147q-49 -64 -129 -100q-77 -35 -174 -35h-5.5h-4.5q-98 0 -176 35q-80 36 -130.5 99.5t-77 147.5t-26.5 181zM243 446 q0 -72 16.5 -132.5t49 -107t86 -72.5t122.5 -26t122 26t85 72.5t47.5 107t15.5 132.5q0 74 -16 134.5t-48 106.5t-85.5 72t-124.5 26q-68 0 -120.5 -27t-85 -73.5t-48.5 -106.5t-16 -132z" />
<glyph unicode="p" horiz-adv-x="1037" d="M147 -330v1211h132l7 -116q55 56 120 92.5t130 36.5q75 0 137 -24.5t105 -67t72 -101t42.5 -126.5t13.5 -145q0 -76 -13.5 -144t-42.5 -126.5t-72 -101t-105 -67t-137 -24.5q-146 0 -250 124v-421h-139zM289 430q0 -54 7.5 -102t25.5 -92t44.5 -75t68 -49.5t93.5 -18.5 q65 0 112.5 26.5t74.5 74t40 106.5t13 130t-13 130t-40 107t-74.5 74.5t-112.5 26.5q-52 0 -93.5 -18t-68.5 -48.5t-44.5 -74t-25 -92t-7.5 -105.5z" />
<glyph unicode="q" horiz-adv-x="1038" d="M132 430q0 77 13.5 145t43 126.5t72 101t104.5 67t138 24.5q69 0 128.5 -32.5t120.5 -89.5l7 109h134v-1210h-141v420q-52 -55 -119 -89.5t-130 -34.5q-76 0 -138 24.5t-104.5 67t-72 101t-43 126.5t-13.5 144zM272 430q0 -57 7.5 -105.5t25 -92t44.5 -74t68.5 -48 t93.5 -17.5q64 0 112 27.5t75 76t39.5 106.5t12.5 127q0 57 -7.5 105.5t-25.5 92t-45 74t-68 48.5t-93 18q-65 0 -112.5 -26.5t-74.5 -74.5t-39.5 -107t-12.5 -130z" />
<glyph unicode="r" horiz-adv-x="671" d="M176 0v882h132l8 -103q1 2 26 25.5t31.5 29t29.5 23t37.5 23t38 12t46.5 6.5q39 0 88 -3l-7 -130q-13 0 -35 1.5t-38 3t-20 1.5q-53 0 -92.5 -23.5t-61.5 -63.5t-32.5 -86.5t-10.5 -98.5v-499h-140z" />
<glyph unicode="s" horiz-adv-x="962" d="M118 295l137 19q15 -100 75.5 -151t151.5 -51q96 0 159 36t63 105q0 18 -7 34t-17 27.5t-29 23t-33 18t-39.5 14.5t-38.5 11.5l-39 10.5l2 -2q-3 1 -5.5 2t-4 1.5l-4.5 1.5t-7 1q-31 8 -49.5 13t-51 14t-52 17t-47.5 21t-45.5 26t-37 31t-30.5 37.5t-18 45t-7 53.5 q0 68 30 119.5t81 81t112 44t129 14.5q138 0 227 -76.5t106 -211.5l-138 -17q-12 90 -63.5 135t-131.5 45q-41 0 -76.5 -7t-67.5 -21.5t-50.5 -41.5t-18.5 -64q0 -21 10.5 -38.5t27.5 -30t47.5 -24.5t60.5 -20t78 -20l12 -3q32 -9 49 -14t49 -15t50.5 -18t45.5 -21.5 t43.5 -27t35.5 -32t29 -38.5t17 -45.5t7 -53.5q0 -65 -32.5 -118t-85.5 -85t-117 -48q-57 -15 -114 -15h-14q-100 1 -177 37.5t-125.5 105.5t-61.5 165z" />
<glyph unicode="t" horiz-adv-x="650" d="M102 789v129h135v291h141v-291h127v-129h-127v-591q0 -40 22 -58t88 -18h60v-120q-7 0 -37.5 -1t-36.5 -1q-59 0 -97 7t-70 27.5t-48.5 60.5t-21.5 103v591h-135z" />
<glyph unicode="u" horiz-adv-x="976" d="M132 286v595h141v-595q0 -96 52.5 -144.5t152.5 -48.5q51 0 93 22t68 58.5t40 82t14 93.5v532h138v-881h-131l-7 102q-124 -129 -229 -129q-148 0 -240 83t-92 230z" />
<glyph unicode="v" horiz-adv-x="912" d="M44 863l129 50l284 -751l284 751l128 -50l-346 -863h-134z" />
<glyph unicode="w" horiz-adv-x="1216" d="M58 869l133 35l181 -681l172 658h141l169 -658l170 681l134 -34l-235 -870h-134l-176 658l-174 -658h-134z" />
<glyph unicode="x" horiz-adv-x="906" d="M44 48l323 410l-295 380l107 82l274 -368l275 368l109 -82l-297 -380l323 -410l-107 -82l-303 400l-302 -400z" />
<glyph unicode="y" horiz-adv-x="930" d="M58 863l129 51l280 -711l277 711l128 -51l-407 -1025q-25 -63 -63 -100t-80.5 -50.5t-101.5 -13.5q-11 0 -107 6v126q66 -4 105 -4q45 0 71.5 18.5t46.5 67.5q8 22 27.5 69.5t29.5 75.5z" />
<glyph unicode="z" horiz-adv-x="849" d="M88 0v106l504 663h-504v128h674v-108l-504 -663h504v-126h-674z" />
<glyph unicode="{" horiz-adv-x="708" d="M118 482v93q38 2 65.5 16t42 40t23 54.5t9 67.5t-0.5 69.5t-3.5 71t-2.5 61.5q0 59 17 105t46.5 78t73 54t94 33t110.5 13v-131q-34 0 -67 -6t-62 -18.5t-47 -34t-17 -50.5q4 -94 0.5 -165t-9.5 -120t-21 -85t-34.5 -58.5t-49.5 -41.5q45 -29 72.5 -66t36.5 -74.5 t11.5 -80.5t-2.5 -84t-6 -85t2 -84q0 -27 18.5 -48.5t48.5 -33t62 -17t64 -5.5v-133q-54 1 -102.5 11.5t-93 32.5t-76 54.5t-50.5 80t-19 105.5q0 20 2.5 59t4 70t0.5 70.5t-9 69t-22.5 56t-42.5 41t-66 15.5z" />
<glyph unicode="|" horiz-adv-x="507" d="M183 -169v1343h141v-1343h-141z" />
<glyph unicode="}" horiz-adv-x="571" d="M-19 -50q34 0 66.5 6t61.5 18.5t46.5 34t17.5 49.5q-4 162 5.5 252t34.5 138.5t75 79.5q-45 29 -72.5 66t-37 75t-12 81t3 84t6 85t-2.5 84q0 22 -12.5 40t-32.5 29.5t-45.5 19.5t-51 11.5t-50.5 3.5v133q54 -1 102.5 -11.5t92.5 -32.5t76 -54.5t51 -80t19 -106.5 q0 -19 -2.5 -58t-4 -70t-0.5 -70.5t9 -69t22.5 -56t42 -41t66.5 -15.5v-93q-39 -2 -66.5 -16t-42 -40t-22.5 -54.5t-9 -67.5t0.5 -69.5t4 -71t2.5 -62.5q0 -72 -25.5 -126t-72.5 -87t-107 -50t-136 -20v132z" />
<glyph unicode="~" horiz-adv-x="889" d="M118 452q58 161 190 161q34 0 74.5 -11t71 -24.5t65 -24.5t58.5 -11q18 0 40.5 17.5t40.5 58.5l114 -44q-59 -150 -179 -157q-37 -2 -78 8.5t-71.5 24t-68 25t-65.5 11.5q-21 0 -42.5 -18t-34.5 -61z" />
<glyph unicode="&#xad;" horiz-adv-x="860" d="M147 415v103h568v-103h-568z" />
<glyph unicode="&#xe01;" horiz-adv-x="1003" d="M102 619q1 6 3.5 17t14.5 41.5t28 58t47.5 61.5t71 58.5t100 41t131.5 16.5q69 0 127 -14t95.5 -36t66.5 -51t44.5 -56.5t25.5 -56t12.5 -45.5t2.5 -29v-625h-153v609q0 15 -3 33t-16 48t-34.5 53t-64.5 40t-100 17q-54 0 -98.5 -14t-71 -35t-42 -41.5t-17.5 -36.5 l156 -27v-69q-4 -2 -11.5 -5.5t-27 -17.5t-34.5 -31.5t-27 -47t-12 -64.5v-411h-152v388q0 37 15.5 71.5t38 57.5t44.5 40.5t38 26.5l16 8z" />
<glyph unicode="&#xe02;" horiz-adv-x="980" d="M44 648q0 106 81.5 179t200.5 73q49 0 94.5 -17t79.5 -44.5t59.5 -61t40.5 -69.5q-13 -26 -41 -113.5t-38 -135.5v-341h152q9 0 12.5 1t7 8.5t3.5 23.5v734h152v-763q0 -36 -8 -59t-18.5 -35.5t-37 -18t-46.5 -6.5t-65 -1h-305v419q0 15 114 260q-19 46 -64.5 82.5 t-81.5 36.5q-13 0 -37 -2q42 -22 67.5 -63t25.5 -91q0 -72 -51.5 -123t-124.5 -51q-47 0 -86.5 24t-62.5 65t-23 89zM132 644q0 -35 25 -59t59 -24q24 0 43.5 11t30.5 30t11 42q0 36 -24.5 60.5t-60.5 24.5q-33 0 -58.5 -25t-25.5 -60z" />
<glyph unicode="&#xe03;" horiz-adv-x="990" d="M46 593q-1 47 6 88t26 83.5t56 80t92 67.5l115 -74q9 7 46.5 33.5t55.5 38.5q50 -17 86 -44.5t54.5 -58.5t26.5 -59t9 -55q-73 -195 -85 -259v-318h147q10 0 14 1.5t7.5 9t3.5 23.5v733h152v-763q0 -18 -1.5 -32.5t-5.5 -26t-8 -20.5t-13 -15t-15.5 -10.5t-20 -7.5 t-22.5 -4.5t-27.5 -2.5t-29.5 -1h-34h-299v396q0 11 17.5 54t37 85.5t41 88.5t23.5 49q3 9 -2.5 29.5t-16 41.5t-23 39.5t-21.5 24.5l-95 -48l-108 52q-39 -25 -54 -49q24 5 37 5q73 0 124 -51t51 -124q0 -48 -23 -88t-63.5 -63.5t-88.5 -23.5q-71 0 -120.5 51t-51.5 124z M135 593q0 -36 24.5 -60t58.5 -24q36 0 61 24t25 59.5t-25 60.5t-61 25q-22 0 -41 -11.5t-30.5 -31t-11.5 -42.5z" />
<glyph unicode="&#xe04;" horiz-adv-x="1030" d="M132 0v621q0 27 12 62t41.5 76.5t71.5 75t110.5 56t150.5 22.5q70 0 129.5 -15.5t99.5 -41.5t70.5 -57.5t47 -65t25 -61t8.5 -49.5v-623h-152v606q0 25 -6.5 50.5t-23.5 52t-42 47t-65.5 33.5t-90.5 13q-62 0 -109 -19.5t-73 -50t-38.5 -62.5t-12.5 -64v-180l-5 -73 q9 51 33 120t53 120q22 41 62.5 66.5t89.5 25.5q73 0 124 -50.5t51 -123.5q0 -72 -51.5 -123.5t-123.5 -51.5q-83 0 -135 66q-78 -247 -98 -369v-33h-153zM434 511q0 -35 24.5 -59.5t59.5 -24.5t60 24.5t25 59.5t-25 60t-60 25t-59.5 -25t-24.5 -60z" />
<glyph unicode="&#xe05;" horiz-adv-x="1030" d="M132 0v615q0 27 5.5 57.5t24 70.5t47 73t81.5 61.5t121 40.5l102 -80l108 80q70 -11 123 -39t81.5 -60.5t45.5 -73t22 -69.5t5 -58v-618h-152v608q0 25 -1.5 42t-7 42t-16 42.5t-31 35t-48.5 28.5l-129 -65l-124 61q-25 -8 -44 -20t-30 -28.5t-17.5 -30t-9 -35t-3 -33 t-0.5 -33.5v-6v-200l-3 -51q23 122 84 236q22 41 62.5 66.5t89.5 25.5q73 0 124 -50.5t51 -123.5q0 -72 -51.5 -123.5t-123.5 -51.5q-83 0 -135 66q-78 -247 -98 -369v-33h-153zM434 511q0 -35 24.5 -59.5t59.5 -24.5t60 24.5t25 59.5t-25 60t-60 25t-59.5 -25t-24.5 -60z " />
<glyph unicode="&#xe06;" horiz-adv-x="1140" d="M46 593q-1 47 6 88t26 83.5t56 80t92 67.5l115 -74q9 7 46.5 33.5t55.5 38.5q50 -17 86 -44.5t54.5 -58.5t26.5 -59t9 -55q-71 -184 -83 -244v-69q49 -10 100 -38.5t92.5 -66t73.5 -73t55 -70.5v751h151v-781q0 -35 -6 -56.5t-24.5 -38.5t-55 -23t-96.5 -5 q-35 80 -122 172.5t-168 126.5v-193q0 -52 -45.5 -79t-108.5 -27q-87 0 -133 55t-51 139q-4 61 17.5 107.5t65 73t103.5 30.5v42q0 11 57 120.5t60 126.5q3 21 -21 72t-42 63l-95 -48l-108 52q-39 -25 -54 -49q24 5 37 5q73 0 124 -51t51 -124q0 -48 -23 -88t-63.5 -63.5 t-88.5 -23.5q-71 0 -120.5 51t-51.5 124zM135 593q0 -36 24.5 -60t58.5 -24q36 0 61 24t25 59.5t-25 60.5t-61 25q-22 0 -41 -11.5t-30.5 -31t-11.5 -42.5zM291 185q2 -52 30 -78t62 -26q1 0 1 29v172q-36 1 -66 -25t-27 -72z" />
<glyph unicode="&#xe07;" horiz-adv-x="804" d="M58 511l54 104q70 -78 168 -204t162 -214l63 -87v442q-8 -2 -23 -2q-72 0 -123 51t-51 122q0 36 13.5 68.5t37 55.5t56 37t67.5 14q72 0 124 -51t52 -124v-603q0 -18 -1.5 -32.5t-6 -26t-8 -20.5t-12.5 -15t-15.5 -10.5t-20 -7.5t-22 -4.5t-27 -2.5t-29.5 -1h-34h-43 q-24 34 -63.5 91t-140 193t-177.5 227zM398 723q0 -22 11 -41.5t30.5 -30.5t42.5 -11q36 0 60.5 24.5t24.5 58.5q0 36 -24.5 60.5t-60.5 24.5q-23 0 -42.5 -11t-30.5 -30.5t-11 -43.5z" />
<glyph unicode="&#xe08;" horiz-adv-x="906" d="M58 684q7 26 19.5 51t32 51.5t48 49t64 40t83.5 27.5t103 10q82 0 149 -22.5t106 -56t65.5 -75t36.5 -76t10 -62.5v-499q0 -18 -1.5 -32.5t-6.5 -26t-9 -20.5t-13.5 -15.5t-16 -11t-21.5 -7t-24.5 -4.5t-29.5 -2.5t-32 -0.5h-37l-120 326q-42 -38 -98.5 -44.5 t-107.5 21.5q-62 36 -81 106t17 132t105.5 80.5t133.5 -17.5q54 -30 76 -91l98 -280l21 -66l-4 110v327q0 26 -6.5 51t-22 52t-39 47t-62 33t-86.5 13q-104 0 -166 -46t-74 -108zM263.5 435.5q9.5 -34.5 40.5 -52.5q29 -18 62.5 -8.5t50.5 39.5q18 30 9.5 64.5t-38.5 51.5 q-31 17 -64 7.5t-52 -39.5q-18 -28 -8.5 -62.5z" />
<glyph unicode="&#xe09;" horiz-adv-x="975" d="M73 405q0 36 14 68.5t37 55.5t55.5 37t68.5 14q72 0 123.5 -51t51.5 -124v-223q48 79 207 138q27 10 46 30t24 34l4 15v204q0 21 -4.5 42t-14 44t-27.5 43t-42 35.5t-59.5 25t-78.5 9.5q-110 0 -184 -50.5t-87 -114.5l-112 38q9 31 28 62.5t52 63.5t75 56.5t101.5 40 t126.5 15.5q71 0 131 -15.5t100 -41.5t70 -57.5t46.5 -65t24 -61t7.5 -49.5v-241q0 -10 -17.5 -27t-42.5 -33q48 -20 77.5 -63t29.5 -97q0 -72 -51 -123.5t-124 -51.5q-71 0 -122 51.5t-51 123.5v13q-34 -18 -60.5 -43t-40 -47t-22 -42t-10.5 -31l-2 -12h-151v233 q-4 -1 -22 -1q-73 0 -124 50.5t-51 122.5zM163 405q0 -34 24.5 -58.5t60.5 -24.5q23 0 42.5 11t30.5 30.5t11 41.5q0 36 -24.5 60.5t-60 24.5t-60 -24.5t-24.5 -60.5zM646 162q0 -36 24.5 -60.5t58.5 -24.5q36 0 60.5 24.5t24.5 60t-24.5 60.5t-60.5 25q-17 0 -32 -7 t-26.5 -18t-18 -27t-6.5 -33z" />
<glyph unicode="&#xe0a;" horiz-adv-x="966" d="M44 648q0 106 81.5 179t200.5 73q81 0 146.5 -39.5t105.5 -98.5q30 11 58.5 31t49 42.5t38 48t29 48t19.5 41t12 29.5l4 11l125 -64q-2 -6 -6.5 -17.5t-21.5 -43t-37.5 -58t-57 -54t-77.5 -41.5q120 -61 120 -105v-510q0 -18 -1 -32.5t-5.5 -26t-8.5 -20.5t-13 -15 t-15 -10.5t-19.5 -7.5t-22 -4.5t-27 -2.5t-29.5 -1h-34h-290v421q0 14 114 257q-7 23 -27 47.5t-34.5 36t-24.5 17.5q-14 9 -38.5 15.5t-35.5 5.5l-23 -2q42 -22 67.5 -63t25.5 -91q0 -72 -51.5 -123t-124.5 -51q-47 0 -86.5 24t-62.5 65t-23 89zM132 644q0 -35 25 -59 t59 -24q24 0 43.5 11t30.5 30t11 42q0 36 -24.5 60.5t-60.5 24.5q-33 0 -58.5 -25t-25.5 -60zM521 116h137q10 0 13.5 1.5t6.5 8.5t3 24v456q0 6 -14 18.5t-35 26t-40 20.5q-18 -41 -40.5 -109t-30.5 -103v-343z" />
<glyph unicode="&#xe0b;" horiz-adv-x="972" d="M46 593q-1 47 6 88t26 83.5t56 80t92 67.5l115 -74q9 7 46.5 33.5t55.5 38.5q117 -41 160 -141q39 15 73.5 45.5t56 63.5t37 64t21.5 51l6 20l125 -64q-3 -6 -7.5 -17.5t-21.5 -43t-36 -58t-51 -54t-66 -41.5q104 -62 104 -105v-510q0 -18 -1.5 -32.5t-6 -26t-8 -20.5 t-12.5 -15t-15 -10.5t-20 -7.5t-22 -4.5t-26.5 -2.5t-29.5 -1h-34h-287v396q0 11 17.5 54t37 85.5t41 88.5t23.5 49q3 9 -2.5 29.5t-16 41.5t-23 39.5t-21.5 24.5l-95 -48l-108 52q-39 -25 -54 -49q24 5 37 5q73 0 124 -51t51 -124q0 -48 -23 -88t-63.5 -63.5t-88.5 -23.5 q-71 0 -120.5 51t-51.5 124zM135 593q0 -36 24.5 -60t58.5 -24q36 0 61 24t25 59.5t-25 60.5t-61 25q-22 0 -41 -11.5t-30.5 -31t-11.5 -42.5zM534 434l2 -318h132q7 0 10.5 0.5t7.5 3.5t5.5 10.5t1.5 19.5v458q0 9 -24 24.5t-52 26.5q-73 -175 -83 -225z" />
<glyph unicode="&#xe0c;" horiz-adv-x="1408" d="M102 619q1 6 3.5 17t14.5 41.5t28 58t47.5 61.5t71 58.5t100 41t131.5 16.5q69 0 127 -14t95.5 -36t67 -51t45 -56.5t25 -56t12.5 -45.5t3 -29v-248q52 -8 103 -46.5t86.5 -86.5t61.5 -101v740h153v-781q0 -35 -6 -56.5t-24 -38.5t-52.5 -23t-91.5 -5q-35 93 -101 178.5 t-130 104.5v-177q0 -52 -45.5 -79t-108.5 -27q-70 0 -109.5 53t-45.5 131q-5 93 39.5 152t118.5 66v228q0 15 -3 33t-16.5 48t-35 53t-65 40t-100.5 17q-54 0 -98.5 -14t-71 -35t-42 -41.5t-17.5 -36.5l156 -27v-69q-4 -2 -12 -5.5t-27.5 -17.5t-34.5 -31.5t-27 -47 t-11 -64.5l1 -82q8 1 22 1q73 0 123.5 -50.5t50.5 -122.5q0 -73 -50.5 -123.5t-123.5 -50.5q-72 0 -123.5 51t-51.5 123v231q0 37 15.5 71.5t38 57.5t44.5 40.5t38 26.5l16 8zM255 157q0 -35 24.5 -60t59.5 -25t60 25t25 60t-25 59.5t-60 24.5t-59.5 -24.5t-24.5 -59.5z M648 175q2 -45 25.5 -69.5t45.5 -24.5q2 0 2 29v157q-24 1 -49 -24t-24 -68z" />
<glyph unicode="&#xe0d;" horiz-adv-x="1364" d="M88 619q1 6 3 17t14 41.5t28 58t47.5 61.5t70.5 58.5t99.5 41t131.5 16.5q70 0 127.5 -14t95.5 -36t67 -51t44.5 -56.5t25.5 -56t12.5 -45.5t2.5 -29v-527h231q9 0 12.5 1.5t6 9.5t2.5 26v748h153v-763q0 -18 -1 -32.5t-5.5 -26t-8 -20.5t-12.5 -15t-15 -10.5t-19.5 -7.5 t-22 -4.5t-27 -2.5t-29.5 -1h-34h-384v609q1 14 -2 33t-15.5 48t-34.5 52.5t-65.5 40.5t-100.5 17q-53 0 -98 -14t-71.5 -35t-41.5 -41.5t-18 -36.5l157 -27v-69q-5 -2 -12.5 -5.5t-27 -17.5t-34.5 -31.5t-27 -47t-12 -64.5l2 -82q7 1 21 1q73 0 124 -50.5t51 -122.5 q0 -73 -51 -123.5t-124 -50.5q-47 0 -87 23t-63.5 63.5t-23.5 87.5v231q0 37 15.5 71.5t37.5 57.5t44.5 40.5t37.5 26.5l16 8zM241 157q0 -35 24 -60t59.5 -25t60 25t24.5 60t-24.5 59.5t-60 24.5t-59.5 -24.5t-24 -59.5zM681 -183q0 62 44 105.5t106 43.5t105.5 -43.5 t43.5 -105.5q0 -50 -29 -89q89 7 139 55.5t62 148.5l115 -19q-11 -83 -60 -143.5t-117.5 -90t-148.5 -32.5q-175 -4 -233 85q-27 40 -27 85zM754 -183q0 -31 23 -53t54 -22t53.5 22t22.5 53t-22.5 53t-53.5 22t-54 -22t-23 -53z" />
<glyph unicode="&#xe0e;" horiz-adv-x="1050" d="M58 157q0 72 51 122.5t124 50.5q15 0 22 -1l-8 59q0 27 8.5 53t21.5 45.5t29 37t32.5 29.5t29.5 21t22 13l8 5l-248 27q1 6 3 17t14 41.5t28 58t47.5 61.5t70.5 58.5t99.5 41t131.5 16.5q70 0 127.5 -14t95.5 -36t67 -51t44.5 -56.5t25 -56t12 -45.5t2.5 -29v-781 l-205 -187q-85 64 -161 94q-42 -49 -87.5 -73.5t-106.5 -24.5t-109 42t-48 97q0 62 49.5 94.5t117.5 32.5q65 0 139 -38q12 32 24 97l112 -24q-23 -83 -43 -127l104 -45l62 75v752q0 10 -1 21.5t-6.5 31t-14 37t-25.5 36.5t-39 33t-56 23t-76 9q-43 0 -81 -9.5t-63.5 -24 t-45 -32t-29 -33.5t-11.5 -28l193 -27v-69q-5 -2 -13 -5.5t-28 -17.5t-35 -31.5t-26.5 -47t-10.5 -64.5l10 -254q2 -47 -22 -87.5t-65 -63.5t-88 -23q-48 0 -88 23t-63.5 63.5t-23.5 87.5zM148 157q0 -35 25 -60t60 -25t59.5 25t24.5 60t-24.5 59.5t-59.5 24.5t-60 -24.5 t-25 -59.5zM314 -208q0 -19 13.5 -37.5t30.5 -18.5q21 0 41.5 10.5t33 22t31.5 31.5q-71 36 -96 36q-54 0 -54 -44z" />
<glyph unicode="&#xe0f;" horiz-adv-x="1050" d="M58 157q0 72 51 122.5t124 50.5q15 0 22 -1l-8 59q0 27 8.5 53t21.5 45.5t29 37t32.5 29.5t29.5 21t22 13l8 5l-248 27q1 6 3 17t14 41.5t28 58t47.5 61.5t70.5 58.5t99.5 41t131.5 16.5q70 0 127.5 -14t95.5 -36t67 -51t44.5 -56.5t25 -56t12 -45.5t2.5 -29v-798 l-187 -178l-93 102l-100 -100l-85 87q-22 -23 -33.5 -33.5t-32.5 -25t-42.5 -20.5t-47.5 -6q-40 0 -76 19.5t-58 52t-22 68.5q0 61 50 94.5t117 33.5q48 0 97 -25q13 28 16 81l112 -18q-5 -65 -31 -132q32 -27 38 -33l100 87l91 -88l35 47v769q0 10 -1 21.5t-6.5 31t-14 37 t-25.5 36.5t-39 33t-56 23t-76 9q-43 0 -81 -9.5t-63.5 -24t-45 -32t-29 -33.5t-11.5 -28l193 -27v-69q-5 -2 -13 -5.5t-28 -17.5t-35 -31.5t-26.5 -47t-10.5 -64.5l10 -254q2 -47 -22 -87.5t-65 -63.5t-88 -23q-48 0 -88 23t-63.5 63.5t-23.5 87.5zM148 157q0 -35 25 -60 t60 -25t59.5 25t24.5 60t-24.5 59.5t-59.5 24.5t-60 -24.5t-25 -59.5zM254 -207q0 -22 14 -39.5t29 -17.5q39 0 77 70q-47 31 -66 31q-25 0 -39.5 -12t-14.5 -32z" />
<glyph unicode="&#xe10;" horiz-adv-x="895" d="M0 -333q0 57 47.5 90t114.5 33q35 0 62 -10q7 41 11 97l110 -8q-10 -107 -21 -158l46 -64q15 12 46 34t36 26l86 -65l37 38v50h-17q-34 0 -63 14.5t-46 40.5t-17 58q0 48 37 80.5t89 32.5q53 0 90 -32.5t37 -80.5v-178l-137 -126l-97 69l-110 -76q-39 62 -58 82 q-56 -81 -132 -81q-58 0 -104.5 41t-46.5 93zM79 637q17 86 58 147.5t107 95t151 33.5q39 0 87 -13t79 -23.5t70 -4.5t73 40l73 -108q-62 -59 -143 -58q-46 1 -126.5 28.5t-112.5 27.5q-36 0 -74 -18.5t-60 -48.5q470 -21 470 -228v-387q0 -18 -1.5 -32.5t-6.5 -26t-9 -20.5 t-13.5 -15t-16 -10.5t-21.5 -7.5t-24.5 -4.5t-29.5 -2.5t-32 -1h-37l-120 283q-41 -38 -98 -44t-108 22q-62 36 -81 106.5t17 131.5q36 62 105.5 81t133.5 -18q51 -28 76 -91l115 -284v299q0 29 -14 52t-36 39t-59.5 27t-76 17.5t-94 10t-104.5 4.5t-117 1zM110 -333 q0 -19 12.5 -36t28.5 -17q9 0 23 19t30 59q-23 16 -42 16q-52 0 -52 -41zM219.5 391q9.5 -34 40.5 -52q29 -17 62.5 -8t49.5 39q18 31 10 65t-39 51t-63.5 7.5t-51.5 -40.5q-18 -28 -8.5 -62zM509 -157.5q0 -20.5 14.5 -35t34.5 -14.5q21 0 37 14.5t16 35t-16 35t-37 14.5 q-20 0 -34.5 -14.5t-14.5 -35z" />
<glyph unicode="&#xe11;" horiz-adv-x="1192" d="M46 593q-1 47 6 88t26 83.5t56 80t92 67.5l115 -74q9 7 46.5 33.5t55.5 38.5q50 -17 86 -44.5t54.5 -58.5t26.5 -59t9 -55q-73 -184 -85 -244v-163q6 23 16.5 61.5t41 138t58 178t61 148.5t57.5 82l19 3q56 0 101 -12.5t74 -34t49.5 -47t30.5 -55t14.5 -54t4.5 -48.5 v-646h-155v646q0 35 -17.5 65.5t-56.5 44.5q-19 -2 -44 -48.5t-54.5 -129.5t-59.5 -172.5t-70 -205t-74 -200.5h-148v396q0 11 17.5 54t37 85.5t41 88.5t23.5 49q3 9 -2.5 29.5t-16 41.5t-23 39.5t-21.5 24.5l-95 -48l-108 52q-39 -25 -54 -49q24 5 37 5q73 0 124 -51 t51 -124q0 -48 -23 -88t-63.5 -63.5t-88.5 -23.5q-71 0 -120.5 51t-51.5 124zM135 593q0 -36 24.5 -60t58.5 -24q36 0 61 24t25 59.5t-25 60.5t-61 25q-22 0 -41 -11.5t-30.5 -31t-11.5 -42.5z" />
<glyph unicode="&#xe12;" horiz-adv-x="1448" d="M132 0v615q0 27 6 57.5t24.5 70.5t48 73t83.5 61.5t124 40.5l103 -80l107 80q72 -11 126.5 -39t83.5 -60.5t47 -73t23 -70t5 -57.5v-267q52 -7 103 -41.5t86.5 -76.5t61.5 -90v740h153v-781q0 -35 -6 -56.5t-24 -38.5t-53 -23t-91 -5q-36 86 -102 165.5t-129 98.5v-158 q0 -52 -46 -79t-108 -27q-73 0 -113.5 51.5t-45.5 127.5q-4 42 7 78t33 60.5t53 40t68 18.5v253q0 20 -1 35t-4 35.5t-10.5 36t-19.5 32t-31.5 29.5t-45.5 22l-127 -65l-125 61q-23 -8 -41.5 -19t-30 -21.5t-20 -28t-12 -28t-5.5 -31t-2 -29v-29.5v-445l182 180 q-35 11 -63 36t-43.5 59.5t-15.5 72.5q0 73 50.5 123.5t122.5 50.5q73 0 124 -50.5t51 -123.5q0 -69 -41 -113l-372 -398h-148zM434 511q0 -35 24.5 -59.5t59.5 -24.5t60 24.5t25 59.5t-25 60t-60 25t-59.5 -25t-24.5 -60zM681 163q2 -40 28 -61t50 -21q1 0 1 37v129 q-15 0 -33.5 -8.5t-32.5 -29t-13 -46.5z" />
<glyph unicode="&#xe13;" horiz-adv-x="1442" d="M102 619q1 6 3.5 17t14.5 41.5t28 58t47.5 61.5t71 58.5t100 41t131.5 16.5q69 0 127 -14t95.5 -36t66.5 -51t44.5 -56.5t25.5 -56t12.5 -45.5t2.5 -29l1 -443q57 83 207 138q28 10 46.5 30t23.5 34l5 15v484h153v-487q0 -15 -60 -74q48 -20 77 -63t29 -97 q0 -72 -50.5 -123.5t-123.5 -51.5q-72 0 -122.5 51.5t-50.5 123.5v13q-34 -18 -60.5 -43t-40 -47t-21.5 -42t-10 -31l-2 -12h-154v609q0 15 -3 33t-16 48t-34.5 53t-64.5 40t-100 17q-54 0 -98.5 -14t-71 -35t-42 -41.5t-17.5 -36.5l156 -27v-69q-4 -2 -12 -5.5t-27.5 -17.5 t-34.5 -31.5t-27 -47t-11 -64.5l1 -82q8 1 22 1q73 0 123.5 -50.5t50.5 -122.5q0 -73 -50.5 -123.5t-123.5 -50.5q-72 0 -123.5 51t-51.5 123v231q0 37 15.5 71.5t38 57.5t44.5 40.5t38 26.5l16 8zM255 157q0 -35 24.5 -60t59.5 -25t60 25t25 60t-25 59.5t-60 24.5 t-59.5 -24.5t-24.5 -59.5zM1096 162q0 -36 25 -60.5t59 -24.5q35 0 60 24.5t25 60t-25 60.5t-60 25q-17 0 -32.5 -7t-26.5 -18t-18 -27t-7 -33z" />
<glyph unicode="&#xe14;" horiz-adv-x="1030" d="M132 0v617q0 27 12.5 62.5t42 77.5t72 76t110.5 57t149 23q83 0 151 -23t109.5 -57t69.5 -75.5t39 -76.5t11 -63v-618h-152v602q0 26 -6.5 51.5t-23 53t-41.5 48t-65.5 34t-91.5 13.5q-61 0 -108 -20t-73 -51t-39 -64t-13 -65v-439l182 180q-35 11 -63 36t-43.5 59.5 t-15.5 72.5q0 73 50.5 123.5t122.5 50.5q73 0 124 -50.5t51 -123.5q0 -69 -41 -113l-372 -398h-148zM434 511q0 -35 24.5 -59.5t59.5 -24.5t60 24.5t25 59.5t-25 60t-60 25t-59.5 -25t-24.5 -60z" />
<glyph unicode="&#xe15;" horiz-adv-x="1030" d="M132 0v615q0 27 5.5 57.5t24 70.5t47 73t81.5 61.5t121 40.5l102 -80l108 80q70 -11 123 -39t81.5 -60.5t45.5 -73t22 -69.5t5 -58v-618h-152v608q0 25 -1.5 42t-7 42t-16 42.5t-31 35t-48.5 28.5l-129 -65l-124 61q-25 -8 -44 -20t-30 -28.5t-17.5 -30t-9 -35t-3 -33 t-0.5 -33.5v-6v-445l182 180q-35 11 -63 36t-43.5 59.5t-15.5 72.5q0 73 50.5 123.5t122.5 50.5q73 0 124 -50.5t51 -123.5q0 -69 -41 -113l-372 -398h-148zM434 511q0 -35 24.5 -59.5t59.5 -24.5t60 24.5t25 59.5t-25 60t-60 25t-59.5 -25t-24.5 -60z" />
<glyph unicode="&#xe16;" horiz-adv-x="1003" d="M102 619q1 6 3.5 17t14.5 41.5t28 58t47.5 61.5t71 58.5t100 41t131.5 16.5q69 0 127 -14t95.5 -36t66.5 -51t44.5 -56.5t25.5 -56t12.5 -45.5t2.5 -29v-625h-153v609q0 9 -1 21t-6 31t-14 37t-25.5 37t-39 33t-57 23t-75.5 9q-54 0 -98.5 -14t-71 -35t-42 -41.5 t-17.5 -36.5l156 -27v-69q-4 -2 -11.5 -5.5t-27 -17.5t-34.5 -31.5t-27 -47t-12 -64.5l1 -82q8 1 22 1q73 0 123.5 -50.5t50.5 -122.5q0 -73 -50.5 -123.5t-123.5 -50.5q-72 0 -123.5 51t-51.5 123v231q0 37 15.5 71.5t38 57.5t44.5 40.5t38 26.5l16 8zM255 157 q0 -35 24.5 -60t59.5 -25t60 25t25 60t-25 59.5t-60 24.5t-59.5 -24.5t-24.5 -59.5z" />
<glyph unicode="&#xe17;" horiz-adv-x="1082" d="M73 723q0 73 51 124t124 51q72 0 123.5 -51t51.5 -124v-407q5 18 13.5 49t34 115.5t49.5 155.5t55 145.5t55 109.5h47q48 0 88.5 -9.5t68.5 -25t49.5 -37.5t34 -44.5t20.5 -48t10.5 -46t2.5 -40.5v-640h-155v625q0 114 -98 135q-18 -5 -42.5 -80t-88 -274t-144.5 -406 h-153v552q-8 -2 -22 -2q-73 0 -124 51t-51 122zM163 723q0 -34 24.5 -58.5t60 -24.5t60 24.5t24.5 58.5q0 36 -24.5 60.5t-60 24.5t-60 -24.5t-24.5 -60.5z" />
<glyph unicode="&#xe18;" horiz-adv-x="918" d="M73 613q27 135 110 217.5t218 82.5q54 0 130 -22t106 -22q62 0 119 66l69 -115q-74 -62 -162 -62q-51 -1 -138.5 18t-123.5 18q-44 -2 -82 -22.5t-59 -56.5q4 -1 13 -1q57 -2 89 -4t92.5 -8.5t98.5 -15t86.5 -25.5t76.5 -39.5t48.5 -56.5t22.5 -77v-368q0 -18 -1.5 -32.5 t-5.5 -26t-8 -20.5t-13 -15t-15 -10.5t-19.5 -7.5t-22 -4.5t-27 -2.5t-29.5 -1h-34h-425v543h152v-430h273q7 0 10 0.5t7 3.5t5.5 11t1.5 22v318q-2 26 -15.5 47.5t-33.5 37t-50.5 27t-60.5 18.5t-70.5 11.5t-73 6t-75 1.5t-70 -0.5t-63.5 -2t-51 -1.5z" />
<glyph unicode="&#xe19;" horiz-adv-x="1035" d="M73 723q0 73 51 124t124 51q72 0 123.5 -51t51.5 -124v-566q104 108 250 163q28 10 47 30t23 34l5 15v484h153v-487q0 -15 -60 -74q48 -20 78 -63.5t30 -96.5q0 -72 -51.5 -123.5t-124.5 -51.5q-71 0 -122 51.5t-51 123.5v13q-34 -18 -66 -43t-52.5 -47t-36 -42 t-23.5 -31l-7 -12h-145v552q-8 -2 -22 -2q-73 0 -124 51t-51 122zM163 723q0 -34 24.5 -58.5t60 -24.5t60 24.5t24.5 58.5q0 36 -24.5 60.5t-60 24.5t-60 -24.5t-24.5 -60.5zM690 162q0 -36 24.5 -60.5t58.5 -24.5q36 0 60.5 24.5t24.5 60t-24.5 60.5t-60.5 25q-17 0 -32 -7 t-26.5 -18t-18 -27t-6.5 -33z" />
<glyph unicode="&#xe1a;" horiz-adv-x="1085" d="M73 723q0 73 51 124t124 51q72 0 123.5 -51t51.5 -124v-610h356q7 0 10 0.5t6.5 4t5 11t1.5 21.5v733h152v-763q0 -18 -1.5 -32.5t-6 -26t-8 -20.5t-12.5 -15t-15 -10.5t-19.5 -7.5t-22 -4.5t-27 -2.5t-29.5 -1h-34h-509v552q-8 -2 -22 -2q-73 0 -124 51t-51 122z M163 723q0 -34 24.5 -58.5t60 -24.5t60 24.5t24.5 58.5q0 36 -24.5 60.5t-60 24.5t-60 -24.5t-24.5 -60.5z" />
<glyph unicode="&#xe1b;" horiz-adv-x="1085" d="M73 723q0 73 51 124t124 51q72 0 123.5 -51t51.5 -124v-610h356q7 0 10 0.5t6.5 4t5 11t1.5 21.5v1083h152v-1113q0 -18 -1.5 -32.5t-6 -26t-8 -20.5t-12.5 -15t-15 -10.5t-19.5 -7.5t-22 -4.5t-27 -2.5t-29.5 -1h-34h-509v552q-8 -2 -22 -2q-73 0 -124 51t-51 122z M163 723q0 -34 24.5 -58.5t60 -24.5t60 24.5t24.5 58.5q0 36 -24.5 60.5t-60 24.5t-60 -24.5t-24.5 -60.5z" />
<glyph unicode="&#xe1c;" horiz-adv-x="1010" d="M132 0v723q0 73 51.5 124t123.5 51q73 0 124 -51t51 -124q0 -71 -51 -122t-124 -51q-15 0 -22 2v-377l220 323l220 -325v710h154v-883h-154l-220 335l-220 -335h-153zM223 723q0 -34 24.5 -58.5t59.5 -24.5t60 24.5t25 58.5q0 36 -25 60.5t-60 24.5q-23 0 -42.5 -11 t-30.5 -30.5t-11 -43.5z" />
<glyph unicode="&#xe1d;" horiz-adv-x="1010" d="M132 0v723q0 73 51.5 124t123.5 51q73 0 124 -51t51 -124q0 -71 -51 -122t-124 -51q-15 0 -22 2v-377l220 323l220 -325v1060h154v-1233h-154l-220 335l-220 -335h-153zM223 723q0 -34 24.5 -58.5t59.5 -24.5t60 24.5t25 58.5q0 36 -25 60.5t-60 24.5q-23 0 -42.5 -11 t-30.5 -30.5t-11 -43.5z" />
<glyph unicode="&#xe1e;" horiz-adv-x="1167" d="M73 723q0 73 51 124t124 51q72 0 123.5 -51t51.5 -124v-466l221 624h18l221 -621v623h153v-883h-155l-227 640l-228 -640h-156v552q-8 -2 -22 -2q-73 0 -124 51t-51 122zM163 723q0 -34 24.5 -58.5t60 -24.5t60 24.5t24.5 58.5q0 36 -24.5 60.5t-60 24.5t-60 -24.5 t-24.5 -60.5z" />
<glyph unicode="&#xe1f;" horiz-adv-x="1167" d="M73 723q0 73 51 124t124 51q72 0 123.5 -51t51.5 -124v-466l221 624h18l221 -621v973h153v-1233h-155l-227 640l-228 -640h-156v552q-8 -2 -22 -2q-73 0 -124 51t-51 122zM163 723q0 -34 24.5 -58.5t60 -24.5t60 24.5t24.5 58.5q0 36 -24.5 60.5t-60 24.5t-60 -24.5 t-24.5 -60.5z" />
<glyph unicode="&#xe20;" horiz-adv-x="1050" d="M58 157q0 72 51 122.5t124 50.5q15 0 22 -1l-8 59q0 27 8.5 53t21.5 45.5t29 37t32.5 29.5t29.5 21t22 13l8 5l-248 27q1 6 3 17t14 41.5t28 58t47.5 61.5t70.5 58.5t99.5 41t131.5 16.5q70 0 127.5 -14t95.5 -36t67 -51t44.5 -56.5t25 -56t12 -45.5t2.5 -29v-625h-152 v609q1 9 -0.5 21t-6.5 31t-13.5 37t-25.5 37t-39.5 33t-56.5 23t-76 9q-43 0 -81 -9.5t-63.5 -24t-45 -32t-29 -33.5t-11.5 -28l193 -27v-69q-5 -2 -12.5 -5.5t-27 -17.5t-34 -31.5t-27 -47t-12.5 -64.5l10 -254q0 -72 -51.5 -123t-123.5 -51q-48 0 -88 23t-63.5 63.5 t-23.5 87.5zM148 157q0 -35 25 -60t60 -25t59.5 25t24.5 60t-24.5 59.5t-59.5 24.5t-60 -24.5t-25 -59.5z" />
<glyph unicode="&#xe21;" horiz-adv-x="1070" d="M118 723q0 73 51 124t123 51t123.5 -51t51.5 -124v-328q49 -11 100 -41t92.5 -69.5t73 -77.5t55.5 -74v750h151v-781q0 -35 -5.5 -56.5t-23.5 -38.5t-53 -23t-92 -5q-23 50 -70.5 110t-109.5 113t-118 76v-193q0 -52 -45.5 -79t-108.5 -27q-87 0 -132.5 55t-51.5 139 q-6 98 44.5 158.5t142.5 67.5v153q-8 -2 -24 -2q-72 0 -123 51t-51 122zM207 723q0 -34 25 -58.5t60.5 -24.5t59.5 24.5t24 58.5q0 36 -24 60.5t-59.5 24.5t-60.5 -24.5t-25 -60.5zM229 193q2 -56 27.5 -84t57.5 -28l2 37v164q-34 1 -61.5 -22.5t-25.5 -66.5z" />
<glyph unicode="&#xe22;" horiz-adv-x="991" d="M116 640q0 97 51 169.5t143 87.5q12 3 39 3q70 -4 119 -54.5t49 -120.5q0 -72 -51 -123.5t-124 -51.5q-38 0 -69 15q-1 -15 2 -27t11 -21.5t16.5 -17t24.5 -13t28 -9.5t33.5 -6.5t35 -4t39 -2t39.5 -1t40 -0.5h26v-95q-82 0 -140 -11q-42 -14 -74 -53.5t-32 -81.5v-108 h361q9 0 13 1.5t7 10t3 25.5v732h152v-761q0 -18 -1.5 -33t-5.5 -26.5t-8 -20.5t-13 -15.5t-15 -11t-20 -7.5t-22.5 -4.5t-27.5 -2.5t-30.5 -1h-35.5h-510v206q0 125 145 190q-29 7 -62.5 20.5t-68.5 40t-46 56.5q-21 51 -21 127zM258 725q0 -35 25 -59t59 -24q36 0 60.5 24 t24.5 59t-24.5 60t-60.5 25q-34 0 -59 -25t-25 -60z" />
<glyph unicode="&#xe23;" horiz-adv-x="831" d="M58 621q13 69 39.5 123.5t66.5 92t94 57.5t120 20q36 0 75.5 -10.5t75.5 -21t61 -11.5q53 0 97 51l72 -109q-61 -58 -140 -58q-46 1 -127.5 24.5t-113.5 23.5q-38 0 -76 -22t-61 -56q471 -21 471 -237v-328q0 -73 -51.5 -124t-122.5 -51q-73 0 -124 51t-51 124 q0 72 51 122.5t124 50.5q17 0 21 -1v135q0 28 -11 50.5t-35.5 38.5t-49 27.5t-67 18.5t-73 11t-83.5 5.5t-82 2t-83 0.5h-17zM452 160q0 -36 25 -60.5t60.5 -24.5t59.5 24.5t24 60.5q0 17 -6.5 32.5t-17.5 26.5t-26.5 17.5t-32.5 6.5q-36 0 -61 -24.5t-25 -58.5z" />
<glyph unicode="&#xe24;" horiz-adv-x="1003" d="M102 619q1 6 3.5 17t14.5 41.5t28 58t47.5 61.5t71 58.5t100 41t131.5 16.5q69 0 127 -14t95.5 -36t66.5 -51t44.5 -56.5t25.5 -56t12.5 -45.5t2.5 -29v-972h-153v956q0 9 -1 21t-6 31t-14 37t-25.5 37t-39 33t-57 23t-75.5 9q-54 0 -98.5 -14t-71 -35t-42 -41.5 t-17.5 -36.5l156 -27v-69q-4 -2 -11.5 -5.5t-27 -17.5t-34.5 -31.5t-27 -47t-12 -64.5l1 -82q8 1 22 1q73 0 123.5 -50.5t50.5 -122.5q0 -73 -50.5 -123.5t-123.5 -50.5q-72 0 -123.5 51t-51.5 123v231q0 37 15.5 71.5t38 57.5t44.5 40.5t38 26.5l16 8zM255 157 q0 -35 24.5 -60t59.5 -25t60 25t25 60t-25 59.5t-60 24.5t-59.5 -24.5t-24.5 -59.5z" />
<glyph unicode="&#xe25;" horiz-adv-x="995" d="M118 675q11 40 37.5 79.5t69.5 76t110.5 59.5t148.5 23q84 0 152.5 -22.5t109.5 -56t69 -75t38.5 -75.5t10.5 -61v-623h-152v191q0 11 -5 38.5t-16 68.5t-31.5 82.5t-47 77.5t-67.5 58t-88 20q-25 -1 -49 -9.5t-49 -26t-40 -51.5t-15 -79v-38q3 1 20 1q73 0 124 -50.5 t51 -122.5q0 -73 -51 -124t-124 -51q-47 0 -87 23.5t-63.5 63.5t-23.5 88v218q0 25 7.5 56t29.5 70.5t55 71t90.5 52.5t130.5 20q158 -4 249 -174v131q0 21 -4.5 42t-14.5 44t-28 42.5t-42 35.5t-60 25t-79 9q-54 0 -100.5 -14.5t-77.5 -39t-50.5 -53t-25.5 -58.5zM241 160 q0 -36 24 -60.5t59.5 -24.5t60 24.5t24.5 60.5q0 34 -24.5 58.5t-60 24.5t-59.5 -24.5t-24 -58.5z" />
<glyph unicode="&#xe26;" horiz-adv-x="1050" d="M58 157q0 72 51 122.5t124 50.5q15 0 22 -1l-8 59q0 27 8.5 53t21.5 45.5t29 37t32.5 29.5t29.5 21t22 13l8 5l-248 27q1 6 3 17t14 41.5t28 58t47.5 61.5t70.5 58.5t99.5 41t131.5 16.5q70 0 127.5 -14t95.5 -36t67 -51t44.5 -56.5t25 -56t12 -45.5t2.5 -29v-972h-152 v956q1 9 -0.5 21t-6.5 31t-13.5 37t-25.5 37t-39.5 33t-56.5 23t-76 9q-43 0 -81 -9.5t-63.5 -24t-45 -32t-29 -33.5t-11.5 -28l193 -27v-69q-5 -2 -12.5 -5.5t-27 -17.5t-34 -31.5t-27 -47t-12.5 -64.5l10 -254q0 -72 -51.5 -123t-123.5 -51q-48 0 -88 23t-63.5 63.5 t-23.5 87.5zM148 157q0 -35 25 -60t60 -25t59.5 25t24.5 60t-24.5 59.5t-59.5 24.5t-60 -24.5t-25 -59.5z" />
<glyph unicode="&#xe27;" horiz-adv-x="890" d="M44 665q7 26 19.5 52.5t32.5 55.5t49 53t65.5 44.5t86 31.5t106.5 11q60 0 111 -12t87 -31.5t64 -46t45.5 -54t28.5 -56.5t15.5 -52t4.5 -43v-458q0 -73 -51.5 -124t-123.5 -51q-73 0 -124 51t-51 124q0 72 51 122.5t124 50.5q18 0 22 -1v271q0 21 -3.5 41.5t-11.5 44 t-23.5 43t-36.5 35.5t-54 25.5t-74 9.5q-55 0 -101.5 -16.5t-76 -43t-47.5 -55.5t-24 -59zM499 160q0 -36 24.5 -60.5t60 -24.5t60 24.5t24.5 60.5q0 34 -24.5 58.5t-59.5 24.5t-60 -24.5t-25 -58.5z" />
<glyph unicode="&#xe28;" horiz-adv-x="1030" d="M132 0v621q0 27 12 62t41.5 76.5t71.5 75.5t110.5 56.5t150.5 22.5q93 0 169 -27q13 2 27.5 8.5t35 20t42.5 40t41 62.5l122 -64q-10 -22 -26 -42t-36.5 -37.5t-44.5 -32.5t-50 -26q51 -50 75.5 -103t24.5 -90v-623h-152v606q0 25 -6.5 50.5t-23 52.5t-41.5 47.5 t-65.5 33.5t-91.5 13q-50 0 -90.5 -13t-66.5 -33.5t-43.5 -47.5t-25 -52.5t-7.5 -50.5v-170l-5 -87q11 58 34 124.5t52 119.5q22 41 62.5 66.5t89.5 25.5q73 0 124 -50.5t51 -123.5q0 -72 -51.5 -123.5t-123.5 -51.5q-83 0 -135 66q-78 -247 -98 -369v-33h-153zM434 511 q0 -35 24.5 -59.5t59.5 -24.5t60 24.5t25 59.5t-25 60t-60 25t-59.5 -25t-24.5 -60z" />
<glyph unicode="&#xe29;" horiz-adv-x="1080" d="M73 723q0 73 51 124t124 51q72 0 123.5 -51t51.5 -124v-610h356q7 0 10 0.5t6.5 4t5 11t1.5 21.5v172q-40 -11 -81 -11q-177 -3 -233 84q-27 40 -27 85q0 62 44 106t106 44q40 0 74.5 -20t54.5 -54.5t20 -75.5q0 -49 -29 -88q37 4 71 29v462h152v-380q42 39 50 114 l95 -15q-9 -65 -47.5 -121.5t-97.5 -97.5v-248q0 -40 -8 -66t-18.5 -40t-37 -20.5t-46.5 -7.5t-65 -1h-509v552q-8 -2 -22 -2q-73 0 -124 51t-51 122zM163 723q0 -34 24.5 -58.5t60 -24.5t60 24.5t24.5 58.5q0 36 -24.5 60.5t-60 24.5t-60 -24.5t-24.5 -60.5zM534 480 q0 -31 22.5 -53t54 -22t54 22t22.5 53t-22.5 53.5t-53.5 22.5q-21 0 -38.5 -10t-28 -27.5t-10.5 -38.5z" />
<glyph unicode="&#xe2a;" horiz-adv-x="999" d="M118 675q11 40 37.5 79.5t69.5 76t110.5 59.5t148.5 23q99 0 168 -26q13 2 29 8.5t37 19.5t44 38t41 58l121 -62q-14 -27 -38 -52t-54.5 -45.5t-65.5 -35.5q51 -50 74.5 -103t23.5 -90v-623h-152v191q0 11 -5 38.5t-16 69t-32 83t-47.5 78t-67.5 58t-89 18.5 q-25 -2 -48.5 -10.5t-48 -26t-39.5 -51t-15 -78.5v-38q3 1 20 1q73 0 124 -50.5t51 -122.5q0 -73 -51 -124t-124 -51q-47 0 -87 23.5t-63.5 63.5t-23.5 88v218q0 25 7.5 56.5t29.5 70.5t55.5 70.5t91 52.5t129.5 20q158 -4 249 -168v125q0 21 -4.5 42t-14.5 44t-28 42.5 t-42 35.5t-60 25t-79 9q-54 0 -100.5 -14.5t-77.5 -39t-50.5 -53t-25.5 -58.5zM241 160q0 -36 24 -60.5t59.5 -24.5t60 24.5t24.5 60.5q0 34 -24.5 58.5t-60 24.5t-59.5 -24.5t-24 -58.5z" />
<glyph unicode="&#xe2b;" horiz-adv-x="1081" d="M73 723q0 73 51 124t124 51q72 0 123.5 -51t51.5 -124v-475q119 296 231 365q-71 46 -71 135q0 63 52.5 108t127 45t127.5 -45t53 -108q0 -45 -23.5 -82.5t-62.5 -62.5q48 -43 70 -91t22 -91v-421h-153v411q0 29 -5.5 55.5t-17.5 49t-29 34.5q-36 -17 -82.5 -80t-87 -141 t-75.5 -153t-55 -125l-21 -51h-151l-2 552q-8 -2 -22 -2q-73 0 -124 51t-51 122zM163 723q0 -34 24.5 -58.5t60 -24.5t60 24.5t24.5 58.5q0 36 -24.5 60.5t-60 24.5t-60 -24.5t-24.5 -60.5zM687 740q0 -12 4 -23t11 -20t16.5 -16t21 -11t23.5 -4q21 0 39 10t28.5 27t10.5 37 q0 31 -22.5 52.5t-55.5 21.5q-31 0 -53.5 -22t-22.5 -52z" />
<glyph unicode="&#xe2c;" horiz-adv-x="1159" d="M73 723q0 73 51 124t124 51q72 0 123.5 -51t51.5 -124v-475l210 433h29l223 -433v449q-32 -9 -63 -9q-25 0 -51 7t-50 20.5t-42.5 32t-30 45t-11.5 55.5q0 72 57 114.5t128 42.5q38 0 81.5 -18t60.5 -38q24 49 21 118l139 -29q6 -32 -21.5 -99.5t-82.5 -118.5 q6 -11 12 -37t6 -35v-748h-157l-228 494l-230 -494h-153v552q-8 -2 -22 -2q-73 0 -124 51t-51 122zM163 723q0 -34 24.5 -58.5t60 -24.5t60 24.5t24.5 58.5q0 36 -24.5 60.5t-60 24.5t-60 -24.5t-24.5 -60.5zM743 848q0 -25 18.5 -50t58.5 -25q35 0 54 24t19 48 q0 22 -19.5 48.5t-55.5 26.5q-18 0 -33 -8t-23.5 -19.5t-13.5 -23.5t-5 -21z" />
<glyph unicode="&#xe2d;" horiz-adv-x="1012" d="M132 675q11 40 38 79.5t70.5 76t111.5 59.5t149 23q84 0 152.5 -22.5t109.5 -56t69 -75t38.5 -75.5t10.5 -61v-503q0 -18 -1.5 -32.5t-6 -26t-8 -20.5t-12.5 -15t-15 -10.5t-20 -7.5t-22 -4.5t-26.5 -2.5t-29.5 -1h-34h-521v415q0 48 23.5 88.5t63.5 63.5t87 23 q73 0 124 -51t51 -124q0 -71 -51 -121.5t-124 -50.5h-21v-145h368q8 0 12 1.5t7 10t3 25.5v470q0 25 -6 50.5t-22.5 53t-41.5 48t-65.5 33.5t-91.5 13q-105 0 -175.5 -51t-82.5 -115zM276 415q0 -22 11 -41t30 -30.5t42 -11.5q36 0 61 24.5t25 58.5q0 36 -25 61t-60.5 25 t-59.5 -25t-24 -61z" />
<glyph unicode="&#xe2e;" horiz-adv-x="1022" d="M132 738q0 71 99 123t253 52q139 0 238 -62q24 21 48.5 70t23.5 67l119 -60q-11 -52 -40.5 -97.5t-56.5 -67.5q50 -86 50 -140v-503q0 -18 -1.5 -32.5t-6 -26t-8 -20.5t-12.5 -15t-15.5 -10.5t-20.5 -7.5t-22.5 -4.5t-27 -2.5t-30 -1h-34.5h-519l-1 386q0 73 51 124 t123 51q73 0 124 -51t51 -124q0 -72 -51 -123t-124 -51q-10 0 -18 2v-127h364q10 0 14 1t7.5 8.5t3.5 23.5v486q0 9 -15 67q-97 -51 -220 -54q-86 -2 -145 2t-107 16t-71 37t-23 64zM258 386q0 -34 24.5 -58.5t60 -24.5t60 24.5t24.5 58.5q0 36 -24.5 60.5t-60.5 24.5 q-23 0 -42.5 -11t-30.5 -31t-11 -43zM262 728q2 -14 69.5 -26t142.5 -11q103 3 180 63q-14 14 -31 23.5t-38.5 15t-45.5 8t-55 2.5q-55 0 -108.5 -13t-84 -30.5t-29.5 -31.5z" />
<glyph unicode="&#xe2f;" horiz-adv-x="974" d="M118 737q0 62 43.5 106t106 44t106 -44t43.5 -106q0 -49 -28 -87q58 0 105 14.5t81.5 43t56 71.5t27.5 99v5h153v-883h-153v642q-107 -75 -242 -75h-12q-30 0 -46.5 0.5t-46.5 2.5t-50 7.5t-43.5 14.5t-42 24t-32.5 36q-26 39 -26 85zM191 737q0 -31 22.5 -53t54 -22 t53.5 22t22 53t-22 53.5t-53.5 22.5t-54 -22.5t-22.5 -53.5z" />
<glyph unicode="&#xe30;" horiz-adv-x="868" d="M73 210q0 41 20 75.5t54.5 54t75.5 19.5q62 0 105.5 -43.5t43.5 -105.5q0 -51 -27 -87q118 0 188 58.5t82 169.5l137 -22q-12 -86 -70 -153t-139.5 -101.5t-170.5 -34.5h-11q-31 -1 -47.5 -0.5t-46 3t-49.5 8t-43.5 14t-42 24t-32.5 36.5q-27 40 -27 85zM73 710 q0 63 44 106.5t106 43.5t105.5 -43.5t43.5 -106.5q0 -50 -27 -86q118 0 188 58t82 169l137 -22q-12 -85 -70 -152t-139.5 -102t-170.5 -35h-11q-31 0 -47.5 0.5t-46 2.5t-49.5 7.5t-43.5 14.5t-42 24.5t-32.5 35.5q-27 41 -27 85zM147 210q0 -31 22.5 -53t53.5 -22t53.5 22 t22.5 53t-22.5 53.5t-53.5 22.5t-53.5 -22.5t-22.5 -53.5zM147 710q0 -31 22.5 -52.5t53.5 -21.5q20 0 37.5 10t28 27t10.5 37q0 32 -22.5 54.5t-53.5 22.5t-53.5 -22.5t-22.5 -54.5z" />
<glyph unicode="&#xe31;" d="M-538 1211q0 41 20 75.5t54.5 54.5t75 20t75 -20t54.5 -54.5t20 -75.5q0 -50 -28 -87q117 0 187 58.5t83 169.5l136 -22q-12 -86 -69 -153t-138.5 -101.5t-170.5 -34.5h-12h-46.5t-46.5 2.5t-50 8t-44 14t-42.5 24t-32.5 36.5q-25 39 -25 85zM-465 1211q0 -31 22.5 -53 t53.5 -22t53.5 22t22.5 53t-22.5 53.5t-53.5 22.5t-53.5 -22.5t-22.5 -53.5z" />
<glyph unicode="&#xe32;" horiz-adv-x="841" d="M44 669q7 25 13.5 44t20 46t29 47t41 41.5t55.5 35t73 22.5t94 9q59 0 109.5 -12t84.5 -31.5t61 -46t42.5 -53t25.5 -56t13.5 -52t3.5 -42.5v-621h-154v606q0 26 -3.5 49.5t-15.5 51.5t-31 48.5t-54.5 34t-81.5 13.5q-175 0 -220 -175z" />
<glyph unicode="&#xe33;" horiz-adv-x="841" d="M-458 1198q0 73 51 124t122 51q73 0 124 -51t51 -124q0 -72 -51 -123.5t-124 -51.5q-71 0 -122 51.5t-51 123.5zM-368 1198q0 -35 24.5 -59.5t58.5 -24.5q36 0 60.5 24.5t24.5 59.5q0 17 -6.5 33t-18 27.5t-27 18t-33.5 6.5q-34 0 -58.5 -25t-24.5 -60zM44 669 q7 25 13.5 44t20 46t29 47t41 41.5t55.5 35t73 22.5t94 9q59 0 109.5 -12t84.5 -31.5t61 -46t42.5 -53t25.5 -56t13.5 -52t3.5 -42.5v-621h-154v606q0 26 -3.5 49.5t-15.5 51.5t-31 48.5t-54.5 34t-81.5 13.5q-175 0 -220 -175z" />
<glyph unicode="&#xe34;" d="M-875 1016q21 135 114.5 215.5t235.5 80.5q43 0 87.5 -9t87 -26.5t81.5 -45t70.5 -62t55.5 -80.5t35 -98q-134 27 -213 39.5t-171 18t-179 -3t-204 -29.5zM-726 1106q86 10 178 7.5t153.5 -8.5t144.5 -19q-24 36 -57.5 62.5t-68.5 41.5t-72.5 22t-71.5 6.5t-64 -7.5 q-100 -22 -142 -105z" />
<glyph unicode="&#xe35;" d="M-898 1020q10 66 39.5 121t74 94t105 60.5t130.5 21.5q71 0 141.5 -23.5t128.5 -67.5v161h140v-364l7 -28q-134 27 -213 39.5t-171 18t-179 -2.5t-203 -30zM-749 1104q86 10 178 7.5t153 -8.5t145 -19q-43 64 -113 100t-139 38.5t-131.5 -28t-92.5 -90.5z" />
<glyph unicode="&#xe36;" d="M-875 1016q21 135 114.5 215.5t235.5 80.5q76 0 153 -28q6 57 48 95.5t100 38.5q62 0 105.5 -43.5t43.5 -106.5q0 -46 -25.5 -84t-67.5 -56q45 -64 60 -137q-134 27 -213 39.5t-171 18t-179 -3t-204 -29.5zM-726 1106q86 10 178 7.5t153.5 -8.5t144.5 -19 q-24 36 -57.5 62.5t-68.5 41.5t-72.5 22t-71.5 6.5t-64 -7.5q-100 -22 -142 -105zM-295 1268q0 -30 20.5 -50t50.5 -20q31 0 51.5 20t20.5 50t-21 51t-51 21t-50.5 -21t-20.5 -51z" />
<glyph unicode="&#xe37;" d="M-897 1016q21 135 114.5 215.5t234.5 80.5q27 0 56 -4v75h139v-116q34 -16 75 -46v162h140v-365q5 -14 7 -27q-133 27 -212 39.5t-171.5 18t-179.5 -3t-203 -29.5zM-748 1106q86 10 178 7.5t153 -8.5t144 -19q-23 36 -56.5 62.5t-68.5 41.5t-72.5 22t-71.5 6.5t-63 -7.5 q-102 -22 -143 -105z" />
<glyph unicode="&#xe38;" d="M-426 -253q0 63 43.5 107t106 44t108 -44.5t45.5 -106.5v-278h-153v129q-62 0 -106 43.5t-44 105.5zM-353 -253q0 -31 22.5 -53t54.5 -22q31 0 53 22t22 53q0 32 -22 54.5t-53 22.5q-32 0 -54.5 -22.5t-22.5 -54.5z" />
<glyph unicode="&#xe39;" d="M-691 -253q0 63 43.5 107t106 44t107.5 -44.5t45 -106.5v-195h81q9 0 12.5 1.5t6.5 9.5t3 26v295h153v-295q0 -18 -1.5 -32.5t-6 -26t-8 -20.5t-12.5 -15.5t-15 -11t-19.5 -7.5t-22 -4.5t-27 -2t-29.5 -0.5h-34h-234v129q-62 0 -105.5 43.5t-43.5 105.5zM-618 -253 q0 -31 22.5 -53t53.5 -22t53 22t22 53q0 32 -22 54.5t-53 22.5t-53.5 -22.5t-22.5 -54.5z" />
<glyph unicode="&#xe3a;" d="M-314 -214.5q0 40.5 29.5 70.5t70.5 30t70.5 -29.5t29.5 -70.5t-29.5 -70.5t-70.5 -29.5t-70.5 29.5t-29.5 70z" />
<glyph unicode="&#xe3f;" horiz-adv-x="945" d="M98 0v1174h272v125h132v-128q137 -9 210 -90.5t73 -224.5q0 -153 -83 -233q142 -82 142 -290q0 -84 -26 -148.5t-72 -105t-108 -60.5t-136 -19v-135h-132v135h-272zM229 132h141v408h-141v-408zM229 675h141v367h-141v-367zM502 132q31 0 54.5 3t49 10t43.5 21.5t33.5 36 t23 54.5t7.5 76q0 62 -15.5 104.5t-46 63.5t-65.5 29.5t-84 9.5v-408zM502 677q152 17 152 179t-152 183v-362z" />
<glyph unicode="&#xe40;" horiz-adv-x="569" d="M176 160v725h153v-553q3 1 22 1q73 0 123.5 -50.5t50.5 -122.5q0 -73 -50.5 -124t-123.5 -51q-47 0 -87.5 23.5t-64 63.5t-23.5 88zM267 160q0 -36 24.5 -60.5t59.5 -24.5t60 24.5t25 60.5q0 34 -25 58.5t-60 24.5t-59.5 -24.5t-24.5 -58.5z" />
<glyph unicode="&#xe41;" horiz-adv-x="964" d="M176 160v725h153v-553q3 1 22 1q73 0 123.5 -50.5t50.5 -122.5q0 -73 -50.5 -124t-123.5 -51q-47 0 -87.5 23.5t-64 63.5t-23.5 88zM267 160q0 -36 24.5 -60.5t59.5 -24.5t60 24.5t25 60.5q0 34 -25 58.5t-60 24.5t-59.5 -24.5t-24.5 -58.5zM573 160v725h152v-553 q4 1 22 1q73 0 124 -50.5t51 -122.5q0 -73 -51 -124t-124 -51q-72 0 -123 51t-51 124zM663 160q0 -36 24.5 -60.5t60 -24.5t60 24.5t24.5 60.5q0 34 -24.5 58.5t-60 24.5t-60 -24.5t-24.5 -58.5z" />
<glyph unicode="&#xe42;" horiz-adv-x="632" d="M15 1269q44 107 117 163t176 49q39 -2 91 -17.5t85 -26t73 -1t73 50.5l67 -93q-40 -39 -86.5 -54.5t-91 -12.5t-101.5 21q-93 27 -121 29q-19 1 -41.5 -7.5t-40.5 -21.5t-28 -27q39 -12 66 -21.5t59 -24.5t52 -31t33.5 -38.5t13.5 -48.5v-825q4 1 22 1q72 0 123.5 -50.5 t51.5 -122.5q0 -73 -51 -124t-124 -51q-72 0 -123.5 51t-51.5 124v997q-1 14 -10 26.5t-21.5 21.5t-32 18t-36.5 14.5t-40.5 11t-38 8.5t-36.5 7t-28 5zM349 160q0 -36 24 -60.5t59.5 -24.5t60.5 24.5t25 60.5q0 34 -25 58.5t-60.5 24.5t-59.5 -24.5t-24 -58.5z" />
<glyph unicode="&#xe43;" horiz-adv-x="727" d="M12.5 1204q-0.5 40 4.5 79q15 80 86 136t169 56q70 0 133.5 -24t105.5 -70t42 -104q0 -78 -6.5 -126t-22.5 -102t-22 -81v-636q4 1 22 1q72 0 123 -50.5t51 -122.5q0 -73 -50.5 -124t-123.5 -51q-72 0 -123.5 51t-51.5 124l2 787q27 51 43 91t25.5 102.5t3.5 136.5 q-6 46 -51 78t-100 32q-33 0 -71.5 -14t-52.5 -40q17 5 45 5q73 0 123.5 -51t50.5 -123t-51 -123.5t-123 -51.5q-44 0 -79 18.5t-55 48.5t-33 69t-13.5 79zM108 1163.5q0 -35.5 25 -59.5t60 -24t60 24t25 60q0 23 -11.5 42.5t-31 31t-42.5 11.5q-35 0 -60 -25t-25 -60.5z M440 160q0 -36 24 -60.5t59.5 -24.5t60.5 24.5t25 60.5q0 34 -25 58.5t-60 24.5t-59.5 -24.5t-24.5 -58.5z" />
<glyph unicode="&#xe44;" horiz-adv-x="669" d="M15 1458l82 41l85 -323l134 293h39q15 0 23.5 -0.5t27 -2.5t30.5 -8t25 -15.5t20 -26.5t7 -39l-45 -405v-640q4 1 22 1q73 0 124 -50.5t51 -122.5q0 -73 -51 -124t-124 -51q-72 0 -123 51t-51 124v797q6 33 18 86t21 93.5t16.5 81.5t6.5 67.5t-11 33.5l-118 -247h-104z M382 160q0 -23 11 -42.5t30 -31t42 -11.5q36 0 60.5 24.5t24.5 60.5q0 34 -24.5 58.5t-60 24.5t-59.5 -24.5t-24 -58.5z" />
<glyph unicode="&#xe45;" horiz-adv-x="841" d="M44 669q7 25 13.5 44t20 46t29 47t41 41.5t55.5 35t73 22.5t94 9q59 0 109.5 -12t84.5 -31.5t61 -46t42.5 -53t25.5 -56t13.5 -52t3.5 -42.5v-970h-154v955q0 26 -3.5 49.5t-15.5 51.5t-31 48.5t-54.5 34t-81.5 13.5q-163 0 -206 -175z" />
<glyph unicode="&#xe46;" horiz-adv-x="1182" d="M293 562q6 126 59.5 205t168.5 130l132 -103l130 103q114 -50 166 -111.5t58 -167.5v-768q0 -21 -22 -49.5t-49.5 -53t-72 -56.5t-69 -47.5t-61.5 -39.5q-5 -3 -8 -5l-54 87q5 3 32.5 23t62 47.5t61.5 58t27 48.5v729q0 67 -15.5 107t-57.5 66l-129 -65l-128 66 q-10 -5 -18.5 -17t-19 -31t-13.5 -25q48 0 88 -23.5t63.5 -63.5t23.5 -88q0 -72 -51 -123.5t-124 -51.5q-82 0 -133 62t-47 157zM389 518q0 -23 11.5 -42.5t30.5 -30.5t42 -11q36 0 60.5 24t24.5 59.5t-25 60.5t-60 25q-34 0 -59 -25t-25 -60z" />
<glyph unicode="&#xe47;" d="M-729 1208q0 68 63 116.5t141 48.5q25 0 80.5 -4t85.5 -4q53 0 80.5 21t27.5 80l104 -38q-9 -43 -27 -71.5t-46 -43t-58.5 -20.5t-72.5 -6q-25 0 -82.5 3t-91.5 3q-36 0 -69 -24.5t-33 -60.5q0 -45 37 -70q7 15 14.5 25.5t19 19.5t28.5 13.5t40 4.5q15 -2 33.5 -9.5 t30.5 -15t36 -24.5q1 40 32.5 68t75.5 28q43 0 75 -29t32 -71t-33 -77t-85 -35q-26 0 -55.5 13.5t-50.5 29.5t-47 29t-46 13q-38 0 -44 -72h-87q-39 17 -73.5 64t-34.5 95zM-322 1146q0 -15 12.5 -29t29.5 -14q15 0 28 14t13 29q0 19 -13 32.5t-28 13.5q-17 0 -29.5 -13.5 t-12.5 -32.5z" />
<glyph unicode="&#xe48;" d="M-278 1468v266h140v-266h-140z" />
<glyph unicode="&#xe49;" d="M-511 1738q0 56 38.5 94t94.5 38q53 0 92 -38.5t39 -93.5q5 -40 -10 -90t-35 -90q63 6 118 45.5t91 105.5t43 145l102 -28q-4 -33 -13 -66t-28.5 -71.5t-46 -72.5t-67.5 -65.5t-91.5 -53.5t-120.5 -34t-152 -9v43q42 14 74 45t28 67q-14 -3 -23 -3q-56 0 -94.5 38 t-38.5 94zM-446 1738q0 -27 20 -45.5t48 -18.5q18 0 34 8t25 23t9 33q0 28 -20 46.5t-48 18.5q-19 0 -34.5 -8.5t-24.5 -23.5t-9 -33z" />
<glyph unicode="&#xe4a;" d="M-625 1600q0 32 7 64t23 65.5t46 63.5t71 52l98 -69q46 33 98 68q40 -17 69.5 -44.5t44 -58t21 -56.5t6.5 -50q-8 -67 -13 -86q26 9 45 46.5t26.5 83t10.5 91t-5 70.5h98q2 -16 2.5 -39t-3 -59.5t-12 -72.5t-28 -75t-46.5 -70t-71 -55t-99 -32l-50 23q18 21 32 70.5 t15 100.5q-2 90 -44 129q-13 -8 -48.5 -28.5t-50.5 -28.5l-96 57q-9 -7 -19 -30t-8 -35h17q54 0 92 -38t38 -93q0 -54 -38 -93.5t-92 -39.5q-31 0 -58 13.5t-45 35.5t-26 49t-8 71zM-548 1566q0 -25 17.5 -42.5t42.5 -17.5q22 0 38.5 17.5t16.5 42.5q0 23 -16.5 38.5 t-38.5 15.5q-25 0 -42.5 -15.5t-17.5 -38.5z" />
<glyph unicode="&#xe4b;" d="M-416 1570v94h135v120h138v-120h135v-94h-135v-120h-138v120h-135z" />
<glyph unicode="&#xe4c;" d="M-405 1453q0 128 169 160q35 7 60.5 14.5t54.5 21t48 32t35.5 47.5t24.5 67l136 -31q-8 -44 -28 -77.5t-45 -55t-64.5 -38.5t-73 -26.5t-82.5 -19.5q48 -37 48 -95q0 -56 -39 -92t-103 -36q-43 0 -75.5 17t-49.5 46.5t-16 65.5zM-326 1448q0 -17 8.5 -31.5t23 -23 t32.5 -8.5q25 -1 43.5 18t18.5 44q0 27 -18 45t-44 18t-45 -18.5t-19 -43.5z" />
<glyph unicode="&#xe4d;" d="M-458 1198q0 73 51 124t122 51q73 0 124 -51t51 -124q0 -72 -51 -123.5t-124 -51.5q-71 0 -122 51.5t-51 123.5zM-368 1198q0 -35 24.5 -59.5t58.5 -24.5q36 0 60.5 24.5t24.5 59.5q0 17 -6.5 33t-18 27.5t-27 18t-33.5 6.5q-34 0 -58.5 -25t-24.5 -60z" />
<glyph unicode="&#xe4e;" d="M-609 1158q0 86 123 129q-44 39 -44 82q0 134 185 134q32 0 87.5 -6.5t82.5 -6.5q66 0 167 64l4 -76q-76 -57 -190 -57q-30 0 -81.5 6.5t-75.5 6.5q-42 0 -42 -65q0 -60 120 -60q40 0 113 24l23 -81q-58 -16 -121 -19q-42 1 -78.5 -2t-68.5 -11.5t-50.5 -24t-18.5 -37.5 q0 -28 32 -44t84 -16q46 0 121 20l21 -79q-78 -21 -142 -21q-32 0 -63.5 3.5t-66.5 13t-61 24.5t-43 40.5t-17 58.5z" />
<glyph unicode="&#xe4f;" horiz-adv-x="974" d="M119 415q0 93 51 172t135.5 124t180.5 45q75 0 144 -28t118 -74.5t78.5 -109.5t29.5 -130q0 -69 -30.5 -132t-81 -108t-118.5 -72t-140 -27q-99 0 -183.5 46t-134 124.5t-49.5 169.5zM264 415q0 -64 32 -119.5t83 -86.5t107 -31q89 0 156.5 71.5t67.5 165.5q0 33 -8.5 64 t-24 57t-37 47.5t-46.5 36.5t-52.5 23.5t-55.5 8.5q-89 0 -155.5 -71t-66.5 -166zM338 415q0 59 40.5 97t107.5 38t109 -39t42 -96t-42 -96t-109 -39q-65 0 -106.5 38.5t-41.5 96.5z" />
<glyph unicode="&#xe50;" horiz-adv-x="1132" d="M114 361q0 93 35 165t97 116.5t143.5 68t178.5 23.5q96 0 177 -23.5t142.5 -69t96 -117.5t34.5 -163q0 -119 -59.5 -206.5t-161.5 -129.5t-230 -37q-95 -1 -176.5 22.5t-143.5 69.5t-97.5 118t-35.5 163zM264 361q0 -68 23.5 -120t65.5 -83t96 -47t119 -16q42 0 80 7 t72 20.5t61 35t46.5 50.5t30 68t10.5 85q0 68 -23.5 120.5t-65 84t-95 47t-116.5 14.5q-65 1 -119 -14.5t-96 -47t-65.5 -83.5t-23.5 -121z" />
<glyph unicode="&#xe51;" horiz-adv-x="1132" d="M104 357q0 124 59 210t161.5 127t242.5 41q77 0 144.5 -13t126 -42.5t100.5 -73t66.5 -107.5t24.5 -142q0 -52 -8 -99t-19 -83t-32.5 -73.5t-38.5 -62t-48 -57t-50.5 -50t-55.5 -50.5l-77 91q95 77 136.5 163.5t41.5 220.5q0 140 -82 205.5t-229 65.5q-148 0 -230.5 -66 t-82.5 -205q0 -263 234 -263q8 0 17.5 1.5t17 4.5t8.5 8q-58 13 -97 60.5t-39 109.5q0 73 50.5 123.5t122.5 50.5q47 0 88 -23t64 -63.5t23 -87.5q-1 -36 -9 -73t-27 -75.5t-47 -68t-72.5 -48.5t-99.5 -19q-184 0 -284 93t-100 270zM484 278q0 -35 24.5 -59.5t59.5 -24.5 t60 24t25 59.5t-25 60.5t-60 25t-59.5 -25t-24.5 -60z" />
<glyph unicode="&#xe52;" horiz-adv-x="1130" d="M3 906l38 136q92 -32 152 -96.5t64 -131.5v-685q0 -18 3 -26t6.5 -9t12.5 -1h499q38 0 70.5 37.5t32.5 87.5v240q-1 4 -1 13q-2 29 -3.5 43t-4.5 36.5t-9 34t-15 24t-22.5 17.5t-32.5 5q-15 0 -30.5 -20t-30.5 -50t-19 -36h-92q-4 6 -20 36t-31 50t-27 20q-24 0 -40 -13 t-24 -37.5t-11.5 -48t-3.5 -55.5q42 24 88 24q73 0 124 -51t51 -124q0 -72 -51 -123t-124 -51q-61 0 -111.5 25.5t-76.5 67.5q-21 32 -27.5 90.5t-6.5 142.5q0 39 4 70t12.5 61.5t24.5 53t39 40t56.5 26.5t76.5 9q18 0 35.5 -7t36 -22.5t27.5 -24.5t26 -28q13 17 24.5 29.5 t27.5 25.5t34.5 20t38.5 7q56 0 98.5 -15.5t68.5 -40.5t42 -63t22 -77.5t6 -89.5v-234q3 -58 -35 -110t-98 -81.5t-120 -26.5h-492h-35.5t-30.5 1t-27.5 2.5t-22.5 4.5t-20 7.5t-15 11t-13 15.5t-8 20.5t-5.5 26.5t-1.5 33l2 675q0 37 -31.5 66t-73.5 43zM468 326 q0 -35 25 -59t59 -24q36 0 60.5 24t24.5 59t-24.5 60t-60.5 25q-34 0 -59 -25t-25 -60z" />
<glyph unicode="&#xe53;" horiz-adv-x="1132" d="M104 366q0 49 6.5 93t20 86.5t37.5 76t56.5 59t79 39.5t103.5 14q51 0 97 -17t77 -48q58 65 162 65q63 0 113.5 -21.5t83 -56.5t53.5 -83.5t30 -99.5t9 -107q0 -109 -33 -195t-116 -188l-79 94q44 60 60.5 124.5t16.5 164.5q0 261 -138 261q-36 0 -65 -59 q-8 -17 -13 -38.5t-6 -34.5l-1 -13v-194h-151v194q-2 50 -21 86q-10 19 -23.5 32.5t-27.5 20t-28 6.5q-46 0 -77.5 -21.5t-47 -60.5t-22 -82t-6.5 -97q0 -15 0.5 -33t0.5 -22q40 24 86 24q72 0 123 -51t51 -124q0 -72 -51 -123.5t-123 -51.5q-70 0 -125 32.5t-75 83.5 q-37 94 -37 265zM257 160q0 -23 11.5 -42.5t30.5 -30t42 -10.5q35 0 60 24t25 59q0 17 -7 33t-18 27.5t-27 18t-33 6.5q-23 0 -42 -11.5t-30.5 -31t-11.5 -42.5z" />
<glyph unicode="&#xe54;" horiz-adv-x="1130" d="M73 370q0 111 61 192t168.5 122t249.5 41h233q52 0 87.5 37t51.5 96t19 137h149q0 -74 -20 -141t-57.5 -120t-97 -84.5t-132.5 -31.5h-233q-147 0 -237.5 -66.5t-90.5 -181.5q0 -61 16.5 -106.5t44.5 -75t70.5 -48t90 -25.5t106.5 -7h51q-63 34 -112 79t-73 96 q-16 33 -16 75q0 36 14 68.5t37 55.5t55 37t67 14q48 0 88.5 -23.5t63.5 -63.5t23 -88q0 -54 -30 -97.5t-78 -63.5q67 -46 141.5 -66.5t114.5 -20.5h113v-110h-459q-85 0 -155 11t-131.5 38t-103 68.5t-65.5 105.5t-24 147zM492 358q0 -35 24.5 -59.5t58.5 -24.5 q36 0 60.5 24t24.5 59.5t-24.5 60.5t-60.5 25q-34 0 -58.5 -25t-24.5 -60z" />
<glyph unicode="&#xe55;" horiz-adv-x="1130" d="M73 370q0 98 52 174t140 120.5t203 57.5h8q-24 36 -24 88q0 73 50.5 124t122.5 51q36 0 68.5 -14t55.5 -37t37 -55.5t14 -68.5q0 -43 -22 -85h7q40 0 70.5 21t49 58t28.5 85.5t10 105.5h149q0 -73 -20 -140t-57.5 -120t-97 -85t-132.5 -32h-233q-143 0 -235.5 -66.5 t-92.5 -181.5q0 -61 16.5 -106.5t44.5 -75t70.5 -48t90 -25.5t106.5 -7h51q-63 34 -112 79t-73 96q-16 33 -16 75q0 36 14 68.5t37 55.5t55 37t67 14q48 0 88.5 -23.5t63.5 -63.5t23 -88q0 -54 -30 -97.5t-78 -63.5q67 -46 141.5 -66.5t114.5 -20.5h113v-110h-459 q-85 0 -155 11t-131.5 38t-103 68.5t-65.5 105.5t-24 147zM492 358q0 -35 24.5 -59.5t58.5 -24.5q36 0 60.5 24t24.5 59.5t-24.5 60.5t-60.5 25q-34 0 -58.5 -25t-24.5 -60zM542 810q0 -35 24.5 -59t58.5 -24q36 0 60.5 24t24.5 59.5t-24.5 60t-60.5 24.5q-34 0 -58.5 -25 t-24.5 -60z" />
<glyph unicode="&#xe56;" horiz-adv-x="1135" d="M-17 931l36 122q170 -17 248 -112t84 -262q108 55 237 55q214 0 323 -102t109 -277q0 -119 -59 -203t-161.5 -125.5t-238.5 -41.5q-157 0 -250 66t-93 188q0 73 50.5 124t121.5 51q73 0 124 -51t51 -124q0 -46 -22.5 -86t-60.5 -64q41 -4 79 -4q137 0 222.5 74t85.5 196 q0 132 -72 202t-209 70q-46 0 -95.5 -11.5t-91 -37.5t-48.5 -60h-135v65v30.5v32.5q0 288 -235 285zM307 239q0 -35 24.5 -59t58.5 -24q36 0 61 24t25 59.5t-25 60t-61 24.5q-16 0 -31.5 -6.5t-27 -18t-18 -27.5t-6.5 -33z" />
<glyph unicode="&#xe57;" horiz-adv-x="1151" d="M66 366q0 55 6.5 103t25 98t48.5 85.5t81 58t118 22.5q64 0 145 -91q21 25 38.5 42t47 33t58.5 16q66 0 115.5 -21.5t77 -54t44.5 -81t22 -93.5t5 -101q0 -52 -6.5 -104t-14 -86.5t-21.5 -89.5q26 11 46.5 29.5t34 41t23.5 57t15.5 67t8.5 82t3.5 91t0.5 103.5 q0 282 158 413l75 -113q-100 -66 -100 -300q0 -173 -29.5 -300.5t-103.5 -206.5q-18 -19 -38.5 -33.5t-42.5 -22.5t-40.5 -13.5t-41.5 -7.5t-34.5 -2.5t-30.5 0t-20 0.5h-34l-35 60q48 64 62.5 140.5t14.5 194.5q0 33 -1 57t-4.5 55t-11.5 52t-20 40.5t-31.5 29t-45.5 9.5 q-22 0 -39.5 -20.5t-26.5 -51.5t-13.5 -60.5t-4.5 -52.5v-44h-122v44q0 20 -4.5 48.5t-13.5 60.5t-26 54t-39 22q-24 0 -43 -8.5t-32.5 -22.5t-23 -35.5t-15 -43t-8.5 -49t-4 -50.5t-1 -50q0 -61 6 -56q40 23 86 23q72 0 123 -51t51 -124q0 -72 -51 -123t-123 -51 q-69 0 -122 31t-76 82q-46 101 -46 269zM226 158.5q0 -35.5 24.5 -59.5t59.5 -24t60 24t25 59.5t-25 60t-60 24.5t-59.5 -24.5t-24.5 -60z" />
<glyph unicode="&#xe58;" horiz-adv-x="1130" d="M104 357q0 111 62 195t166.5 127t235.5 43h232q48 0 86.5 39t58 95t19.5 114l150 -9q0 -62 -23.5 -123.5t-63.5 -111t-100 -80.5t-127 -31h-232q-62 0 -117.5 -17.5t-99.5 -49.5t-70 -81.5t-26 -109.5q0 -200 96 -253q-4 16 -4 31q0 63 47.5 110.5t126.5 47.5q26 0 47 -6 t38.5 -19t29.5 -25t30.5 -32t30.5 -32q32 -30 50.5 -46t36.5 -27.5t30 -11.5q21 0 34 19.5t18 48.5l-16 -2q-72 0 -122.5 51.5t-50.5 123.5t50.5 123t122.5 51t122 -50.5t52 -123.5q1 -29 -1 -58.5t-8 -64t-15.5 -66t-26 -61t-38 -51t-52.5 -34.5t-69 -13q-34 0 -65 15 t-50 33.5t-53 54t-59 57.5q-12 11 -27.5 20.5t-25.5 14.5t-13 5q-16 0 -26.5 -26.5t-6.5 -52.5q2 -17 8 -34.5t10.5 -26t18 -31t17.5 -29.5h-87q-89 0 -157 27t-110 76.5t-63 116.5t-21 150zM766 334.5q0 -35.5 24.5 -59.5t59.5 -24t60 24t25 59.5t-25 60.5t-60 25 t-59.5 -25t-24.5 -60.5z" />
<glyph unicode="&#xe59;" horiz-adv-x="1130" d="M89 364q0 59 9 110t30.5 98t54.5 79.5t85 52t118 19.5q69 0 126 -43t94 -124q-1 73 32 127.5t77 53.5q30 -1 58.5 -19.5t50 -44t39.5 -51t33.5 -43.5t26.5 -18q23 0 40 46t23 109.5t5 130t-11 107.5l143 10q3 -49 3.5 -94.5t-2.5 -100.5t-10.5 -101t-23 -90.5 t-37.5 -75.5t-55.5 -49.5t-75.5 -18.5q-20 1 -38 7.5t-31.5 17t-25.5 23.5t-21.5 27t-19.5 27.5t-18 24t-18 17t-21 6.5q-19 -6 -31 -35t-10 -71q4 -81 74 -186.5t139 -150.5q24 -13 51.5 -23.5t43.5 -14.5l15 -3l-20 -125q-62 13 -117.5 44t-97.5 70t-80 90t-63.5 98.5 t-48.5 100.5q-20 47 -38.5 82.5t-44 73t-55 58t-60.5 20.5q-26 0 -48 -8t-37.5 -21.5t-27 -33t-19 -41t-12 -47t-6 -49t-1.5 -48.5q0 -62 8 -100q23 35 60.5 55t80.5 20q73 0 124 -51t51 -124q0 -72 -51 -123t-124 -51q-56 0 -105 23t-83 61t-58.5 87t-36.5 101t-12 102z M301 164q0 -23 11.5 -42t30.5 -30t41 -11q24 0 43.5 11t31 30t11.5 42q0 36 -25 60.5t-61 24.5q-34 0 -58.5 -24.5t-24.5 -60.5z" />
<glyph unicode="&#xe5a;" horiz-adv-x="1205" d="M118 737q0 62 43.5 106t106 44t106 -44t43.5 -106q0 -49 -28 -87q58 0 105 14.5t81.5 43t56 71.5t27.5 99v5h153v-883h-153v642q-107 -75 -242 -75h-12q-30 0 -46.5 0.5t-46.5 2.5t-50 7.5t-43.5 14.5t-42 24t-32.5 36q-26 39 -26 85zM191 737q0 -31 22.5 -53t54 -22 t53.5 22t22 53t-22 53.5t-53.5 22.5t-54 -22.5t-22.5 -53.5zM904 0v883h155v-883h-155z" />
<glyph unicode="&#xe5b;" horiz-adv-x="1505" d="M118 461q0 146 58 235t156 89q53 0 94 -29t63 -79.5t22 -114.5q0 -30 -7.5 -62.5t-22.5 -63t-42 -50t-61 -19.5q-47 0 -76.5 35t-29.5 90q0 25 7.5 47.5t21 39.5t33.5 27.5t44 10.5q23 0 35 -6q-6 41 -28 63.5t-53 22.5q-53 0 -87.5 -60.5t-34.5 -154.5q0 -118 45.5 -192 t114.5 -74q84 0 141 102t57 260v24l-1 57l66 -31l77 -151l71 202l73 -177l59 125l73 -122q8 11 23 30t19 24h141q114 -4 177 19l12 -20q-29 -29 -79 -50.5t-106 -31.5h-112l-82 -121l-61 102q-9 -21 -36.5 -78t-37.5 -80l-59 153l-64 -176l-79 154q-27 -141 -100.5 -222 t-171.5 -81q-51 0 -96.5 24.5t-79 67.5t-54 106t-22.5 136zM336 492q0 -25 11.5 -43.5t28.5 -18.5q19 0 30.5 18t11.5 44q0 13 -3 24t-8 19t-13 13t-18 5q-17 0 -28.5 -18t-11.5 -43z" />
<glyph unicode="&#x2000;" horiz-adv-x="942" />
<glyph unicode="&#x2001;" horiz-adv-x="1884" />
<glyph unicode="&#x2002;" horiz-adv-x="942" />
<glyph unicode="&#x2003;" horiz-adv-x="1884" />
<glyph unicode="&#x2004;" horiz-adv-x="628" />
<glyph unicode="&#x2005;" horiz-adv-x="471" />
<glyph unicode="&#x2006;" horiz-adv-x="314" />
<glyph unicode="&#x2007;" horiz-adv-x="314" />
<glyph unicode="&#x2008;" horiz-adv-x="235" />
<glyph unicode="&#x2009;" horiz-adv-x="376" />
<glyph unicode="&#x200a;" horiz-adv-x="104" />
<glyph unicode="&#x2010;" horiz-adv-x="860" d="M147 415v103h568v-103h-568z" />
<glyph unicode="&#x2011;" horiz-adv-x="860" d="M147 415v103h568v-103h-568z" />
<glyph unicode="&#x2012;" horiz-adv-x="860" d="M147 415v103h568v-103h-568z" />
<glyph unicode="&#x2013;" horiz-adv-x="860" d="M147 417v102h568v-102h-568z" />
<glyph unicode="&#x2014;" horiz-adv-x="1093" d="M147 417v102h800v-102h-800z" />
<glyph unicode="&#x2018;" horiz-adv-x="470" d="M119 968q0 -48 20 -83q13 -22 36 -35t49 -13q28 0 51 12.5t36 34.5t13 49q0 43 -28.5 71.5t-71.5 28.5q-2 0 4.5 19.5t23.5 49.5t40 51l-7 42q-79 -41 -122.5 -103.5t-43.5 -123.5z" />
<glyph unicode="&#x2019;" horiz-adv-x="470" d="M118 1095q0 40 29 68.5t71 28.5q26 0 49 -13.5t36 -35.5q19 -34 19 -83q0 -40 -18 -81t-56 -80t-91 -66l-7 42q23 21 40 51t23.5 49.5t4.5 19.5q-43 0 -71.5 28.5t-28.5 71.5z" />
<glyph unicode="&#x201c;" horiz-adv-x="715" d="M144 968q0 -50 20 -85q13 -22 36 -35t49 -13q42 0 71 28.5t29 68.5q0 43 -28.5 71.5t-71.5 28.5q-2 0 4.5 19.5t23.5 49.5t40 51l-7 42q-79 -41 -122.5 -103.5t-43.5 -122.5zM393 968q0 -50 21 -85q13 -22 35.5 -35t49.5 -13q42 0 71 28.5t29 68.5q0 43 -29 71.5 t-71 28.5q-2 0 4 19.5t23.5 49.5t40.5 51l-8 42q-78 -41 -122 -103.5t-44 -122.5z" />
<glyph unicode="&#x201d;" horiz-adv-x="704" d="M106 1020q0 -43 28.5 -71.5t71.5 -28.5q2 0 -4.5 -19.5t-23.5 -49.5t-40 -51l7 -41q79 40 122.5 102.5t43.5 123.5q0 48 -20 83q-13 22 -36 35.5t-49 13.5q-42 0 -71 -28t-29 -69zM355 1020q0 -28 13.5 -51t36 -36t50.5 -13q2 0 -4 -19.5t-23 -49.5t-40 -51l7 -41 q78 40 122 102.5t44 123.5q0 48 -21 83q-13 22 -36 35.5t-49 13.5q-42 0 -71 -28t-29 -69z" />
<glyph unicode="&#x2022;" horiz-adv-x="623" d="M132 482q0 74 52.5 126t128.5 52q48 0 89.5 -23.5t65.5 -64.5t24 -90q0 -75 -52.5 -127t-126.5 -52q-76 0 -128.5 51.5t-52.5 127.5z" />
<glyph unicode="&#x2026;" horiz-adv-x="1144" d="M118 94q0 38 30.5 68.5t69.5 30.5q36 0 67 -30.5t31 -68.5q0 -39 -31 -69.5t-67 -30.5q-39 0 -69.5 30.5t-30.5 69.5zM455 94q0 25 14 48t37 37t49 14q36 0 67 -30.5t31 -68.5q0 -39 -31 -69.5t-67 -30.5q-39 0 -69.5 30.5t-30.5 69.5zM793 94q0 38 30.5 68.5t69.5 30.5 q36 0 67 -30.5t31 -68.5q0 -39 -31 -69.5t-67 -30.5q-39 0 -69.5 30.5t-30.5 69.5z" />
<glyph unicode="&#x202f;" horiz-adv-x="376" />
<glyph unicode="&#x205f;" horiz-adv-x="471" />
<glyph unicode="&#x20ac;" horiz-adv-x="1130" d="M118 411v132h80v50q0 30 2 44h-82v132h100q15 63 43.5 128t62.5 113q63 84 146.5 134t179.5 50q100 0 194.5 -62.5t165.5 -173.5l-113 -67q-48 77 -112.5 124.5t-134.5 47.5q-62 0 -118 -34.5t-100 -97.5q-52 -71 -79 -162h357v-132h-380v-44q0 -36 2 -50h378v-132h-357 q23 -86 79 -160q29 -42 64 -71.5t74 -44.5t80 -15q65 0 131 47t119 131l113 -69q-72 -114 -167 -177.5t-196 -63.5q-96 0 -180.5 50t-145.5 135q-70 100 -106 238h-100z" />
<glyph unicode="&#x25fc;" horiz-adv-x="916" d="M0 0v918h918v-918h-918z" />
<glyph unicode="&#xee0d;" horiz-adv-x="1394" d="M88 619q1 6 3 17t14 41.5t28 58t47.5 61.5t70.5 58.5t99.5 41t131.5 16.5q70 0 127.5 -14t95.5 -36t67 -51t44.5 -56.5t25.5 -56t12.5 -45.5t2.5 -29v-527h231q9 0 12.5 1.5t6 9.5t2.5 26v748h153v-763q0 -18 -1 -32.5t-5.5 -26t-8 -20.5t-12.5 -15t-15 -10.5t-19.5 -7.5 t-22 -4.5t-27 -2.5t-29.5 -1h-34h-384v609q1 14 -2 33t-15.5 48t-34.5 52.5t-65.5 40.5t-100.5 17q-53 0 -98 -14t-71.5 -35t-41.5 -41.5t-18 -36.5l157 -27v-69q-5 -2 -12.5 -5.5t-27 -17.5t-34.5 -31.5t-27 -47t-12 -64.5l2 -82q7 1 21 1q73 0 124 -50.5t51 -122.5 q0 -73 -51 -123.5t-124 -50.5q-47 0 -87 23t-63.5 63.5t-23.5 87.5v231q0 37 15.5 71.5t37.5 57.5t44.5 40.5t37.5 26.5l16 8zM241 157q0 -35 24 -60t59.5 -25t60 25t24.5 60t-24.5 59.5t-60 24.5t-59.5 -24.5t-24 -59.5z" />
<glyph unicode="&#xee10;" horiz-adv-x="860" d="M79 637q17 86 58 147.5t107 95t151 33.5q39 0 87 -13t79 -23.5t70 -4.5t73 40l73 -108q-62 -59 -143 -58q-46 1 -126.5 28.5t-112.5 27.5q-36 0 -74 -18.5t-60 -48.5q470 -21 470 -228v-387q0 -18 -1.5 -32.5t-6.5 -26t-9 -20.5t-13.5 -15t-16 -10.5t-21.5 -7.5 t-24.5 -4.5t-29.5 -2.5t-32 -1h-37l-120 283q-41 -38 -98 -44t-108 22q-62 36 -81 106.5t17 131.5q36 62 105.5 81t133.5 -18q51 -28 76 -91l115 -284v299q0 29 -14 52t-36 39t-59.5 27t-76 17.5t-94 10t-104.5 4.5t-117 1zM219.5 391q9.5 -34 40.5 -52q29 -17 62.5 -8 t49.5 39q18 31 10 65t-39 51t-63.5 7.5t-51.5 -40.5q-18 -28 -8.5 -62z" />
<glyph unicode="&#xee31;" d="M-788 1211q0 62 44 106t106 44t106 -44t44 -106q0 -50 -29 -87q118 0 188 58.5t82 169.5l137 -22q-12 -86 -69.5 -153t-139 -101.5t-169.5 -34.5h-12h-40t-40 1.5t-42.5 4.5t-39.5 9t-39 15t-32.5 23t-28.5 32q-26 39 -26 85zM-715 1211q0 -31 23 -53t54 -22t53.5 22 t22.5 53q0 15 -6.5 29.5t-16.5 24.5t-24 16t-29 6q-31 0 -54 -22.5t-23 -53.5z" />
<glyph unicode="&#xee33;" horiz-adv-x="790" d="M-753 1259q0 48 23 88t63 63.5t87 23.5q73 0 124 -51t51 -124q0 -72 -51 -123.5t-124 -51.5q-71 0 -122 51.5t-51 123.5zM-663 1259q0 -35 24.5 -59t58.5 -24q36 0 61 24t25 59.5t-25 60t-61 24.5q-34 0 -58.5 -25t-24.5 -60zM28 669q5 19 10 33.5t13.5 35.5t18 37 t24.5 35.5t32 33.5t40.5 28t50.5 22.5t62 14t74 5.5q60 0 110 -12t84.5 -31.5t61 -46t42.5 -53t26 -56t13.5 -52t3.5 -42.5v-621h-154v606q0 26 -3.5 49.5t-15.5 51.5t-31.5 48.5t-54.5 34t-82 13.5q-175 0 -220 -175z" />
<glyph unicode="&#xee34;" d="M-1080 1016q21 135 114 215.5t235 80.5q66 0 132 -20.5t124 -59t101.5 -101.5t59.5 -140q-133 27 -212 39.5t-171.5 18t-179.5 -3t-203 -29.5zM-931 1106q85 10 177 7.5t153.5 -8.5t144.5 -19q-24 36 -57 62.5t-68 41.5t-72.5 22t-71.5 6.5t-64 -7.5q-101 -22 -142 -105z " />
<glyph unicode="&#xee35;" d="M-1124 1020q21 135 114.5 216t234.5 81q71 0 141.5 -23.5t128.5 -67.5v161h139v-364q7 -20 8 -28q-133 27 -212 39.5t-171.5 18t-179.5 -2.5t-203 -30zM-975 1104q70 6 134 7.5t123.5 -2.5t108 -9.5t109.5 -15.5q-42 64 -112 100t-139 38.5t-132 -28t-92 -90.5z" />
<glyph unicode="&#xee36;" d="M-1109 1016q20 135 113.5 215.5t235.5 80.5q76 0 154 -28q6 57 47.5 95.5t99.5 38.5q41 0 75.5 -20t54 -54t19.5 -76q0 -46 -25 -84t-67 -56q45 -64 59 -137q-134 27 -213 39.5t-171 18t-179 -3t-203 -29.5zM-961 1106q86 10 178 7.5t153.5 -8.5t144.5 -19 q-20 30 -46.5 53.5t-55.5 38.5t-59.5 25t-61 13t-58.5 2t-53 -7q-100 -22 -142 -105zM-530 1268q0 -30 20.5 -50t50.5 -20q31 0 51 20t20 50t-20.5 51t-50.5 21t-50.5 -21t-20.5 -51z" />
<glyph unicode="&#xee37;" d="M-1127 1016q20 135 113.5 215.5t235.5 80.5q27 0 56 -4v75h139v-116q34 -16 75 -46v162h140v-365q4 -14 7 -27q-134 27 -213 39.5t-171 18t-179 -3t-203 -29.5zM-978 1106q86 10 178 7.5t153 -8.5t144 -19q-24 36 -57 62.5t-68 41.5t-73 22t-71.5 6.5t-63.5 -7.5 q-100 -22 -142 -105z" />
<glyph unicode="&#xee38;" d="M-442 -531q0 62 43.5 105.5t106 43.5t108 -43.5t45.5 -105.5v-279h-153v129q-63 0 -106.5 43.5t-43.5 106.5zM-368 -531q0 -32 22 -53.5t54 -21.5q31 0 52.5 22t21.5 53t-21.5 53.5t-52.5 22.5q-32 0 -54 -22.5t-22 -53.5z" />
<glyph unicode="&#xee39;" horiz-adv-x="71" d="M-691 -531q0 62 43.5 105.5t106 43.5t107.5 -43.5t45 -105.5v-196h81q9 0 12.5 1.5t6.5 9.5t3 26v295h153v-295q0 -18 -1.5 -32.5t-6 -26t-8 -20.5t-12.5 -15.5t-15 -11t-19.5 -7t-22 -4t-27 -2.5t-29.5 -1h-34h-234v129q-62 0 -105.5 43.5t-43.5 106.5zM-618 -531 q0 -31 22.5 -53t53.5 -22t53 22t22 53t-22 53.5t-53 22.5t-53.5 -22.5t-22.5 -53.5z" />
<glyph unicode="&#xee3a;" horiz-adv-x="62" d="M-357 -478.5q0 40.5 29.5 70.5t70.5 30t70.5 -29.5t29.5 -70.5t-29.5 -70.5t-70.5 -29.5t-70.5 29.5t-29.5 70z" />
<glyph unicode="&#xee47;" d="M-906 1208q0 68 63.5 116.5t140.5 48.5q26 0 81 -4t85 -4q53 0 81 21t28 80l105 -38q-9 -43 -27.5 -71.5t-46.5 -43t-58.5 -20.5t-72.5 -6q-26 0 -83 3t-92 3q-16 0 -33.5 -6t-32.5 -16.5t-25 -27t-10 -35.5q0 -45 37 -70q6 15 14 25.5t19.5 19.5t28.5 13.5t39 4.5 q16 -2 34.5 -9.5t31 -15.5t36.5 -24q1 40 32 68t74 28q22 0 41.5 -8t34 -21t23.5 -31.5t9 -39.5q0 -42 -33.5 -77t-84.5 -35q-27 0 -56 13.5t-50 29.5t-47 29t-46 13q-38 0 -44 -72h-87q-39 17 -74 64t-35 95zM-499 1146q0 -15 13 -29t29 -14t29 14t13 29q0 19 -13 32.5 t-29 13.5q-17 0 -29.5 -13.5t-12.5 -32.5z" />
<glyph unicode="&#xee48;" d="M-286 1029v336h153v-336h-153z" />
<glyph unicode="&#xee49;" d="M-590 1309q0 62 44 106t106 44t105.5 -44t43.5 -106q0 -27 -10 -61t-18.5 -52t-29.5 -63q51 9 94 32.5t71 54t49 69t32 74.5t15 74l136 -39q-3 -24 -13 -53t-32 -68t-52 -75.5t-77 -71.5t-103.5 -59t-136 -35t-170.5 -3v40q18 5 35 13t32 18.5t26 25.5t16 31 q-5 -2 -13 -2q-62 0 -106 44t-44 106zM-517 1309q0 -20 10.5 -37.5t28 -27.5t38.5 -10q31 0 52.5 22t21.5 53q0 32 -21.5 54t-52.5 22q-32 0 -54.5 -22t-22.5 -54z" />
<glyph unicode="&#xee4a;" d="M-637 1174q0 32 7 64t23 65.5t46 63.5t71 52l98 -69q36 26 99 68q40 -17 69.5 -44.5t44 -57.5t21 -56.5t6.5 -50.5q-3 -22 -14 -66q20 19 32.5 60.5t15 87t2.5 77t-2 47.5h97q0 -1 1 -4q0 -12 0.5 -21.5t-0.5 -34.5t-4 -47t-10.5 -53t-18 -57t-28 -55.5t-40 -53 t-55.5 -44.5t-72 -34l-50 24q18 21 32 70t15 100q-2 90 -44 129q-12 -7 -31.5 -18.5t-37 -22t-29.5 -16.5l-97 57q-9 -7 -19 -30t-8 -35h16q55 0 93 -38t38 -92q0 -36 -17 -66.5t-47.5 -49t-66.5 -18.5q-22 0 -43.5 8t-37.5 21t-28 31t-18 38q-9 30 -9 71zM-559 1140 q0 -25 17 -42.5t41 -17.5q23 0 39.5 18t16.5 42q0 23 -16.5 39t-39.5 16q-24 0 -41 -16t-17 -39z" />
<glyph unicode="&#xee4b;" d="M-411 1155v108h120v121h153v-121h121v-108h-121v-120h-153v120h-120z" />
<glyph unicode="&#xee4c;" d="M-421 1152q0 128 168 160q36 7 61 14.5t54 21t48.5 32t36 47.5t24.5 67l137 -30q-8 -44 -28.5 -77.5t-45.5 -55.5t-64.5 -39t-73.5 -26.5t-83 -19.5q49 -38 49 -95q0 -36 -17 -65t-50 -46t-75 -17q-65 0 -104 37t-37 92zM-342 1148q0 -26 18.5 -45t44.5 -19q25 -1 44 18 t19 44q0 27 -18 45t-45 18q-25 0 -44 -18t-19 -43z" />
<glyph unicode="&#xee4d;" d="M-458 1477q0 72 51 123t122 51q73 0 124 -50.5t51 -123.5q0 -72 -51 -123.5t-124 -51.5q-71 0 -122 51.5t-51 123.5zM-368 1476.5q0 -35.5 24.5 -59.5t58.5 -24q36 0 60.5 24t24.5 60q0 17 -6.5 33t-18 27t-27 18t-33.5 7q-34 0 -58.5 -25t-24.5 -60.5z" />
<glyph unicode="&#xf0e48;" d="M-546 1086v320h153v-320h-153z" />
<glyph unicode="&#xf0e49;" d="M-812 1397.5q0 61.5 44 105.5t106 44t105.5 -44t43.5 -105q0 -28 -10 -61.5t-18.5 -53t-29.5 -62.5q52 9 94.5 32.5t71 54t49 68.5t31.5 74.5t15 74.5l137 -40q-3 -23 -13.5 -52t-32 -68t-51.5 -75.5t-77.5 -71.5t-104 -59t-136 -35t-170.5 -3v40q39 10 70 33t40 55 q-3 -1 -14 -1q-62 0 -106 44t-44 105.5zM-738 1398q0 -32 22 -53.5t54 -21.5q31 0 53 22t22 53t-22 53t-53 22q-32 0 -54 -22t-22 -53z" />
<glyph unicode="&#xf0e4a;" d="M-876 1311q0 32 7 64t23 65.5t46 63.5t71 52l98 -69q31 22 98 67q40 -17 69.5 -44.5t44 -57.5t21 -56t6.5 -50q-9 -69 -13 -87q26 9 45 47t26.5 83.5t10 91.5t-4.5 70h98q2 -15 2.5 -38.5t-3 -60t-12 -72.5t-28 -75t-46.5 -70t-71 -55t-100 -32l-50 23q12 14 22.5 41 t17.5 61.5t8 68.5q-2 90 -44 129q-13 -8 -48.5 -28.5t-50.5 -28.5l-96 57q-9 -7 -19 -30t-8 -35h16q36 0 66.5 -17.5t47.5 -47.5t17 -66q0 -54 -38 -93.5t-93 -39.5q-45 0 -81 28t-47 70q-8 27 -8 71zM-798 1277q0 -25 17 -42.5t41 -17.5q15 0 28 8t20.5 22t7.5 30 q0 23 -16.5 38.5t-39.5 15.5q-24 0 -41 -15.5t-17 -38.5z" />
<glyph unicode="&#xf0e4b;" d="M-708 1287v109h135v120h139v-120h135v-109h-135v-120h-139v120h-135z" />
<glyph unicode="&#xf0e4c;" d="M-654 1244q0 128 168 160q36 7 61.5 14.5t54 21.5t48 32t36 47.5t24.5 67.5l136 -31q-7 -37 -21 -66.5t-36.5 -50.5t-46.5 -37t-57.5 -28t-62.5 -19.5t-70 -16.5q48 -37 48 -94q0 -56 -38.5 -92.5t-102.5 -36.5q-65 0 -104 37t-37 92zM-575 1240q0 -17 8 -31.5t22.5 -23 t31.5 -8.5q26 -1 45 17.5t19 43.5q0 27 -18.5 45.5t-45.5 18.5q-25 0 -43.5 -18.5t-18.5 -43.5z" />
<glyph unicode="&#xf0e4d;" d="M-737 1259q0 73 51 124t123 51q73 0 123.5 -51t50.5 -124q0 -72 -51 -123.5t-123 -51.5t-123 51.5t-51 123.5zM-648 1259q0 -23 11.5 -42.5t31 -30t42.5 -10.5q35 0 60 24t25 59.5t-25 60t-60 24.5t-60 -25t-25 -60z" />
<glyph unicode="&#xfee48;" d="M-505 1483v265h139v-265h-139z" />
<glyph unicode="&#xfee49;" d="M-671 1752.5q0 55.5 38.5 93.5t94.5 38q53 0 92 -38t39 -93q5 -40 -10 -90t-35 -89q63 6 118 45t91 104.5t43 145.5l102 -29q-4 -32 -13 -65t-28.5 -71.5t-46 -72.5t-67.5 -65.5t-91.5 -53.5t-120.5 -34t-152 -9v43q42 14 74 45t28 67q-14 -4 -23 -4q-55 0 -94 38.5 t-39 94zM-606 1752.5q0 -27.5 20 -46t48 -18.5q18 0 34 8.5t25 23.5t9 33q0 27 -20 46.5t-48 19.5t-48 -19.5t-20 -47z" />
<glyph unicode="&#xfee4a;" d="M-845 1609q0 33 7 64.5t23 65t46 64t71 51.5l98 -70q46 34 98 68q40 -17 69.5 -44t44 -57.5t21 -57t6.5 -50.5q-8 -67 -13 -86q26 9 45 47t26.5 83t10 91t-4.5 71h97q3 -16 3.5 -39.5t-3 -60t-12 -72.5t-28 -75t-46.5 -70t-71 -54.5t-100 -31.5l-50 23q18 21 32.5 70.5 t15.5 99.5q-3 91 -44 130q-14 -8 -49 -29t-50 -29l-96 58q-9 -7 -19 -30t-8 -35h16q36 0 66 -17.5t47.5 -47t17.5 -65.5q0 -55 -38 -94.5t-93 -39.5q-30 0 -57 13.5t-45 35.5t-26 50q-8 27 -8 70zM-768 1575q0 -25 17.5 -43t41.5 -18q23 0 39.5 18t16.5 43q0 15 -7.5 27.5 t-20.5 19.5t-28 7q-24 0 -41.5 -15.5t-17.5 -38.5z" />
<glyph unicode="&#xfee4b;" d="M-643 1600v93h135v121h138v-121h135v-93h-135v-121h-138v121h-135z" />
<glyph unicode="&#xfee4c;" d="M-538 1471q0 127 170 160q29 5 51 11t46.5 15.5t43 23t35 31.5t28.5 43.5t19 57.5l136 -31q-7 -44 -27.5 -77.5t-46 -55t-64.5 -39t-73 -26.5t-83 -20q49 -38 49 -95q0 -55 -39 -91t-103 -36q-65 0 -104 36.5t-38 92.5zM-458 1466q0 -26 18.5 -44t44.5 -18 q13 -1 24.5 3.5t20 13t13.5 20t5 24.5q0 26 -18 44.5t-45 18.5q-25 0 -44 -18.5t-19 -43.5z" />
<glyph unicode="&#xfee4d;" d="M-561 1469q0 73 50.5 123.5t122.5 50.5q73 0 124.5 -50.5t51.5 -123.5q0 -72 -51.5 -123.5t-124.5 -51.5q-71 0 -122 51.5t-51 123.5zM-471 1469q0 -35 24.5 -59.5t58.5 -24.5q36 0 60.5 24.5t24.5 59.5t-24.5 60t-60.5 25q-34 0 -58.5 -25t-24.5 -60z" />
</font>
</defs>
</svg>
