<?xml version="1.0" standalone="no"?>
<!DOCTYPE svg PUBLIC "-//W3C//DTD SVG 1.1//EN" "http://www.w3.org/Graphics/SVG/1.1/DTD/svg11.dtd" >
<svg xmlns="http://www.w3.org/2000/svg" xmlns:xlink="http://www.w3.org/1999/xlink" version="1.1">
<metadata>
Created by FontForge 20170731 at Mon Apr 25 18:37:44 2016
 By Aleksey,,,
(c) 2014, Chanok Samiti.

Created by Chanok Samiti with the help from F0nt.com community.

This work is licensed under the Creative Commons Attribution 4.0 International License. To view a copy of this license, visit http://creativecommons.org/licenses/by/4.0/.
</metadata>
<defs>
<font id="CSPraJad-boldItalic" horiz-adv-x="0" >
  <font-face 
    font-family="CS PraJad"
    font-weight="700"
    font-style="italic"
    font-stretch="normal"
    units-per-em="1200"
    panose-1="2 0 8 3 0 0 0 0 0 0"
    ascent="960"
    descent="-240"
    x-height="600"
    cap-height="800"
    bbox="-663 -552 1123 1284"
    underline-thickness="60"
    underline-position="-180"
    unicode-range="U+0020-FEE4D"
  />
<missing-glyph horiz-adv-x="600" 
d="M60 0v640h480v-640h-480zM120 60h360v520h-360v-520z" />
    <glyph glyph-name=".notdef" horiz-adv-x="600" 
d="M60 0v640h480v-640h-480zM120 60h360v520h-360v-520z" />
    <glyph glyph-name=".null" 
 />
    <glyph glyph-name="nonmarkingreturn" horiz-adv-x="400" 
 />
    <glyph glyph-name="space" unicode=" " horiz-adv-x="360" 
 />
    <glyph glyph-name="exclam" unicode="!" horiz-adv-x="307" 
d="M183 69q-7 -29 -33 -49t-57 -20t-47.5 20t-9.5 49t32.5 49t56.5 20t48 -20t10 -49zM338 822l-143 -617h-109l143 617h109z" />
    <glyph glyph-name="quotedbl" unicode="&#x22;" horiz-adv-x="391" 
d="M438 810l-63 -229h-66l43 229h86zM293 810l-63 -229h-66l43 229h86z" />
    <glyph glyph-name="numbersign" unicode="#" horiz-adv-x="762" 
d="M772 562l-37 -86h-127l-64 -147h126l-36 -86h-128l-103 -243h-101l104 243h-124q-90 -211 -103 -243h-101l104 243h-126l37 86h126l63 147h-126l38 86h126l98 231h101l-99 -231h125l98 231h101l-99 -231h127zM383 476l-63 -147h123l64 147h-124z" />
    <glyph glyph-name="dollar" unicode="$" horiz-adv-x="737" 
d="M340 -115h-97l23 98q-96 11 -147.5 82t-39.5 190l108 14q-10 -87 17 -136t83 -60l70 302q-19 6 -33 11t-32 12.5t-31.5 14.5t-28 17.5t-24.5 21.5t-18.5 26t-12.5 31t-3.5 36.5t5.5 42.5q16 70 60.5 120.5t100 76t119.5 33.5l22 96h97l-22 -96q86 -13 129 -78.5
t28 -174.5l-105 -13q18 150 -73 174l-66 -284q19 -6 33.5 -11t33 -13t32 -15.5t28 -18.5t24.5 -22.5t18.5 -26.5t12 -32t3 -38t-5.5 -44q-12 -53 -41 -95.5t-68.5 -70.5t-83.5 -45t-91 -24zM282 588q-6 -25 -0.5 -45t22 -34t33.5 -22.5t42 -16.5l59 257q-62 -11 -103 -47.5
t-53 -91.5zM443 750l22 -20q-14 0 -27 -3zM448 349l-63 -272q57 12 101 48.5t58 95.5q12 50 -16 80t-80 48zM379 53l-22 19q4 1 28 5z" />
    <glyph glyph-name="percent" unicode="%" horiz-adv-x="739" 
d="M100 -21l-74 47l679 799l74 -47zM295.5 488q-64.5 0 -98.5 47.5t-19 115.5q16 67 72 114.5t120.5 47.5t98.5 -47.5t18 -114.5q-15 -68 -71 -115.5t-120.5 -47.5zM349 720q-22 0 -43.5 -20.5t-28.5 -48.5q-6 -29 5.5 -49.5t34.5 -20.5t44 20.5t27 49.5q7 29 -4.5 49
t-34.5 20zM438 -11q-63 0 -97 48t-19 115q16 68 72 116t120 48t98.5 -48t18.5 -116t-72 -115.5t-121 -47.5zM492 221q-23 0 -43.5 -20.5t-27.5 -48.5q-6 -28 5.5 -48t33.5 -20q24 0 45 20t27 48q4 19 0.5 34.5t-14.5 25t-26 9.5z" />
    <glyph glyph-name="ampersand" unicode="&#x26;" horiz-adv-x="838" 
d="M750 50l-76 -71q-55 49 -105 114q-112 -103 -240 -103q-42 0 -80.5 8t-73 25t-56.5 43.5t-31.5 65t3.5 88.5q6 25 18.5 49t26.5 42.5t38.5 39t42 34t48.5 32.5t47.5 28l49.5 27q-62 100 -46 171q18 74 82.5 120.5t133.5 46.5q71 0 117 -43.5t30 -111.5
q-24 -106 -182 -204l96 -187q30 51 56 116l97 -13q-40 -102 -106 -193q63 -82 110 -124zM190 220q-10 -34 -1 -58t24 -40t40 -25.5t48.5 -13t47.5 -3.5q83 0 174 88l-119 232l-27 -14q-30 -17 -47.5 -26.5t-45 -28t-44 -33.5t-31 -36t-19.5 -42zM580 655q7 30 -16 48t-53 18
q-29 0 -58 -19.5t-36 -51.5q-10 -45 38 -124q111 68 125 129z" />
    <glyph glyph-name="quotesingle" unicode="'" horiz-adv-x="246" 
d="M293 810l-63 -229h-66l43 229h86z" />
    <glyph glyph-name="parenleft" unicode="(" horiz-adv-x="342" 
d="M143 -150q-15 40 -27 85t-21.5 109.5t-6 144t22.5 160.5q18 78 50.5 156t72.5 143t73 111.5t68 87.5l72 -44q-66 -79 -131 -198t-96 -256q-22 -95 -22.5 -190t11 -155.5t29.5 -108.5z" />
    <glyph glyph-name="parenright" unicode=")" horiz-adv-x="390" 
d="M293 870q15 -40 27 -85t22 -109.5t6 -144t-22 -160.5q-18 -78 -51 -156t-72.5 -143t-73 -111.5t-67.5 -87.5l-73 44q66 79 131 198t97 256q22 95 22.5 190t-11 155.5t-30.5 108.5z" />
    <glyph glyph-name="asterisk" unicode="*" horiz-adv-x="482" 
d="M447 540l-81 -51l-50 95l-93 -95l-54 53l90 93q-87 30 -105 36l42 77l106 -37l27 117h88l-27 -117l122 37l6 -77l-122 -36q8 -15 25.5 -48t25.5 -47z" />
    <glyph glyph-name="plus" unicode="+" horiz-adv-x="576" 
d="M520 366l-19 -86h-161l-37 -159h-95l37 159h-160l19 86h160l37 159h95l-37 -159h161z" />
    <glyph glyph-name="comma" unicode="," horiz-adv-x="341" 
d="M180 103q8 -24 1 -57q-10 -42 -49.5 -84.5t-99.5 -69.5l2 28q19 14 35 34.5t23.5 34t5.5 13.5q-28 0 -43.5 19.5t-8.5 48.5q7 28 31 47t52 19q39 0 51 -33z" />
    <glyph glyph-name="hyphen" unicode="-" horiz-adv-x="603" 
d="M503 353l-16 -70h-387l16 70h387z" />
    <glyph glyph-name="period" unicode="." horiz-adv-x="295" 
d="M118 131q25 0 41.5 -20.5t10.5 -46.5q-6 -27 -32 -47.5t-51 -20.5q-26 0 -42 20.5t-10 47.5q6 26 31.5 46.5t51.5 20.5z" />
    <glyph glyph-name="slash" unicode="/" horiz-adv-x="486" 
d="M64 -26l-82 36l501 800l82 -35z" />
    <glyph glyph-name="zero" unicode="0" horiz-adv-x="750" 
d="M313 -11h-2q-66 2 -112.5 25t-71 60t-34 90t-5 109.5t20 123.5t37 124t55 111t75.5 92t99.5 60.5t125.5 22.5t115 -23t71 -61t33 -92t4.5 -111t-19.5 -123q-11 -46 -25 -88t-33.5 -83t-43 -75t-54 -64t-65.5 -51t-78.5 -33.5t-92.5 -13.5zM481 719q-48 -1 -88 -19
t-69 -47.5t-52.5 -72t-38.5 -86.5t-27 -97q-75 -322 126 -322q47 0 87.5 19t69.5 49t52.5 73t39 86.5t27.5 94.5q74 321 -127 322z" />
    <glyph glyph-name="one" unicode="1" horiz-adv-x="566" 
d="M194 585l-20 80q59 24 120.5 59.5t86 52.5t32.5 24h85l-185 -801h-97l156 674q-81 -49 -178 -89z" />
    <glyph glyph-name="two" unicode="2" horiz-adv-x="750" 
d="M632 89l-21 -88h-592l17 74q23 100 138 186q58 41 209 116q40 19 63 31t56.5 30.5t53.5 33.5t41.5 34t34 40t17.5 43q9 37 -2 64.5t-37.5 42t-59.5 21.5t-74 7q-78 0 -137.5 -41.5t-78.5 -122.5h-97q19 82 70 139.5t118.5 84.5t144.5 27q37 0 70.5 -5t66 -16t56.5 -28.5
t41 -42t21 -57t-4 -73.5q-5 -23 -15.5 -44.5t-22 -39.5t-31.5 -37t-35 -32.5t-42 -31t-43 -27.5t-48.5 -27.5t-47.5 -25t-50 -24.5q-134 -66 -189 -105q-67 -47 -86 -106h495z" />
    <glyph glyph-name="three" unicode="3" horiz-adv-x="750" 
d="M313 -9q-61 0 -110 17t-82.5 50.5t-45.5 83.5t2 116h97q-19 -88 27.5 -134t131.5 -46t152.5 41.5t85.5 119.5q18 77 -30.5 119.5t-133.5 40.5h-68l20 87h67q48 2 87 13t71.5 38.5t42.5 68.5q7 30 -3 53.5t-32 36.5t-50 19.5t-60 6.5q-71 0 -126.5 -32.5t-76.5 -102.5h-97
q19 74 70.5 125.5t115 74.5t134.5 23q51 0 95 -12.5t77 -36.5t47 -64t2 -91q-11 -48 -46 -91.5t-83 -70.5q32 -22 52 -53t26 -69.5t-4 -82.5q-18 -78 -73.5 -135.5t-128.5 -85t-153 -27.5z" />
    <glyph glyph-name="four" unicode="4" horiz-adv-x="750" 
d="M554 153l-35 -153h-95l35 153h-406l17 73l546 572h87l-129 -558h93l-20 -87h-93zM199 240h280l90 386z" />
    <glyph glyph-name="five" unicode="5" horiz-adv-x="677" 
d="M282 -11q-214 0 -243 175l96 33q14 -66 55.5 -94t111.5 -28q98 0 160.5 47.5t84.5 142.5q22 94 -19 141t-138 47q-77 0 -130 -22t-85 -73l-99 -12l153 452h494l-20 -88h-405q-9 -26 -33.5 -93t-39.5 -116q78 39 185 39q139 0 201.5 -72t32.5 -203t-125.5 -203.5
t-236.5 -72.5z" />
    <glyph glyph-name="six" unicode="6" horiz-adv-x="751" 
d="M327 -10q-81 1 -133 31.5t-75 86t-23 128t21 163.5q21 89 54.5 162t81 129.5t113 87.5t144.5 31q64 0 111.5 -24.5t75.5 -72.5t35 -118l-97 -30q-17 157 -146 157q-185 0 -263 -276q96 78 224 78q119 0 180.5 -76t34.5 -190q-27 -120 -123.5 -193.5t-214.5 -73.5z
M430 436q-79 0 -142 -50.5t-81 -128.5q-18 -79 22.5 -129.5t117.5 -50.5q78 0 140.5 51t80.5 129q19 80 -21.5 129.5t-116.5 49.5z" />
    <glyph glyph-name="seven" unicode="7" horiz-adv-x="750" 
d="M271 -10l-91 20q4 18 11 31v-1q56 117 125 230q158 253 335 442h-469l21 88h594l-17 -74q-208 -210 -381 -487q-35 -57 -67.5 -120t-46.5 -94.5t-14 -34.5z" />
    <glyph glyph-name="eight" unicode="8" horiz-adv-x="750" 
d="M313 -10q-60 0 -109.5 15.5t-84.5 46.5t-48 77.5t1 107.5q14 63 60.5 118t109.5 88q-36 27 -51.5 70t-4.5 91q12 51 44.5 91t76.5 64t93.5 36.5t101.5 12.5q51 0 95 -12.5t77 -36.5t46.5 -64t1.5 -91q-11 -49 -45 -91.5t-84 -69.5q50 -32 70 -86.5t5 -119.5
q-18 -78 -74 -135.5t-128.5 -84.5t-152.5 -27zM407 397q-55 0 -103 -16.5t-85.5 -54t-49.5 -89.5t8 -89.5t60.5 -54.5t95 -17t103 17t86 54.5t49.5 89.5q17 77 -31 118.5t-133 41.5zM481 720q-44 0 -83.5 -10.5t-72 -38t-42.5 -67.5q-7 -31 2.5 -54.5t31.5 -36.5t50 -19.5
t60 -6.5q45 0 84.5 11t72.5 38.5t42 67.5q7 30 -2.5 53.5t-32 36.5t-50.5 19.5t-60 6.5z" />
    <glyph glyph-name="nine" unicode="9" horiz-adv-x="751" 
d="M489 810q80 -1 132.5 -31.5t75 -86t23 -128t-20.5 -163.5q-21 -89 -54.5 -162t-81 -129.5t-113.5 -87.5t-144 -31q-98 0 -155 55t-68 160l97 30q18 -157 146 -157q184 0 264 276q-99 -78 -224 -78q-120 0 -181 76t-35 190q28 120 124 193.5t215 73.5zM386 364
q79 0 141.5 50.5t80.5 128.5q19 79 -22 129.5t-117 50.5q-79 0 -141.5 -51t-80.5 -129q-18 -80 22.5 -129.5t116.5 -49.5z" />
    <glyph glyph-name="colon" unicode=":" horiz-adv-x="315" 
d="M219 526q26 0 42 -20.5t10 -46.5t-31.5 -46.5t-51.5 -20.5t-42 20.5t-10 46.5t31.5 46.5t51.5 20.5zM128 131q25 0 41.5 -20.5t10.5 -46.5q-6 -27 -32 -47.5t-51 -20.5q-26 0 -42 20.5t-10 47.5q6 26 31.5 46.5t51.5 20.5z" />
    <glyph glyph-name="semicolon" unicode=";" horiz-adv-x="320" 
d="M180 103q8 -24 1 -57q-10 -42 -49.5 -84.5t-99.5 -69.5l2 28q19 14 35 34.5t23.5 34t5.5 13.5q-28 0 -43.5 19.5t-8.5 48.5q7 28 31 47t52 19q39 0 51 -33zM215 551q25 0 41.5 -20.5t10.5 -46.5q-3 -13 -12 -25.5t-20.5 -22t-25 -15t-25.5 -5.5q-26 0 -42 20.5t-10 47.5
q4 17 17 32.5t31 25t35 9.5z" />
    <glyph glyph-name="less" unicode="&#x3c;" horiz-adv-x="589" 
d="M436 112l-349 178l16 70l431 176l16 -87l-323 -124l268 -127z" />
    <glyph glyph-name="equal" unicode="=" horiz-adv-x="588" 
d="M464 386h-355l22 94h355zM414 168h-355l21 94h355z" />
    <glyph glyph-name="greater" unicode="&#x3e;" horiz-adv-x="560" 
d="M152 528l349 -178l-16 -70l-431 -176l-16 87l323 124l-268 127z" />
    <glyph glyph-name="question" unicode="?" horiz-adv-x="628" 
d="M349 207h-95q24 141 186 297q112 103 132 188q6 29 -3.5 52t-30.5 36.5t-46.5 20.5t-51.5 7q-151 0 -194 -185h-102q30 132 111.5 202t204.5 70q46 0 88 -13.5t73 -38.5t44.5 -64.5t2.5 -86.5q-9 -39 -26 -74.5t-42.5 -67t-46 -52.5t-52.5 -50q-58 -54 -96 -108.5
t-56 -132.5zM343 69q-7 -29 -32.5 -49t-56.5 -20t-48 20t-10 49t33 49t57 20q30 0 47 -20t10 -49z" />
    <glyph glyph-name="at" unicode="@" horiz-adv-x="1145" 
d="M933 609l-174 -468q-5 -13 7 -19.5t34 -6.5q33 0 60 15q28 18 54.5 53t44.5 73.5t26 74.5q19 86 4 162t-58 132q-42 53 -104.5 82.5t-138.5 29.5q-107 0 -212.5 -55t-182 -148.5t-101.5 -202.5t8 -202.5t113.5 -148.5t187.5 -55q59 0 129.5 20t134.5 56l32 -76
q-49 -27 -103.5 -47t-109 -30.5t-104.5 -10.5q-81 0 -151.5 26.5t-120 72.5t-82.5 108.5t-39 135t9 151.5q31 134 126 248t225 180t261 66q69 0 129 -18.5t105 -52t79.5 -79.5t51.5 -101t21 -116.5t-13 -126.5q-19 -85 -65.5 -159.5t-118.5 -115.5q-53 -29 -117 -29
q-44 0 -76 16t-42 48q-89 -65 -193 -65q-59 0 -98 20.5t-54.5 54t-19 77.5t9.5 92q7 30 21 67q22 62 55.5 114.5t77.5 95t101.5 66.5t120.5 24q91 0 141 -55l17 41zM663 550q-29 0 -57 -9t-51 -25.5t-43.5 -38t-37.5 -47t-30 -51.5t-23 -54q-13 -35 -18 -58
q-17 -71 2.5 -113t83.5 -42q44 0 83 19.5t68.5 53t51.5 71t39 81.5q12 33 18 59q17 70 -2.5 112t-83.5 42z" />
    <glyph glyph-name="A" unicode="A" horiz-adv-x="782" 
d="M214 233l-158 -252l-82 35l491 783h102l129 -783l-99 -35l-41 252h-342zM491 684l-219 -361h269z" />
    <glyph glyph-name="B" unicode="B" horiz-adv-x="798" 
d="M358 0h-318l185 800h292q38 0 70.5 -5t62 -15.5t50 -27.5t34.5 -41t15.5 -55.5t-6.5 -72.5q-25 -105 -126 -159q40 -18 65 -48t31.5 -67.5t-3.5 -82.5q-52 -226 -352 -226zM224 367l-64 -277h219q40 0 69 3t57.5 11.5t48 23.5t34.5 39.5t23 58.5q8 26 4.5 46t-9.5 35
t-20.5 25.5t-30 17t-37 10.5t-41 5.5t-42.5 1.5h-211zM245 460h200q170 0 199 123q8 31 2 53t-17.5 36.5t-33.5 22.5t-45.5 11.5t-53.5 3.5h-193z" />
    <glyph glyph-name="C" unicode="C" horiz-adv-x="829" 
d="M406 -18q-62 0 -112 15.5t-85 44t-58.5 66.5t-33.5 84t-9.5 96t12.5 103q20 84 61.5 160t101.5 136.5t142.5 96.5t173.5 36q104 0 164 -44t92 -129l-91 -61q-23 71 -66.5 107.5t-118.5 36.5q-70 0 -131.5 -28.5t-106 -76.5t-75.5 -107.5t-47 -126.5q-9 -49 -10.5 -95.5
t12.5 -87t39 -71.5t68 -48.5t98 -17.5q76 0 135.5 32t118.5 96l61 -59q-72 -79 -152.5 -118.5t-182.5 -39.5z" />
    <glyph glyph-name="D" unicode="D" horiz-adv-x="787" 
d="M311 0h-271l185 800h271q75 0 129 -20.5t85 -56.5t45.5 -87.5t12 -109.5t-18.5 -126q-19 -85 -54 -155t-87.5 -126t-128 -87.5t-168.5 -31.5zM160 90h172q247 0 318.5 310t-175.5 310h-172z" />
    <glyph glyph-name="E" unicode="E" horiz-adv-x="733" 
d="M647 447l-21 -90h-405l-61 -267h464l-21 -90h-563l185 800l543 -1l-20 -89h-445l-61 -263h405z" />
    <glyph glyph-name="F" unicode="F" horiz-adv-x="684" 
d="M647 448l-20 -90h-405l-83 -357h-99l185 800l544 -1l-21 -90h-445l-61 -262h405z" />
    <glyph glyph-name="G" unicode="G" horiz-adv-x="865" 
d="M818 447l-103 -447h-79l-4 70q-52 -46 -104.5 -67.5t-121.5 -21.5q-53 0 -98 12t-77.5 33.5t-57.5 52t-39.5 67t-20.5 78t-3.5 86t12.5 90.5q19 83 59 156.5t99 133.5t141.5 95t177.5 35q104 0 165 -42t94 -123l-91 -60q-23 66 -67.5 100.5t-120.5 34.5q-70 0 -131 -27.5
t-105.5 -74.5t-75.5 -105t-46 -123q-10 -51 -11 -99t14 -90t40 -73.5t67 -49.5t95 -18q119 0 232 111l40 176h-232l21 90h331z" />
    <glyph glyph-name="H" unicode="H" horiz-adv-x="821" 
d="M846 800l-185 -800h-99l82 357h-423l-82 -357h-99l185 800h99l-82 -353h423l82 353h99z" />
    <glyph glyph-name="I" unicode="I" horiz-adv-x="339" 
d="M344 800l-185 -800h-99l185 800h99z" />
    <glyph glyph-name="J" unicode="J" horiz-adv-x="598" 
d="M188 -18q-43 0 -79.5 13t-62.5 39.5t-34.5 66.5t3.5 94h99q-13 -57 14.5 -90.5t79.5 -33.5q58 0 99.5 28.5t53.5 80.5l143 620h99l-143 -620q-15 -64 -56 -109.5t-96 -67t-120 -21.5z" />
    <glyph glyph-name="K" unicode="K" horiz-adv-x="758" 
d="M668 44l-86 -64l-259 398l-118 -94l-66 -284h-99l185 800h99l-90 -387l515 404l48 -67l-388 -306z" />
    <glyph glyph-name="L" unicode="L" horiz-adv-x="624" 
d="M565 90l-21 -90h-504l185 800h100l-164 -710h404z" />
    <glyph glyph-name="M" unicode="M" horiz-adv-x="944" 
d="M969 800l-185 -800h-99l139 602l-358 -579h-100l-88 579l-139 -602h-99l185 800h117l105 -642l406 642h116z" />
    <glyph glyph-name="N" unicode="N" horiz-adv-x="809" 
d="M834 800l-185 -800h-90l-278 615l-142 -615h-99l185 800h91l277 -615l142 615h99z" />
    <glyph glyph-name="O" unicode="O" horiz-adv-x="900" 
d="M388 -10q-51 0 -94.5 11.5t-76.5 33t-58 51t-40.5 65.5t-23 76t-5.5 83.5t12 88.5q18 79 61 152.5t103.5 131.5t141.5 92.5t169 34.5q71 0 127.5 -22.5t91.5 -61.5t56.5 -91.5t22 -112t-12.5 -123.5q-18 -79 -60.5 -152t-103 -130.5t-142 -92t-168.5 -34.5zM556 720
q-66 0 -126.5 -27.5t-105.5 -73t-77 -102.5t-46 -118q-10 -50 -10.5 -96t15 -87t41 -71.5t67 -48t94.5 -17.5q66 0 126.5 27t105.5 72t77 102t46 119q10 49 10.5 95t-14.5 87.5t-40 72t-67 48.5t-96 18z" />
    <glyph glyph-name="P" unicode="P" horiz-adv-x="729" 
d="M425 371h-200l-86 -371h-99l185 800h294q39 0 70.5 -4t62 -13.5t50 -25t34.5 -39.5t15.5 -57t-7.5 -77q-12 -52 -37 -91t-55 -62t-70 -37t-77 -18.5t-80 -4.5zM245 461h200q26 0 42 1t39.5 4.5t39 11.5t32.5 21t28.5 34.5t18.5 50.5q5 22 5.5 39.5t-4 30.5t-11.5 22.5
t-19 15.5t-23.5 9.5t-29 5.5t-31.5 2.5t-34 0.5h-195z" />
    <glyph glyph-name="Q" unicode="Q" horiz-adv-x="920" 
d="M569 730q-67 0 -128 -28t-106 -75t-77 -106t-47 -122q-10 -51 -11 -98.5t14 -89.5t40 -73.5t67 -49.5t95 -18q55 0 112 21l-81 71l72 75l103 -90q56 47 95 113t56 139q10 50 11 98t-13.5 90.5t-39.5 74t-67 50t-95 18.5zM395 -20q-59 0 -108 16.5t-83.5 45t-58.5 68.5
t-35 86.5t-10.5 98t12.5 104.5q19 81 62 156t103.5 134t142 94.5t169.5 35.5q51 0 94.5 -12t76.5 -34t58 -52t40 -67t22 -78.5t5 -86t-13 -90.5q-19 -83 -68.5 -165t-117.5 -142q18 -15 51 -44.5t40 -35.5l-73 -75l-107 94q-98 -51 -202 -51z" />
    <glyph glyph-name="R" unicode="R" horiz-adv-x="799" 
d="M698 41l-86 -65q-22 35 -31 74t-7.5 66t8.5 69q5 34 7 52.5t0.5 42.5t-10.5 38l1 -1q-11 19 -28.5 30.5t-47.5 17.5t-74 6h-205l-86 -371h-99l185 800h339q45 0 83 -7t70.5 -23t51 -41t26 -61t-4.5 -84q-14 -61 -57 -108t-109 -72q44 -39 56 -90.5t3 -120.5
q-4 -28 -5.5 -42t-1.5 -36.5t5.5 -40t16.5 -33.5zM245 461h206q34 0 54.5 1t49.5 4.5t47 11.5t37.5 21t32 34.5t19.5 50.5q4 26 3.5 45t-10.5 33t-23 23.5t-33 15t-40 7.5t-45 2h-240z" />
    <glyph glyph-name="S" unicode="S" horiz-adv-x="795" 
d="M335 -19q-126 -2 -197 70t-59 204l102 14q-9 -98 38.5 -148.5t135.5 -50.5q39 0 78 8.5t75 25.5t63 47.5t36 69.5q6 27 -3 49t-24 35.5t-44.5 26t-49 18t-52.5 13.5l2 -1l-11 3q-5 1 -16 4q-24 7 -36 10t-35 10t-36.5 12.5t-33 14.5t-30.5 18t-25 21t-21 25.5t-12.5 30
t-5 36t5.5 41.5q14 60 51 106.5t88 73t107 40t115 13.5q116 0 179.5 -66.5t49.5 -189.5l-100 -13q9 89 -31.5 134t-118.5 45q-96 0 -161 -38.5t-80 -104.5q-6 -24 3 -44t24 -32.5t42.5 -24t47 -17t49.5 -12.5l10 -3q4 -1 13 -4q25 -6 38 -9.5t37 -11t37.5 -13.5t34 -15.5
t32 -19t26 -22t21.5 -27t12.5 -31.5t5 -37.5t-5.5 -43.5q-14 -61 -53.5 -109t-92.5 -75.5t-110 -41.5t-115 -14z" />
    <glyph glyph-name="T" unicode="T" horiz-adv-x="663" 
d="M757 799l-20 -89h-250l-164 -710h-99l164 710h-254l20 89h603z" />
    <glyph glyph-name="U" unicode="U" horiz-adv-x="800" 
d="M332 -21q-141 0 -206.5 75t-36.5 201l126 545h99l-126 -545q-21 -88 23 -137t142 -49q214 0 258 193l125 538h99l-125 -538q-32 -139 -130.5 -211t-247.5 -72z" />
    <glyph glyph-name="V" unicode="V" horiz-adv-x="782" 
d="M873 784l-493 -784h-100l-129 784l98 35l108 -703l433 703z" />
    <glyph glyph-name="W" unicode="W" horiz-adv-x="1031" 
d="M731 0h-100l-22 640l-320 -640h-99l-38 790l101 24l26 -646l313 631h105l23 -626l312 641l91 -24z" />
    <glyph glyph-name="X" unicode="X" horiz-adv-x="779" 
d="M697 35l-89 -58l-201 360q-65 -65 -193 -190.5t-174 -170.5l-62 59l384 377l-191 352l90 59l181 -334l336 334l61 -59l-354 -351q37 -67 110.5 -197t101.5 -181z" />
    <glyph glyph-name="Y" unicode="Y" horiz-adv-x="777" 
d="M460 357l-82 -357h-99l82 357l-215 406l89 59l196 -377l371 377l61 -59z" />
    <glyph glyph-name="Z" unicode="Z" horiz-adv-x="723" 
d="M624 90l-21 -90h-603l20 86l617 624h-454l21 90h584l-20 -85l-618 -625h474z" />
    <glyph glyph-name="bracketleft" unicode="[" horiz-adv-x="338" 
d="M230 -36l-19 -80h-208l220 954h208l-18 -79h-109l-183 -795h109z" />
    <glyph glyph-name="backslash" unicode="\" horiz-adv-x="486" 
d="M388 10l-98 -36l-131 801l98 35z" />
    <glyph glyph-name="bracketright" unicode="]" horiz-adv-x="338" 
d="M155 760l19 80h208l-220 -954h-208l18 79h109l183 795h-109z" />
    <glyph glyph-name="asciicircum" unicode="^" horiz-adv-x="588" 
d="M123 490l265 329h72l111 -329l-106 -35l-69 247l-185 -249z" />
    <glyph glyph-name="underscore" unicode="_" horiz-adv-x="387" 
d="M388 25l-17 -72h-387l17 72h387z" />
    <glyph glyph-name="grave" unicode="`" horiz-adv-x="401" 
d="M332 800l82 -181h-101l-118 181h137z" />
    <glyph glyph-name="a" unicode="a" horiz-adv-x="682" 
d="M246 -12q-115 0 -161.5 45.5t-25.5 137.5q9 36 29.5 65.5t48.5 50t60 35.5t66.5 23.5t64 12.5t56.5 4q5 0 12 1q92 13 108 26l3 12q14 62 -17 97.5t-100 35.5q-67 0 -118 -41.5t-69 -112.5l-94 6q22 75 65.5 127.5t103.5 79.5t132 27q109 0 163 -60.5t29 -158.5l-66 -282
q-2 -12 18 -31.5t41 -29.5l-45 -76q-27 8 -58 38.5t-42 64.5q-113 -97 -204 -97zM266 74q36 0 68.5 12.5t55 32t40.5 44.5t28 48t15 44l9 41q-19 -5 -103 -19q-3 0 -9 -1q-25 -4 -38.5 -6.5t-38 -8t-39.5 -10t-34 -13t-30.5 -17.5t-21.5 -22t-14 -28q-6 -19 -4 -36.5
t11.5 -31t36 -21.5t68.5 -8z" />
    <glyph glyph-name="b" unicode="b" horiz-adv-x="718" 
d="M313 -9q-47 0 -82.5 22t-67.5 61l-22 -74h-91l190 824h96l-66 -286q29 24 60.5 42.5t65.5 30t63 11.5q64 0 108 -25.5t63 -68.5t22.5 -100t-13.5 -121q-15 -66 -43 -122t-68 -100t-95.5 -69t-119.5 -25zM434 537q-30 0 -56.5 -8.5t-48 -24.5t-39 -37t-31.5 -47.5t-24 -54
t-17 -58.5q-11 -49 -12 -89t10 -72.5t39.5 -50.5t72.5 -18q85 0 138.5 64t77.5 166q11 49 11.5 89t-10 72.5t-39 50.5t-72.5 18z" />
    <glyph glyph-name="c" unicode="c" horiz-adv-x="670" 
d="M300 -10q-69 0 -118 25t-72.5 67.5t-29.5 100t11 123.5q15 66 46 122.5t75.5 99.5t104 68t127.5 25q156 0 209 -132l-89 -49q-39 96 -139 96q-92 0 -153.5 -64.5t-84.5 -165.5q-14 -66 -8 -117t42 -82t99 -31q100 0 182 96l66 -50q-113 -132 -268 -132z" />
    <glyph glyph-name="d" unicode="d" horiz-adv-x="717" 
d="M280 -9q-64 0 -108 25.5t-62.5 68.5t-22 100.5t13.5 121.5q15 65 43 121t67.5 100t94.5 69t120 25q99 0 150 -84l66 287h95l-190 -825h-90l13 79q-106 -88 -190 -88zM411 537q-85 0 -139 -64t-77 -166q-11 -49 -11.5 -89t10.5 -72.5t39 -50.5t72 -18t80.5 18t62.5 50.5
t44 72.5t29 89q11 47 11.5 86.5t-10 72.5t-39 52t-72.5 19z" />
    <glyph glyph-name="e" unicode="e" horiz-adv-x="731" 
d="M313 -11q-285 3 -213 316q32 138 127.5 227t231.5 89q118 0 175 -64t44 -180l-27 -115h-463q-14 -92 19.5 -140t125.5 -48q68 0 119 32.5t91 103.5l83 -28q-103 -193 -313 -193zM208 348h368l5 21q4 51 -10 88t-47.5 58t-83.5 21q-82 0 -142.5 -51.5t-89.5 -136.5z" />
    <glyph glyph-name="f" unicode="f" horiz-adv-x="384" 
d="M426 609l-20 -87h-96l-121 -522h-96l121 522h-83l20 87h83l20 89q16 68 61 104q12 9 23 15.5t25.5 10t22.5 5.5t27.5 2h24.5t29.5 -1.5t28.5 -1.5l-19 -83q-82 14 -109 -8q-10 -8 -18 -43l-20 -89h96z" />
    <glyph glyph-name="g" unicode="g" horiz-adv-x="707" 
d="M234 -238q-109 0 -165 53t-43 162l96 7q-15 -137 132 -137q72 0 126 37.5t69 102.5l20 86q-112 -90 -191 -84q-52 -1 -90.5 15.5t-60.5 45.5t-32 69.5t-8.5 86.5t13.5 98q15 66 43 122t67.5 100t95 69t119.5 25q90 0 149 -90l22 72h90l-142 -617q-20 -71 -64.5 -121.5
t-107 -76t-138.5 -25.5zM410 534q-85 0 -138.5 -64t-77.5 -166q-11 -49 -11.5 -89t10.5 -72.5t39 -50.5t72 -18q45 0 83 20t63.5 54.5t42.5 73t27 82.5q11 47 11.5 87t-10.5 73t-39 51.5t-72 18.5z" />
    <glyph glyph-name="h" unicode="h" horiz-adv-x="677" 
d="M414 537q-45 0 -85 -26t-65 -65t-35 -84l-84 -362h-95l190 825h95l-65 -285q99 83 169 83q106 0 155.5 -57.5t26.5 -160.5l-94 -405h-96l94 405q15 65 -14 98.5t-97 33.5z" />
    <glyph glyph-name="i" unicode="i" horiz-adv-x="334" 
d="M154 0h-94l140 605h94zM311 681h-94l33 140h94z" />
    <glyph glyph-name="j" unicode="j" horiz-adv-x="351" 
d="M55 -87l160 693h96l-160 -693q-14 -61 -58 -98.5t-107 -37.5q-21 0 -77 2l19 82l68 -1q27 0 39 11.5t20 41.5zM360 821l-33 -140h-95l33 140h95z" />
    <glyph glyph-name="k" unicode="k" horiz-adv-x="627" 
d="M545 36l-83 -60l-190 293l-78 -61l-48 -208h-96l190 825h96l-113 -492q35 28 169 132.5t201 157.5l48 -64l-288 -226q33 -53 100.5 -155.5t91.5 -141.5z" />
    <glyph glyph-name="l" unicode="l" horiz-adv-x="355" 
d="M356 828l-191 -828h-95l191 828h95z" />
    <glyph glyph-name="m" unicode="m" horiz-adv-x="965" 
d="M908 404l-93 -404h-94l93 404q14 59 -11.5 96t-87.5 37q-58 0 -102 -52.5t-60 -120.5l-84 -364h-96l103 447q21 90 -76 90q-65 0 -114.5 -52t-65.5 -121l-84 -364h-96l139 601h91l-10 -62q98 84 171 84q49 0 83 -28.5t46 -76.5q98 105 186 105q96 0 140 -62t22 -157z" />
    <glyph glyph-name="n" unicode="n" horiz-adv-x="666" 
d="M404 537q-68 0 -119 -52.5t-67 -122.5l-84 -362h-94l139 600h89l-12 -70q105 88 177 88q100 0 150 -56.5t27 -156.5l-94 -405h-96l94 405q7 33 3.5 58t-17.5 41t-38 24.5t-58 8.5z" />
    <glyph glyph-name="o" unicode="o" horiz-adv-x="702" 
d="M289 -12q-68 0 -117.5 24.5t-72.5 67.5t-29.5 100.5t10.5 123.5q15 66 46 123t75 100t104 68t128.5 25t117 -24.5t72.5 -67t30 -100t-11 -124.5q-15 -66 -46 -123.5t-75.5 -101t-104 -68t-127.5 -23.5zM414 535q-92 -1 -153.5 -65.5t-85.5 -165.5q-23 -102 9.5 -166
t124.5 -64q93 0 153 63.5t84 166.5q14 67 8.5 118t-41.5 82t-99 31z" />
    <glyph glyph-name="p" unicode="p" horiz-adv-x="707" 
d="M568 609q64 0 101.5 -25t47 -69t-1.5 -100t-41 -122q-30 -65 -71 -121t-91 -100t-111 -69t-125 -25q-99 0 -131 84l-132 -287h-95l381 825h90l-32 -79q126 88 211 88zM311 63q85 0 153.5 64t115.5 166q22 49 32 89t6.5 72.5t-27.5 50.5t-68 18q-86 0 -154 -63.5
t-115 -166.5q-22 -47 -31.5 -86.5t-6.5 -72.5t27 -52t68 -19z" />
    <glyph glyph-name="q" unicode="q" horiz-adv-x="708" 
d="M546 609q47 0 77 -22t53 -61l40 74h91l-381 -824h-96l132 286q-53 -37 -109 -60.5t-99 -23.5q-64 0 -102 25t-47.5 69t1.5 100t41 121q30 66 71 122t91 100t111.5 69t125.5 25zM299 63q85 0 154 65t115 165q22 49 32 89t6.5 72.5t-27.5 50.5t-68 18q-85 0 -153.5 -64
t-115.5 -166q-23 -49 -32.5 -89t-6.5 -72.5t27 -50.5t69 -18z" />
    <glyph glyph-name="r" unicode="r" horiz-adv-x="458" 
d="M233 340l-78 -340h-95l139 601h90l-11 -70q5 4 19 15l21 16.5t20.5 14.5t23.5 14t23.5 10.5t26.5 8t27 2.5q16 0 60 -2l-26 -89q-9 0 -23.5 1t-25.5 2t-14 1q-36 0 -66.5 -16t-51.5 -43t-35.5 -58.5t-23.5 -67.5z" />
    <glyph glyph-name="s" unicode="s" horiz-adv-x="656" 
d="M266 -9q-102 1 -155 56t-45 154l97 13q-5 -68 28 -103t96 -35q64 0 113 24.5t60 71.5q4 17 -2.5 31.5t-16.5 23.5t-30 17.5t-32.5 12.5t-35.5 10l1 -1q-2 0 -5.5 1.5t-7.5 2.5q-38 10 -59.5 16.5t-54.5 21.5t-49 31.5t-25.5 44.5t-1.5 62q11 46 39.5 81t68 55t83 30
t90.5 10q94 0 142.5 -52t38.5 -144l-96 -12q5 61 -23 92t-82 31q-38 0 -70.5 -7.5t-60 -29t-35.5 -54.5q-8 -35 23 -53t108 -38q3 -1 8 -2q18 -6 28 -9t28 -9t28.5 -10.5t26 -12t24.5 -15t20 -17.5t16.5 -21.5t9.5 -24.5t4 -28.5t-4 -33.5q-14 -58 -62.5 -101.5t-108 -62.5
t-119.5 -17z" />
    <glyph glyph-name="t" unicode="t" horiz-adv-x="443" 
d="M428 625l-20 -87h-87l-93 -403q-6 -27 6.5 -39.5t56.5 -12.5h41l-19 -82q-4 0 -25 -0.5t-25 -0.5q-26 0 -44.5 2t-36.5 7.5t-27.5 14.5t-17.5 24t-7.5 36.5t3.5 50.5l93 403h-92l20 87h92l46 199h95l-46 -199h87z" />
    <glyph glyph-name="u" unicode="u" horiz-adv-x="666" 
d="M276.5 63q68.5 0 131.5 52.5t95 122.5l168 362h94l-278 -600h-89l28 70q-126 -88 -197 -88q-101 0 -136.5 55t9.5 158l187 405h96l-187 -405q-30 -66 -10 -99t88.5 -33z" />
    <glyph glyph-name="v" unicode="v" horiz-adv-x="622" 
d="M296 0h-91l-99 588l96 34l74 -512l313 512l79 -34z" />
    <glyph glyph-name="w" unicode="w" horiz-adv-x="829" 
d="M569 0h-91l-17 448l-222 -448h-91l-31 592l95 24l16 -464l222 448h96l11 -448l223 464l86 -23z" />
    <glyph glyph-name="x" unicode="x" horiz-adv-x="618" 
d="M536 33l-86 -56l-144 272l-268 -272l-60 56l284 279l-141 259l86 56l129 -251l245 251l61 -56l-262 -259z" />
    <glyph glyph-name="y" unicode="y" horiz-adv-x="634" 
d="M-33 -218l20 86q53 -3 71 -3q30 0 51 12.5t42 46.5q10 15 30.5 47t31.5 51l-97 566l95 35l79 -485l301 485l79 -35l-438 -698q-41 -63 -87 -87.5t-106 -24.5q-17 0 -72 4z" />
    <glyph glyph-name="z" unicode="z" horiz-adv-x="579" 
d="M479 86l-20 -86h-459l17 72l447 452h-343l20 87h459l-17 -73l-447 -452h343z" />
    <glyph glyph-name="braceleft" unicode="{" horiz-adv-x="483" 
d="M335 -34l-21 -91q-46 1 -83.5 12t-66.5 34.5t-38 60t1 87.5q3 13 11 39.5t13.5 47.5t11 48t5 47.5t-6.5 38.5t-22.5 28t-42.5 10l14 64q27 1 48 10.5t35 27t24 37t16.5 46.5t11 48t9 48t7.5 42q22 96 95.5 142.5t181.5 50.5l-21 -90q-51 0 -95 -18.5t-53 -55.5
q-34 -161 -61 -225t-71 -95q27 -29 31.5 -71t-4.5 -78t-24 -89.5t-19 -84.5q-6 -25 12.5 -41.5t45 -23t56.5 -6.5z" />
    <glyph glyph-name="bar" unicode="|" horiz-adv-x="346" 
d="M346 800l-212 -915h-96l212 915h96z" />
    <glyph glyph-name="braceright" unicode="}" horiz-adv-x="390" 
d="M101 754l21 91q46 -1 83.5 -12t66.5 -34.5t38 -60t-1 -87.5q-3 -14 -13 -48q-7 -22 -10 -34.5t-8.5 -35t-6.5 -36t-2 -32t4 -29.5t12.5 -22t21.5 -16.5t33 -5.5l-14 -64q-31 -1 -54.5 -15t-37 -33t-24.5 -50t-15.5 -54t-10.5 -57.5t-9 -49.5q-22 -96 -95.5 -142.5
t-181.5 -50.5l21 90q51 0 95.5 18.5t52.5 55.5q34 161 61 225t71 95q-22 24 -29.5 54t-2.5 64.5t13.5 65.5t20 71t15.5 68q5 25 -13 41.5t-45 23t-57 6.5z" />
    <glyph glyph-name="asciitilde" unicode="~" horiz-adv-x="606" 
d="M247 418q37 0 93 -24.5t78 -24.5q33 0 67 52l71 -30q-64 -102 -146 -107q-32 -2 -64.5 10t-63 24.5t-55.5 12.5q-13 0 -31 -12.5t-33 -41.5l-72 31q66 110 156 110z" />
    <glyph glyph-name="uni00A0" unicode="&#xa0;" horiz-adv-x="360" 
 />
    <glyph glyph-name="uni0E01" unicode="&#xe01;" horiz-adv-x="684" 
d="M248 403l-141 19q2 4 5.5 11.5t16 28t28 39.5t42 42t57 39.5t74.5 28t93 11.5q47 0 84 -9.5t59.5 -24.5t37.5 -35t21.5 -38.5t8.5 -38t1 -31t-3 -19.5l-98 -426h-104l96 415q2 8 2.5 18t0 26t-8 30t-20 27t-36.5 21t-57 8q-69 0 -117.5 -30t-58.5 -57l103 -18l-11 -47
q-2 -1 -5 -2t-12 -5.5t-17.5 -10.5t-20 -15.5t-20 -20.5t-16.5 -26.5t-12 -32.5l-65 -280h-103l61 264q4 18 14 36t22 31t26 25t26.5 20.5t23 14.5t17.5 9z" />
    <glyph glyph-name="uni0E02" unicode="&#xe02;" horiz-adv-x="668" 
d="M553 603h104l-120 -520q-5 -24 -14.5 -40t-18.5 -24.5t-28 -12.5t-33 -4.5t-45 -0.5h-207l66 286q3 11 118 177q-6 31 -31 56t-49 25q-13 0 -25 -1q25 -15 35.5 -43t2.5 -62q-11 -49 -54.5 -84t-92.5 -35t-75 35.5t-14 85.5q17 73 84 122.5t148 49.5q65 0 105.5 -39
t50.5 -92q-13 -17 -45.5 -76.5t-47.5 -92.5l-54 -233h103q7 0 9.5 1t6 6t6.5 16zM175 382q25 0 45.5 16.5t26 40.5t-7.5 41t-37 17q-23 0 -44 -17t-26.5 -41t7.5 -40.5t36 -16.5z" />
    <glyph glyph-name="uni0E03" unicode="&#xe03;" horiz-adv-x="675" 
d="M560 602h104l-120 -520q-6 -24 -15 -40t-18.5 -24.5t-28.5 -12.5t-33 -4.5t-45 -0.5h-204l62 270q2 7 20.5 36t39 59t42 60t23.5 33q8 13 -1.5 48.5t-20.5 43.5l-71 -32l-66 35q-31 -17 -45 -33q13 3 27 3q49 0 76 -34.5t15 -84.5q-11 -49 -54 -84t-92 -35t-75 35t-16 84
q14 69 53.5 123.5t119.5 93.5l67 -50q6 4 36.5 22.5t44.5 26.5q32 -12 52.5 -31t27.5 -39t9 -41t-3 -37q-81 -133 -99 -176l-50 -217h100q7 0 10 1t6.5 6t6.5 16zM196 462q-24 0 -44.5 -17t-26.5 -41q-3 -16 1.5 -29t16 -20.5t26.5 -7.5q24 0 45 16.5t26.5 40.5t-7.5 41
t-37 17z" />
    <glyph glyph-name="uni0E04" unicode="&#xe04;" horiz-adv-x="702" 
d="M437 622q41 0 75 -8t56 -21.5t40 -31t26 -36.5t14 -38t4.5 -35t-2.5 -28l-98 -424h-104l95 413q3 16 4 34t-7.5 35.5t-21.5 32t-39 23t-60 8.5q-42 0 -77.5 -13t-57.5 -34t-36 -43t-19 -43l-28 -123l-14 -49q13 34 40.5 81t54.5 82q22 28 54 45.5t65 17.5q49 0 76 -34.5
t15 -84.5q-11 -49 -54 -84t-92 -35q-57 0 -82 45q-10 -19 -26 -49.5t-50 -98t-49 -104.5l-5 -22h-104l98 423q4 18 17.5 42t40 52t60.5 51t84.5 38.5t106.5 15.5zM387 406q-24 0 -44.5 -17t-26 -41t7.5 -40.5t36 -16.5q24 0 45 16.5t26.5 40.5t-7.5 41t-37 17z" />
    <glyph glyph-name="uni0E05" unicode="&#xe05;" horiz-adv-x="702" 
d="M134 0h-104l97 419q4 19 12.5 39.5t27 48t43.5 50t65.5 42t89.5 27.5l57 -55l85 54q46 -7 78 -26.5t46 -41.5t19.5 -49.5t4.5 -47.5t-6 -39l-97 -421h-104l96 414q5 22 6.5 37t0 35t-13.5 34.5t-34 23.5l-98 -45l-75 42q-23 -7 -40 -19t-26.5 -22.5t-17 -29.5t-10 -27.5
t-6.5 -28.5l-32 -136l-10 -35q37 86 94 161q22 28 54 45.5t65 17.5q49 0 76 -34.5t15 -84.5q-11 -49 -54 -84t-92 -35q-57 0 -82 45q-10 -19 -26 -49.5t-50 -98t-49 -104.5zM387 406q-24 0 -44.5 -17t-26 -41t7.5 -40.5t36 -16.5q24 0 45 16.5t26.5 40.5t-7.5 41t-37 17z
" />
    <glyph glyph-name="uni0E06" unicode="&#xe06;" horiz-adv-x="777" 
d="M219 75l27 117q-24 1 -48.5 -16.5t-30.5 -49.5q-7 -35 8 -53t39 -18q1 0 5 20zM376 306l-11 -47q61 -13 108.5 -64t71.5 -105l118 512h103l-123 -532q-7 -32 -19 -49t-41.5 -26.5t-82.5 -8.5q-12 54 -56.5 117t-94.5 86l-31 -131q-8 -36 -43 -54t-78 -18
q-59 0 -81.5 37.5t-13.5 94.5q10 62 53.5 100.5t106.5 43.5l7 28q2 8 57.5 82.5t60.5 85.5q6 14 -2.5 49t-19.5 43l-71 -32l-66 35q-31 -17 -45 -33q13 3 27 3q49 0 76 -34.5t15 -84.5q-11 -49 -54 -84t-92 -35t-75 35t-16 84q14 69 53.5 123.5t119.5 93.5l67 -50
q6 4 36.5 22.5t44.5 26.5q32 -12 52.5 -31t27.5 -39t9 -41t-3 -37q-78 -125 -95 -166zM196 462q-24 0 -44.5 -17t-26.5 -41q-3 -16 1.5 -29t16 -20.5t26.5 -7.5q24 0 45 16.5t26.5 40.5t-7.5 41t-37 17z" />
    <glyph glyph-name="uni0E07" unicode="&#xe07;" horiz-adv-x="548" 
d="M502 493l-95 -411q-6 -24 -15 -40t-18 -24.5t-28.5 -12.5t-33 -4.5t-44.5 -0.5h-29q-94 209 -179 348l53 71q35 -53 82 -139t77 -146l29 -59l70 301q-5 -1 -15 -1q-50 0 -76.5 34.5t-15.5 83.5q11 50 54 84.5t92 34.5t76 -35t16 -84zM325 493q-6 -23 7.5 -40t37 -17
t44 17t26.5 40q5 24 -7.5 41t-36.5 17t-45 -17t-26 -41z" />
    <glyph glyph-name="uni0E08" unicode="&#xe08;" horiz-adv-x="618" 
d="M338 1l-31 222q-34 -26 -73.5 -30.5t-69.5 15.5q-37 25 -39 72.5t32 89.5q35 43 85 55.5t88 -12.5q33 -21 38 -62l23 -191l4 -45l14 75l51 223q4 14 4 28.5t-3 30t-11.5 28.5t-21.5 23.5t-34.5 16.5t-49.5 6q-71 0 -120.5 -31.5t-67.5 -73.5l-68 25q13 28 35 53.5
t55 49.5t80.5 38.5t103.5 14.5q40 0 73.5 -8t55.5 -21.5t38 -31t24.5 -36t12 -38t3.5 -35.5t-3 -29l-79 -340q-4 -17 -10 -30t-12 -22t-17.5 -14.5t-19.5 -9t-25.5 -5t-29 -1.5h-35.5zM207 261q18 -12 42 -5.5t40 26.5q17 21 16.5 44t-18.5 35t-42 5.5t-42 -27.5
q-16 -20 -15 -43t19 -35z" />
    <glyph glyph-name="uni0E09" unicode="&#xe09;" horiz-adv-x="665" 
d="M622 424l-38 -164q-3 -14 -50 -40q29 -14 42.5 -43.5t4.5 -66.5q-11 -49 -54 -84t-92 -35t-75.5 35t-15.5 84q1 4 2 9q-26 -12 -48 -29t-34.5 -32t-21.5 -28.5t-12 -21.5l-3 -8h-103l37 159q-6 -1 -16 -1q-49 0 -76 34.5t-15 83.5q11 49 54 84t92 35t76 -35t16 -84
l-35 -152q45 54 162 94q21 7 37 20.5t21 23.5l6 10l32 139q2 17 3.5 35t-6.5 36t-20.5 32t-38.5 23t-61 9q-75 0 -133.5 -34t-77.5 -78l-70 26q9 17 23 35t34 36.5t45.5 34.5t55 28.5t66 20t75.5 7.5q41 0 75.5 -8t57 -21.5t40 -31t25 -36.5t13 -38t4 -35t-2.5 -28zM449 53
q24 0 45 16.5t26.5 40.5t-7.5 41t-37 17t-44.5 -17t-26 -41t7.5 -40.5t36 -16.5zM115 276q-4 -15 1 -28.5t16.5 -21t27.5 -7.5q23 0 43.5 17t26.5 40q5 24 -7.5 41t-36.5 17t-45 -17t-26 -41z" />
    <glyph glyph-name="uni0E0A" unicode="&#xe0a;" horiz-adv-x="659" 
d="M449 457q-52 -78 -82 -144l-54 -234h93q7 0 10 1t6 6t6 16l71 311q2 6 -15 21.5t-35 22.5zM454 519q22 8 44.5 21.5t40 29t33.5 32.5t27.5 32.5t20 28t12.5 20.5l4 7l75 -43q-2 -5 -7 -12.5t-21.5 -29t-34.5 -39.5t-47 -37t-59 -28q13 -8 21 -13t21.5 -16t19 -22t3.5 -21
l-80 -347q-6 -24 -15 -40t-18 -24.5t-28.5 -12.5t-33 -4.5t-44.5 -0.5h-197l66 287q3 11 118 175q-2 23 -17 42.5t-25 26.5q-9 6 -24 10.5t-23 3.5l-16 -1q25 -15 35.5 -43t2.5 -62q-11 -49 -54.5 -84t-92.5 -35t-75 35.5t-14 85.5q17 73 84 122.5t148 49.5q54 0 93 -27
t57 -67zM175 382q25 0 45.5 16.5t26 40.5t-7.5 41t-37 17q-23 0 -44 -17t-26.5 -41t7.5 -40.5t36 -16.5z" />
    <glyph glyph-name="uni0E0B" unicode="&#xe0b;" horiz-adv-x="663" 
d="M464 449q-76 -116 -92 -153l-49 -217h90q7 0 10 1t6.5 6t6.5 16l72 312q1 4 -5.5 10.5t-17 13t-21.5 11.5zM472 524q29 10 57.5 31t48 43.5t34.5 43.5t23 34l7 14l75 -43q-2 -5 -7 -12.5t-21.5 -29t-34 -39.5t-43.5 -37t-51 -28q61 -43 54 -72l-80 -347q-6 -24 -15 -40
t-18 -24.5t-28 -12.5t-33 -4.5t-44 -0.5h-196l62 270q2 6 14 25.5t29.5 45t34 49.5t30.5 44.5t17 23.5q8 13 -1.5 48.5t-20.5 43.5l-71 -32l-66 35q-31 -17 -45 -33q13 3 27 3q49 0 76 -34.5t15 -84.5q-11 -49 -54 -84t-92 -35t-75 35t-16 84q14 69 53.5 123.5t119.5 93.5
l67 -50q6 4 36.5 22.5t44.5 26.5q74 -28 87 -96zM196 462q-24 0 -44.5 -17t-26.5 -41q-3 -16 1.5 -29t16 -20.5t26.5 -7.5q24 0 45 16.5t26.5 40.5t-7.5 41t-37 17z" />
    <glyph glyph-name="uni0E0C" unicode="&#xe0c;" horiz-adv-x="960" 
d="M448 75l25 107q-16 1 -37 -16t-26 -46q-4 -22 1.5 -37.5t14 -21.5t17.5 -6q1 0 5 20zM254 107q5 23 -8 40t-37 17q-16 0 -31 -7.5t-25.5 -21t-13.5 -28.5q-6 -24 6.5 -41t36.5 -17t45 17t27 41zM633 426l-39 -170q50 -7 85 -54t49 -105l117 505h104l-123 -532
q-7 -32 -18.5 -49t-40 -26.5t-78.5 -8.5q-10 63 -41.5 121.5t-72.5 71.5l-28 -121q-8 -36 -43 -54t-78 -18q-48 0 -66.5 36t-9.5 90q10 63 49.5 103t91.5 45l36 155q2 10 3 22.5t-3.5 33t-15.5 36t-38 27t-66 11.5q-69 0 -117.5 -30t-58.5 -57l103 -18l-11 -47
q-4 -1 -9.5 -3.5t-21.5 -12t-29 -21.5t-25.5 -32t-17.5 -44l-12 -56q5 1 15 1q49 0 76 -34.5t16 -83.5q-12 -49 -54.5 -84t-92.5 -35q-49 0 -76 35t-15 84l36 157q4 18 14 36t22 31t26 25t26.5 20.5t23 14.5t17.5 9l6 3l-141 19q2 4 5.5 11.5t16 28t28 39.5t42 42t57 39.5
t74.5 28t93 11.5q47 0 84 -9.5t59.5 -24.5t38 -35t21.5 -38.5t8.5 -38t1.5 -31t-3 -19.5z" />
    <glyph glyph-name="uni0E0D" unicode="&#xe0d;" horiz-adv-x="930" 
d="M244 107q5 23 -8 40t-37 17t-44.5 -17t-25.5 -40q-6 -24 6.5 -41t36.5 -17t45 17t27 41zM539 67h157q7 0 9.5 1t5.5 6.5t6 17.5l118 510h104l-120 -520q-6 -24 -15 -40t-18 -24.5t-28 -12.5t-32.5 -4.5t-44.5 -0.5h-261l96 415q2 10 3.5 23t-3 32.5t-15.5 35.5t-38 27.5
t-66 11.5q-69 0 -117.5 -30t-58.5 -57l103 -18l-11 -47q-4 -1 -9.5 -3.5t-21 -12t-28.5 -21.5t-26 -32t-18 -44l-12 -56q5 1 15 1q49 0 76 -34.5t16 -83.5q-12 -49 -54.5 -84t-92.5 -35q-49 0 -76 35t-15 84l36 157q4 18 14 36t22 31t26 25t26.5 20.5t23 14.5t17.5 9l6 3
l-141 19q2 4 5.5 11.5t16 28t28 39.5t42 42t57 39.5t74.5 28t93 11.5q47 0 84 -9.5t59.5 -24.5t37.5 -35t21.5 -38.5t8.5 -38t1 -31t-3 -19.5zM714 -46l75 -13q-30 -84 -104 -131.5t-159 -49.5q-120 -3 -146 57q-12 28 -5 58q10 43 47 72.5t79 29.5t65 -29.5t13 -72.5
q-8 -34 -34 -60q62 5 103.5 38t65.5 101zM465 -176q21 0 40 15t24 36q3 14 -1 26t-14.5 19t-24.5 7q-21 0 -40 -15t-24 -37q-5 -21 7 -36t33 -15z" />
    <glyph glyph-name="uni0E0E" unicode="&#xe0e;" horiz-adv-x="716" 
d="M66 107q-6 -24 7 -41t37 -17t44.5 17t26.5 41q5 23 -7.5 40t-36.5 17q-16 0 -31 -7.5t-26 -21t-14 -28.5zM440 -97l118 512q2 10 3 22.5t-3 33t-15.5 36t-38 27t-65.5 11.5q-69 0 -117.5 -30t-58.5 -57l127 -18l-11 -47q-4 -1 -10 -3.5t-22 -12t-28.5 -21.5t-25.5 -32.5
t-17 -43.5l-33 -173q-10 -49 -53.5 -84t-93 -35t-76.5 34.5t-15 84.5q11 49 54 83.5t92 34.5q10 0 15 -1l3 40q4 18 14 36t22 31t26 25t26.5 20.5t23 14.5t17.5 9l6 3l-165 19q2 4 5.5 11.5t16 28t28 39.5t42 42t57 39.5t74.5 28t93 11.5q47 0 84 -9.5t59.5 -24.5t37.5 -35
t21.5 -38.5t8.5 -38t1 -31t-3 -19.5l-122 -532l-170 -128q-46 43 -95 64q-74 -67 -148 -67q-41 0 -67 29t-18 66q10 43 49 65t85 22q44 0 88 -26q15 23 33 66l72 -16q-29 -58 -49 -87l64 -31zM142 -180q15 0 30.5 7t26 15t26.5 22q-43 24 -60 24q-37 0 -44 -30
q-3 -13 3.5 -25.5t17.5 -12.5z" />
    <glyph glyph-name="uni0E0F" unicode="&#xe0f;" horiz-adv-x="716" 
d="M66 107q-6 -24 7 -41t37 -17t44.5 17t26.5 41q5 23 -7.5 40t-36.5 17q-16 0 -31 -7.5t-26 -21t-14 -28.5zM437 -109l121 524q2 10 3 22.5t-3 33t-15.5 36t-38 27t-65.5 11.5q-69 0 -117.5 -30t-58.5 -57l127 -18l-11 -47q-4 -1 -10 -3.5t-22 -12t-28.5 -21.5t-25.5 -32.5
t-17 -43.5l-33 -173q-10 -49 -53.5 -84t-93 -35t-76.5 34.5t-15 84.5q11 49 54 83.5t92 34.5q10 0 15 -1l3 40q4 18 14 36t22 31t26 25t26.5 20.5t23 14.5t17.5 9l6 3l-165 19q2 4 5.5 11.5t16 28t28 39.5t42 42t57 39.5t74.5 28t93 11.5q47 0 84 -9.5t59.5 -24.5t37.5 -35
t21.5 -38.5t8.5 -38t1 -31t-3 -19.5l-125 -544l-156 -121l-47 69l-84 -68l-44 59q-25 -20 -38.5 -29.5t-36.5 -19t-46 -9.5q-41 0 -66.5 29.5t-17.5 66.5q10 42 49.5 64.5t85.5 22.5q33 0 62 -17q12 20 23 55l74 -12q-15 -47 -42 -90q16 -17 21 -22l81 59l48 -60zM100 -180
q27 0 65 48q-27 21 -41 21q-37 0 -44 -30q-3 -15 3.5 -27t16.5 -12z" />
    <glyph glyph-name="uni0E10" unicode="&#xe10;" horiz-adv-x="610" 
d="M353 622q26 0 57 -9t50.5 -16t47 -3t55.5 27l33 -73q-52 -41 -107 -40q-31 1 -81.5 19.5t-72.5 18.5q-24 0 -53 -12.5t-48 -32.5q36 -2 67.5 -5t68.5 -10t64.5 -18.5t50 -28t31.5 -40.5t2 -54l-61 -263q-5 -20 -11 -34.5t-17 -23.5t-20 -14t-28 -7t-32 -2.5t-41 -0.5
l-37 193q-34 -26 -74 -30.5t-70 15.5q-37 25 -39 72.5t32 89.5q35 43 85 55.5t88 -12.5q31 -20 38 -62l33 -194l47 204q6 23 -1.5 40.5t-29 28.5t-47.5 18t-67.5 10.5t-79 4.5t-92.5 1q37 89 104 138.5t155 49.5zM170 231q18 -12 42 -5.5t40 26.5q17 21 16.5 44t-18.5 35
t-42 5.5t-42 -27.5q-16 -20 -15 -43t19 -35zM382 -107l-28 -121l-113 -86l-56 47l-87 -52q-16 42 -26 56q-51 -55 -102 -55q-26 0 -47 12.5t-31 34t-4 44.5q6 26 26 45.5t47 29t56 9.5q23 0 41 -7q9 23 23 66l73 -5q-23 -74 -38 -108l21 -43q12 8 36 22.5t29 17.5l49 -44
l31 26l8 34h-12q-36 0 -56 22t-12.5 55t37.5 55t66 22t56.5 -22t12.5 -55zM-18 -263q16 0 49 53q-14 11 -27 11q-35 0 -41 -28q-3 -13 2.5 -24.5t16.5 -11.5zM262 -107q-3 -14 4.5 -24t20.5 -10q15 0 28 10t16.5 24t-5 24t-23.5 10q-9 0 -17.5 -4.5t-15 -12.5t-8.5 -17z" />
    <glyph glyph-name="uni0E11" unicode="&#xe11;" horiz-adv-x="813" 
d="M375 306l-26 -111l21 42t49.5 94t67.5 121.5t64.5 101t52.5 55.5l13 2q45 0 77 -12.5t47.5 -31t22.5 -42.5t6 -44.5t-5 -40.5l-102 -440h-106l102 440q13 56 -33 75q-21 -2 -68.5 -77.5t-126.5 -216.5t-130 -221h-101l62 270q2 7 20.5 36t39 59t42 60t23.5 33
q8 13 -1.5 48.5t-20.5 43.5l-71 -32l-66 35q-31 -17 -45 -33q13 3 27 3q49 0 76 -34.5t15 -84.5q-11 -49 -54 -84t-92 -35t-75 35t-16 84q14 69 53.5 123.5t119.5 93.5l67 -50q6 4 36.5 22.5t44.5 26.5q32 -12 52.5 -31t27.5 -39t9 -41t-3 -37q-79 -125 -96 -166zM196 462
q-24 0 -44.5 -17t-26.5 -41q-3 -16 1.5 -29t16 -20.5t26.5 -7.5q24 0 45 16.5t26.5 40.5t-7.5 41t-37 17z" />
    <glyph glyph-name="uni0E12" unicode="&#xe12;" horiz-adv-x="987" 
d="M316.5 348q-5.5 -24 7.5 -40.5t36 -16.5q24 0 45 16.5t26.5 40.5t-7.5 41t-37 17t-44.5 -17t-26 -41zM514 242l40 172q5 22 6.5 37t-0.5 35t-15.5 34.5t-36.5 23.5l-98 -45l-75 42q-20 -6 -36 -14t-26.5 -20t-17.5 -21t-12.5 -25.5t-7.5 -23t-5 -23.5l-70 -303l152 123
q-34 11 -50 43t-7 71q12 49 54.5 84t91.5 35t76 -34.5t15 -84.5q-11 -47 -45 -77l-316 -271h-101l97 419q4 19 12.5 39.5t27.5 48t44.5 50t67 42t91.5 27.5l57 -55l85 54q48 -7 80.5 -26.5t47 -41.5t20.5 -49.5t5 -47.5t-6 -39l-42 -182q50 -7 86.5 -48.5t51.5 -93.5
l117 505h104l-123 -532q-7 -32 -18.5 -49t-40 -26.5t-78.5 -8.5q-11 58 -43.5 112.5t-73.5 66.5l-25 -107q-8 -36 -43 -54t-78 -18q-49 0 -68.5 35t-11.5 87q9 57 48.5 93.5t92.5 40.5zM476 80l21 88q-18 1 -40.5 -14.5t-26.5 -42.5q-5 -27 9 -41.5t31 -14.5q1 0 6 25z" />
    <glyph glyph-name="uni0E13" unicode="&#xe13;" horiz-adv-x="983" 
d="M756 53q16 0 31 7.5t26 20.5t14 29q6 24 -7 41t-37 17q-15 0 -30 -8t-26 -21t-14.5 -29t1 -29t16 -20.5t26.5 -7.5zM254 107q5 23 -8 40t-37 17q-16 0 -31 -7.5t-25.5 -21t-13.5 -28.5q-6 -24 6.5 -41t36.5 -17t45 17t27 41zM632 426l-68 -302q51 56 162 94q21 7 37 20.5
t21 23.5l6 10l76 330h104l-77 -332q-2 -11 -52 -50q29 -14 42.5 -43.5t4.5 -66.5q-11 -49 -54 -84t-92 -35t-75.5 35t-15.5 84q1 4 2 9q-26 -12 -48 -29t-34.5 -32t-21 -28.5t-11.5 -21.5l-3 -8h-105l96 415q2 8 2.5 18t0 26t-8 30t-20 27t-36.5 21t-57 8q-69 0 -117.5 -30
t-58.5 -57l103 -18l-11 -47q-4 -1 -9.5 -3.5t-21.5 -12t-29 -21.5t-25.5 -32t-17.5 -44l-12 -56q5 1 15 1q49 0 76 -34.5t16 -83.5q-12 -49 -54.5 -84t-92.5 -35q-49 0 -76 35t-15 84l36 157q4 18 14 36t22 31t26 25t26.5 20.5t23 14.5t17.5 9l6 3l-141 19q2 4 5.5 11.5
t16 28t28 39.5t42 42t57 39.5t74.5 28t93 11.5q47 0 84 -9.5t59.5 -24.5t37.5 -35t21.5 -38.5t8.5 -38t1 -31t-3 -19.5z" />
    <glyph glyph-name="uni0E14" unicode="&#xe14;" horiz-adv-x="702" 
d="M437 622q41 0 75 -8t56 -22t40 -31.5t26 -37t13.5 -38.5t4.5 -35.5t-3 -28.5l-97 -421h-104l95 410q2 17 3 35t-7 36t-21 32.5t-38.5 23.5t-60.5 9q-41 0 -76.5 -13.5t-58 -34.5t-36.5 -43.5t-19 -44.5l-69 -299l152 123q-34 11 -50 43t-7 71q12 49 54.5 84t91.5 35
t76 -34.5t15 -84.5q-11 -47 -45 -77l-316 -271h-101l97 420q4 19 18 43t41 52.5t61.5 52t84 39t105.5 15.5zM316.5 348q-5.5 -24 7.5 -40.5t36 -16.5q24 0 45 16.5t26.5 40.5t-7.5 41t-37 17t-44.5 -17t-26 -41z" />
    <glyph glyph-name="uni0E15" unicode="&#xe15;" horiz-adv-x="702" 
d="M131 0h-101l97 419q4 19 12.5 39.5t27 48t43.5 50t65.5 42t89.5 27.5l57 -55l85 54q46 -7 78 -26.5t46 -41.5t19.5 -49.5t4.5 -47.5t-6 -39l-97 -421h-104l96 414q5 22 6.5 37t0 35t-13.5 34.5t-34 23.5l-98 -45l-75 42q-23 -7 -40 -19t-26.5 -22.5t-17 -29.5t-10 -27.5
t-6.5 -28.5l-70 -303l152 123q-34 11 -50 43t-7 71q12 49 54.5 84t91.5 35t76 -34.5t15 -84.5q-11 -47 -45 -77zM316.5 348q-5.5 -24 7.5 -40.5t36 -16.5q24 0 45 16.5t26.5 40.5t-7.5 41t-37 17t-44.5 -17t-26 -41z" />
    <glyph glyph-name="uni0E16" unicode="&#xe16;" horiz-adv-x="684" 
d="M254 107q5 23 -8 40t-37 17q-16 0 -31 -7.5t-25.5 -21t-13.5 -28.5q-6 -24 6.5 -41t36.5 -17t45 17t27 41zM220 280l-12 -56q5 1 15 1q49 0 76 -34.5t16 -83.5q-12 -49 -54.5 -84t-92.5 -35q-49 0 -76 35t-15 84l36 157q4 18 14 36t22 31t26 25t26.5 20.5t23 14.5t17.5 9
l6 3l-141 19q2 4 5.5 11.5t16 28t28 39.5t42 42t57 39.5t74.5 28t93 11.5q47 0 84 -9.5t59.5 -24.5t37.5 -35t21.5 -38.5t8.5 -38t1 -31t-3 -19.5l-98 -426h-104l96 415q2 10 3.5 23t-3 32.5t-15.5 35.5t-38 27.5t-66 11.5q-69 0 -117.5 -30t-58.5 -57l103 -18l-11 -47
q-2 -1 -5 -2t-12 -5.5t-17.5 -10.5t-20 -15.5t-20 -20.5t-16.5 -26.5t-12 -32.5z" />
    <glyph glyph-name="uni0E17" unicode="&#xe17;" horiz-adv-x="738" 
d="M124 0l87 376q-5 -1 -15 -1q-50 0 -76.5 34.5t-15.5 83.5q11 50 54 84.5t92 34.5t76 -35t16 -84l-64 -278q17 34 44.5 87.5t90 160t96.5 144.5h32q46 0 78 -12.5t47.5 -31t22 -43t5.5 -44.5t-5 -40l-101 -436h-106l98 426q18 78 -44 92q-14 -4 -42.5 -55t-103.5 -186.5
t-162 -276.5h-104zM165 493q-6 -23 7.5 -40t37 -17t44 17t26.5 40q5 24 -7.5 41t-36.5 17t-45 -17t-26 -41z" />
    <glyph glyph-name="uni0E18" unicode="&#xe18;" horiz-adv-x="626" 
d="M553 333l-58 -251q-6 -24 -15 -40t-18 -24.5t-28 -12.5t-32.5 -4.5t-44.5 -0.5h-290l85 370h104l-67 -293h186q6 0 9 1t6.5 6.5t6.5 17.5l50 217q3 20 -3.5 36t-23 26.5t-35 18.5t-47.5 12t-52 6t-57 2.5t-53.5 0t-50 -1.5t-38.5 -1q39 92 108.5 148t161.5 56
q37 0 85 -15t69 -15q42 0 91 45l29 -78q-60 -43 -120 -43q-35 0 -91.5 13t-81.5 12q-30 -1 -59 -15t-50 -39h8q45 -2 70.5 -4t72 -7t74 -15.5t56.5 -26.5t39 -41.5t4 -59.5z" />
    <glyph glyph-name="uni0E19" unicode="&#xe19;" horiz-adv-x="706" 
d="M165 493q-6 -23 7.5 -40t37 -17t44 17t26.5 40q5 24 -7.5 41t-36.5 17t-45 -17t-26 -41zM376 119q-41 -20 -79.5 -49.5t-56.5 -49.5l-17 -20h-99l87 376q-5 -1 -15 -1q-50 0 -76.5 34.5t-15.5 83.5q11 50 54 84.5t92 34.5t76 -35t16 -84l-89 -387q90 75 196 112
q21 7 37 20.5t21 23.5l6 10l76 330h104l-77 -332q-2 -11 -52 -50q29 -14 42.5 -43.5t4.5 -66.5q-11 -49 -54 -84t-92 -35t-75.5 35t-15.5 84q1 4 2 9zM479 53q12 0 24 4.5t21.5 12t16.5 18t9 22.5q6 24 -7 41t-37 17t-44.5 -17t-26 -41t7.5 -40.5t36 -16.5z" />
    <glyph glyph-name="uni0E1A" unicode="&#xe1a;" horiz-adv-x="740" 
d="M124 0l87 376q-5 -1 -15 -1q-50 0 -76.5 34.5t-15.5 83.5q11 50 54 84.5t92 34.5t76 -35t16 -84l-96 -416h243q6 0 8.5 1t6 6.5t6.5 17.5l115 500h104l-120 -520q-6 -24 -15 -40t-18 -24.5t-28 -12.5t-32.5 -4.5t-44.5 -0.5h-347zM165 493q-6 -23 7.5 -40t37 -17t44 17
t26.5 40q5 24 -7.5 41t-36.5 17t-45 -17t-26 -41z" />
    <glyph glyph-name="uni0E1B" unicode="&#xe1b;" horiz-adv-x="740" 
d="M124 0l87 376q-5 -1 -15 -1q-50 0 -76.5 34.5t-15.5 83.5q11 50 54 84.5t92 34.5t76 -35t16 -84l-96 -416h243q6 0 8.5 1t6 6.5t6.5 17.5l170 738h104l-175 -758q-6 -24 -15 -40t-18 -24.5t-28 -12.5t-32.5 -4.5t-44.5 -0.5h-347zM165 493q-6 -23 7.5 -40t37 -17t44 17
t26.5 40q5 24 -7.5 41t-36.5 17t-45 -17t-26 -41z" />
    <glyph glyph-name="uni0E1C" unicode="&#xe1c;" horiz-adv-x="689" 
d="M221 376l-60 -257l201 220l99 -221l112 484h105l-139 -602h-105l-97 228l-203 -228h-104l114 493q11 49 54 84t92 35q50 0 76.5 -35t15.5 -84t-54 -83.5t-92 -34.5q-10 0 -15 1zM321 493q5 24 -8 41t-37 17t-44.5 -17t-25.5 -41q-6 -23 7 -40t37 -17t44.5 17t26.5 40z
" />
    <glyph glyph-name="uni0E1D" unicode="&#xe1d;" horiz-adv-x="689" 
d="M221 376l-60 -257l201 220l99 -221l167 722h105l-194 -840h-105l-97 228l-203 -228h-104l114 493q11 49 54 84t92 35q50 0 76.5 -35t15.5 -84t-54 -83.5t-92 -34.5q-10 0 -15 1zM321 493q5 24 -8 41t-37 17t-44.5 -17t-25.5 -41q-6 -23 7 -40t37 -17t44.5 17t26.5 40z
" />
    <glyph glyph-name="uni0E1E" unicode="&#xe1e;" horiz-adv-x="796" 
d="M268 175l250 425h12l53 -423l98 425h104l-139 -602h-106l-53 436l-257 -436h-106l87 376q-5 -1 -15 -1q-50 0 -76.5 34.5t-15.5 83.5q11 50 54 84.5t92 34.5t76 -35t16 -84zM165 493q-6 -23 7.5 -40t37 -17t44 17t26.5 40q5 24 -7.5 41t-36.5 17t-45 -17t-26 -41z" />
    <glyph glyph-name="uni0E1F" unicode="&#xe1f;" horiz-adv-x="796" 
d="M268 175l250 425h12l53 -423l153 663h104l-194 -840h-106l-53 436l-257 -436h-106l87 376q-5 -1 -15 -1q-50 0 -76.5 34.5t-15.5 83.5q11 50 54 84.5t92 34.5t76 -35t16 -84zM165 493q-6 -23 7.5 -40t37 -17t44 17t26.5 40q5 24 -7.5 41t-36.5 17t-45 -17t-26 -41z" />
    <glyph glyph-name="uni0E20" unicode="&#xe20;" horiz-adv-x="716" 
d="M166 224l3 40q4 18 14 36t22 31t26 25t26.5 20.5t23 14.5t17.5 9l6 3l-165 19q2 4 5.5 11.5t16 28t28 39.5t42 42t57 39.5t74.5 28t93 11.5q47 0 84 -9.5t59.5 -24.5t37.5 -35t21.5 -38.5t8.5 -38t1 -31t-3 -19.5l-98 -426h-104l96 415q2 10 3.5 23t-3 32.5t-15.5 35.5
t-38 27.5t-66 11.5q-69 0 -117.5 -30t-58.5 -57l127 -18l-11 -47q-4 -1 -9.5 -3.5t-21 -12t-28.5 -21.5t-26 -32t-18 -44l-33 -173q-12 -49 -55 -84t-92 -35t-76 34.5t-15 84.5q11 49 54 83.5t92 34.5q10 0 15 -1zM66 107q-6 -24 7 -41t37 -17t44.5 17t26.5 41q5 23 -7.5 40
t-36.5 17q-16 0 -31 -7.5t-26 -21t-14 -28.5z" />
    <glyph glyph-name="uni0E21" unicode="&#xe21;" horiz-adv-x="730" 
d="M616 602h103l-123 -532q-7 -32 -18.5 -49t-40.5 -26.5t-79 -8.5q-13 54 -59 117t-97 86l-31 -131q-8 -36 -43 -54t-78 -18q-59 0 -81.5 37.5t-13.5 94.5q11 67 55.5 108t107.5 46l24 104q-5 -1 -16 -1q-50 0 -76.5 34.5t-15.5 83.5q11 50 54 84.5t92 34.5t76 -35t16 -84
q-1 -2 -52 -224q42 -10 80.5 -43t61 -67t36.5 -68zM173 80l26 112q-22 1 -44.5 -15.5t-28.5 -45.5q-5 -26 0.5 -43.5t16 -25t24.5 -7.5zM195 493q-6 -23 7.5 -40t37 -17t44 17t26.5 40q5 24 -7.5 41t-36.5 17t-45 -17t-26 -41z" />
    <glyph glyph-name="uni0E22" unicode="&#xe22;" horiz-adv-x="676" 
d="M403 0h-348l32 140q20 85 129 130q-31 7 -64.5 28.5t-37.5 50.5q-6 34 6 87q10 43 32.5 79.5t59 62.5t80.5 33q13 2 28 2q46 -2 71.5 -36.5t14.5 -82.5q-11 -49 -54 -84t-92 -35q-26 0 -45 10q-7 -24 3.5 -39t41.5 -21.5t55 -7.5t70 -2h15l-15 -64q-53 0 -97 -8
q-31 -9 -58.5 -36t-34.5 -56l-17 -73h245q6 0 9 1t6.5 6.5t6.5 17.5l115 499h104l-120 -519q-4 -18 -10 -31t-11.5 -22t-16.5 -14.5t-18.5 -9t-24 -5t-27 -1.5h-33.5zM274 437q24 0 45 16.5t26 40.5q4 16 -1 29t-16.5 21t-27.5 8q-23 0 -43.5 -17t-26 -41t7 -40.5
t36.5 -16.5z" />
    <glyph glyph-name="uni0E23" unicode="&#xe23;" horiz-adv-x="567" 
d="M502 332l-52 -223q-11 -49 -54 -84t-92 -35q-50 0 -76.5 34.5t-15.5 84.5q11 49 54 83.5t92 34.5q10 0 15 -1l21 92q5 19 1 34.5t-18.5 26t-29.5 18.5t-43 13t-48 7.5t-56 4t-55.5 1.5h-56.5h-10q38 95 106 147.5t157 52.5q24 0 49.5 -7.5t48.5 -14.5t40 -8q36 0 74 35
l32 -74q-51 -40 -104 -40q-26 1 -55.5 9t-56.5 16t-46 8q-25 0 -54.5 -15t-50.5 -38q45 -2 82 -6.5t81 -15.5t71.5 -27.5t42.5 -45.5t7 -67zM273 109q-5 -24 8 -41t37 -17t44.5 17t25.5 41q6 23 -7 40t-37 17t-44.5 -17t-26.5 -40z" />
    <glyph glyph-name="uni0E24" unicode="&#xe24;" horiz-adv-x="684" 
d="M254 107q5 23 -8 40t-37 17q-16 0 -31 -7.5t-25.5 -21t-13.5 -28.5q-6 -24 6.5 -41t36.5 -17t45 17t27 41zM220 280l-12 -56q5 1 15 1q49 0 76 -34.5t16 -83.5q-12 -49 -54.5 -84t-92.5 -35q-49 0 -76 35t-15 84l36 157q4 18 14 36t22 31t26 25t26.5 20.5t23 14.5t17.5 9
l6 3l-141 19q2 4 5.5 11.5t16 28t28 39.5t42 42t57 39.5t74.5 28t93 11.5q47 0 84 -9.5t59.5 -24.5t37.5 -35t21.5 -38.5t8.5 -38t1 -31t-3 -19.5l-153 -663h-104l151 652q2 10 3.5 23t-3 32.5t-15.5 35.5t-38 27.5t-66 11.5q-69 0 -117.5 -30t-58.5 -57l103 -18l-11 -47
q-2 -1 -5 -2t-12 -5.5t-17.5 -10.5t-20 -15.5t-20 -20.5t-16.5 -26.5t-12 -32.5z" />
    <glyph glyph-name="uni0E25" unicode="&#xe25;" horiz-adv-x="679" 
d="M67 109l34 148q4 17 14 38.5t31.5 48t48.5 48t70 36t92 13.5q108 -2 143 -118l20 89q3 17 4 35t-7 36t-21 32t-39 23t-61 9q-72 0 -126 -34t-73 -78l-71 25q11 21 28 42.5t43.5 43.5t57.5 38.5t72.5 27t86.5 10.5q41 0 75.5 -8t56.5 -21.5t40 -31t26 -36.5t13.5 -38
t4 -35t-2.5 -28l-98 -424h-104l30 130q2 10 3 34.5t-3.5 60.5t-15.5 67.5t-38 53t-66 19.5q-16 -1 -34 -6.5t-37.5 -17.5t-35.5 -35t-23 -54l-6 -26q5 1 14 1q50 0 76.5 -34.5t15.5 -83.5q-5 -24 -19.5 -46t-34.5 -38t-44 -25.5t-48 -9.5q-49 0 -76 35t-16 84zM244 109
q6 23 -7.5 40t-37.5 17t-44 -17t-26 -40q-5 -24 7.5 -41t36.5 -17t45 17t26 41z" />
    <glyph glyph-name="uni0E26" unicode="&#xe26;" horiz-adv-x="716" 
d="M166 224l3 40q4 18 14 36t22 31t26 25t26.5 20.5t23 14.5t17.5 9l6 3l-165 19q2 4 5.5 11.5t16 28t28 39.5t42 42t57 39.5t74.5 28t93 11.5q47 0 84 -9.5t59.5 -24.5t37.5 -35t21.5 -38.5t8.5 -38t1 -31t-3 -19.5l-153 -663h-104l151 652q2 10 3.5 23t-3 32.5t-15.5 35.5
t-38 27.5t-66 11.5q-69 0 -117.5 -30t-58.5 -57l127 -18l-11 -47q-4 -1 -9.5 -3.5t-21 -12t-28.5 -21.5t-26 -32t-18 -44l-33 -173q-12 -49 -55 -84t-92 -35t-76 34.5t-15 84.5q11 49 54 83.5t92 34.5q10 0 15 -1zM66 107q-6 -24 7 -41t37 -17t44.5 17t26.5 41q5 23 -7.5 40
t-36.5 17q-16 0 -31 -7.5t-26 -21t-14 -28.5z" />
    <glyph glyph-name="uni0E27" unicode="&#xe27;" horiz-adv-x="607" 
d="M554 421l-72 -312q-11 -49 -54 -84t-92 -35q-50 0 -76.5 34.5t-15.5 84.5q11 49 54 83.5t92 34.5q10 0 15 -1l43 185q4 18 4.5 34.5t-4 35.5t-16 33t-35 23t-56.5 9q-50 0 -93 -19.5t-67.5 -45t-36.5 -53.5l-69 25q14 29 36.5 55.5t56.5 53.5t83.5 43.5t107.5 16.5
q47 0 83.5 -11t58 -29t35 -39.5t18 -45t4.5 -42t-4 -34.5zM305 109q-5 -24 8 -41t37 -17t44.5 17t25.5 41q6 23 -7 40t-37 17t-44.5 -17t-26.5 -40z" />
    <glyph glyph-name="uni0E28" unicode="&#xe28;" horiz-adv-x="702" 
d="M134 0h-104l98 423q4 18 17.5 42t40.5 52.5t61 51.5t84 38.5t106 15.5q64 0 110 -19q22 3 54 23.5t67 66.5l73 -44q-44 -61 -129 -94q27 -34 35.5 -70.5t2.5 -61.5l-98 -424h-104l95 413q3 16 4 34t-7 36t-21 32t-39 23t-61 9q-33 0 -63 -9t-51 -23t-37 -32t-25.5 -35.5
t-13.5 -34.5l-26 -116l-17 -59q38 91 96 166q22 28 54 45.5t65 17.5q49 0 76 -34.5t15 -84.5q-11 -49 -54 -84t-92 -35q-57 0 -82 45q-10 -19 -26 -49.5t-50 -98t-49 -104.5zM387 406q-24 0 -44.5 -17t-26 -41t7.5 -40.5t36 -16.5q24 0 45 16.5t26.5 40.5t-7.5 41t-37 17z
" />
    <glyph glyph-name="uni0E29" unicode="&#xe29;" horiz-adv-x="736" 
d="M721 420l63 -10q-32 -87 -134 -149l-39 -169q-4 -20 -10 -34.5t-12 -24t-16.5 -16t-18.5 -10t-24 -5t-26.5 -2t-32.5 -0.5h-347l87 376q-5 -1 -15 -1q-50 0 -76.5 34.5t-15.5 83.5q11 50 54 84.5t92 34.5t76 -35t16 -84l-96 -416h243q6 0 8.5 1t6 6.5t6.5 17.5l27 118
q-31 -8 -57 -8q-121 -2 -146 57q-11 28 -5 58q10 43 47 72.5t79 29.5q28 0 48 -13.5t28.5 -37t1.5 -51.5q-7 -34 -33 -60q26 3 52 20l73 315h104l-60 -259q35 26 52 77zM165 493q-6 -23 7.5 -40t37 -17t44 17t26.5 40q5 24 -7.5 41t-36.5 17t-45 -17t-26 -41zM420 276
q21 0 40 15t23 36q5 22 -6.5 37t-33 15t-40.5 -15t-24 -37q-3 -14 1.5 -25.5t15 -18.5t24.5 -7z" />
    <glyph glyph-name="uni0E2A" unicode="&#xe2a;" horiz-adv-x="681" 
d="M67 109l34 148q4 17 14.5 38.5t31.5 48.5t48.5 48t70 35.5t91.5 13.5q108 -2 143 -114l20 85q3 17 4 35t-7 36t-21 32t-39 23t-61 9q-72 0 -126 -34t-73 -78l-71 25q11 21 28 42.5t43.5 43.5t57.5 38.5t72.5 27t86.5 10.5q66 0 109 -18q23 3 56.5 23t66.5 62l73 -43
q-44 -57 -129 -90q27 -34 35 -70t2 -62l-98 -424h-104l30 130q2 10 3 34.5t-3.5 61t-15.5 68t-38 53t-67 18.5q-17 -1 -34.5 -7t-37 -18t-35 -34.5t-22.5 -53.5l-6 -26q5 1 14 1q50 0 76.5 -34.5t15.5 -83.5q-5 -24 -19.5 -46t-34.5 -38t-44 -25.5t-48 -9.5q-49 0 -76 35
t-16 84zM244 109q6 23 -7.5 40t-37.5 17t-44 -17t-26 -40q-5 -24 7.5 -41t36.5 -17t45 17t26 41z" />
    <glyph glyph-name="uni0E2B" unicode="&#xe2b;" horiz-adv-x="737" 
d="M565 454q22 0 41 15t23 35q5 21 -7 36t-34 15q-21 0 -40 -15t-24 -36q-4 -20 8 -35t33 -15zM342 493l-75 -324q129 203 216 249q-42 32 -28 92q6 28 28 52t53.5 38t65.5 14q51 0 80 -30.5t19 -73.5q-14 -61 -82 -99q50 -56 34 -124l-66 -287h-105l65 280q16 69 -13 95
q-28 -12 -69.5 -55t-81 -96t-75.5 -104t-58 -86l-22 -34h-103l86 376q-5 -1 -15 -1q-50 0 -76.5 34.5t-15.5 83.5q11 50 54 84.5t92 34.5t76 -35t16 -84zM165 493q-6 -23 7.5 -40t37 -17t44 17t26.5 40q5 24 -7.5 41t-36.5 17t-45 -17t-26 -41z" />
    <glyph glyph-name="uni0E2C" unicode="&#xe2c;" horiz-adv-x="790" 
d="M642 627q-23 0 -41 -17t-22 -32q-3 -17 5.5 -34t36.5 -17q23 0 39.5 16.5t20.5 32.5q3 15 -6 33t-33 18zM342 493l-75 -324l211 295h20l84 -295l71 306q-23 -6 -45 -6q-46 0 -79 30t-22 79q12 49 57 78t94 29q17 0 36 -6t33 -15t19 -18q24 33 33 81l90 -20
q-1 -21 -30.5 -67.5t-74.5 -80.5q2 -10 2 -26.5t-1 -22.5l-118 -510h-107l-77 337l-235 -337h-104l87 376q-5 -1 -15 -1q-50 0 -76.5 34.5t-15.5 83.5q11 50 54 84.5t92 34.5t76 -35t16 -84zM165 493q-6 -23 7.5 -40t37 -17t44 17t26.5 40q5 24 -7.5 41t-36.5 17t-45 -17
t-26 -41z" />
    <glyph glyph-name="uni0E2D" unicode="&#xe2d;" horiz-adv-x="690" 
d="M185 67h251q5 0 7 0.5t5 2.5t5 7.5t4 14.5l74 320q3 17 4 35t-7 36t-21 32t-39 23t-61 9q-71 0 -126.5 -34.5t-74.5 -78.5l-70 26q14 27 38.5 54t60 52t85.5 40.5t105 15.5q41 0 75.5 -8t57 -21.5t40 -31t25.5 -36.5t13.5 -38t4 -35t-2.5 -28l-79 -342q-6 -24 -15 -40
t-18 -24.5t-28 -12.5t-33 -4.5t-44 -0.5h-355l65 283q12 49 55 84t92 35t76 -35t15 -84q-11 -49 -53.5 -83.5t-92.5 -34.5q-10 0 -15 1zM308 283q6 24 -7 41t-37 17q-16 0 -31 -8t-25.5 -21t-14.5 -29q-5 -23 7.5 -40t36.5 -17t45 17t26 40z" />
    <glyph glyph-name="uni0E2E" unicode="&#xe2e;" horiz-adv-x="697" 
d="M372 471q70 1 133 43q-27 33 -109 33q-56 0 -108 -18t-54 -33q-2 -10 42.5 -18t95.5 -7zM195 146l-20 -87h248q6 0 9 1t6.5 6t6.5 16l76 331q2 6 1 46q-75 -35 -159 -37q-59 -1 -98.5 1.5t-70.5 11t-42.5 25.5t-5.5 43q11 48 87 83.5t181 35.5q93 0 152 -42
q19 14 43.5 47.5t26.5 45.5l72 -41q-16 -35 -43 -65.5t-49 -46.5q21 -58 12 -96l-79 -342q-4 -17 -10 -30t-11.5 -22t-16 -14.5t-18.5 -9t-24.5 -5t-26.5 -1.5h-33h-354l60 263q11 49 54 84t92 35q50 0 76.5 -35t15.5 -84q-12 -49 -54.5 -83.5t-92.5 -34.5q-7 0 -11 1z
M292 263q5 24 -8 41t-37 17q-16 0 -30.5 -8t-25.5 -21t-14 -29q-6 -23 7 -40t36.5 -17t44.5 17t27 40z" />
    <glyph glyph-name="uni0E2F" unicode="&#xe2f;" horiz-adv-x="664" 
d="M313 386h-8q-25 0 -38.5 0.5t-37 3.5t-38 8.5t-29 17t-21.5 28.5q-12 28 -5 58q10 43 46.5 72.5t79 29.5t65.5 -29.5t13 -72.5q-8 -34 -33 -59q81 0 137.5 39.5t82.5 115.5l1 4h104l-139 -602h-104l101 437q-85 -51 -177 -51zM226 451q14 0 27.5 7t23.5 18.5t13 25.5
q5 22 -7 37t-33 15t-40 -15t-24 -37q-5 -21 7 -36t33 -15z" />
    <glyph glyph-name="uni0E30" unicode="&#xe30;" horiz-adv-x="592" 
d="M279 368h-8q-25 0 -38.5 0.5t-37 3.5t-38 8.5t-29 17t-22.5 28.5q-11 28 -4 58q10 43 46.5 72.5t78.5 29.5t65.5 -29.5t13.5 -72.5q-8 -34 -33 -59q32 0 60.5 6.5t53 19t44.5 31t36 43.5t26 55l89 -15q-32 -87 -120.5 -142t-182.5 -55zM192 433q21 0 40 15t24 36
q2 11 0 20.5t-7.5 16.5t-14 11t-18.5 4q-21 0 -40 -15t-24 -37q-5 -21 7 -36t33 -15zM200 27h-8q-21 0 -32 0.5t-31 1.5t-32.5 5t-27.5 10t-25 16.5t-16 24.5q-12 28 -5 58q10 43 46.5 72.5t79 29.5t65.5 -29.5t13 -72.5q-8 -34 -33 -59q81 0 138 39.5t82 115.5l90 -15
q-22 -58 -71.5 -103.5t-110.5 -69.5t-122 -24zM113 92q21 0 40 15t24 36q5 22 -7 37t-33 15t-40 -15t-24 -37q-5 -21 7 -36t33 -15z" />
    <glyph glyph-name="uni0E31" unicode="&#xe31;" 
d="M-59 709h-9q-24 0 -38 0.5t-37.5 3.5t-37.5 8.5t-29 17t-22 28.5q-12 28 -5 58q10 43 47 72.5t79 29.5t65 -29.5t13 -72.5q-7 -34 -32 -59q80 0 137 39.5t83 115.5l89 -15q-16 -44 -49 -81.5t-74.5 -62.5t-88 -39t-91.5 -14zM-146 774q21 0 40 15t23 36q5 22 -6.5 37
t-33 15t-40.5 -15t-24 -37q-3 -14 1.5 -25.5t15 -18.5t24.5 -7z" />
    <glyph glyph-name="uni0E32" unicode="&#xe32;" horiz-adv-x="574" 
d="M141 428l-66 28q14 25 25 43t33.5 43.5t48 41t66 27.5t88.5 12q47 0 83 -10.5t56 -28.5t32.5 -39t16 -45t2.5 -42.5t-4 -34.5l-98 -423h-105l98 423q4 17 5 33t-2.5 35.5t-13.5 33t-32 23t-53 9.5q-119 0 -180 -129z" />
    <glyph glyph-name="uni0E33" unicode="&#xe33;" horiz-adv-x="574" 
d="M141 428l-66 28q14 25 25 43t33.5 43.5t48 41t66 27.5t88.5 12q47 0 83 -10.5t56 -28.5t32.5 -39t16 -45t2.5 -42.5t-4 -34.5l-98 -423h-105l98 423q4 17 5 33t-2.5 35.5t-13.5 33t-32 23t-53 9.5q-119 0 -180 -129zM-38 935q32 0 56 -16t33.5 -43.5t1.5 -59.5
q-11 -49 -54 -84t-92 -35t-75.5 35t-15.5 84q12 49 54.5 84t91.5 35zM-79 759q24 0 45 16.5t26.5 40.5t-7.5 41t-37 17t-44.5 -17t-26 -41t7.5 -40.5t36 -16.5z" />
    <glyph glyph-name="uni0E34" unicode="&#xe34;" 
d="M-496 692q23 60 65 105.5t98.5 71t120.5 25.5q62 0 114 -23.5t86.5 -74.5t33.5 -121q-114 24 -180.5 33t-147.5 6t-190 -22zM-381 753q113 7 175 3.5t145 -16.5q-13 30 -37.5 50.5t-52.5 29t-59.5 10.5t-56.5 -5q-72 -15 -114 -72z" />
    <glyph glyph-name="uni0E35" unicode="&#xe35;" horiz-adv-x="9" 
d="M-503 695q24 60 66 105.5t98.5 71t120.5 25.5q102 0 170 -62l25 110h95l-57 -248q1 -11 1 -19q-115 24 -181 33t-147.5 6t-190.5 -22zM-388 756q114 7 176 3.5t145 -16.5q-13 30 -37.5 50.5t-53 29t-59.5 10.5t-56 -5q-73 -15 -115 -72z" />
    <glyph glyph-name="uni0E36" unicode="&#xe36;" horiz-adv-x="1" 
d="M10 966q43 0 65.5 -29.5t12.5 -72.5q-7 -32 -30 -57.5t-54 -37.5q20 -43 18 -94q-114 24 -180.5 33t-147.5 6t-190 -22q23 60 65 105.5t98.5 71t120.5 25.5q54 0 101 -19q13 39 47.5 65t73.5 26zM-25 816q21 0 38.5 13.5t21.5 34.5q5 20 -5.5 34.5t-31.5 14.5
q-20 0 -37.5 -14.5t-22.5 -34.5q-4 -21 6.5 -34.5t30.5 -13.5zM-381 753q113 7 175 3.5t145 -16.5q-13 30 -37.5 50.5t-52.5 29t-59.5 10.5t-56.5 -5q-72 -15 -114 -72z" />
    <glyph glyph-name="uni0E37" unicode="&#xe37;" horiz-adv-x="16" 
d="M-496 692q23 60 65 105.5t98.5 71t120.5 25.5q20 0 38 -3l11 51h95l-18 -79q22 -11 44 -31l25 110h95l-57 -248q1 -11 1 -19q-114 24 -180.5 33t-147.5 6t-190 -22zM-381 753q113 7 175 3.5t145 -16.5q-13 30 -37.5 50.5t-52.5 29t-59.5 10.5t-56.5 -5q-72 -15 -114 -72z
" />
    <glyph glyph-name="uni0E38" unicode="&#xe38;" 
d="M-264 -70q42 0 66 -30t14 -72l-44 -190h-104l21 88q-43 0 -65.5 30t-13.5 72q10 43 46.5 72.5t79.5 29.5zM-299 -223q21 0 39 15t23 36q5 22 -6.5 37t-32.5 15q-14 0 -27.5 -7t-23 -19t-13.5 -26q-5 -21 7 -36t34 -15z" />
    <glyph glyph-name="uni0E39" unicode="&#xe39;" 
d="M-395 -305h55q6 0 8.5 1t6 6.5t5.5 17.5l47 201h104l-47 -201q-5 -24 -14 -40t-18 -24.5t-28 -12.5t-33 -4.5t-45 -0.5h-159l21 88q-43 0 -65.5 30t-13.5 72q10 43 46.5 72.5t79.5 29.5q42 0 66 -30t14 -72zM-480 -223q13 0 26.5 7t23 18.5t12.5 25.5q5 22 -6.5 37
t-32.5 15t-40 -15t-24 -37q-5 -21 7 -36t34 -15z" />
    <glyph glyph-name="uni0E3A" unicode="&#xe3a;" 
d="M-171.5 -146q-6.5 -28 -31 -48t-52.5 -20t-43.5 20t-9 48t31 48t52.5 20t43.5 -20t9 -48z" />
    <glyph glyph-name="uni0E3F" unicode="&#xe3f;" horiz-adv-x="644" 
d="M567 227q-26 -113 -103.5 -171t-181.5 -56l-21 -92h-90l21 92h-185l185 800h185l19 85h90l-20 -87q92 -6 129 -61.5t15 -153.5q-24 -104 -94 -159q84 -56 51 -197zM367 368l-64 -278q32 0 56 5t49 18.5t42.5 42t27.5 71.5q10 35 7 60t-10.5 40.5t-25.5 24.5t-37 12.5
t-45 3.5zM181 368l-64 -278h96l64 278h-96zM260 710l-58 -250h96l58 250h-96zM521 583q25 111 -76 125l-57 -247q107 12 133 122z" />
    <glyph glyph-name="uni0E40" unicode="&#xe40;" horiz-adv-x="388" 
d="M199 603h104l-87 -377q5 1 15 1q50 0 76.5 -34.5t15.5 -83.5q-5 -24 -19.5 -46t-34.5 -38t-44 -25.5t-48 -9.5q-49 0 -76 35t-16 84zM262 109q6 23 -7.5 40t-37.5 17t-44 -17t-26 -40q-5 -24 7.5 -41t36.5 -17t45 17t26 41z" />
    <glyph glyph-name="uni0E41" unicode="&#xe41;" horiz-adv-x="658" 
d="M469 603h104l-87 -377q5 1 15 1q50 0 76.5 -34.5t15.5 -83.5q-7 -32 -29.5 -59.5t-53.5 -43.5t-63 -16q-49 0 -76 35t-16 84zM532 109q6 23 -7.5 40t-37.5 17t-44 -17t-26 -40q-5 -24 7.5 -41t36.5 -17t45 17t26 41zM199 603h104l-87 -377q5 1 15 1q50 0 76.5 -34.5
t15.5 -83.5q-5 -24 -19.5 -46t-34.5 -38t-44 -25.5t-48 -9.5q-49 0 -76 35t-16 84zM262 109q6 23 -7.5 40t-37.5 17t-44 -17t-26 -40q-5 -24 7.5 -41t36.5 -17t45 17t26 41z" />
    <glyph glyph-name="uni0E42" unicode="&#xe42;" horiz-adv-x="431" 
d="M141 109l162 699q1 11 -4 20.5t-16 16.5t-22 12.5t-29 10t-28.5 7t-28 6t-21.5 4.5q95 132 229 124q23 -1 48.5 -8.5t44 -14.5t39.5 -10t43 6t45 31l34 -53q-34 -27 -68 -37.5t-64 -8t-66 14.5q-59 17 -78 19q-19 1 -44 -11t-39 -27q31 -10 51.5 -18.5t42 -22t29.5 -31.5
t3 -40l-132 -572q5 1 15 1q50 0 76.5 -34.5t15.5 -83.5q-7 -32 -29.5 -59.5t-53.5 -43.5t-63 -16q-49 0 -76 35t-16 84zM318 109q4 15 -1 28.5t-16.5 21t-27.5 7.5q-24 0 -44 -17t-26 -40q-5 -24 7.5 -41t36.5 -17t45 17t26 41z" />
    <glyph glyph-name="uni0E43" unicode="&#xe43;" horiz-adv-x="496" 
d="M203 109l125 536q41 53 65.5 103t35.5 122q3 31 -22.5 53t-63.5 22q-22 0 -50.5 -9.5t-41.5 -27.5q14 4 31 4q49 0 76 -34.5t15 -84.5q-11 -49 -54 -84t-92 -35q-37 0 -60 19t-29 49t-2 64.5t18 67.5q14 35 44 65t72 48t87 18q75 0 124.5 -38t36.5 -97q-12 -53 -24.5 -86
t-31.5 -69t-28 -55l-100 -434q5 1 15 1q50 0 76.5 -34.5t15.5 -83.5q-7 -32 -29.5 -59.5t-53.5 -43.5t-63 -16q-49 0 -76 35t-16 84zM380 109q6 23 -7.5 40t-37.5 17t-44 -17t-26 -40q-5 -24 7.5 -41t36.5 -17t45 17t26 41zM241 736q24 0 45 16.5t26 40.5q4 16 -1 29
t-16.5 21t-27.5 8q-23 0 -43.5 -17t-26 -41t7 -40.5t36.5 -16.5z" />
    <glyph glyph-name="uni0E44" unicode="&#xe44;" horiz-adv-x="456" 
d="M395 662l-101 -436q5 1 15 1q50 0 76.5 -34.5t15.5 -83.5q-7 -32 -29.5 -59.5t-53.5 -43.5t-63 -16q-49 0 -76 35t-16 84l126 543q9 22 43 97.5t47 113.5t4 46l-121 -179h-71l-12 263l63 28l7 -220l137 200h27h9.5t11.5 -0.5t13 -1.5t13 -3.5t11.5 -5.5t9.5 -7.5t6.5 -11
t3 -15t-1.5 -18.5zM340 109q6 23 -7.5 40t-37.5 17q-15 0 -30 -7.5t-25.5 -21t-14.5 -28.5q-5 -24 7.5 -41t36.5 -17q16 0 31 8t26 21t14 29z" />
    <glyph glyph-name="uni0E45" unicode="&#xe45;" horiz-adv-x="574" 
d="M149 418l-74 38q14 25 25 43t33.5 43.5t48 41t66 27.5t88.5 12q47 0 83 -10.5t56 -28.5t32.5 -39t16 -45t2.5 -42.5t-4 -34.5l-153 -661h-105l153 661q3 15 4.5 29.5t1 31.5t-6.5 31t-16.5 26.5t-30 19t-46.5 6.5q-111 0 -174 -149z" />
    <glyph glyph-name="uni0E46" unicode="&#xe46;" horiz-adv-x="806" 
d="M371 472q49 0 76 -34.5t15 -84.5q-11 -49 -54 -84t-92 -35q-56 0 -81 42t-7 107q24 85 73 139.5t135 88.5l74 -70l104 70q70 -34 96 -76t13 -114l-121 -523q-4 -18 -30 -42t-71 -52.5t-68 -41.5t-62 -35l-23 59q18 8 82.5 53.5t70.5 67.5l114 496q12 46 8 77.5t-28 50.5
l-101 -54l-74 55q-8 -4 -16 -14t-19 -26t-14 -20zM357 411q-23 0 -44 -17t-27 -41q-2 -12 0 -22.5t8 -18t15.5 -12t20.5 -4.5q24 0 45 16.5t26 40.5q4 16 -0.5 29t-16 21t-27.5 8z" />
    <glyph glyph-name="uni0E47" unicode="&#xe47;" 
d="M-211 818q23 -2 61 -33q7 27 33 46t55 19q30 0 47 -20t11 -48q-7 -29 -35 -52.5t-63 -23.5q-23 0 -44.5 14.5t-41 29t-37.5 14.5q-25 0 -41 -49h-59q-24 11 -40.5 43t-8.5 65q11 46 61.5 79.5t103.5 33.5q18 0 54.5 -3t57.5 -3q36 0 58 14.5t32 54.5l65 -26
q-17 -39 -42.5 -61t-53 -28.5t-66.5 -6.5q-17 0 -55.5 2t-62.5 2t-50 -16.5t-32 -41.5q-7 -30 14 -48q7 10 13.5 17.5t16 13.5t22 9t27.5 3zM-84 752q10 0 21 9t13 20q3 13 -3.5 22t-17.5 9t-22 -9t-14 -22q-1 -7 1.5 -13.5t8 -11t13.5 -4.5z" />
    <glyph glyph-name="uni0E48" unicode="&#xe48;" 
d="M77 1000h-95l42 181h95z" />
    <glyph glyph-name="uni0E49" unicode="&#xe49;" 
d="M-55 1140q20 0 36.5 12.5t21 31.5t-6.5 32t-30 13t-35.5 -13t-21 -32t6 -31.5t29.5 -12.5zM45 1184q-5 -50 -59 -122q44 4 87.5 30.5t78.5 71.5t53 99l64 -19q-11 -32 -29.5 -64t-53 -68.5t-78 -63.5t-109 -43.5t-141.5 -13.5l6 29q31 10 57.5 30.5t29.5 45.5
q-7 -2 -16 -2q-38 0 -58 26t-11.5 64t40.5 64t70 26q37 0 57.5 -26t11.5 -64z" />
    <glyph glyph-name="uni0E4A" unicode="&#xe4a;" 
d="M-239 1042q-2 20 5 48q11 48 44.5 93.5t93.5 73.5l56 -47q33 20 78 46q25 -12 41 -31t20.5 -38t5.5 -39t-4 -34q-16 -46 -22 -59q36 11 67 83.5t32 115.5h66q-2 -17 -8 -42t-23.5 -64t-42 -72.5t-68 -61t-97.5 -35.5l-30 16q15 15 32.5 48.5t25.5 67.5q13 61 -9 88
q-7 -4 -35.5 -18.5t-40.5 -20.5l-57 39q-7 -5 -17.5 -20.5t-10.5 -23.5h11q37 0 57 -25.5t11 -63.5q-4 -18 -15 -35t-25.5 -29t-33 -19.5t-36.5 -7.5q-31 0 -50.5 19.5t-20.5 47.5zM-138 1104q-17 0 -31 -10.5t-18 -26.5q-4 -17 5 -29t26 -12q15 0 29 12t18 29q4 15 -5 26
t-24 11z" />
    <glyph glyph-name="uni0E4B" unicode="&#xe4b;" 
d="M70 988h-94l19 82h-92l15 64h92l19 82h94l-19 -82h92l-15 -64h-92z" />
    <glyph glyph-name="uni0E4C" unicode="&#xe4c;" 
d="M213 1223l89 -21q-15 -37 -39 -63t-57.5 -42t-63.5 -25t-75 -18q27 -26 18 -65q-8 -37 -40.5 -62t-76.5 -25t-64.5 25t-10.5 63q20 86 140 109q32 6 54.5 13t47.5 20.5t44.5 36t33.5 54.5zM-21 944q17 -1 33 12t20 30q4 18 -5.5 30.5t-27.5 12.5t-33.5 -12.5t-19.5 -29.5
q-4 -18 5.5 -30.5t27.5 -12.5z" />
    <glyph glyph-name="uni0E4D" unicode="&#xe4d;" 
d="M-38 935q32 0 56 -16t33.5 -43.5t1.5 -59.5q-11 -49 -54 -84t-92 -35t-75.5 35t-15.5 84q12 49 54.5 84t91.5 35zM-79 759q24 0 45 16.5t26.5 40.5t-7.5 41t-37 17t-44.5 -17t-26 -41t7.5 -40.5t36 -16.5z" />
    <glyph glyph-name="uni0E4E" unicode="&#xe4e;" horiz-adv-x="45" 
d="M41 908l3 -55q-40 -11 -86 -13q-39 1 -71.5 -3t-57.5 -16.5t-29.5 -31.5t14.5 -30t55 -11q27 0 85 14l2 -54q-57 -14 -100 -14q-28 0 -54 4t-51.5 13.5t-37.5 29.5t-6 48q14 58 104 88q-23 27 -17 56q21 91 147 91q22 0 59 -4.5t55 -4.5q46 0 124 44l-10 -52
q-59 -39 -138 -39q-20 0 -54 4.5t-50 4.5q-29 0 -40 -44q-3 -13 4 -22t20.5 -13t24.5 -5t24 -1q29 0 81 16z" />
    <glyph glyph-name="uni0E4F" unicode="&#xe4f;" horiz-adv-x="664" 
d="M390 515q104 0 162 -69.5t36 -163.5q-22 -95 -113 -163t-192 -68q-103 0 -161 68.5t-36 163.5q22 96 113 164t191 68zM299 121q40 0 80.5 22.5t70.5 60t39 79.5q16 66 -20.5 113.5t-94.5 47.5q-61 0 -117.5 -48.5t-71.5 -112.5q-15 -67 20 -114.5t94 -47.5zM358 375
q45 0 67.5 -27t13.5 -65q-9 -39 -43.5 -65.5t-80.5 -26.5q-44 0 -66.5 26.5t-13.5 65.5q10 40 43.5 66t79.5 26z" />
    <glyph glyph-name="uni0E50" unicode="&#xe50;" horiz-adv-x="772" 
d="M324 -8q-64 0 -116 15.5t-87 47.5t-47.5 79.5t1.5 111.5q19 83 74.5 141.5t130 85.5t162.5 27q66 0 117.5 -16t86.5 -47.5t47 -79t-2 -111.5q-28 -122 -131 -190.5t-236 -63.5zM428 437q-92 1 -160.5 -47t-90.5 -144t24.5 -143.5t138.5 -47.5q59 0 108 19t87 62.5
t53 109.5q22 96 -24 144t-136 47z" />
    <glyph glyph-name="uni0E51" unicode="&#xe51;" horiz-adv-x="772" 
d="M319 73q-38 9 -57 41.5t-9 74.5q11 49 53.5 84t91.5 35q50 0 76.5 -34.5t15.5 -84.5q-8 -31 -24.5 -62.5t-42.5 -62t-65.5 -49.5t-85.5 -19q-126 0 -179.5 63.5t-25.5 183.5q29 126 129.5 192t245.5 66q66 0 118 -14.5t89.5 -46t49.5 -80t-2 -117.5q-11 -49 -31.5 -92
t-40 -71.5t-54 -61t-56.5 -50t-64 -48.5l-38 62q77 52 118.5 111t62.5 150q23 101 -22 148t-145 47q-101 0 -168 -47.5t-90 -147.5q-42 -184 118 -184q8 0 18.5 4t13.5 10zM357 132q25 0 45.5 16.5t26 40.5t-7.5 41t-37 17q-23 0 -44 -17t-26.5 -41t7.5 -40.5t36 -16.5z" />
    <glyph glyph-name="uni0E52" unicode="&#xe52;" horiz-adv-x="770" 
d="M331 325q33 16 64 16q49 0 76 -35t15 -84q-11 -49 -54 -83.5t-92 -34.5q-41 0 -71.5 17.5t-41.5 45.5q-15 36 13 159q20 84 61.5 130.5t124.5 46.5q16 0 31.5 -10.5t22 -19.5t18.5 -26q56 56 98 56q48 0 77.5 -15t40 -43.5t10 -61t-10.5 -75.5l-37 -160q-7 -39 -41 -74.5
t-79.5 -55.5t-86.5 -18h-335h-33.5t-26.5 1.5t-22 5t-14 9t-9.5 14.5t-1.5 22t4 31l107 460q6 25 -10.5 45t-43.5 29l48 93q57 -22 88 -66t23 -89l-108 -467q-3 -19 -1 -22t11 -3h340q25 0 53 25.5t36 59.5l38 164q1 3 2 9l4.5 31.5t3 27t0 25t-5.5 18t-13 13.5t-21 4
q-8 0 -19 -10.5t-20 -23.5t-19.5 -28t-14.5 -20h-63q-2 4 -7.5 27.5t-12 39t-14.5 15.5q-52 0 -81 -115zM354 165q16 0 31 7.5t26 20.5t14 29q6 24 -7 41t-37 17t-44.5 -17t-26 -41t7.5 -40.5t36 -16.5z" />
    <glyph glyph-name="uni0E53" unicode="&#xe53;" horiz-adv-x="772" 
d="M561 500q44 0 75 -14.5t47 -38.5t23 -57t5 -68t-11 -73q-17 -74 -52.5 -133t-108.5 -128l-39 64q40 42 61 85.5t36 111.5q44 188 -50 188q-24 0 -56 -50q-8 -11 -14.5 -26t-9.5 -24l-3 -9l-31 -132h-103l31 132q6 34 -1 59q-4 25 -15.5 37.5t-26.5 12.5q-104 0 -148 -188
l-4.5 -22.5t-2.5 -14.5q31 16 62 16q49 0 76 -35t15 -84q-7 -32 -29.5 -59.5t-53.5 -43.5t-63 -16q-47 0 -78.5 22t-39.5 57q-11 63 16 180q12 52 32.5 94.5t51.5 79t77 57t103 20.5q74 0 109 -44q50 44 120 44zM211 167q-24 0 -44.5 -17t-26 -41t7.5 -40.5t36 -16.5
q24 0 45 16.5t26.5 40.5t-7.5 41t-37 17z" />
    <glyph glyph-name="uni0E54" unicode="&#xe54;" horiz-adv-x="771" 
d="M270 193q-6 24 0 51q8 32 30 59.5t53 43.5t63 16q49 0 76 -35t15 -84q-8 -36 -35.5 -66t-63.5 -44q38 -36 85 -52.5t74 -16.5h77l-15 -65h-313q-48 0 -87.5 5.5t-74.5 17t-58.5 31t-39 47.5t-16.5 65.5t8 85.5q27 114 131 178t251 64h159q52 0 90 51t60 133h102
q-24 -102 -96.5 -174.5t-169.5 -72.5h-159q-103 0 -173.5 -45t-91.5 -134q-8 -34 -8.5 -60.5t5.5 -46.5t18 -34.5t28 -23.5t38.5 -14.5t45.5 -7.5t53 -2h45q-88 55 -106 130zM375 187q24 0 45 16.5t26.5 40.5t-7.5 41t-37 17t-44.5 -17t-26.5 -41q-3 -16 1.5 -29t16 -20.5
t26.5 -7.5z" />
    <glyph glyph-name="uni0E55" unicode="&#xe55;" horiz-adv-x="771" 
d="M521 671q32 0 56 -16t33.5 -43.5t1.5 -59.5q-6 -30 -28 -58h5q53 0 92 51.5t58 132.5h102q-24 -101 -96.5 -174t-169.5 -73h-159q-100 0 -172 -45t-93 -134q-8 -34 -8.5 -60.5t5.5 -46.5t18 -34.5t28 -23.5t38.5 -14.5t45.5 -7.5t53 -2h45q-88 55 -106 130q-6 24 0 51
q8 32 30 59.5t53 43.5t63 16q49 0 76 -35t15 -84q-8 -36 -35.5 -66t-63.5 -44q38 -36 85 -52.5t74 -16.5h77l-15 -65h-313q-48 0 -87.5 5.5t-74.5 17t-58.5 31t-39 47.5t-16.5 65.5t8 85.5q16 67 63 119t114 82t148 39h5q-11 25 -3 60q12 49 54.5 84t91.5 35zM480 495
q24 0 45 16.5t26.5 40.5t-7.5 41t-37 17q-23 0 -44 -17t-26.5 -41t7.5 -40.5t36 -16.5zM375 187q24 0 45 16.5t26.5 40.5t-7.5 41t-37 17t-44.5 -17t-26.5 -41q-3 -16 1.5 -29t16 -20.5t26.5 -7.5z" />
    <glyph glyph-name="uni0E56" unicode="&#xe56;" horiz-adv-x="774" 
d="M282 61q25 -8 52 -8q96 0 164.5 49t89.5 140q23 100 -14 147.5t-132 47.5q-52 0 -111.5 -23t-68.5 -61h-93l11 44q1 6 3 13.5t4 15.5t4 14q47 206 -114 204l42 73q113 -12 151 -76.5t16 -177.5q82 37 170 37q146 0 204 -69.5t31 -188.5q-28 -121 -128.5 -186.5
t-242.5 -65.5q-107 0 -160.5 45t-33.5 128q11 49 53.5 84t91.5 35q50 0 76.5 -35t15.5 -84q-5 -21 -17 -40.5t-28 -35t-36 -26.5zM230 106q16 0 31 7.5t26 20.5t15 29q5 24 -8 41t-37 17q-23 0 -44 -17t-26.5 -41t7.5 -40.5t36 -16.5z" />
    <glyph glyph-name="uni0E57" unicode="&#xe57;" horiz-adv-x="785" 
d="M876 672l38 -57q-79 -49 -120 -225q-57 -249 -171 -345q-15 -13 -31 -23t-32.5 -15.5t-29.5 -9t-29 -5t-24 -2t-21.5 0l-13.5 0.5h-23l-15 41q81 121 106 228q7 29 10.5 49.5t5 46.5t-2.5 42t-16.5 27t-33.5 11q-20 0 -40.5 -29t-32 -58.5t-16.5 -48.5l-7 -30h-83l7 30
q4 16 6 45t-5 60t-26 31q-28 0 -50.5 -16.5t-37.5 -47t-24.5 -58.5t-18.5 -65q-4 -18 -5 -27.5t2 -10.5q31 16 61 16q50 0 76.5 -34.5t15.5 -84.5q-11 -49 -54 -84t-93 -35q-46 0 -77.5 21t-39.5 56q-15 68 11 183q9 38 21 70.5t32.5 66.5t46.5 58t64.5 39.5t83.5 15.5
q44 0 85 -62q65 62 112 62q46 0 76 -14.5t44 -36.5t17.5 -55.5t0 -64t-12.5 -68.5q-8 -35 -21 -71.5t-22.5 -57.5t-29.5 -61q27 10 49 31t37 46t30 67.5t24.5 79t23.5 96.5q44 192 173 282zM189 166q-23 0 -44 -17t-26 -41q-4 -16 1 -29t16 -20.5t27 -7.5q24 0 44.5 16.5
t26.5 40.5q4 16 -1 29t-16.5 21t-27.5 8z" />
    <glyph glyph-name="uni0E58" unicode="&#xe58;" horiz-adv-x="771" 
d="M691 228q-6 -28 -15.5 -57t-26.5 -62t-38 -58.5t-52 -42.5t-66 -17q-14 0 -26 2.5t-22.5 9t-17.5 11.5t-17 18t-14.5 19t-16 24t-16.5 25q-6 10 -14.5 19t-14.5 13.5t-7 4.5q-12 0 -24 -21t-14 -42q0 -13 -0.5 -18.5t2.5 -16.5t4.5 -15.5t5.5 -15.5t6 -17h-59
q-120 0 -164 68t-17 184q26 114 131.5 181.5t242.5 67.5h158q32 0 64.5 26.5t54.5 64.5t32 78l100 -6q-20 -86 -97.5 -156t-168.5 -70h-158q-57 0 -108.5 -19t-92.5 -62t-55 -105q-16 -62 -11 -107t36 -65q0 8 3 21q7 27 25.5 51.5t50 40.5t67.5 16q9 0 17 -1.5t14.5 -2.5
t13 -5t10.5 -6.5t9.5 -8.5t8.5 -8.5t8 -10.5t7 -11t7.5 -12t6.5 -12q24 -36 38.5 -52t25.5 -16q27 0 48 56l-11 -1q-48 0 -75 35t-15 84q5 24 19.5 46t34 38t43.5 25.5t48 9.5q50 0 76.5 -34.5t15.5 -84.5zM558 171q16 0 31 7.5t26 20.5t15 29q5 24 -8 41t-37 17
q-23 0 -44 -17t-26.5 -41t7.5 -40.5t36 -16.5z" />
    <glyph glyph-name="uni0E59" unicode="&#xe59;" horiz-adv-x="770" 
d="M531 408q-14 -5 -27.5 -27.5t-19.5 -54.5q-10 -58 20 -132.5t70 -107.5q6 -5 13.5 -9.5t13.5 -8t12.5 -6.5t11 -4.5t8.5 -3t6 -1.5l2 -1l-30 -69q-164 37 -211 284q-7 32 -14 56.5t-18.5 50t-28 39.5t-37.5 14q-31 0 -56 -14.5t-41.5 -41.5t-27.5 -56t-20 -67
q-10 -43 -10 -68q46 51 108 51q50 0 76.5 -35t15.5 -84q-8 -32 -30 -59.5t-53 -43.5t-64 -16q-38 0 -67.5 16t-47 41.5t-26.5 59t-9 69t8 69.5q12 51 31.5 93t50 77.5t75.5 55t102 19.5q90 0 123 -114q55 124 103 123q25 -1 44.5 -19.5t29.5 -41t21 -41t19 -18.5
q18 0 38 31.5t35 75t24.5 88.5t8.5 73l94 7q-7 -39 -15 -74t-21 -77.5t-30.5 -76t-39 -62.5t-50.5 -45t-62 -16q-26 0 -43.5 16t-24.5 35t-17 35t-23 16zM241 170q-23 0 -44 -17t-26.5 -41t7.5 -40.5t37 -16.5q12 0 23.5 4.5t21 12t16.5 18t10 22.5q3 16 -1.5 29t-16 21
t-27.5 8z" />
    <glyph glyph-name="uni0E5A" unicode="&#xe5a;" horiz-adv-x="822" 
d="M695 602h105l-139 -602h-105zM313 386h-8q-25 0 -38.5 0.5t-37 3.5t-38 8.5t-29 17t-21.5 28.5q-12 28 -5 58q10 43 46.5 72.5t79 29.5t65.5 -29.5t13 -72.5q-8 -34 -33 -59q81 0 137.5 39.5t82.5 115.5l1 4h104l-139 -602h-104l101 437q-85 -51 -177 -51zM226 451
q14 0 27.5 7t23.5 18.5t13 25.5q5 22 -7 37t-33 15t-40 -15t-24 -37q-5 -21 7 -36t33 -15z" />
    <glyph glyph-name="uni0E5B" unicode="&#xe5b;" horiz-adv-x="1026" 
d="M738 324l-75 -82l-25 69q-8 -11 -36.5 -50.5t-39.5 -56.5l-16 104l-72 -120l-29 105q-40 -96 -103 -151t-130 -55q-71 0 -105.5 63t-14.5 164q23 99 77 160t121 61q54 0 78 -43t8 -109q-11 -48 -43.5 -90.5t-77.5 -42.5q-32 0 -46.5 24t-6.5 61q8 35 34 60t58 25
q16 0 23 -4q3 28 -8.5 43.5t-32.5 15.5q-36 0 -69 -41t-48 -105q-19 -81 0.5 -131.5t66.5 -50.5q57 0 112 69.5t80 177.5l4 16l8 39l40 -21l29 -103l80 138l22 -121l60 85l30 -83l20 20l17 17h96q75 -3 124 13l5 -14q-50 -40 -139 -56h-76zM246 335q-2 -12 -1 -21t6 -15
t13 -6q13 0 23.5 12t14.5 30q3 12 2 21t-6.5 15t-14.5 6q-11 0 -22 -12.5t-15 -29.5z" />
    <glyph glyph-name="endash" unicode="&#x2013;" horiz-adv-x="603" 
d="M503 354l-16 -70h-387l16 70h387z" />
    <glyph glyph-name="emdash" unicode="&#x2014;" horiz-adv-x="761" 
d="M661 354l-16 -70h-545l16 70h545z" />
    <glyph glyph-name="quoteleft" unicode="&#x2018;" horiz-adv-x="321" 
d="M174 603q12 -33 51 -33q28 0 52 19t31 47q7 29 -8.5 48.5t-43.5 19.5q-2 0 5.5 13.5t23.5 34t35 34.5l2 28q-60 -27 -99.5 -69.5t-49.5 -84.5q-7 -33 1 -57z" />
    <glyph glyph-name="quoteright" unicode="&#x2019;" horiz-adv-x="321" 
d="M326 779q8 -24 1 -57q-10 -42 -49.5 -84.5t-99.5 -69.5l2 28q19 14 35 34.5t23.5 34t6.5 13.5q-29 0 -44 19.5t-9 48.5q7 28 31 47t52 19q39 0 51 -33z" />
    <glyph glyph-name="quotedblleft" unicode="&#x201c;" horiz-adv-x="488" 
d="M191 602q12 -33 50 -33q29 0 53 19t31 47q6 29 -9 48.5t-44 19.5q-1 0 6 13.5t23.5 34t35.5 34.5l2 28q-60 -27 -99.5 -69.5t-49.5 -84.5q-8 -33 1 -57zM361 602q12 -33 50 -33q29 0 53 19t31 47q6 29 -9 48.5t-44 19.5q-1 0 6 13.5t23.5 34t35.5 34.5l2 28
q-60 -27 -99.5 -69.5t-49.5 -84.5q-8 -33 1 -57z" />
    <glyph glyph-name="quotedblright" unicode="&#x201d;" horiz-adv-x="480" 
d="M476 728q-12 33 -50 33q-19 0 -36.5 -8.5t-30 -24t-17.5 -33.5q-6 -29 9 -48.5t44 -19.5q1 0 -6 -13.5t-23.5 -34t-35.5 -34.5l-2 -28q60 27 99.5 69.5t49.5 84.5q8 33 -1 57zM306 728q-12 33 -50 33q-19 0 -36.5 -8.5t-30 -24t-17.5 -33.5q-6 -29 9 -48.5t44 -19.5
l-1 -3t-4 -8t-7 -11.5t-9.5 -14t-12 -15t-15 -15.5t-16.5 -15l-2 -28q60 27 99.5 69.5t49.5 84.5q8 33 -1 57z" />
    <glyph glyph-name="bullet" unicode="&#x2022;" horiz-adv-x="425" 
d="M351 329q-12 -52 -56 -87.5t-94 -35.5q-52 0 -79.5 35.5t-15.5 87.5q12 50 55.5 85.5t95.5 35.5q50 0 78 -35.5t16 -85.5z" />
    <glyph glyph-name="ellipsis" unicode="&#x2026;" horiz-adv-x="780" 
d="M578 131q25 0 41.5 -20.5t10.5 -46.5q-6 -27 -32 -47.5t-51 -20.5q-26 0 -42 20.5t-10 47.5q6 26 31.5 46.5t51.5 20.5zM348 131q25 0 41.5 -20.5t10.5 -46.5q-6 -27 -32 -47.5t-51 -20.5q-26 0 -42 20.5t-10 47.5q6 26 31.5 46.5t51.5 20.5zM118 131q25 0 41.5 -20.5
t10.5 -46.5q-6 -27 -32 -47.5t-51 -20.5q-26 0 -42 20.5t-10 47.5q6 26 31.5 46.5t51.5 20.5z" />
    <glyph glyph-name="Euro" unicode="&#x20ac;" horiz-adv-x="770" 
d="M545 524l-21 -90h-259l-7 -30q-5 -24 -7 -34h258l-20 -90h-244q3 -60 28 -109q41 -89 129 -89q44 0 96.5 32t101.5 89l66 -47q-67 -78 -141.5 -121t-143.5 -43q-65 0 -114.5 34t-78.5 92q-32 69 -34 162h-69l20 90h55l8 34q5 20 8 30h-56l21 90h68q44 93 111 164
q36 38 76 65t85.5 43.5t89.5 16.5q68 0 122.5 -42t85.5 -118l-88 -46q-20 53 -56.5 85t-84.5 32q-87 0 -170 -90q-45 -46 -79 -110h244z" />
    <glyph glyph-name="uni0E0D.descless" unicode="&#xee0d;" horiz-adv-x="950" 
d="M244 107q5 23 -8 40t-37 17t-44.5 -17t-25.5 -40q-6 -24 6.5 -41t36.5 -17t45 17t27 41zM539 67h157q7 0 9.5 1t5.5 6.5t6 17.5l118 510h104l-120 -520q-6 -24 -15 -40t-18 -24.5t-28 -12.5t-32.5 -4.5t-44.5 -0.5h-261l96 415q2 10 3.5 23t-3 32.5t-15.5 35.5t-38 27.5
t-66 11.5q-69 0 -117.5 -30t-58.5 -57l103 -18l-11 -47q-4 -1 -9.5 -3.5t-21 -12t-28.5 -21.5t-26 -32t-18 -44l-12 -56q5 1 15 1q49 0 76 -34.5t16 -83.5q-12 -49 -54.5 -84t-92.5 -35q-49 0 -76 35t-15 84l36 157q4 18 14 36t22 31t26 25t26.5 20.5t23 14.5t17.5 9l6 3
l-141 19q2 4 5.5 11.5t16 28t28 39.5t42 42t57 39.5t74.5 28t93 11.5q47 0 84 -9.5t59.5 -24.5t37.5 -35t21.5 -38.5t8.5 -38t1 -31t-3 -19.5z" />
    <glyph glyph-name="uni0E10.descless" unicode="&#xee10;" horiz-adv-x="587" 
d="M353 622q26 0 57 -9t50.5 -16t47 -3t55.5 27l33 -73q-52 -41 -107 -40q-31 1 -81.5 19.5t-72.5 18.5q-24 0 -53 -12.5t-48 -32.5q36 -2 67.5 -5t68.5 -10t64.5 -18.5t50 -28t31.5 -40.5t2 -54l-61 -263q-5 -20 -11 -34.5t-17 -23.5t-20 -14t-28 -7t-32 -2.5t-41 -0.5
l-37 193q-34 -26 -74 -30.5t-70 15.5q-37 25 -39 72.5t32 89.5q35 43 85 55.5t88 -12.5q31 -20 38 -62l33 -194l47 204q6 23 -1.5 40.5t-29 28.5t-47.5 18t-67.5 10.5t-79 4.5t-92.5 1q37 89 104 138.5t155 49.5zM170 231q18 -12 42 -5.5t40 26.5q17 21 16.5 44t-18.5 35
t-42 5.5t-42 -27.5q-16 -20 -15 -43t19 -35z" />
    <glyph glyph-name="uni0E31.left" unicode="&#xee31;" 
d="M-229 709h-9q-20 0 -31.5 0.5t-31.5 1.5t-32.5 5t-27 10t-25 16.5t-16.5 24.5q-12 28 -5 58q10 43 47 72.5t79 29.5t65 -29.5t13 -72.5q-7 -34 -32 -59q80 0 137 39.5t83 115.5l89 -15q-16 -44 -49 -81.5t-74.5 -62.5t-88 -39t-91.5 -14zM-316 774q21 0 40 15t23 36
q5 22 -6.5 37t-33 15t-40.5 -15t-24 -37q-3 -14 1.5 -25.5t15 -18.5t24.5 -7z" />
    <glyph glyph-name="uni0E33.alt" unicode="&#xee33;" horiz-adv-x="539" 
d="M-229 977q49 0 76 -34.5t15 -84.5q-11 -49 -54 -84t-92 -35t-75.5 35t-15.5 84t54 84t92 35zM-270 801q24 0 45 16.5t26.5 40.5t-8 41t-37.5 17q-23 0 -43.5 -17t-26 -41t7.5 -40.5t36 -16.5zM130 428l-66 28q14 25 25 43t33.5 43.5t48 41t66 27.5t88.5 12q47 0 83 -10.5
t56 -28.5t32.5 -39t16 -45t2.5 -42.5t-4 -34.5l-98 -423h-105l98 423q4 17 5 33t-2.5 35.5t-13.5 33t-32 23t-53 9.5q-119 0 -180 -129z" />
    <glyph glyph-name="uni0E34.left" unicode="&#xee34;" 
d="M-636 692q35 92 111.5 147t172.5 55q62 0 114 -23.5t86.5 -74.5t33.5 -121q-114 24 -180.5 33t-147.5 6t-190 -22zM-521 753q113 7 175 3.5t145 -16.5q-13 30 -37.5 50.5t-52.5 29t-59.5 10.5t-56.5 -5q-72 -15 -114 -72z" />
    <glyph glyph-name="uni0E35.left" unicode="&#xee35;" horiz-adv-x="6" 
d="M-663 695q36 92 112.5 147t172.5 55q102 0 170 -62l25 110h95l-57 -248q1 -11 1 -19q-115 24 -181 33t-147.5 6t-190.5 -22zM-548 756q114 7 176 3.5t145 -16.5q-13 30 -37.5 50.5t-53 29t-59.5 10.5t-56 -5q-73 -15 -115 -72z" />
    <glyph glyph-name="uni0E36.left" unicode="&#xee36;" horiz-adv-x="1" 
d="M-150 966q43 0 65.5 -29.5t12.5 -72.5q-7 -32 -30 -57.5t-54 -37.5q20 -43 18 -94q-114 24 -180.5 33t-147.5 6t-190 -22q35 92 111.5 147t172.5 55q54 0 101 -19q13 39 47.5 65t73.5 26zM-185 816q21 0 38.5 13.5t21.5 34.5q5 20 -5.5 34.5t-31.5 14.5
q-20 0 -37.5 -14.5t-22.5 -34.5q-4 -21 6.5 -34.5t30.5 -13.5zM-541 753q113 7 175 3.5t145 -16.5q-13 30 -37.5 50.5t-52.5 29t-59.5 10.5t-56.5 -5q-72 -15 -114 -72z" />
    <glyph glyph-name="uni0E37.left" unicode="&#xee37;" horiz-adv-x="16" 
d="M-656 692q35 92 111.5 147t172.5 55q20 0 38 -3l11 51h95l-18 -79q22 -11 44 -31l25 110h95l-57 -248q1 -11 1 -19q-114 24 -180.5 33t-147.5 6t-190 -22zM-541 753q113 7 175 3.5t145 -16.5q-13 30 -37.5 50.5t-52.5 29t-59.5 10.5t-56.5 -5q-72 -15 -114 -72z" />
    <glyph glyph-name="uni0E38.low" unicode="&#xee38;" 
d="M-319 -260q42 0 66 -30t14 -72l-43 -190h-104l20 88q-28 0 -48.5 13.5t-28.5 37t-2 51.5q10 43 46.5 72.5t79.5 29.5zM-354 -413q21 0 39.5 15t22.5 36q5 22 -6 37t-33 15q-21 0 -40 -15t-24 -37q-4 -21 7.5 -36t33.5 -15z" />
    <glyph glyph-name="uni0E39.low" unicode="&#xee39;" horiz-adv-x="49" 
d="M-439 -495h55q6 0 8.5 1t6 6.5t5.5 17.5l47 201h104l-47 -201q-5 -24 -14 -40t-18 -24.5t-28 -12.5t-33 -4.5t-44 -0.5h-159l20 88q-43 0 -65.5 30t-13.5 72q10 43 46.5 72.5t79.5 29.5q42 0 66 -30t14 -72zM-524 -413q21 0 39.5 15t22.5 36q5 22 -6 37t-33 15
q-21 0 -40 -15t-24 -37q-4 -21 7.5 -36t33.5 -15z" />
    <glyph glyph-name="uni0E3A.low" unicode="&#xee3a;" horiz-adv-x="43" 
d="M-242.5 -326q-6.5 -28 -31 -48t-52.5 -20q-18 0 -31.5 9t-19 25t-1.5 34q3 14 11.5 26.5t19.5 21.5t25 14.5t27 5.5q29 0 44 -20t8.5 -48z" />
    <glyph glyph-name="uni0E47.left" unicode="&#xee47;" 
d="M-331 818q23 -2 61 -33q7 27 33 46t55 19q30 0 47 -20t11 -48q-7 -29 -35 -52.5t-63 -23.5q-23 0 -44.5 14.5t-41 29t-37.5 14.5q-25 0 -41 -49h-59q-24 11 -40.5 43t-8.5 65q11 46 61.5 79.5t103.5 33.5q18 0 54.5 -3t57.5 -3q36 0 58 14.5t32 54.5l65 -26
q-17 -39 -42.5 -61t-53 -28.5t-66.5 -6.5q-17 0 -55.5 2t-62.5 2t-50 -16.5t-32 -41.5q-7 -30 14 -48q9 14 18.5 22.5t25 14.5t35.5 6zM-204 752q10 0 21 9t13 20q3 13 -3.5 22t-17.5 9t-22 -9t-14 -22q-1 -7 1.5 -13.5t8 -11t13.5 -4.5z" />
    <glyph glyph-name="uni0E48.low" unicode="&#xee48;" 
d="M11 701h-104l53 229h104z" />
    <glyph glyph-name="uni0E49.low" unicode="&#xee49;" 
d="M106 979l87 -27q-9 -24 -28.5 -54t-58.5 -69t-88 -68.5t-123 -47t-157 -9.5l6 27q17 4 33.5 12t31.5 20.5t23 27.5q-4 -1 -10 -1q-42 0 -65 30t-13 72t46.5 72t78.5 30t65.5 -30t13.5 -72q-4 -19 -16.5 -42t-21 -35.5t-30.5 -42.5q45 7 84 29t66.5 52.5t45.5 61.5t30 64z
M-142 944q-14 0 -27.5 -7t-23.5 -19t-13 -26q-5 -21 6.5 -36t33.5 -15q21 0 39.5 15t23.5 36q5 22 -6.5 37t-32.5 15z" />
    <glyph glyph-name="uni0E4A.low" unicode="&#xee4a;" horiz-adv-x="1" 
d="M-314 752q-2 19 5 48q11 48 44.5 93.5t93.5 73.5l56 -47q33 20 78 46q25 -12 41 -31t20.5 -38t5.5 -39t-4 -34q-6 -18 -19 -45q22 17 40.5 61t26 76t9.5 48h66q-1 0 -1 -3l-4 -20t-10 -35t-17.5 -46t-27 -49t-39 -49.5t-52.5 -41.5t-68 -31l-30 16q15 15 32.5 48.5
t26.5 67.5q12 61 -10 88q-7 -4 -35.5 -18.5t-40.5 -20.5l-57 39q-4 -3 -10.5 -11t-12 -17.5t-5.5 -15.5h11q37 0 57 -26t11 -63q-8 -37 -40.5 -64t-69.5 -27q-31 0 -50.5 19.5t-20.5 47.5zM-213 814q-17 0 -31 -10.5t-18 -26.5q-4 -17 5 -29t26 -12q15 0 29 12t18 29
q4 15 -5 26t-24 11z" />
    <glyph glyph-name="uni0E4B.low" unicode="&#xee4b;" 
d="M9 705h-104l19 82h-82l17 74h82l19 82h104l-19 -82h82l-17 -74h-82z" />
    <glyph glyph-name="uni0E4C.low" unicode="&#xee4c;" 
d="M155 1018l88 -21q-15 -37 -38.5 -63t-57.5 -42t-63.5 -25t-74.5 -18q27 -26 18 -65q-9 -37 -41.5 -62t-75.5 -25q-44 0 -64.5 25t-11.5 63q20 86 140 109q33 6 55.5 13t47.5 20.5t44.5 36t33.5 54.5zM-79 739q17 -1 32.5 12t19.5 30q4 18 -5.5 30.5t-27.5 12.5
q-17 0 -32.5 -12.5t-19.5 -29.5q-5 -18 5 -30.5t28 -12.5z" />
    <glyph glyph-name="uni0E4D.high" unicode="&#xee4d;" 
d="M11 1125q50 0 76.5 -34.5t15.5 -84.5q-8 -32 -30 -59.5t-53 -43.5t-64 -16q-24 0 -43.5 9.5t-31.5 25.5t-16.5 38t1.5 46q11 49 53.5 84t91.5 35zM-30 949q25 0 45.5 16.5t26 40.5t-7.5 41t-37 17q-23 0 -44 -17t-26.5 -41t7.5 -40.5t36 -16.5z" />
    <glyph glyph-name="uni0E48.low.left" unicode="&#xf0e48;" 
d="M-157 740h-104l50 218h104z" />
    <glyph glyph-name="uni0E49.low.left" unicode="&#xf0e49;" 
d="M-31 1039l87 -27q-10 -24 -29 -54t-58 -69t-88 -68.5t-123 -47t-158 -9.5l7 27q17 4 33.5 12t31.5 20.5t22 27.5q-3 -1 -9 -1q-42 0 -65 30t-13.5 72t46.5 72t79 30t65 -30t14 -72q-4 -14 -10 -28.5t-17.5 -33t-17.5 -27t-23 -31.5q45 7 84 29t66.5 52.5t45.5 61.5t30 64
zM-279 1004q-22 0 -40.5 -15t-23.5 -37q-5 -21 6.5 -36t33.5 -15q21 0 39.5 15t23.5 36q5 22 -6.5 37t-32.5 15z" />
    <glyph glyph-name="uni0E4A.low.left" unicode="&#xf0e4a;" 
d="M-456 845q-1 19 5 48q5 22 15 44t26 44.5t41 43t57 35.5l56 -47q32 20 77 46q25 -12 41 -31t20.5 -38t6 -39t-3.5 -34q-17 -46 -23 -59q37 11 67.5 83.5t31.5 115.5h66q-1 -17 -7.5 -42t-23.5 -64t-42 -72.5t-68.5 -61t-96.5 -35.5l-31 16q16 15 33 48.5t26 67.5
q13 61 -10 88q-9 -5 -24.5 -13t-28.5 -15t-23 -11l-57 39q-4 -3 -10.5 -11t-11.5 -17.5t-6 -15.5h11q38 0 57.5 -26t11.5 -63q-9 -37 -41 -64t-69 -27q-31 0 -51 19.5t-21 47.5zM-355 907q-10 0 -20.5 -5t-18 -13.5t-9.5 -18.5q-4 -17 5 -29t25 -12t30 12t18 29q2 8 0 14.5
t-6 11.5t-10 8t-14 3z" />
    <glyph glyph-name="uni0E4B.low.left" unicode="&#xf0e4b;" 
d="M-172 795h-94l18 82h-92l18 74h92l18 82h94l-18 -82h92l-18 -74h-92z" />
    <glyph glyph-name="uni0E4C.low.left" unicode="&#xf0e4c;" 
d="M11 1081l88 -21q-15 -37 -39 -63t-57.5 -42t-63.5 -25t-74 -18q27 -26 18 -65q-9 -37 -41.5 -62t-76.5 -25t-64.5 25t-10.5 63q20 86 140 109q32 6 54.5 13t48 20.5t44.5 36t34 54.5zM-224 802q17 -1 33 12t20 30q4 18 -5.5 30.5t-27.5 12.5t-33.5 -12.5t-19.5 -29.5
q-4 -18 5.5 -30.5t27.5 -12.5z" />
    <glyph glyph-name="uni0E4D.low.left" unicode="&#xf0e4d;" 
d="M-218 977q49 0 76 -34.5t15 -84.5q-11 -49 -54 -84t-92 -35t-75.5 35t-15.5 84t54 84t92 35zM-259 801q24 0 45 16.5t26.5 40.5t-8 41t-37.5 17q-23 0 -43.5 -17t-26 -41t7.5 -40.5t36 -16.5z" />
    <glyph glyph-name="uni0E48.high.left" unicode="&#xfee48;" 
d="M-76 1010h-95l42 181h95z" />
    <glyph glyph-name="uni0E49.high.left" unicode="&#xfee49;" 
d="M-162 1150q13 0 25.5 5.5t21 16t11.5 22.5q4 19 -6.5 32t-30.5 13q-19 0 -35.5 -13t-21 -32t6.5 -31.5t29 -12.5zM-61 1194q-6 -50 -60 -122q44 4 87.5 30.5t78.5 71.5t53 99l65 -19q-12 -32 -30.5 -64t-53 -68.5t-78 -63.5t-109 -43.5t-141.5 -13.5l7 29q31 10 57 30.5
t29 45.5q-7 -2 -16 -2q-38 0 -58 26t-11.5 64t41 64t69.5 26t57.5 -26t12.5 -64z" />
    <glyph glyph-name="uni0E4A.high.left" unicode="&#xfee4a;" 
d="M-388 1048q-2 19 5 48q11 48 45 93.5t94 73.5l56 -47q32 20 77 46q25 -12 41 -31t20.5 -38t5.5 -39t-3 -34q-17 -46 -23 -59q36 11 67 83.5t32 115.5h66q-2 -17 -8 -42t-23 -64t-42 -72.5t-68.5 -61t-97.5 -35.5l-30 16q8 7 16.5 19.5t16.5 28t15 33.5t11 35
q13 61 -10 88q-7 -4 -35.5 -18.5t-40.5 -20.5l-57 39q-7 -5 -17 -20.5t-11 -23.5h11q38 0 57.5 -26t10.5 -63q-8 -37 -40 -64t-70 -27q-30 0 -50 19.5t-21 47.5zM-287 1110q-11 0 -21 -5t-17.5 -13.5t-9.5 -18.5q-4 -17 5 -29t25 -12q15 0 29.5 12t18.5 29q2 10 -1.5 18.5
t-11 13.5t-17.5 5z" />
    <glyph glyph-name="uni0E4B.high.left" unicode="&#xfee4b;" 
d="M-79 1008h-94l19 82h-92l14 64h92l19 82h94l-19 -82h92l-14 -64h-92z" />
    <glyph glyph-name="uni0E4C.high.left" unicode="&#xfee4c;" 
d="M126 1235l88 -21q-15 -37 -38.5 -63t-57.5 -42t-63.5 -25t-74.5 -18q27 -26 18 -65q-6 -24 -22 -44t-41 -31.5t-54 -11.5q-44 0 -64.5 25t-11.5 63q20 86 140 109q33 6 55.5 13t47.5 20.5t44.5 36t33.5 54.5zM-108 956q17 -1 32.5 12t19.5 30q5 18 -5 30.5t-28 12.5
q-8 0 -17 -3.5t-16 -9t-12 -13.5t-7 -16q-5 -18 5 -30.5t28 -12.5z" />
    <glyph glyph-name="uni0E4D.high.left" unicode="&#xfee4d;" 
d="M-65 1120q49 0 76 -34.5t15 -84.5q-7 -32 -29.5 -59.5t-53.5 -43.5t-63 -16q-24 0 -44 9.5t-31.5 25.5t-16.5 38t1 46q8 32 30 59.5t53 43.5t63 16zM-106 944q24 0 45 16.5t26.5 40.5t-8 41t-37.5 17q-23 0 -43.5 -17t-26 -41t7.5 -40.5t36 -16.5z" />
  </font>
</defs>
</svg>
