<?xml version="1.0" standalone="no"?>
<!DOCTYPE svg PUBLIC "-//W3C//DTD SVG 1.1//EN" "http://www.w3.org/Graphics/SVG/1.1/DTD/svg11.dtd" >
<svg xmlns="http://www.w3.org/2000/svg" xmlns:xlink="http://www.w3.org/1999/xlink" version="1.1">
<metadata></metadata>
<defs>
<font id="cs_prajaditalic" horiz-adv-x="0" >
<font-face units-per-em="2048" ascent="1638" descent="-410" />
<missing-glyph horiz-adv-x="614" />
<glyph unicode=" "  horiz-adv-x="614" />
<glyph unicode="&#x09;" horiz-adv-x="614" />
<glyph unicode="&#xa0;" horiz-adv-x="614" />
<glyph unicode="!" horiz-adv-x="512" d="M263 89q-9 -37 -40.5 -63t-68.5 -26t-57.5 26t-11.5 63q9 38 41 64t69 26t57 -26t11 -64zM532 1405l-259 -1127h-109l259 1127h109z" />
<glyph unicode="&#x22;" horiz-adv-x="547" d="M628 1382l-78 -341h-87l78 341h87zM440 1382l-78 -341h-87l78 341h87z" />
<glyph unicode="#" horiz-adv-x="1319" d="M1299 939l-38 -86h-227l-143 -332h227l-36 -86h-227l-188 -435h-92l188 435h-311l-186 -435h-92l186 435h-225l36 86h225l143 332h-225l38 86h225l177 414h93l-178 -414h311l177 414h92l-177 -414h227zM631 853l-143 -332h311l143 332h-311z" />
<glyph unicode="$" horiz-adv-x="1216" d="M469 -34q-173 7 -268 119.5t-76 308.5l104 14q-17 -164 54 -252.5t209 -97.5l139 604q-151 46 -215 85q-152 94 -111 272q17 75 54 137t85.5 105t108.5 73.5t121.5 46.5t127.5 20l38 169h87l-38 -169q153 -12 234 -114t58 -280l-99 -12q16 144 -41.5 223t-173.5 91 l-133 -575q35 -11 59 -19t58.5 -21t57.5 -25t51 -30.5t45.5 -37.5t34.5 -44.5t24 -54t7 -64.5t-9 -76q-22 -92 -74.5 -166t-123 -120t-148 -73t-158.5 -34l-41 -176h-87zM780 1309q-147 -11 -247.5 -88.5t-128.5 -201.5q-6 -25 -6 -47.5t5.5 -41t13.5 -35t22.5 -30.5 t28 -25.5t33.5 -22t36 -18t39.5 -16t39 -13.5t38.5 -12zM579 61q63 7 121.5 28t112 56.5t93 91.5t55.5 125q6 26 6.5 49.5t-4 43.5t-12.5 37.5t-21.5 32t-27.5 27t-33 23.5t-36.5 19.5t-39.5 17t-40 14t-41 12.5z" />
<glyph unicode="%" horiz-adv-x="1172" d="M94 -20l-72 44l1164 1369l70 -45zM456 874q-97 0 -148.5 76t-27.5 183q24 105 111 180.5t184 75.5t147.5 -75t26.5 -181q-24 -107 -110 -183t-183 -76zM553 1290q-59 0 -112.5 -46.5t-68.5 -110.5q-15 -67 17 -113.5t91 -46.5t110.5 46.5t66.5 113.5q15 64 -15 110.5 t-89 46.5zM712 -20q-97 0 -147.5 75.5t-26.5 183.5q26 108 111 183.5t182 75.5q98 0 148.5 -76t25.5 -183q-24 -107 -110 -183t-183 -76zM809 396q-59 0 -111.5 -46.5t-67.5 -110.5q-14 -64 16.5 -110.5t89.5 -46.5t111 46.5t66 110.5q15 64 -15 110.5t-89 46.5z" />
<glyph unicode="&#x26;" horiz-adv-x="1426" d="M1282 49l-75 -69q-79 68 -183 211q-208 -208 -433 -208q-69 0 -131.5 13t-119.5 40.5t-93 72t-51.5 107t4.5 144.5q16 71 58 132.5t125.5 121.5t127.5 87t155 87q21 12 32 18q-125 188 -96 312q28 119 128.5 192.5t208.5 73.5q112 0 183 -68.5t45 -175.5 q-14 -58 -48.5 -112t-85 -99t-98 -78.5t-106.5 -67.5l219 -426q78 112 136 251l89 -14q-71 -177 -182 -319q117 -159 191 -226zM292 360q-10 -57 -5.5 -100.5t30 -75.5t57 -53t74.5 -33.5t82.5 -17.5t80.5 -5q188 0 369 191l-239 468q-26 -15 -79.5 -44t-92.5 -51t-90 -56 t-85.5 -65t-63 -73t-38.5 -85zM1075 1140q11 47 -12.5 83t-63 52.5t-81.5 16.5q-69 0 -136 -44.5t-84 -117.5q-23 -102 90 -273q123 71 196 137.5t91 145.5z" />
<glyph unicode="'" horiz-adv-x="360" d="M440 1382l-78 -341h-87l78 341h87z" />
<glyph unicode="(" horiz-adv-x="558" d="M249 -253q-25 66 -43 142.5t-33 185.5t-7.5 244t39.5 272q32 138 86.5 272.5t119.5 243.5t118.5 185t108.5 142l70 -43q-69 -82 -136.5 -187t-143 -273t-114.5 -340q-30 -131 -39.5 -258.5t0.5 -229t26.5 -177t38.5 -134.5z" />
<glyph unicode=")" horiz-adv-x="558" d="M377 1437q25 -67 43.5 -143t33 -185t7.5 -243.5t-39 -271.5q-32 -138 -86.5 -272.5t-120 -243.5t-119 -185t-108.5 -142l-70 42q49 59 100.5 134.5t108 177.5t106 230t79.5 259t39.5 258.5t-0.5 229t-26 177t-38 134.5z" />
<glyph unicode="*" horiz-adv-x="750" d="M688 939l-68 -45l-98 185l-177 -183l-48 46l176 179l-200 69l38 70l203 -69l51 224h73l-51 -224l229 69l7 -70l-231 -69z" />
<glyph unicode="+" horiz-adv-x="933" d="M829 587l-18 -85h-289l-66 -285h-86l67 285h-287l19 85h287l66 285h86l-67 -285h288z" />
<glyph unicode="," horiz-adv-x="512" d="M229 123q21 -68 -32.5 -160.5t-148.5 -136.5l1 32q36 23 72 88q30 56 12 57h-2q-33 0 -50.5 23.5t-10.5 57.5q7 33 36.5 55.5t62.5 22.5q45 0 60 -39z" />
<glyph unicode="-" horiz-adv-x="831" d="M708 502h-558l19 85h558z" />
<glyph unicode="." horiz-adv-x="431" d="M150 152q29 0 48 -24t12 -55q-7 -32 -37 -56t-60 -24q-31 0 -50 24t-12 56q7 31 37.5 55t61.5 24z" />
<glyph unicode="/" horiz-adv-x="762" d="M44 -32l-78 34l857 1368l78 -34z" />
<glyph unicode="0" horiz-adv-x="1245" d="M515 -20q-92 3 -161 30.5t-111 75.5t-66 110.5t-27.5 141.5t5.5 162t31 178q26 114 62 211.5t92 189.5t125 156.5t165 103t208 38.5q93 0 162.5 -26.5t111.5 -76t65.5 -113.5t27 -144.5t-5.5 -163t-30 -175.5q-26 -113 -63 -209.5t-93.5 -187t-126 -154.5t-165 -104 t-206.5 -43zM817 1289q-96 -1 -176.5 -35.5t-137 -90t-102 -137t-74.5 -164.5t-52 -184q-141 -611 261 -611q94 0 174 35.5t137.5 93t104 139t76 164.5t52.5 179q138 609 -263 611z" />
<glyph unicode="1" horiz-adv-x="894" d="M317 1063l-18 80q97 40 195 97t143.5 89t51.5 38h89l-315 -1367h-89l288 1253q-179 -120 -345 -190z" />
<glyph unicode="2" horiz-adv-x="1245" d="M1029 90l-20 -88h-977l24 99q38 169 227 307q113 80 366 205q77 37 119.5 58.5t107 57.5t102 64.5t78.5 66t64.5 77.5t33.5 84q17 63 2.5 110t-45 79t-81 51t-105 27.5t-118.5 8.5q-103 0 -188.5 -29.5t-151 -97t-88.5 -166.5h-87q28 124 110 212t191 129t235 41 q73 0 138.5 -12t125.5 -38.5t98 -69t55.5 -103.5t-3.5 -142q-9 -38 -26.5 -74.5t-37.5 -66.5t-53 -62t-59 -54.5t-71.5 -52t-73.5 -47t-82.5 -46t-81.5 -42l-85 -42.5q-245 -119 -346 -193q-152 -109 -181 -240l-3 -11h887z" />
<glyph unicode="3" horiz-adv-x="1245" d="M517 -15q-209 0 -323.5 107t-74.5 302h89q-16 -80 2.5 -142.5t65 -101t113 -58.5t149.5 -20q110 0 207 34t171 108.5t98 179.5q24 103 -16 178t-121.5 110t-190.5 33h-80l20 87h81q70 3 132.5 17t120 42t98 76.5t55.5 113.5q15 63 -4.5 111.5t-65 76.5t-102 41.5 t-122.5 13.5q-94 0 -173 -23t-143.5 -79t-89.5 -141h-89q45 162 190 246.5t326 84.5q84 0 155.5 -20t125.5 -59t76 -104t3 -148q-22 -94 -96 -174t-172 -116q105 -46 152.5 -145t18.5 -222q-22 -97 -80.5 -176.5t-139 -129.5t-174.5 -76.5t-192 -26.5z" />
<glyph unicode="4" horiz-adv-x="1245" d="M906 275l-63 -275h-85l63 275h-727l20 87l954 1000h89l-230 -1000h167l-21 -87h-167zM224 362h617l197 853z" />
<glyph unicode="5" horiz-adv-x="1116" d="M459 -20q-354 0 -396 261l89 30q22 -111 104.5 -157.5t223.5 -46.5q196 0 320.5 93t168.5 280q43 186 -39.5 279t-277.5 93q-157 0 -268 -57t-181 -190v-2l-92 -12l276 811h804l-20 -89h-726l-167 -493q154 119 394 119q230 0 333 -120t53 -339q-51 -219 -209 -339.5 t-390 -120.5z" />
<glyph unicode="6" horiz-adv-x="1245" d="M541 -17q-133 3 -219 55t-122.5 146.5t-36 217.5t36.5 279q35 152 91 276t135.5 221t188.5 150t238 53q159 0 250.5 -84t109.5 -246l-88 -29q-30 270 -292 270q-402 0 -545 -611l-12 -53q82 117 209 179t261 62q197 0 296 -126t55 -316q-46 -199 -203.5 -321.5 t-352.5 -122.5zM725 782q-159 0 -286 -100t-163 -255q-36 -157 46.5 -257t237.5 -100q159 0 286 101.5t163 255.5q36 158 -47 256.5t-237 98.5z" />
<glyph unicode="7" horiz-adv-x="1245" d="M401 -7l-80 19q1 1 11 22.5t29 60t44.5 87.5t64.5 117.5t81 137.5q287 468 645 840h-870l20 88h980l-22 -90q-373 -377 -678 -869q-66 -108 -122 -211t-79.5 -151t-23.5 -51z" />
<glyph unicode="8" horiz-adv-x="1245" d="M515 -19q-99 0 -180.5 26t-139 77.5t-78 128t1.5 178.5q28 123 122.5 223t221.5 144q-84 37 -123 116t-16 174q19 83 72 148t125 104t153.5 59t165.5 20t155.5 -20t125.5 -59t76 -104t3 -148q-23 -95 -98 -174.5t-174 -115.5q106 -42 154.5 -142.5t20.5 -224.5 q-29 -129 -121.5 -224t-213.5 -140.5t-253 -45.5zM684 712q-81 0 -157 -20t-141.5 -58.5t-112.5 -101t-65 -141.5q-17 -83 0 -143.5t65 -100.5t114.5 -59.5t148.5 -19.5q110 0 207 34.5t172 109t99 179.5q18 79 -1 141.5t-66.5 101t-114.5 58.5t-148 20zM819 1290 q-90 0 -171 -22.5t-148.5 -79t-86.5 -140.5q-15 -64 4.5 -113t64.5 -76.5t101.5 -41t123.5 -13.5q90 0 171 23t148.5 80t86.5 141q15 63 -4.5 111.5t-65 76t-102 41t-122.5 13.5z" />
<glyph unicode="9" horiz-adv-x="1245" d="M816 1382q133 -3 219 -55t122.5 -146.5t36 -217.5t-36.5 -279q-36 -152 -92 -276t-135.5 -220.5t-188.5 -149.5t-238 -53q-159 0 -251 84t-110 245l88 29q31 -270 294 -270q401 0 544 611l12 53q-82 -117 -208.5 -178.5t-260.5 -61.5q-197 0 -296.5 126t-55.5 316 q46 199 204 321t353 122zM631 584q159 0 286 100t163 255q36 157 -47 256.5t-238 99.5q-159 0 -285 -101t-162 -255q-36 -158 46.5 -256.5t236.5 -98.5z" />
<glyph unicode=":" horiz-adv-x="465" d="M333 869q29 0 48 -24t12 -55q-7 -32 -37.5 -56t-60.5 -24q-31 0 -49.5 24t-11.5 56q7 31 37.5 55t61.5 24zM167 152q29 0 48 -24t12 -55q-7 -32 -37 -56t-60 -24q-31 0 -50 24t-12 56q7 31 37.5 55t61.5 24z" />
<glyph unicode=";" horiz-adv-x="482" d="M229 123q21 -68 -32.5 -160.5t-148.5 -136.5l1 32q36 23 72 88q30 56 12 57h-2q-33 0 -50.5 23.5t-10.5 57.5q7 33 36.5 55.5t62.5 22.5q45 0 60 -39zM333 869q29 0 48 -24t12 -55q-7 -32 -37.5 -56t-60.5 -24q-31 0 -49.5 24t-11.5 56q7 31 37.5 55t61.5 24z" />
<glyph unicode="&#x3c;" horiz-adv-x="950" d="M725 217l-573 293l17 74l708 288l16 -78l-605 -248l492 -251z" />
<glyph unicode="=" horiz-adv-x="955" d="M749 681h-558l21 85h558zM667 323h-558l19 85h558z" />
<glyph unicode="&#x3e;" horiz-adv-x="955" d="M276 876l576 -294l-17 -73l-709 -289l-17 79l606 247l-491 251z" />
<glyph unicode="?" horiz-adv-x="1029" d="M538 365h-87q39 230 315 482q103 96 165 179.5t84 180.5q14 60 -6.5 107.5t-63.5 75.5t-95 42.5t-106 14.5q-311 0 -389 -331h-97q47 203 177.5 311.5t329.5 108.5q75 0 143 -22t118.5 -62.5t72.5 -104.5t4 -140q-16 -69 -44 -128.5t-72.5 -114t-77 -88t-90.5 -86.5 q-54 -51 -89.5 -89.5t-77.5 -92.5t-70 -114.5t-44 -128.5zM521 89q-9 -37 -41 -63t-69 -26q-38 0 -58.5 26t-11.5 63t41 63.5t70 26.5q37 0 57.5 -26.5t11.5 -63.5z" />
<glyph unicode="@" horiz-adv-x="1952" d="M795 46q-74 0 -128.5 21t-85 58t-46 86t-13.5 108t15.5 120t37.5 126q39 105 95 194t129 160.5t167 112.5t198 41q100 0 170.5 -43.5t93.5 -124.5l60 162l86 -12l-309 -831q-23 -57 46 -78q66 -20 150 4q26 8 46 19q88 51 155.5 163t93.5 228q26 128 17 241.5t-58 209 t-123.5 164.5t-178.5 107.5t-223 38.5q-204 0 -404 -103t-344 -278.5t-191 -379.5q-26 -126 -16 -239t61 -209t128 -166t184.5 -109.5t229.5 -39.5q114 0 234.5 31.5t219.5 86.5l32 -74q-112 -63 -246.5 -98t-260.5 -35q-116 0 -219.5 32t-182.5 89t-140 136.5t-92.5 174 t-39 201.5t20.5 219q40 172 145.5 330t247.5 271.5t313.5 181t339.5 67.5q100 0 190 -23.5t161.5 -67t129.5 -103.5t96 -134.5t58.5 -158t20 -176.5t-22.5 -187q-34 -147 -110 -271.5t-195 -192.5q-54 -30 -120 -41t-123 -1t-93 49.5t-30 103.5q-168 -161 -377 -161z M1143 985q-88 0 -167.5 -38t-139 -102t-103 -137t-73.5 -155q-32 -87 -42 -160t3 -132.5t62.5 -93.5t132.5 -34q73 0 139.5 25t117 66t95 98.5t75.5 116.5t56 126q32 87 42.5 160t-2.5 133t-62.5 93.5t-133.5 33.5z" />
<glyph unicode="A" horiz-adv-x="1293" d="M305 418l-276 -438l-77 34l848 1350h122l221 -1350l-93 -34l-70 438h-675zM840 1265l-476 -755h599z" />
<glyph unicode="B" horiz-adv-x="1329" d="M596 0h-528l316 1365h481q76 0 138 -11.5t115 -37t83.5 -67t42.5 -101t-8 -138.5q-49 -205 -229 -291q113 -34 156 -126.5t13 -222.5q-85 -370 -580 -370zM312 657l-131 -565h435q80 0 138.5 6t116 23.5t96.5 48t70 80.5t47 120q9 40 9 74.5t-7.5 61t-23 48t-35 37 t-46.5 27.5t-54.5 19.5t-61 12t-64.5 6t-67 1.5h-422zM335 756h401q349 0 407 254q9 53 7.5 93t-22 69.5t-47 48.5t-66.5 30.5t-81 16.5t-91 5h-389z" />
<glyph unicode="C" horiz-adv-x="1377" d="M683 -32q-103 0 -187.5 27t-143 75t-98 113.5t-56.5 143.5t-15.5 164t22.5 176q33 143 104 273t172.5 234t240 165.5t292.5 61.5q172 0 270 -68.5t146 -200.5l-87 -59q-37 116 -119 176t-232 60q-135 0 -254.5 -54t-205.5 -145.5t-146 -204.5t-89 -238q-19 -94 -21 -182 t26.5 -165.5t77 -135t132 -91t191.5 -33.5q150 0 258 51.5t201 154.5l58 -56q-108 -120 -236.5 -181t-300.5 -61z" />
<glyph unicode="D" horiz-adv-x="1310" d="M512 0h-444l316 1365h444q125 0 215.5 -35.5t141.5 -96.5t74 -148.5t18.5 -186.5t-31.5 -215q-26 -115 -68 -214t-105 -186.5t-143 -149.5t-187 -97.5t-231 -35.5zM181 92h351q130 0 234.5 42t179.5 122t126 185.5t82 241.5q136 590 -348 590h-352z" />
<glyph unicode="E" horiz-adv-x="1213" d="M1055 732l-21 -92h-725l-128 -548h831l-20 -92h-924l316 1365l887 -1l-20 -93h-797l-125 -539h726z" />
<glyph unicode="F" horiz-adv-x="1128" d="M1055 734l-21 -92h-725l-149 -640h-92l316 1365l889 -2l-22 -92h-797l-125 -539h726z" />
<glyph unicode="G" horiz-adv-x="1448" d="M1362 732l-169 -732h-92l34 148q-118 -97 -215 -139.5t-239 -42.5q-103 0 -187.5 27.5t-142 77t-97 116.5t-55.5 147t-14 168.5t23 180.5q26 112 73.5 215.5t120 195.5t162 160t205.5 107.5t245 39.5q171 0 269.5 -64.5t150.5 -189.5l-87 -58q-38 108 -121.5 164 t-233.5 56q-135 0 -254 -53t-205 -142t-145.5 -199t-87.5 -232q-19 -96 -20 -186.5t28.5 -170.5t79 -139.5t131 -94t184.5 -34.5q137 0 245.5 55.5t217.5 168.5l83 358h-414l20 92h507z" />
<glyph unicode="H" horiz-adv-x="1368" d="M1411 1365l-315 -1365h-92l148 640h-843l-149 -640h-92l316 1365h92l-147 -633h843l147 633h92z" />
<glyph unicode="I" horiz-adv-x="501" d="M510 1365l-315 -1365h-93l316 1365h92z" />
<glyph unicode="J" horiz-adv-x="972" d="M297 -32q-69 0 -127.5 19.5t-100.5 58.5t-57 98t2 138h92q-25 -102 36.5 -162t174.5 -60q122 0 210 59.5t113 168.5l249 1077h92l-249 -1077q-35 -154 -155.5 -237t-279.5 -83z" />
<glyph unicode="K" horiz-adv-x="1249" d="M1089 46l-84 -61l-462 713l-270 -212l-113 -486h-92l316 1365h92l-174 -752l969 763l50 -67l-696 -546z" />
<glyph unicode="L" horiz-adv-x="1022" d="M906 92l-20 -92h-818l316 1365h92l-295 -1273h725z" />
<glyph unicode="M" horiz-adv-x="1590" d="M1633 1365l-315 -1365h-93l284 1225l-748 -1184h-118l-199 1188l-284 -1229h-92l316 1365h137l203 -1225l774 1225h135z" />
<glyph unicode="N" horiz-adv-x="1348" d="M1391 1365l-316 -1365h-94l-542 1203l-279 -1203h-92l316 1365h96l541 -1201l278 1201h92z" />
<glyph unicode="O" horiz-adv-x="1515" d="M650 -19q-99 0 -181.5 27t-140.5 75.5t-98.5 114.5t-59 144t-18 164t21.5 175q32 136 104 261t174 223.5t238.5 157.5t284.5 59q100 0 182.5 -27t141 -75t99 -114t58.5 -144t17 -164.5t-22 -176.5q-25 -107 -75.5 -209t-125.5 -191t-166 -156t-203.5 -105.5t-230.5 -38.5 zM954 1290q-129 0 -247 -52t-205 -138.5t-148 -194.5t-88 -224q-18 -78 -19 -152.5t14 -142.5t49 -125t83.5 -99t121 -65.5t157.5 -23.5q128 0 245.5 51.5t204.5 137t148.5 194t88.5 225.5q18 77 19 151t-13.5 142t-48.5 125.5t-83.5 100t-120.5 66.5t-158 24z" />
<glyph unicode="P" horiz-adv-x="1206" d="M715 666h-401l-154 -666h-92l316 1365h483q54 0 100 -4.5t91 -15.5t77 -29t60 -45t39.5 -63.5t15 -85.5t-13.5 -110q-20 -85 -60.5 -148.5t-89.5 -100.5t-114 -59.5t-125 -30t-132 -7.5zM336 758h401q45 0 72.5 1t70 6t69.5 14.5t61 28t57 45t43.5 67t32.5 92.5 q10 45 11.5 81.5t-8 63t-23 46t-38 32t-48 20.5t-58.5 12t-64 5t-70 1h-391z" />
<glyph unicode="Q" horiz-adv-x="1549" d="M975 1307q-129 0 -247 -53.5t-205.5 -142t-149.5 -200t-90 -230.5q-19 -96 -20 -186.5t28.5 -170.5t79 -139.5t131 -94t184.5 -34.5q142 0 277 69l-159 138l72 75l179 -157q120 88 203.5 220.5t117.5 279.5q18 79 20 155.5t-12.5 146.5t-48 129t-82.5 102.5t-120 68 t-158 24.5zM664 -36q-99 0 -181.5 28t-140.5 77t-98 117t-58 147.5t-17 168t22 179.5q32 139 105 267t175 229t239 161.5t285 60.5q100 0 182.5 -27.5t140.5 -77t98 -117t58 -147.5t16.5 -168.5t-22.5 -180.5q-37 -160 -128.5 -307t-221.5 -248l165 -145l-71 -75l-183 161 q-173 -103 -365 -103z" />
<glyph unicode="R" horiz-adv-x="1320" d="M1143 41l-83 -63q-22 32 -32.5 69.5t-10 85t4 79.5t11.5 88q9 60 12 97t-1.5 82.5t-21.5 76.5q-34 57 -101 83.5t-197 26.5h-410l-154 -666h-92l316 1365h565q75 0 137 -11.5t114.5 -37.5t83 -67t42.5 -100t-8 -137q-28 -117 -102.5 -200.5t-189.5 -115.5q54 -35 82 -83 q23 -40 29 -98.5t2.5 -94t-13.5 -111.5q-15 -73 -14.5 -148t31.5 -120zM336 758h412q57 0 92 1t85.5 6t83 15t71 28.5t64 45t47.5 66.5t34 92q12 45 8.5 81t-13.5 63.5t-32.5 47.5t-48.5 33t-61.5 21t-71.5 11.5t-79 3.5h-473z" />
<glyph unicode="S" horiz-adv-x="1320" d="M550 -34q-101 -1 -183 26.5t-139 81t-84.5 135.5t-18.5 185l95 14q-15 -172 81.5 -261t270.5 -89q77 0 154 17.5t149.5 52t126 95.5t71.5 139q15 67 -7 117t-88.5 84t-108 48t-129.5 36q-20 5 -30 8q-165 44 -228 72q-181 80 -181 226q0 31 8 66q23 99 84 175.5 t145 120.5t177 66t190 22q191 0 296 -103t82 -293l-92 -12q16 156 -67.5 236t-241.5 80q-192 0 -321 -78.5t-160 -213.5q-12 -50 5 -92t44.5 -66.5t83.5 -48t90 -33t97 -25.5q22 -5 32 -8q169 -46 234 -75q180 -80 187 -223q2 -40 -8 -86q-23 -101 -88 -180t-153 -124.5 t-183.5 -68.5t-191.5 -23z" />
<glyph unicode="T" horiz-adv-x="1097" d="M1258 1364l-21 -93h-449l-293 -1271h-92l293 1271h-454l21 93h995z" />
<glyph unicode="U" horiz-adv-x="1332" d="M550 -38q-234 0 -342.5 124.5t-59.5 336.5l219 942h92l-218 -942q-40 -175 46.5 -271.5t282.5 -96.5q427 0 515 380l215 930h93l-215 -930q-54 -232 -218 -352.5t-410 -120.5z" />
<glyph unicode="V" horiz-adv-x="1293" d="M1452 1352l-850 -1352h-119l-222 1352l92 34l212 -1287l809 1287z" />
<glyph unicode="W" horiz-adv-x="1742" d="M1229 0h-111l-55 1234l-626 -1234h-109l-65 1359l94 23l59 -1237l617 1219h119l55 -1216l611 1234l85 -23z" />
<glyph unicode="X" horiz-adv-x="1281" d="M1137 34l-87 -56l-366 657l-667 -657l-60 56l681 671l-338 624l86 57l331 -609l612 609l60 -57l-628 -622z" />
<glyph unicode="Y" horiz-adv-x="1281" d="M725 614l-141 -614h-92l141 616l-377 712l85 56l360 -677l673 677l61 -56z" />
<glyph unicode="Z" horiz-adv-x="1199" d="M1015 92l-20 -92h-995l26 111l1148 1162h-846l22 92h961l-26 -109l-1150 -1164h880z" />
<glyph unicode="[" horiz-adv-x="508" d="M307 -133l-17 -75h-287l379 1642h287l-17 -74h-195l-344 -1493h194z" />
<glyph unicode="\" horiz-adv-x="762" d="M500 -32l92 34l-225 1368l-92 -34z" />
<glyph unicode="]" horiz-adv-x="508" d="M280 1362l17 75h287l-379 -1642h-287l17 74h195l344 1493h-194z" />
<glyph unicode="^" horiz-adv-x="928" d="M215 860l435 539h74l181 -539l-103 -34l-145 445l-353 -447z" />
<glyph unicode="_" horiz-adv-x="660" d="M558 2l-19 -86h-660l19 86h660z" />
<glyph unicode="`" horiz-adv-x="552" d="M471 1365l116 -256h-87l-167 256h138z" />
<glyph unicode="a" horiz-adv-x="1134" d="M404 -22q-190 0 -265.5 73.5t-41.5 224.5q13 57 43.5 103t85 78.5t93 53t116 39t101.5 23t99 16.5q7 1 10 2t26.5 4t41 6t45.5 8t49.5 11t43.5 13.5t36 17.5t19 20l5 24q36 129 -32 202.5t-213 73.5q-142 0 -246.5 -74t-136.5 -202l-85 5q50 173 178 266.5t310 93.5 q180 0 269 -101t45 -264l-119 -519q-7 -30 25 -70.5t70 -56.5l-46 -71q-48 15 -101.5 66t-40.5 108q-81 -85 -180.5 -129.5t-203.5 -44.5zM850 428l29 130q-91 -33 -241 -55q-189 -29 -269 -58q-157 -57 -183 -169q-7 -30 -8.5 -53.5t3 -49t21 -43.5t43.5 -33t72.5 -22.5 t107.5 -7.5q75 0 141.5 25.5t112 64t82.5 88.5t57.5 95t31.5 88z" />
<glyph unicode="b" horiz-adv-x="1198" d="M512 -17q-215 0 -300 177l-38 -160h-89l331 1432h89l-126 -546q73 91 173 134t209 43q90 0 155.5 -28t103 -77t54.5 -118t13.5 -147.5t-24.5 -168.5q-26 -113 -72 -208t-113 -171t-161 -119t-205 -43zM741 976q-92 0 -168 -37t-128.5 -102t-88 -142.5t-57.5 -170.5 q-22 -96 -22.5 -174.5t22.5 -142.5t82 -99.5t151 -35.5t167.5 35.5t129 99.5t89.5 142.5t58 174.5q17 76 21.5 141t-7 123.5t-40.5 99t-82 64.5t-127 24z" />
<glyph unicode="c" horiz-adv-x="1105" d="M500 -19q-92 0 -163 27.5t-114 77t-67 117t-22 148.5t21 171q26 113 78.5 210t127 171t174.5 116.5t214 42.5q126 0 211.5 -50.5t123.5 -146.5l-86 -46q-60 156 -269 156q-127 0 -229.5 -62.5t-164.5 -162.5t-91 -228q-25 -95 -19 -177.5t36 -143.5t96.5 -96t163.5 -35 q209 0 339 155l65 -48q-167 -196 -425 -196z" />
<glyph unicode="d" horiz-adv-x="1198" d="M474 -17q-90 0 -155.5 28.5t-103 78t-54.5 118.5t-13.5 147.5t24.5 168.5q26 113 72 208t113 170.5t161 118t206 42.5q109 0 189 -43t111 -134l126 548h89l-331 -1434h-89l38 160q-170 -177 -383 -177zM703 976q-92 0 -168 -35.5t-129 -99.5t-89 -142.5t-58 -174.5 q-17 -76 -21.5 -141t7.5 -123t41 -99t82 -65t127 -24q92 0 167.5 35.5t128.5 99.5t88.5 142.5t57.5 174.5q22 92 22 170t-23 143t-82 102t-151 37z" />
<glyph unicode="e" horiz-adv-x="1225" d="M524 -20q-476 4 -353 541q27 114 80 212t129 171.5t177.5 115.5t217.5 42q194 0 288 -107.5t74 -305.5l-41 -173h-845q-40 -200 27.5 -304.5t265.5 -104.5q141 0 240 55.5t168 179.5l77 -26q-155 -296 -505 -296zM271 565h758l19 75q17 161 -58 248t-236 87 q-178 0 -305 -113.5t-178 -296.5z" />
<glyph unicode="f" horiz-adv-x="602" d="M672 1039l-20 -88h-176l-220 -951h-89l220 951h-150l21 88h150l44 197q25 108 94 165q29 23 66 34.5t58.5 13t70.5 -0.5t59 -2l-20 -82q-58 5 -109 0.5t-79 -26.5q-32 -26 -51 -102l-44 -197h175z" />
<glyph unicode="g" horiz-adv-x="1181" d="M381 -433q-180 0 -274 80.5t-75 244.5l91 9q-14 -129 59 -188t219 -59q149 0 259.5 75.5t145.5 210.5l51 222q-162 -196 -384 -182q-91 -3 -157 25t-103 77.5t-53.5 119.5t-13 149t24.5 168q26 114 72 209t112.5 171t160.5 118.5t206 42.5q226 0 299 -188l35 155h89 l-251 -1087q-52 -179 -188 -276t-325 -97zM701 971q-92 0 -168 -35.5t-128.5 -99.5t-88.5 -142.5t-58 -174.5q-22 -97 -22.5 -175.5t23 -142t83 -99t151.5 -35.5q76 0 141.5 26.5t113 70t85.5 103t62.5 121.5t39.5 131q17 73 21.5 137.5t-7.5 123t-40.5 100.5t-81 66.5 t-126.5 24.5z" />
<glyph unicode="h" horiz-adv-x="1122" d="M317 626l-145 -626h-87l331 1434h87l-124 -536q72 77 161.5 122t184.5 45q182 0 263.5 -94.5t40.5 -267.5l-162 -703h-89l162 703q32 136 -29 205.5t-206 69.5q-73 0 -139 -30t-114 -80.5t-82 -112t-53 -129.5z" />
<glyph unicode="i" horiz-adv-x="496" d="M189 0h-87l241 1043h87zM471 1220h-87l48 205h87z" />
<glyph unicode="j" horiz-adv-x="537" d="M97 -193l285 1236h89l-285 -1236q-25 -109 -92 -165q-30 -23 -67 -34.5t-58.5 -13t-70 0.5t-58.5 2l18 82q58 -5 109 -0.5t79 26.5q32 26 51 102zM558 1425l-48 -205h-87l48 205h87z" />
<glyph unicode="k" horiz-adv-x="1027" d="M881 32l-79 -58l-348 536l-198 -155l-82 -355h-89l331 1434h89l-220 -956l724 568l46 -63l-524 -411z" />
<glyph unicode="l" horiz-adv-x="530" d="M539 1439l-332 -1439h-88l333 1439h87z" />
<glyph unicode="m" horiz-adv-x="1648" d="M1555 701l-162 -701h-87l162 701q28 124 -26.5 199.5t-188.5 75.5q-64 0 -123 -31t-102.5 -81.5t-74 -111.5t-45.5 -124l-145 -628h-89l181 780q22 97 -23.5 146.5t-152.5 49.5q-93 0 -175 -52t-132.5 -130t-69.5 -166l-145 -628h-89l237 1026h89l-30 -130 q72 78 161.5 123.5t184.5 45.5q217 0 237 -172l-3 -19q71 89 158 140t181 51q164 0 236.5 -102.5t35.5 -261.5z" />
<glyph unicode="n" horiz-adv-x="1105" d="M300 626l-145 -626h-87l237 1024h88l-31 -126q72 77 161.5 122t184.5 45q182 0 263.5 -94.5t40.5 -267.5l-162 -703h-89l162 703q32 136 -29 205.5t-206 69.5q-73 0 -139 -30t-114 -80.5t-82 -112t-53 -129.5z" />
<glyph unicode="o" horiz-adv-x="1175" d="M483 -22q-92 -1 -163 26.5t-114 77t-67 117.5t-22 149t20 171q27 114 79 211t125.5 171.5t173.5 116.5t214 42q91 0 161.5 -27t114.5 -75.5t67 -116t23 -149t-22 -173.5q-26 -114 -78 -211.5t-126 -172t-173.5 -116.5t-212.5 -41zM710 973q-97 -1 -179 -36.5t-142 -97.5 t-101.5 -143t-63.5 -177q-24 -95 -18 -177.5t36.5 -143.5t97 -96t163.5 -35q190 0 313 125t169 327q25 97 20 179.5t-34.5 143.5t-96 95.5t-164.5 35.5z" />
<glyph unicode="p" horiz-adv-x="1198" d="M756 1041q90 0 155.5 -28.5t103 -77.5t54.5 -118.5t13.5 -148t-24.5 -168.5q-26 -113 -72 -208t-113 -170.5t-161 -118t-205 -42.5q-109 0 -189 43t-111 134l-127 -548h-89l332 1434h88l-37 -160q167 177 382 177zM526 48q92 0 168 35.5t129.5 99.5t89.5 142.5t58 174.5 t22 174.5t-23.5 142.5t-82.5 99.5t-151 35.5t-167.5 -35.5t-128.5 -99.5t-88.5 -142.5t-57.5 -174.5q-17 -73 -21.5 -137t6.5 -123t39.5 -100.5t81 -66.5t126.5 -25z" />
<glyph unicode="q" horiz-adv-x="1198" d="M719 1041q212 0 300 -177l37 160h89l-331 -1432h-89l127 546q-74 -91 -174 -134t-209 -43q-90 0 -155.5 28t-103 77.5t-54.5 118t-13.5 147t24.5 168.5q26 113 72 208.5t113 171t161.5 118.5t205.5 43zM488 48q92 0 168 37t129 102t89 143t58 170q22 96 22.5 174.5 t-23 142.5t-82.5 99.5t-151 35.5t-167.5 -35.5t-129 -99.5t-89.5 -142.5t-58 -174.5t-22.5 -174.5t23 -142.5t82.5 -99.5t151 -35.5z" />
<glyph unicode="r" horiz-adv-x="728" d="M324 584l-135 -584h-87l238 1026h87l-34 -149q70 77 158.5 122t182.5 45q10 0 33.5 -1.5t31.5 -1.5l-28 -89q-30 4 -58 4q-77 0 -144.5 -32.5t-115 -86.5t-80.5 -118.5t-49 -134.5z" />
<glyph unicode="s" horiz-adv-x="1085" d="M437 -17q-168 0 -256 84.5t-77 234.5l91 14q-10 -121 60.5 -183.5t200.5 -62.5q87 0 162 21.5t132 69.5t73 117q9 38 -3 70t-34 52t-60.5 37.5t-68 26.5t-72.5 20q-8 2 -12.5 3t-10.5 3t-11 3q-60 15 -96.5 26t-89 35t-79.5 51.5t-42 72t-2 99.5q17 75 63.5 132 t111.5 89.5t136.5 48.5t147.5 16q154 0 233 -77.5t66 -215.5l-89 -12q9 109 -52.5 163.5t-177.5 54.5q-58 0 -111.5 -10t-104.5 -31.5t-87 -62t-49 -95.5q-18 -78 44 -117t219 -81q146 -42 204 -72q149 -80 115 -229q-22 -95 -101 -165t-177 -101.5t-196 -28.5z" />
<glyph unicode="t" horiz-adv-x="704" d="M679 1068l-20 -88h-159l-177 -768q-19 -76 3 -103q17 -22 66 -26t110 1l-19 -82q-12 0 -60 -2t-70 -0.5t-53.5 12.5t-50.5 34q-43 57 -15 166l177 768h-167l21 88h167l82 362h88l-81 -362h158z" />
<glyph unicode="u" horiz-adv-x="1105" d="M838 398l145 626h87l-237 -1024h-87l29 126q-70 -77 -160.5 -122t-186.5 -45q-182 0 -262.5 94.5t-40.5 267.5l163 703h89l-164 -703q-30 -136 30.5 -205.5t205.5 -69.5q73 0 139 30t114 80.5t82.5 112t53.5 129.5z" />
<glyph unicode="v" horiz-adv-x="1022" d="M459 0h-104l-171 1017l89 33l160 -941l596 941l75 -33z" />
<glyph unicode="w" horiz-adv-x="1401" d="M954 0h-97l-43 911l-461 -911h-97l-55 1021l89 23l48 -896l452 876h106l43 -874l447 894l80 -22z" />
<glyph unicode="x" horiz-adv-x="1008" d="M862 31l-82 -55l-271 488l-495 -488l-58 55l510 501l-253 468l82 53l244 -451l454 451l58 -53l-469 -466z" />
<glyph unicode="y" horiz-adv-x="1042" d="M-67 -399l21 88q74 -4 125 -1.5t93 31.5t84 97l119 191l-174 1010l89 34l161 -925l582 925l75 -34l-780 -1239q-78 -125 -168.5 -158.5t-226.5 -18.5z" />
<glyph unicode="z" horiz-adv-x="954" d="M770 89l-21 -89h-749l20 89l837 865h-637l21 89h749l-21 -89l-836 -865h637z" />
<glyph unicode="{" horiz-adv-x="766" d="M497 -130l-21 -92q-61 1 -113.5 17t-92 46t-57 79t-5.5 111q4 33 17 86t26.5 101.5t26.5 104t15 100.5t-6 83t-38 59t-80 22l12 48q69 1 117.5 40.5t75 107.5t42 135t31 149.5t29.5 123.5q23 84 87.5 143t140.5 84.5t156 25.5l-20 -92q-56 0 -110.5 -15t-101.5 -53.5 t-60 -92.5v-3q-14 -45 -27.5 -119.5t-25.5 -134.5t-34 -124.5t-64.5 -116t-105.5 -82.5q47 -32 65.5 -83.5t11 -116t-22.5 -124t-36 -134t-27 -119.5l-2 -3q-10 -42 5.5 -75t47.5 -50.5t68.5 -26.5t75.5 -9z" />
<glyph unicode="|" horiz-adv-x="513" d="M514 1365l-364 -1572h-87l364 1572h87z" />
<glyph unicode="}" horiz-adv-x="766" d="M348 1359l21 92q61 -1 113.5 -17t92 -46t57 -79t5.5 -111q-4 -33 -17 -86t-26.5 -101.5t-26.5 -104t-15 -100.5t6 -83t38 -59t80 -22l-12 -48q-69 -1 -117.5 -40.5t-75 -107.5t-42 -135t-31 -149.5t-29.5 -123.5q-23 -84 -87.5 -143t-140.5 -84.5t-156 -25.5l20 92 q56 0 110 15t101 53.5t60 92.5l2 3q12 40 23.5 100t19.5 109t24.5 107.5t38 104t60.5 87.5t92 69q-48 32 -67 83.5t-11 116t23 124t36 134t27 119.5v3q13 56 -18 94t-78 52.5t-100 14.5z" />
<glyph unicode="~" horiz-adv-x="971" d="M374 681q67 0 172 -46q6 -2 16 -7q81 -37 119 -37q70 2 128 88l73 -30q-84 -136 -201 -140q-66 -3 -184 44q-33 14 -51 20.5t-46.5 14.5t-48 5.5t-42.5 -10t-42 -27.5t-37 -51l-73 31q86 145 217 145z" />
<glyph unicode="&#xad;" horiz-adv-x="831" d="M708 502h-558l19 85h558z" />
<glyph unicode="&#xe01;" horiz-adv-x="1090" d="M393 701l-209 24q3 7 8 19t26 46.5t45.5 66t67 70t90.5 66t116.5 46.5t143.5 19q74 0 131.5 -16t92 -41.5t57.5 -58.5t32.5 -65t12 -64.5t0.5 -52.5t-5 -33l-167 -727h-94l167 725q3 13 4.5 35t-7.5 62t-31 72.5t-75.5 57t-132.5 24.5q-64 0 -121.5 -17.5t-92 -37.5 t-69.5 -54t-46 -48t-28 -39l194 -32l-17 -72q-6 -1 -17 -3t-39.5 -12.5t-52 -27t-47 -49t-33.5 -74.5l-118 -510h-92l111 483q11 45 35 83.5t50.5 62t51.5 41t41 24.5z" />
<glyph unicode="&#xe02;" horiz-adv-x="1034" d="M715 133l207 891h93l-206 -891q-9 -39 -22.5 -64.5t-26.5 -39.5t-40 -20.5t-46 -7.5t-61 -1h-297l128 558q6 27 84 149.5t98 147.5q-16 43 -60.5 72.5t-104.5 29.5q-65 0 -125 -34q69 -2 106.5 -51t21.5 -119t-77.5 -119.5t-132.5 -49.5t-109 49.5t-22 119.5 q28 121 132.5 204.5t224.5 83.5q97 0 159.5 -53t80.5 -133q-35 -48 -98.5 -146.5t-80.5 -138.5l-111 -485h203q28 0 40 1.5t24.5 12.5t17.5 34zM387 753q9 39 -11.5 66.5t-59.5 27.5q-38 0 -72.5 -28t-43.5 -66t12 -66t59 -28q39 0 73 27.5t43 66.5z" />
<glyph unicode="&#xe03;" horiz-adv-x="1046" d="M934 1024h93l-206 -891q-9 -39 -22.5 -64.5t-26.5 -39.5t-40 -20.5t-46 -7.5t-61 -1h-294l121 527q4 19 49 87.5t87 127.5l43 58q13 42 11 81.5t-28 67.5l-157 -92l-117 90q-36 -19 -72.5 -67.5t-43.5 -80.5q49 27 99 27q70 0 107.5 -49.5t20.5 -121.5 q-17 -71 -77 -120.5t-130 -49.5q-94 0 -123 68.5t-2 185.5q9 41 25.5 80t44.5 81t73 80t102 66l116 -90l151 90q39 -15 63.5 -44.5t32 -65.5t6.5 -69.5t-8 -66.5q-147 -201 -174 -261l-104 -454h198q28 0 40 1.5t24.5 12.5t17.5 34zM305 751q-39 0 -73 -27.5t-43 -66.5 q-9 -40 11.5 -68t60.5 -28q38 0 72.5 28t43.5 68q9 38 -12.5 66t-59.5 28z" />
<glyph unicode="&#xe04;" horiz-adv-x="1122" d="M164 84l-19 -84h-94l167 722q7 32 29 72t64.5 87.5t96.5 86t133 64.5t166 26q64 0 117 -13.5t88 -36t61 -52.5t40 -61t20.5 -63.5t6 -59t-5.5 -48.5l-167 -724h-94l167 722q8 24 6 52.5t-8 56.5t-25.5 55t-47 47t-73.5 32.5t-104 12.5q-83 0 -153.5 -26t-115 -66.5 t-71.5 -82.5t-36 -81l-70 -304q54 98 154 220.5t154 148.5q103 51 177 8q53 -31 58.5 -97t-39.5 -131q-47 -63 -120.5 -84t-125.5 12q-43 24 -55 77q-176 -219 -281 -488zM536 686q-24 -33 -21.5 -70t31.5 -55q31 -19 71 -7t66 47q27 36 24 74t-35 54q-30 17 -69.5 5 t-66.5 -48z" />
<glyph unicode="&#xe05;" horiz-adv-x="1122" d="M160 67l-15 -67h-94l166 715q7 32 20.5 67t42 81.5t66 84t97.5 69t132 43.5q8 -10 34 -35t48 -45l22 -21q126 82 152 101q69 -11 115.5 -42t66.5 -68t26.5 -84t3.5 -80.5t-10 -66.5l-166 -719h-94l166 715q6 27 9 46t5.5 48.5t-3.5 51.5t-17.5 45t-35.5 40t-59 27 l-183 -113q-114 99 -126 111q-45 -12 -81.5 -36t-58.5 -49t-39 -59.5t-24.5 -58t-14.5 -53.5l-74 -312q60 103 157.5 222.5t151.5 144.5q105 49 178 10q53 -33 58.5 -99.5t-41.5 -130.5q-46 -63 -119 -84.5t-127 10.5q-45 25 -53 80q-178 -225 -282 -489zM532 671 q-25 -35 -21.5 -71.5t32.5 -56.5q31 -17 70.5 -5t65.5 46q28 37 25 74t-33 55q-32 16 -73 4.5t-66 -46.5z" />
<glyph unicode="&#xe06;" horiz-adv-x="1206" d="M355 101l58 257q-87 0 -130 -34.5t-61 -116.5q-14 -59 3 -104.5t69 -47.5q50 0 61 46zM305 751q-39 0 -73 -27.5t-43 -66.5q-9 -40 11.5 -68t60.5 -28q38 0 72.5 28t43.5 68q9 38 -12.5 66t-59.5 28zM507 357l-60 -260q-13 -59 -64 -90t-110 -31q-62 0 -98.5 34t-41 83.5 t6.5 106.5q26 114 105.5 175.5t186.5 61.5l20 90q4 19 49 87.5t87 127.5l43 58q13 42 11 81.5t-28 67.5l-157 -92l-117 90q-36 -19 -72.5 -67.5t-43.5 -80.5q49 27 99 27q70 0 107.5 -49.5t20.5 -121.5q-17 -71 -77 -120.5t-130 -49.5q-94 0 -123 68.5t-2 185.5 q9 41 25.5 80t44.5 81t73 80t102 66l116 -90l151 90q39 -15 63.5 -44.5t32 -65.5t6.5 -69.5t-8 -66.5q-148 -201 -175 -261l-24 -102q55 -6 102.5 -30t79 -57.5t57 -72t39.5 -76t23.5 -68t12.5 -49.5l3 -19q31 8 39 44l212 915h94l-212 -911q-9 -40 -20 -63t-32 -41.5 t-56.5 -25.5t-90.5 -5q-8 41 -16.5 74t-23.5 77.5t-35.5 79t-47.5 67.5t-64.5 54t-82.5 27z" />
<glyph unicode="&#xe07;" horiz-adv-x="863" d="M659 1043q71 0 110 -49.5t23 -121.5l-171 -739q-9 -39 -22.5 -64.5t-26.5 -39.5t-40 -20.5t-46 -7.5t-61 -1h-50q-14 41 -38.5 110.5t-97.5 241t-142 293.5l72 56q58 -96 127 -251t108 -262l40 -106q21 0 30.5 1t22 5.5t19.5 15t11 29.5l137 589q-44 -21 -84 -21 q-71 0 -109 50.5t-22 120.5q16 72 77.5 121.5t132.5 49.5zM597 778q39 0 74 27.5t44 66.5q9 40 -13 68t-60 28t-72.5 -28t-43.5 -68t12 -67t59 -27z" />
<glyph unicode="&#xe08;" horiz-adv-x="983" d="M638 92q21 16 26 43l136 587q6 26 6 53t-6.5 56.5t-24 55t-44 46.5t-70 33t-98.5 12q-75 0 -137.5 -19.5t-104.5 -52.5t-68.5 -67.5t-42.5 -73.5l-77 30q19 37 45 71t66.5 70t88.5 62.5t112.5 43t136.5 16.5q63 0 114.5 -13.5t85.5 -36t58.5 -52.5t37 -61t18 -64t4.5 -60 t-6 -49l-136 -587q-9 -40 -22.5 -66t-26.5 -40t-39 -20.5t-45 -7.5t-60 -1q-70 440 -73 447q-70 -69 -169 -61q-67 8 -97.5 62.5t-7.5 126.5q26 71 89 113.5t132 33.5q76 -4 107 -73l7 -24q38 -217 85 -533zM345 463q42 -2 78.5 22t45.5 61q15 39 -2 69.5t-54 34.5 q-40 5 -76 -19t-49 -64q-11 -37 5 -68t52 -36z" />
<glyph unicode="&#xe09;" horiz-adv-x="1092" d="M744 65q41 0 76 28t44 69q9 39 -13 66.5t-63 27.5q-38 0 -72.5 -28t-43.5 -66q-9 -41 12 -69t60 -28zM845 444l63 275q4 30 6 64t-14 69t-41.5 63t-77.5 45.5t-122 17.5q-141 0 -242 -69.5t-134 -155.5l-78 32q23 46 64.5 91t100 87.5t139.5 68.5t169 26 q65 0 118.5 -13.5t88.5 -36t60.5 -52.5t39 -61t19.5 -63.5t5.5 -59t-5.5 -48.5l-70 -299q-17 -48 -79 -96q51 -17 76.5 -63.5t12.5 -103.5q-18 -75 -81 -126t-138 -51q-73 0 -112 51t-21 126q7 36 33 74q-52 -20 -101.5 -52t-84 -63t-62 -59t-40.5 -45l-13 -17h-94l84 362 q-33 -17 -82 -17q-70 0 -108 49t-23 120q18 72 78.5 121t131.5 49t110 -49t21 -121l-87 -377q28 40 123 107t222 99q58 14 94 39.5t44 43.5zM249 420q39 0 75 28t43 66q10 41 -12 69t-61 28t-73.5 -28t-44.5 -69q-8 -38 13.5 -66t59.5 -28z" />
<glyph unicode="&#xe0a;" horiz-adv-x="1041" d="M809 857q1 0 20 -8.5t38.5 -19.5t40.5 -25.5t32 -33.5t7 -38l-138 -599q-9 -39 -22.5 -64.5t-26.5 -39.5t-40 -20.5t-46 -7.5t-61 -1h-297l128 558q6 27 84 149.5t98 147.5q-16 43 -60.5 72.5t-104.5 29.5q-65 0 -125 -34q69 -2 106.5 -51t21.5 -119t-77.5 -119.5 t-132.5 -49.5t-109 49.5t-22 119.5q28 121 132.5 204.5t224.5 83.5q86 0 145.5 -42.5t84.5 -109.5q71 19 133 53t100 69.5t66 68.5t39 54l12 21l73 -42q-5 -9 -14 -23.5t-40 -53.5t-66 -71t-90.5 -64t-113.5 -44zM387 753q9 39 -11.5 66.5t-59.5 27.5q-38 0 -72.5 -28 t-43.5 -66t12 -66t59 -28q39 0 73 27.5t43 66.5zM715 133l137 589q2 8 -15 21.5t-47.5 28t-52 24.5t-46.5 20q-128 -194 -150 -244l-111 -487h203q28 0 40 1.5t24.5 12.5t17.5 34z" />
<glyph unicode="&#xe0b;" horiz-adv-x="1049" d="M821 857q1 0 20 -8.5t38.5 -19.5t40.5 -25.5t32 -33.5t7 -38l-138 -599q-9 -39 -22.5 -64.5t-27 -39.5t-40 -20.5t-45.5 -7.5t-60 -1h-295l123 536q4 19 49 87.5t87 126.5l43 59q13 43 10.5 77t-29.5 63l-157 -92l-117 90q-36 -19 -72.5 -67.5t-43.5 -80.5q49 27 99 27 q70 0 107.5 -49.5t20.5 -121.5q-17 -71 -77 -120.5t-130 -49.5q-94 0 -123 68.5t-2 185.5q9 41 25.5 80t44.5 81t73 80t102 66l116 -90l151 90q97 -39 103 -152q69 19 129 52.5t96.5 68.5t63.5 67t38 52l11 21l73 -42q-5 -9 -14 -23.5t-40 -53.5t-66 -71t-90.5 -64 t-113.5 -44zM305 751q-39 0 -73 -27.5t-43 -66.5q-9 -40 11.5 -68t60.5 -28q38 0 72.5 28t43.5 68q9 38 -12.5 66t-59.5 28zM447 85h198q28 0 40 1.5t25 12.5t19 34l136 591q6 23 -140 83q-27 -37 -91 -130t-81 -129z" />
<glyph unicode="&#xe0c;" horiz-adv-x="1565" d="M316 244q-39 0 -74 -27.5t-44 -66.5t12.5 -67t60.5 -28t73 28t43 67q9 40 -12 67t-59 27zM765 101l58 257q-88 0 -131 -34.5t-61 -116.5q-14 -59 3 -104.5t69 -47.5q51 0 62 46zM916 357l-59 -260q-13 -59 -64 -90t-110 -31q-62 0 -98.5 34t-41 83.5t6.5 106.5 q26 114 105 175.5t186 61.5l67 288q3 13 4.5 35t-7.5 62t-31 72.5t-75.5 57t-132.5 24.5q-64 0 -121.5 -17.5t-92 -37.5t-69.5 -54t-46 -48t-28 -39l194 -32l-17 -72q-6 -1 -16.5 -3t-39 -12.5t-51.5 -27t-46.5 -49t-33.5 -74.5l-48 -210q41 21 82 21q71 0 109 -50.5 t22 -120.5q-16 -72 -77.5 -121t-132.5 -49t-110 49.5t-23 120.5l77 333q11 45 35 83.5t50.5 62t51.5 41t41 24.5l17 7l-209 24q3 7 8 19t26 46.5t45.5 66t67 70t90.5 66t116.5 46.5t143.5 19q74 0 131.5 -16t92 -41.5t57.5 -58.5t32.5 -65t12 -64.5t0.5 -52.5t-5 -33 l-67 -290q54 -5 97.5 -28t70.5 -56t47 -72t29.5 -77t15 -69.5t5.5 -50.5l1 -19q32 8 40 44l211 915h94l-211 -911q-9 -40 -20 -63t-32.5 -41.5t-57 -25.5t-90.5 -5q-3 43 -7 74t-12.5 77.5t-24 79.5t-38 66.5t-57.5 54.5t-80 27z" />
<glyph unicode="&#xe0d;" horiz-adv-x="1566" d="M853 -305l-1 -2q52 -6 136 10q88 19 154.5 83.5t89.5 140.5l67 -12q-26 -96 -113 -178t-220 -111q-139 -24 -233.5 19.5t-82.5 142.5l5 19q13 57 65 98.5t111 41.5q58 0 88.5 -41.5t17.5 -98.5q-14 -65 -84 -112zM782 -268q29 0 55 22.5t33 52.5q7 31 -9 51.5t-45 20.5 q-31 0 -59 -21t-35 -51q-7 -29 11 -52t49 -23zM853 82h313q20 0 30 1t22 5.5t19 15t11 29.5l206 891h94l-207 -891q-7 -28 -15.5 -49t-16.5 -35.5t-23 -23.5t-25.5 -14.5t-32.5 -7.5t-36 -2.5t-45 -0.5h-406l167 725q3 13 4.5 35t-7.5 62t-31 72.5t-75.5 57t-132.5 24.5 q-64 0 -121.5 -17.5t-92 -37.5t-69.5 -54t-46 -48t-28 -39l194 -32l-17 -72q-6 -1 -16.5 -3t-39 -12.5t-51.5 -27t-46.5 -49t-33.5 -74.5l-48 -210q41 21 82 21q71 0 109 -50.5t22 -120.5q-16 -72 -77.5 -121t-132.5 -49t-110 49.5t-23 120.5l77 333q11 45 35 83.5t50.5 62 t51.5 41t41 24.5l17 7l-209 24q3 7 8 19t26 46.5t45.5 66t67 70t90.5 66t116.5 46.5t143.5 19q74 0 131.5 -16t92 -41.5t57.5 -58.5t32.5 -65t12 -64.5t0.5 -52.5t-5 -33zM316 244q-39 0 -74 -27.5t-44 -66.5t12.5 -67t60.5 -28t73 28t43 67q9 40 -12 67t-59 27z" />
<glyph unicode="&#xe0e;" horiz-adv-x="1167" d="M758 1058q74 0 131.5 -16t92 -41.5t57.5 -58.5t32.5 -65t12 -64.5t0.5 -52.5t-5 -33l-209 -903l-266 -201l-20 20q-60 51 -116 91q-43 -45 -79 -70q-83 -58 -171 -58q-61 0 -98.5 47.5t-23.5 107.5q14 61 63 99q54 44 140 44q68 0 164 -59q25 38 66 123l75 -17 q-37 -84 -82 -147q72 -47 101 -75l160 123l202 873q2 8 3 21t-0.5 38t-7.5 49t-23.5 50.5t-43 46.5t-70 33t-101.5 13q-64 0 -121 -17.5t-92 -37.5t-70 -54.5t-45 -48t-28 -38.5l211 -32l-15 -67q-12 -1 -24.5 -4t-32.5 -14t-37 -28.5t-34 -50t-27 -74.5l-84 -360 q-16 -71 -78.5 -120.5t-133.5 -49.5t-109 49t-22 121q17 71 78.5 121t131.5 50q39 0 75 -21l41 183q11 45 31 83.5t41.5 62t41.5 41t33 24.5l13 7l-225 24q3 7 8 19t26 46.5t45.5 66t67 70t90.5 66t116.5 46.5t143.5 19zM148 55q39 0 74 28t44 67t-12.5 66.5t-60.5 27.5 t-73 -27.5t-43 -66.5q-9 -40 12 -67.5t59 -27.5zM352 -273q23 17 52 46q-83 50 -124 50q-89 0 -103 -62q-7 -25 12 -49t48 -24q57 0 115 39z" />
<glyph unicode="&#xe0f;" horiz-adv-x="1167" d="M758 1058q74 0 131.5 -16t92 -41.5t57.5 -58.5t32.5 -65t12 -64.5t0.5 -52.5t-5 -33l-210 -911l-244 -209l-82 120l-145 -120l-79 110q-20 -24 -54 -58q-78 -65 -156 -65q-60 0 -97.5 48t-23.5 109q13 55 65 99q59 44 140 44q52 0 119 -48q26 48 52 110l76 -14 q-35 -91 -70 -147q2 -3 4 -3q13 -14 33 -40l20 -25l145 119l80 -122l128 112l205 889q2 8 3 21t-0.5 38t-7.5 49t-23.5 50.5t-43 46.5t-70 33t-101.5 13q-64 0 -121 -17.5t-92 -37.5t-70 -54.5t-45 -48t-28 -38.5l211 -32l-15 -67q-12 -1 -24.5 -4t-32.5 -14t-37 -28.5 t-34 -50t-27 -74.5l-84 -360q-16 -71 -78.5 -120.5t-133.5 -49.5t-109 49t-22 121q17 71 78.5 121t131.5 50q39 0 75 -21l41 183q11 45 31 83.5t41.5 62t41.5 41t33 24.5l13 7l-225 24q3 7 8 19t26 46.5t45.5 66t67 70t90.5 66t116.5 46.5t143.5 19zM148 55q39 0 74 28 t44 67t-12.5 66.5t-60.5 27.5t-73 -27.5t-43 -66.5q-9 -40 12 -67.5t59 -27.5zM128 -324q69 0 138 92q-53 44 -92 44q-42 0 -69.5 -16t-34.5 -45q-7 -27 13 -51t45 -24z" />
<glyph unicode="&#xe10;" horiz-adv-x="964" d="M609 -193l-49 -211l-171 -128l-90 80l-139 -82q-4 8 -15.5 30.5t-21.5 40t-22 33.5q-94 -120 -178 -120q-59 0 -95.5 45.5t-22.5 103.5q14 64 70.5 100t124.5 36q53 0 89 -29q23 49 48 130l76 -5q-23 -77 -65 -179q8 -13 27.5 -39t29.5 -41l118 73l83 -78l84 64l13 60 q-16 -8 -47 -8q-52 0 -80.5 35.5t-15.5 88.5q11 52 56.5 88.5t97.5 36.5q51 0 78.5 -36.5t16.5 -88.5zM-60 -471q20 0 51 24.5t62 74.5q-39 29 -70 29q-86 0 -99 -58q-7 -25 10 -47.5t46 -22.5zM420 -193q-7 -29 7 -48.5t42 -19.5q29 0 53 19.5t31 48.5q7 28 -8.5 47.5 t-44.5 19.5q-28 0 -50.5 -19t-29.5 -48zM294 411q42 -2 78.5 22.5t45.5 61.5q15 39 -2 69.5t-54 34.5q-40 5 -76 -19.5t-49 -64.5q-11 -37 6 -68t51 -36zM503 573l79 -481q21 16 26 43l99 428q12 52 -3 91.5t-61 62t-86.5 36t-115.5 18.5t-109.5 6t-105.5 0h-57 q59 133 160.5 207t233.5 74q24 -1 45 -2.5t41.5 -4.5t31.5 -5t33 -7t28 -6q54 -20 103 -18.5t106 41.5l41 -68q-35 -26 -70.5 -40.5t-59 -19.5t-59.5 -1.5t-49.5 7t-52.5 13.5q-8 2 -27 6t-29.5 6t-27.5 5t-35 4t-39 1q-64 0 -127 -27t-100 -75q95 -3 173.5 -14.5t166 -39 t128.5 -85.5t22 -141l-105 -452q-7 -29 -15.5 -50t-16.5 -35.5t-22.5 -24t-25 -15t-32.5 -7.5t-36 -2.5t-44 -0.5l-67 396q-73 -69 -171 -61q-67 8 -97 62.5t-7 126.5q26 71 88.5 113.5t131.5 33.5q76 -4 108 -74q3 -8 8 -24z" />
<glyph unicode="&#xe11;" horiz-adv-x="1300" d="M550 538l-74 -318l512 819v0v0v0v0h1v0h1h1h1h1h1h1h1h9q68 0 115.5 -21t70 -52t31.5 -72t7 -75t-10 -68l-175 -751h-97l174 751q8 46 9 87t-27 74t-86 42l-592 -954h-94l121 527q4 19 49 87.5t87 127.5l43 58q13 41 11 79.5t-28 65.5l-158 -92l-116 91 q-36 -19 -72.5 -66.5t-43.5 -78.5q49 27 99 27q70 0 107.5 -49.5t20.5 -121.5q-17 -71 -77 -120.5t-130 -49.5q-94 0 -123 68.5t-2 185.5q13 55 37 105.5t77.5 106.5t128.5 92l118 -91l150 91q39 -15 63.5 -44.5t32 -65t7 -68.5t-7.5 -65q-148 -202 -175 -262zM305 751 q-39 0 -73 -27.5t-43 -66.5q-9 -40 11.5 -68t60.5 -28q38 0 72.5 28t43.5 68q9 38 -12.5 66t-59.5 28z" />
<glyph unicode="&#xe12;" horiz-adv-x="1597" d="M512 643q-9 -41 12 -68t61 -27q39 0 73 27t43 68q9 38 -12 66t-59 28q-40 0 -74.5 -28t-43.5 -66zM797 101l60 263q-86 0 -130.5 -38t-62.5 -121q-15 -58 2 -104t70 -46q50 0 61 46zM949 357l-60 -260q-14 -61 -64.5 -92t-109.5 -31q-62 0 -98.5 34.5t-41 84.5t6.5 107 q26 115 106.5 177.5t187.5 62.5l63 275q6 27 9 46t5.5 48.5t-3.5 51.5t-17.5 45t-35.5 40t-59 27l-183 -113q-114 97 -126 111q-173 -48 -218 -256l-139 -596l371 355q-59 7 -89.5 57t-16.5 112q16 70 77.5 119.5t132.5 49.5t108.5 -49.5t21.5 -119.5q-16 -65 -64 -107 l-566 -536h-96l166 715q7 32 20 66.5t42 81t66.5 84.5t97.5 69.5t132 43.5l104 -103q126 83 152 103q50 -8 88.5 -26.5t61.5 -42t37.5 -54t20 -59.5t5.5 -60.5t-3 -54.5t-8 -46l-65 -280q54 -5 97.5 -28t70.5 -56t47 -72t29.5 -77t15 -69.5t6.5 -50.5v-19q31 8 39 44 l212 915h94l-212 -911q-9 -40 -20 -63t-32.5 -41.5t-57 -25.5t-90.5 -5q-3 44 -7 74.5t-12.5 77t-23.5 79.5t-37.5 66.5t-57.5 54.5t-80 27z" />
<glyph unicode="&#xe13;" horiz-adv-x="1638" d="M1254 65q41 0 76 28t44 69q9 39 -12.5 66.5t-62.5 27.5q-38 0 -72.5 -28t-43.5 -66q-9 -41 12 -69t59 -28zM1002 727l-137 -590q28 40 123 107t222 99q58 14 94 39.5t44 43.5l7 18l135 580h94l-140 -599q-17 -48 -79 -96q51 -17 76.5 -63.5t12.5 -103.5 q-18 -76 -81 -126.5t-137 -50.5q-73 0 -112 51t-21 126q7 38 32 74q-52 -20 -101.5 -52t-84 -63t-61.5 -59t-40 -45l-13 -17h-94l167 725q3 13 4.5 35t-7.5 62t-31 72.5t-75.5 57t-132.5 24.5q-64 0 -121.5 -17.5t-92 -37.5t-69.5 -54t-46 -48t-28 -39l194 -32l-17 -72 q-6 -1 -16.5 -3t-39 -12.5t-51.5 -27t-46.5 -49t-33.5 -74.5l-48 -210q41 21 82 21q71 0 109 -50.5t22 -120.5q-16 -72 -77.5 -121t-132.5 -49t-110 49.5t-23 120.5l77 333q11 45 35 83.5t50.5 62t51.5 41t41 24.5l17 7l-209 24q3 7 8 19t26 46.5t45.5 66t67 70t90.5 66 t116.5 46.5t143.5 19q74 0 131.5 -16t92 -41.5t57.5 -58.5t32.5 -65t12 -64.5t0.5 -52.5t-5 -33zM316 244q-39 0 -74 -27.5t-44 -66.5t12.5 -67t60.5 -28t73 28t43 67q9 40 -12 67t-59 27z" />
<glyph unicode="&#xe14;" horiz-adv-x="1122" d="M715 536l-561 -536h-103l166 717q7 32 29.5 73t65.5 89t97 87t133 65.5t165 26.5q64 0 117 -14t88 -36.5t61 -52.5t39.5 -62t20 -65t6 -60t-5.5 -49l-166 -719h-94l166 717q6 26 6 53t-6.5 57.5t-25 56.5t-46.5 47.5t-74 34t-105 12.5q-81 0 -151.5 -26.5t-115.5 -68 t-73 -84.5t-37 -82l-139 -598l371 355q-60 11 -89 59t-15 110q16 70 77.5 119.5t132.5 49.5q70 0 108 -49t21 -120q-15 -62 -63 -107zM587 550q39 0 73 27t43 66q9 38 -12.5 66t-59.5 28q-39 0 -73.5 -27.5t-43.5 -66.5q-9 -40 12 -66.5t61 -26.5z" />
<glyph unicode="&#xe15;" horiz-adv-x="1122" d="M172 119l371 355q-57 8 -88.5 58t-17.5 111q16 70 77.5 119.5t132.5 49.5t108.5 -49.5t21.5 -119.5q-15 -61 -64 -107l-566 -536h-96l166 715q7 32 20.5 67t42 81.5t66 84t97.5 69t132 43.5q8 -10 34 -35t48 -45l22 -21q126 82 152 101q69 -11 115.5 -42t66.5 -68 t26.5 -84t3.5 -80.5t-10 -66.5l-166 -719h-94l166 715q6 27 9 46t5.5 48.5t-3.5 51.5t-17.5 45t-35.5 40t-59 27l-183 -113q-114 99 -126 111q-45 -12 -81.5 -36t-58.5 -49t-39 -59.5t-24.5 -58t-14.5 -53.5zM585 550q39 0 73 27t43 66q9 38 -12 66t-59 28q-40 0 -74.5 -28 t-43.5 -66q-9 -40 12 -66.5t61 -26.5z" />
<glyph unicode="&#xe16;" horiz-adv-x="1090" d="M121 150l77 333q11 45 35 83.5t50.5 62t51.5 41t41 24.5l17 7l-209 24q3 7 8 19t26 46.5t45.5 66t67 70t90.5 66t116.5 46.5t143.5 19q74 0 131.5 -16t92 -41.5t57.5 -58.5t32.5 -65t12 -64.5t0.5 -52.5t-5 -33l-167 -727h-94l167 725q3 13 4.5 35t-7.5 62t-31 72.5 t-75.5 57t-132.5 24.5q-64 0 -121.5 -17.5t-92 -37.5t-69.5 -54t-46 -48t-28 -39l194 -32l-17 -72h-4q-5 -1 -14.5 -3.5t-21.5 -6t-26 -10.5t-28 -15t-28.5 -21t-27 -28.5t-22.5 -36.5t-15 -45l-48 -210q41 21 82 21q71 0 109 -50.5t22 -120.5q-16 -72 -77.5 -121 t-132.5 -49t-110 49.5t-23 120.5zM316 244q-39 0 -74 -27.5t-44 -66.5t12.5 -67t60.5 -28t73 28t43 67q9 40 -12 67t-59 27z" />
<glyph unicode="&#xe17;" horiz-adv-x="1201" d="M870 951l-544 -951h-94l166 720q-33 -17 -82 -17q-71 0 -109.5 49.5t-22.5 119.5q16 72 77.5 121.5t132.5 49.5t110 -49.5t23 -121.5l-143 -619l447 780h74q57 0 100 -14.5t66.5 -39.5t37.5 -54t16.5 -63.5t0.5 -62.5t-8 -55l-173 -744h-97l173 744q46 205 -151 207z M333 778q38 0 73.5 28t44.5 66q9 41 -13 69t-61 28t-73 -28t-43 -69q-9 -38 12.5 -66t59.5 -28z" />
<glyph unicode="&#xe18;" horiz-adv-x="1006" d="M872 584l-104 -451q-9 -39 -22.5 -64.5t-26.5 -39.5t-39.5 -20.5t-45.5 -7.5t-61 -1h-457l152 657h94l-133 -575h363q20 0 30 1t22 5.5t19 15t11 29.5l99 427q9 38 0 69t-34.5 52t-59 36.5t-80 24.5t-91 15t-97.5 8t-94 3t-87 1.5t-70 1.5q76 142 173.5 214.5t234.5 72.5 q100 0 214 -29q78 -19 101 -19q43 1 102 43l37 -70q-45 -30 -80 -45t-74 -14.5t-56.5 4t-69.5 16.5q-124 27 -194 27q-69 0 -121 -27.5t-115 -91.5q194 -9 263 -19q304 -44 301 -211q0 -18 -4 -38z" />
<glyph unicode="&#xe19;" horiz-adv-x="1179" d="M795 65q41 0 76 28t44 69q9 39 -12.5 66.5t-62.5 27.5q-38 0 -72.5 -28t-43.5 -66q-9 -41 12 -69t59 -28zM526 872l-173 -744q1 1 22.5 17.5t38.5 29t48 33.5t61.5 38.5t67.5 36.5t78 34.5t82 25.5q58 14 94 39.5t43 43.5l8 18l135 580h94l-140 -599q-17 -48 -79 -96 q51 -17 76.5 -63.5t12.5 -103.5q-18 -76 -81 -126.5t-137 -50.5q-73 0 -112.5 51t-21.5 126q7 36 33 74q-52 -20 -107 -52t-97 -63t-76.5 -59t-53.5 -45l-18 -17h-94l166 720q-32 -17 -82 -17q-71 0 -108.5 49.5t-21.5 119.5q16 72 77 121.5t132 49.5t110 -49.5t23 -121.5z M331 778q39 0 75 28t45 66q9 41 -14 69t-62 28t-73 -28t-43 -69q-9 -38 12.5 -66t59.5 -28z" />
<glyph unicode="&#xe1a;" horiz-adv-x="1204" d="M333 777q37 0 72 28t44 65q9 39 -13 68.5t-59 29.5q-38 0 -72.5 -29t-43.5 -69q-9 -37 12.5 -65t59.5 -28zM785 0h-556l165 720q-33 -19 -78 -19q-71 0 -109.5 49.5t-22.5 119.5q16 72 77.5 122.5t132.5 50.5t108.5 -50t21.5 -123l-183 -788h463q20 0 30 1t22 5.5t19 15 t11 29.5l206 891h94l-206 -891q-9 -39 -22.5 -64.5t-26.5 -39.5t-39.5 -20.5t-45.5 -7.5t-61 -1z" />
<glyph unicode="&#xe1b;" horiz-adv-x="1204" d="M333 777q37 0 72 28t44 65q9 39 -13 68.5t-59 29.5q-38 0 -72.5 -29t-43.5 -69q-9 -37 12.5 -65t59.5 -28zM785 0h-556l165 720q-33 -19 -78 -19q-71 0 -109.5 49.5t-22.5 119.5q16 72 77.5 122.5t132.5 50.5t108.5 -50t21.5 -123l-183 -788h463q20 0 30 1t22 5.5t19 15 t11 29.5l300 1301h94l-300 -1301q-9 -39 -22.5 -64.5t-26.5 -39.5t-39.5 -20.5t-45.5 -7.5t-61 -1z" />
<glyph unicode="&#xe1c;" horiz-adv-x="1100" d="M51 0l202 870q16 72 78 122.5t133 50.5q70 0 107.5 -50.5t20.5 -122.5q-17 -71 -76.5 -120.5t-129.5 -49.5q-45 0 -74 20l-136 -594l396 412l206 -412l208 898h96l-237 -1024h-106l-198 404l-386 -404h-104zM331 870q-9 -38 12.5 -65.5t59.5 -27.5q37 0 72 27.5t44 65.5 q9 39 -13 67.5t-59 28.5q-38 0 -72.5 -28t-43.5 -68z" />
<glyph unicode="&#xe1d;" horiz-adv-x="1100" d="M51 0l202 870q16 72 78 122.5t133 50.5q70 0 107.5 -50.5t20.5 -122.5q-17 -71 -76.5 -120.5t-129.5 -49.5q-45 0 -74 20l-136 -594l396 412l206 -412l302 1308h96l-331 -1434h-106l-198 404l-386 -404h-104zM331 870q-9 -38 12.5 -65.5t59.5 -27.5q37 0 72 27.5t44 65.5 q9 39 -13 67.5t-59 28.5q-38 0 -72.5 -28t-43.5 -68z" />
<glyph unicode="&#xe1e;" horiz-adv-x="1300" d="M333 780q41 0 75 27t43 67q9 37 -13 65.5t-63 28.5q-38 0 -72.5 -28.5t-43.5 -65.5q-9 -39 13 -66.5t61 -27.5zM1007 244l181 780h94l-238 -1024h-100l-109 850l-506 -850h-99l166 720q-37 -17 -82 -17q-70 0 -107.5 50t-22.5 121q16 70 77 119.5t132 49.5t110 -49.5 t23 -119.5l-145 -630l467 775h50z" />
<glyph unicode="&#xe1f;" horiz-adv-x="1300" d="M333 780q41 0 75 27t43 67q9 37 -13 65.5t-63 28.5q-38 0 -72.5 -28.5t-43.5 -65.5q-9 -39 13 -66.5t61 -27.5zM1007 244l275 1190h94l-332 -1434h-100l-109 850l-506 -850h-99l166 720q-37 -17 -82 -17q-70 0 -107.5 50t-22.5 121q16 70 77 119.5t132 49.5t110 -49.5 t23 -119.5l-145 -630l467 775h50z" />
<glyph unicode="&#xe20;" horiz-adv-x="1167" d="M427 510l-84 -360q-16 -71 -78.5 -120.5t-133.5 -49.5t-109 49t-22 121q17 71 78.5 121t131.5 50q39 0 75 -21l41 183q11 45 31 83.5t41.5 62t41.5 41t33 24.5l13 7l-225 24q3 7 8 19t26 46.5t45.5 66t67 70t90.5 66t116.5 46.5t143.5 19q74 0 131.5 -16t92 -41.5 t57.5 -58.5t32.5 -65t12 -64.5t0.5 -52.5t-5 -33l-168 -727h-94l168 725q2 8 3 21t-0.5 38t-7.5 49t-23.5 50.5t-43 46.5t-70 33t-101.5 13q-64 0 -121 -17.5t-92 -37.5t-70 -54.5t-45 -48t-28 -38.5l211 -32l-17 -72q-12 -1 -24 -3.5t-32.5 -13t-37 -27t-33 -48.5 t-26.5 -74zM193 244q-39 0 -73 -27.5t-43 -66.5q-9 -40 12 -67.5t59 -27.5q39 0 74 28t44 67t-12.5 66.5t-60.5 27.5z" />
<glyph unicode="&#xe21;" horiz-adv-x="1187" d="M476 437q76 -9 139.5 -50.5t100.5 -94.5t63 -104.5t35 -87.5l10 -35q31 5 40 44l211 915h94l-212 -911q-9 -40 -20 -63t-32 -42t-56.5 -26t-90.5 -6q-11 57 -33 114t-57.5 115.5t-90.5 99t-120 50.5l-61 -263q-13 -57 -61 -86.5t-105 -29.5q-47 0 -79 18.5t-46 49 t-18.5 70t3.5 81.5q19 111 104 177.5t188 64.5l65 283q-32 -17 -80 -17q-71 0 -109 48t-22 119q16 73 77 122t132 49q70 0 109 -49t23 -122zM304 96l60 262q-85 -5 -126.5 -41t-61.5 -116q-10 -62 5.5 -105t67.5 -45q25 0 37 11.5t18 33.5zM384 775q37 0 72 28.5t44 66.5 q9 41 -13 70t-59 29q-38 0 -72.5 -29t-43.5 -70q-9 -38 12.5 -66.5t59.5 -28.5z" />
<glyph unicode="&#xe22;" horiz-adv-x="1080" d="M655 0h-559l54 234q8 36 21.5 67t31 53t34 38.5t37 29t33 19t28.5 13t18 7.5q-6 1 -16 2.5t-36 10.5t-46.5 22.5t-38.5 40t-21 60.5q-5 59 4.5 116.5t26.5 97t34.5 71t30.5 46.5l13 16q54 70 148.5 92t143.5 -19q48 -35 46.5 -105t-55.5 -129q-53 -59 -123 -74t-121 23 q-31 24 -36 45q-2 -4 -4 -12t-6.5 -30.5t-6.5 -43.5t1 -47.5t13 -46.5q8 -17 22 -29.5t38.5 -20t45.5 -12t59.5 -6t62 -2t70.5 -0.5l-18 -82q-61 0 -133 -13q-90 -23 -147 -89q-16 -19 -29 -41.5t-19 -35.5l-5 -13l-39 -169h466q17 0 24.5 0.5t18.5 3t17 7.5t11.5 15t9.5 25 l207 889h94l-207 -889q-8 -34 -17 -57t-23.5 -38t-26.5 -23t-37 -12t-41.5 -4.5t-52.5 -0.5zM401 923q-28 -32 -28.5 -69.5t26.5 -56.5q27 -21 68.5 -13t68.5 39q31 34 31.5 73.5t-28.5 59.5q-28 22 -68.5 12.5t-69.5 -45.5z" />
<glyph unicode="&#xe23;" horiz-adv-x="909" d="M623 305l58 253q11 46 -1.5 82.5t-40 59.5t-73 39.5t-90 24.5t-101.5 12.5t-97 5t-87 0.5h-44q58 134 158.5 206t233.5 72q20 0 39.5 -2t32.5 -4t31.5 -6.5t25 -6t26.5 -7.5t23 -7q55 -20 93.5 -17t95.5 43l43 -70q-41 -30 -75 -45.5t-69 -16t-53.5 2.5t-59.5 14 q-3 1 -5 1.5t-5 1t-6 1.5q-4 1 -26.5 8t-30 8.5t-26.5 5.5t-36 5.5t-38 1.5q-64 0 -127.5 -29.5t-101.5 -81.5q74 -3 136.5 -9t139.5 -24.5t127 -46.5t77.5 -79.5t11.5 -118.5l-99 -428q-16 -70 -78.5 -120.5t-133.5 -50.5t-109 50.5t-22 120.5q16 72 77.5 122t132.5 50 q40 0 73 -21zM488 60q38 0 72.5 28t43.5 66q9 40 -12.5 67.5t-59.5 27.5q-39 0 -73 -28t-43 -67q-9 -38 12.5 -66t59.5 -28z" />
<glyph unicode="&#xe24;" horiz-adv-x="1090" d="M121 150l77 333q11 45 35 83.5t50.5 62t51.5 41t41 24.5l17 7l-209 24q3 7 8 19t26 46.5t45.5 66t67 70t90.5 66t116.5 46.5t143.5 19q74 0 131.5 -16t92 -41.5t57.5 -58.5t32.5 -65t12 -64.5t0.5 -52.5t-5 -33l-261 -1137h-94l261 1135q3 13 4.5 35t-7.5 62t-31 72.5 t-75.5 57t-132.5 24.5q-64 0 -121.5 -17.5t-92 -37.5t-69.5 -54t-46 -48t-28 -39l194 -32l-17 -72h-4q-5 -1 -14.5 -3.5t-21.5 -6t-26 -10.5t-28 -15t-28.5 -21t-27 -28.5t-22.5 -36.5t-15 -45l-48 -210q41 21 82 21q71 0 109 -50.5t22 -120.5q-16 -72 -77.5 -121 t-132.5 -49t-110 49.5t-23 120.5zM316 244q-39 0 -74 -27.5t-44 -66.5t12.5 -67t60.5 -28t73 28t43 67q9 40 -12 67t-59 27z" />
<glyph unicode="&#xe25;" horiz-adv-x="1085" d="M736 0l58 251q4 19 5 63t-9.5 110t-34 123.5t-78 98t-131.5 37.5q-36 -2 -73.5 -14.5t-78.5 -37.5t-74.5 -73.5t-48.5 -113.5l-32 -139q33 19 80 19q71 0 108.5 -49.5t21.5 -119.5q-16 -72 -76.5 -121t-131.5 -49t-109.5 49t-22.5 121l68 297q7 29 23 65t49 80.5t76 80.5 t108.5 60.5t141.5 24.5q63 -1 112.5 -21.5t78.5 -50t48.5 -67.5t27 -67.5t10.5 -56.5l49 220q6 26 6.5 53t-6 57t-25 56.5t-46 47.5t-73.5 33.5t-105 12.5q-142 0 -241.5 -70t-132.5 -157l-80 32q23 46 64 91t99 87.5t138.5 68.5t169.5 26q65 0 118 -13.5t88.5 -36 t61.5 -52.5t39.5 -61t20 -63.5t6 -59t-5.5 -48.5l-168 -724h-93zM186 155q-9 -39 13 -67t59 -28q39 0 73 28t43 67t-12 66.5t-60 27.5q-38 0 -72.5 -27.5t-43.5 -66.5z" />
<glyph unicode="&#xe26;" horiz-adv-x="1167" d="M427 510l-84 -360q-16 -71 -78.5 -120.5t-133.5 -49.5t-109 49t-22 121q17 71 78.5 121t131.5 50q39 0 75 -21l41 183q11 45 31 83.5t41.5 62t41.5 41t33 24.5l13 7l-225 24q3 7 8 19t26 46.5t45.5 66t67 70t90.5 66t116.5 46.5t143.5 19q74 0 131.5 -16t92 -41.5 t57.5 -58.5t32.5 -65t12 -64.5t0.5 -52.5t-5 -33l-263 -1138h-94l263 1136q2 8 3 21t-0.5 38t-7.5 49t-23.5 50.5t-43 46.5t-70 33t-101.5 13q-64 0 -121 -17.5t-92 -37.5t-70 -54.5t-45 -48t-28 -38.5l211 -32l-17 -72q-12 -1 -24 -3.5t-32.5 -13t-37 -27t-33 -48.5 t-26.5 -74zM193 244q-39 0 -73 -27.5t-43 -66.5q-9 -40 12 -67.5t59 -27.5q39 0 74 28t44 67t-12.5 66.5t-60.5 27.5z" />
<glyph unicode="&#xe27;" horiz-adv-x="962" d="M681 305l96 414q7 32 8 64t-9.5 68.5t-34 63.5t-71 45t-114.5 18q-73 0 -135.5 -23t-104 -60.5t-68.5 -75t-43 -77.5l-77 31q19 37 45 73t66.5 75.5t88 69t112 48.5t135.5 19q73 0 129.5 -18t89 -48.5t53 -66.5t26.5 -75.5t5.5 -71.5t-6.5 -59l-130 -564 q-16 -72 -76.5 -122t-131.5 -50t-109 50t-22 122q16 70 77.5 119.5t132.5 49.5q45 0 68 -19zM667 155q9 38 -12.5 66t-58.5 28q-38 0 -72.5 -28t-43.5 -66q-9 -40 12 -67.5t59 -27.5q37 0 72 28t44 67z" />
<glyph unicode="&#xe28;" horiz-adv-x="1124" d="M1191 1109q-83 -115 -215 -157q42 -53 55 -117.5t3 -110.5l-167 -724h-94l167 722q4 30 5.5 64t-15 68.5t-42.5 62.5t-78 45.5t-121 17.5q-83 0 -153.5 -26.5t-115.5 -67t-72 -83t-36 -81.5l-70 -304q54 98 154 220.5t154 148.5q103 51 177 8q53 -31 58.5 -97t-39.5 -131 q-47 -63 -120.5 -84t-125.5 12q-43 24 -55 77q-176 -219 -281 -488l-19 -84h-94l167 722q7 32 29 72.5t64.5 88t96.5 86.5t133 65t166 26q97 0 172 -34h9q9 1 23 3t32.5 6t40.5 13t44.5 22t46.5 34.5t45 49.5zM536 686q-24 -33 -21.5 -70t31.5 -55q31 -19 71 -7t66 47 q27 36 24 74t-35 54q-30 17 -69.5 5t-66.5 -48z" />
<glyph unicode="&#xe29;" horiz-adv-x="1208" d="M1285 678q-27 -74 -88 -148t-154 -122l-63 -275q-9 -39 -22.5 -64.5t-26.5 -39.5t-39.5 -20.5t-45.5 -7.5t-61 -1h-556l165 720q-33 -19 -78 -19q-71 0 -109.5 49.5t-22.5 119.5q16 72 77.5 122.5t132.5 50.5t108.5 -50t21.5 -123l-183 -788h463q20 0 30 1t22 5.5t19 15 t11 29.5l54 234q-2 0 -17 -4t-24 -5q-97 -14 -180.5 -1t-136.5 60.5t-44 113.5l3 19q13 56 65 97.5t111 41.5q58 0 88.5 -41t17.5 -98q-15 -69 -84 -113q71 -15 172 2q19 2 48 12l133 573h94l-119 -517q51 37 90.5 87.5t54.5 96.5zM667 474q29 0 55.5 23t33.5 53t-9 50.5 t-46 20.5q-31 0 -58.5 -20.5t-34.5 -50.5t11 -53t48 -23zM333 777q37 0 72 28t44 65q9 39 -13 68.5t-59 29.5q-38 0 -72.5 -29t-43.5 -69q-9 -37 12.5 -65t59.5 -28z" />
<glyph unicode="&#xe2a;" horiz-adv-x="1087" d="M1154 1106q-88 -114 -214 -154q42 -53 55 -117t2 -111l-168 -724h-93l58 251q4 19 5 63t-9.5 110t-34 123.5t-78 98t-131.5 37.5q-36 -2 -73.5 -14.5t-78.5 -37.5t-74.5 -73.5t-48.5 -113.5l-32 -139q33 19 80 19q71 0 108.5 -49.5t21.5 -119.5q-16 -72 -76.5 -121 t-131.5 -49t-109.5 49t-22.5 121l68 297q7 29 23 65t49 80.5t76 80.5t108.5 60.5t141.5 24.5q63 -1 112.5 -21.5t78.5 -50t48.5 -67.5t27 -67.5t10.5 -56.5l49 220q6 26 6.5 53t-6 57t-25 56.5t-46 47.5t-73.5 33.5t-105 12.5q-142 0 -241.5 -70t-132.5 -157l-80 32 q23 46 64 91t99 87.5t138.5 68.5t169.5 26q104 0 172 -31q16 0 32 2t54.5 11.5t79.5 37.5t75 72zM302 249q-38 0 -72.5 -27.5t-43.5 -66.5t13 -67t59 -28q39 0 73 28t43 67t-12 66.5t-60 27.5z" />
<glyph unicode="&#xe2b;" horiz-adv-x="1199" d="M848 0l113 488q15 58 1.5 114t-54.5 82q-54 -15 -134 -91.5t-155.5 -174t-143.5 -193t-109 -160.5l-42 -65h-94l168 724q-41 -21 -84 -21q-71 0 -108.5 49.5t-21.5 119.5q16 72 77 122t132 50t110 -50t23 -122l-151 -652q11 16 30 44t75 103.5t110 138.5t124 128.5 t127 95.5q-30 22 -41 59.5t-1 82.5q17 71 77.5 121.5t130.5 50.5t109 -50.5t22 -121.5q-11 -47 -46.5 -88t-82.5 -65q82 -78 47 -231l-112 -488h-96zM331 778q39 0 75 28t45 66q9 41 -14 69t-62 28t-73 -28t-43 -69q-9 -38 12.5 -66t59.5 -28zM945 778q41 0 76 27.5t44 66.5 q9 41 -12.5 69t-62.5 28q-39 0 -73 -28t-43 -69q-9 -38 12 -66t59 -28z" />
<glyph unicode="&#xe2c;" horiz-adv-x="1307" d="M333 782q40 0 73.5 26.5t42.5 67.5q9 37 -13 65t-61 28t-73 -28t-43 -65q-9 -41 12.5 -67.5t61.5 -26.5zM1150 874q-62 -49 -131 -46.5t-106 53.5q-38 50 -22 119.5t78 119.5q64 49 135 48.5t108 -50.5q20 -37 24 -70q4 3 11 8.5t25 23.5t33 37t29.5 49t20.5 61l87 -24 q-3 -37 -58 -115t-135 -134q3 -22 3 -40.5t-2 -29.5l-2 -12l-202 -872h-104l-148 683l-466 -683h-99l167 722q-43 -19 -82 -19q-70 0 -107.5 51t-22.5 122q16 70 77 118.5t132 48.5t109 -48.5t22 -118.5l-154 -666l437 626h46l147 -626l150 650q2 7 0 14zM1012 1065 q-34 -27 -43 -65.5t11 -67.5q22 -29 60 -30t73 26q35 29 43.5 67t-13.5 67q-20 29 -58 30t-73 -27z" />
<glyph unicode="&#xe2d;" horiz-adv-x="1104" d="M294 753l-79 32q23 46 64.5 91t100 87.5t139.5 68.5t169 26q65 0 118.5 -13.5t88.5 -36t61 -52.5t39.5 -61t19.5 -63.5t5.5 -59t-5.5 -48.5l-136 -591q-7 -28 -15.5 -49t-16.5 -35.5t-23 -23.5t-25.5 -14.5t-32.5 -7.5t-36 -2.5t-44 -0.5h-572l125 543q16 71 77.5 120 t132.5 49t109 -48.5t22 -120.5q-15 -70 -77 -120.5t-133 -50.5q-45 0 -68 19l-72 -309h475q20 0 29 1t21 5.5t19 15.5t11 29l135 587q6 26 6.5 53t-6 57t-25 56.5t-46 47.5t-73.5 33.5t-105 12.5q-141 0 -242.5 -70.5t-134.5 -156.5zM316 543q-9 -38 13.5 -66t59.5 -28 q38 0 71.5 28t42.5 66q10 39 -11 67t-60 28q-37 0 -71.5 -28t-44.5 -67z" />
<glyph unicode="&#xe2e;" horiz-adv-x="1095" d="M870 891q-65 86 -220 89q-75 0 -150 -22t-117.5 -48.5t-46.5 -44.5q-1 -8 12 -16t39 -14.5t59 -11.5t73.5 -7.5t81.5 -1.5q164 3 269 77zM981 887q32 -91 16 -163l-137 -591q-9 -40 -22.5 -65t-26.5 -39t-39.5 -20.5t-45.5 -7.5t-62 -1h-570l116 500q16 72 78.5 122 t133.5 50q70 0 107.5 -50t20.5 -122q-16 -70 -76 -118.5t-131 -48.5q-49 0 -72 17l-59 -265h472q28 0 40 1.5t24.5 12.5t17.5 34l137 589q11 47 0 102q-140 -84 -318 -88q-181 -4 -266.5 24t-69.5 100q19 80 137.5 139.5t280.5 58.5q183 0 272 -104q11 11 21 23t18 22.5 t15.5 21.5t13 20t10 17t7.5 14t5 10.5t3 6.5l1 2l73 -43q-10 -24 -49 -77q-35 -46 -76 -84zM288 500q-9 -38 12.5 -66t59.5 -28q37 0 72 28t44 66q9 39 -13 67.5t-59 28.5q-38 0 -72.5 -28t-43.5 -68z" />
<glyph unicode="&#xe2f;" horiz-adv-x="1054" d="M276 737q-27 25 -38 62t-1 78q15 70 75.5 118.5t131.5 48.5t110.5 -48.5t24.5 -118.5q-16 -66 -86 -123q66 0 109 7q97 16 188 100.5t115 162.5h95l-237 -1024h-96l191 824q-113 -113 -267 -143q-92 -19 -177.5 -3t-137.5 59zM384 783q40 0 74.5 27.5t43.5 66.5 q9 38 -13 66t-62 28q-38 0 -72 -28t-43 -66q-9 -39 12 -66.5t60 -27.5z" />
<glyph unicode="&#xe30;" horiz-adv-x="933" d="M213 684q-60 60 -39 142q15 70 75.5 118.5t131.5 48.5t110 -48.5t24 -118.5q-16 -67 -85 -123q66 0 109 7q97 16 187.5 100t114.5 163l75 -12q-16 -46 -47 -94.5t-78 -97t-116 -86.5t-148 -53q-92 -19 -177 -3.5t-137 57.5zM321 732q40 0 74.5 27.5t43.5 66.5 q9 38 -13 66t-62 28q-38 0 -72 -28t-43 -66q-9 -39 12 -66.5t60 -27.5zM77 96q-27 25 -38 62t-1 78q17 71 76.5 119t129.5 48q71 0 111 -48.5t24 -118.5q-16 -67 -85 -123q72 0 109 6q97 16 187.5 100t114.5 163l75 -12q-16 -46 -47 -94.5t-78 -97t-116 -86.5t-148 -53 q-92 -18 -177 -2t-137 59zM184 142q40 0 74.5 27.5t43.5 66.5q9 38 -12 65.5t-61 27.5q-38 0 -72.5 -27.5t-43.5 -65.5q-9 -40 12 -67t59 -27z" />
<glyph unicode="&#xe31;" d="M-189 1295q71 -15 172 2q100 16 187.5 94.5t112.5 158.5l74 -14q-16 -45 -46 -91t-76.5 -92.5t-114.5 -83t-147 -52.5q-98 -14 -182.5 -1t-137.5 60t-44 113l4 19q14 57 65 98.5t110 41.5t89.5 -41.5t16.5 -98.5q-15 -70 -83 -113zM-261 1333q29 0 55.5 22.5t33.5 52.5 t-9 51t-46 21q-31 0 -59 -21t-35 -51q-7 -29 11 -52t49 -23z" />
<glyph unicode="&#xe32;" horiz-adv-x="904" d="M201 744l-73 34q23 44 40.5 72.5t55 72.5t76.5 70.5t100.5 46.5t133.5 20q87 0 148 -26.5t90 -64.5t41.5 -87t11.5 -87.5t-9 -72.5l-167 -722h-96l167 722q8 34 10 64.5t-6 67.5t-29.5 63.5t-66.5 44.5t-111 18q-61 0 -111 -17t-80.5 -39t-58 -59t-39.5 -61t-27 -60z" />
<glyph unicode="&#xe33;" horiz-adv-x="904" d="M201 744l-73 34q23 44 40.5 72.5t55 72.5t76.5 70.5t100.5 46.5t133.5 20q87 0 148 -26.5t90 -64.5t41.5 -87t11.5 -87.5t-9 -72.5l-167 -722h-96l167 722q8 34 10 64.5t-6 67.5t-29.5 63.5t-66.5 44.5t-111 18q-61 0 -111 -17t-80.5 -39t-58 -59t-39.5 -61t-27 -60z M-60 1531q71 0 109.5 -50.5t22.5 -120.5t-77.5 -119.5t-132.5 -49.5t-109.5 49.5t-22.5 119.5q17 71 78.5 121t131.5 50zM-121 1266q39 0 73 27.5t43 66.5t-12 66.5t-60 27.5q-38 0 -72.5 -28t-43.5 -66t12.5 -66t59.5 -28z" />
<glyph unicode="&#xe34;" d="M-410 1521q76 15 156 -1t146.5 -57t105.5 -116t31 -169q-142 32 -253 46.5t-252 12t-297 -29.5q96 262 363 314zM-635 1300q109 12 219.5 9.5t184.5 -10.5t171 -24q-18 46 -50.5 80.5t-71 54t-82.5 29t-85.5 8.5t-80.5 -10q-130 -30 -205 -137z" />
<glyph unicode="&#xe35;" d="M-410 1521q99 19 202.5 -11.5t166.5 -104.5l48 206h94l-77 -334q10 -43 5 -99q-142 32 -253 46.5t-252 12t-297 -29.5q96 262 363 314zM-635 1300q109 12 219.5 9.5t184.5 -10.5t171 -24q-18 46 -50.5 80.5t-71 54t-82.5 29t-85.5 8.5t-80.5 -10q-130 -30 -205 -137z" />
<glyph unicode="&#xe36;" d="M29 1635q60 0 94 -43.5t20 -103.5q-11 -50 -51 -90t-90 -53q36 -78 29 -166q-143 32 -254 46.5t-252.5 12t-297.5 -29.5q96 262 363 314q140 25 258 -32q14 59 67.5 102t113.5 43zM-635 1302q109 12 220 9.5t185.5 -10.5t171.5 -24q-19 46 -51.5 80.5t-71 54t-82 29 t-85 8.5t-80.5 -10q-132 -30 -207 -137zM-22 1415q31 0 58 21.5t34 51.5q7 31 -10 53t-48 22q-29 0 -56.5 -22t-34.5 -53q-7 -30 10 -51.5t47 -21.5z" />
<glyph unicode="&#xe37;" d="M-410 1522q113 22 221 -18l25 109h94l-34 -150q27 -19 63 -57l48 207h94l-77 -335q10 -44 7 -99q-143 32 -254 46.5t-252.5 12t-297.5 -29.5q96 262 363 314zM-635 1302q109 12 220 9.5t185.5 -10.5t171.5 -24q-19 46 -51.5 80.5t-71 54t-82 29t-85 8.5t-80.5 -10 q-132 -30 -207 -137z" />
<glyph unicode="&#xe38;" d="M-435 -138q61 0 94.5 -42t19.5 -103l-80 -343h-94l48 206q-19 -8 -55 -8q-59 0 -91 42.5t-18 102.5q14 61 65 103t111 42zM-541 -283q-7 -30 9.5 -52.5t46.5 -22.5q33 0 60.5 22t35.5 53q7 32 -11 54t-51 22q-30 0 -56.5 -22t-33.5 -54z" />
<glyph unicode="&#xe39;" d="M-657 -544h111q20 0 30 1t22 5.5t19 15t11 29.5l78 339h94l-78 -339q-9 -39 -22.5 -64.5t-26.5 -39.5t-39.5 -20.5t-45.5 -7.5t-61 -1h-205l48 206q-19 -8 -55 -8q-59 0 -91 42.5t-18 102.5q14 61 65 103t111 42q61 0 94.5 -42t19.5 -103zM-816 -283q-7 -30 10 -52.5 t47 -22.5q33 0 60 22t35 53q7 32 -10.5 54t-50.5 22q-30 0 -57 -22t-34 -54z" />
<glyph unicode="&#xe3a;" d="M-362 -119q30 0 48.5 -24.5t11.5 -54.5q-7 -32 -37 -56t-60 -24q-31 0 -50 24t-12 56q7 31 37.5 55t61.5 24z" />
<glyph unicode="&#xe3f;" horiz-adv-x="1099" d="M476 0l-37 -166h-93l38 166h-333l316 1365h333l34 152h92l-36 -153q161 -7 231.5 -99t34.5 -255q-48 -207 -201 -291q187 -79 125 -347q-44 -193 -178 -288.5t-316 -83.5h-10zM497 92h10q56 0 96 4t88.5 20.5t82.5 45.5t65 82t48 128q12 53 12.5 95t-8.5 71.5t-28.5 51.5 t-43 35t-56.5 21t-64.5 10.5t-70.5 2.5zM295 659l-131 -567h240l132 567h-241zM437 1273l-120 -517h241l120 517h-241zM964 1010q30 132 -20 194t-174 67l-120 -515q256 5 314 254z" />
<glyph unicode="&#xe40;" horiz-adv-x="595" d="M329 249q-37 0 -72 -28.5t-44 -65.5q-9 -39 13 -68t59 -29q38 0 72.5 28.5t43.5 68.5q9 37 -12.5 65.5t-59.5 28.5zM340 1026h93l-167 -721q35 19 80 19q71 0 109.5 -49.5t22.5 -119.5q-16 -72 -77.5 -122t-132.5 -50t-108.5 49.5t-21.5 122.5z" />
<glyph unicode="&#xe41;" horiz-adv-x="1039" d="M790 249q-37 0 -72 -28.5t-44 -65.5q-9 -39 13 -68t59 -29q38 0 72.5 28.5t43.5 68.5q9 37 -12.5 65.5t-59.5 28.5zM800 1026h94l-167 -721q35 19 80 19q71 0 109.5 -49.5t22.5 -119.5q-16 -72 -77.5 -122t-132.5 -50t-108.5 49.5t-21.5 122.5zM329 249q-37 0 -72 -28.5 t-44 -65.5q-9 -39 13 -68t59 -29q38 0 72.5 28.5t43.5 68.5q9 37 -12.5 65.5t-59.5 28.5zM340 1026h93l-167 -721q35 19 80 19q71 0 109.5 -49.5t22.5 -119.5q-16 -72 -77.5 -122t-132.5 -50t-108.5 49.5t-21.5 122.5z" />
<glyph unicode="&#xe42;" horiz-adv-x="684" d="M430 249q-37 0 -72 -28.5t-44 -65.5q-9 -39 13 -68t59 -29q38 0 72.5 28.5t43.5 68.5q9 37 -12.5 65.5t-59.5 28.5zM239 155l280 1215q4 24 -13.5 44.5t-54.5 36t-65.5 24.5t-73 20t-49.5 12q152 216 346 203q74 -6 164 -39q68 -26 113.5 -23.5t93.5 43.5l53 -66 q-43 -35 -83 -52t-81.5 -15.5t-68 8t-71.5 21.5q-91 31 -147 34q-91 8 -171 -59q21 -6 37.5 -11.5t37 -13.5t34.5 -15t31 -17t26.5 -20t20.5 -23t13.5 -26.5t5.5 -30.5t-4 -35l-246 -1065q35 19 80 19q71 0 109.5 -49.5t22.5 -119.5q-16 -72 -77.5 -122t-132.5 -50 t-108.5 49.5t-21.5 122.5z" />
<glyph unicode="&#xe43;" horiz-adv-x="786" d="M555 324q71 0 109 -49.5t22 -119.5q-16 -72 -77.5 -122t-132.5 -50t-108.5 49.5t-21.5 122.5l309 1340q13 59 -13.5 99.5t-107.5 40.5q-116 0 -167 -113q27 11 51 11q60 0 93.5 -42.5t19.5 -101.5q-14 -61 -66.5 -104t-112.5 -43q-50 0 -82 32t-34 81q0 74 29 147 q36 94 114.5 156t175.5 62q107 0 162.5 -62t31.5 -163l-275 -1190q35 19 81 19zM403 1464q-31 0 -58 -22t-34 -53q-7 -33 9 -55.5t47 -22.5t59 22.5t35 55.5q7 31 -10 53t-48 22zM493 58q38 0 72.5 28.5t43.5 68.5q9 37 -12 65.5t-59 28.5q-37 0 -72 -28.5t-44 -65.5 q-9 -39 12.5 -68t58.5 -29z" />
<glyph unicode="&#xe44;" horiz-adv-x="721" d="M490 324q71 0 109 -49.5t22 -119.5q-16 -72 -77.5 -122t-132.5 -50t-108 49.5t-21 122.5l339 1470l-203 -347h-89q7 312 -25 406l78 47q8 -24 13.5 -72.5t6.5 -87.5t2 -104.5t2 -82.5l191 328h26h14t16.5 -1.5t17.5 -4t17 -7t14.5 -12t10 -18t4 -25t-4.5 -33.5 l-302 -1306q35 19 80 19zM428 58q38 0 72.5 28.5t43.5 68.5q9 37 -12 65.5t-59 28.5q-37 0 -72 -28.5t-44 -65.5q-9 -39 12.5 -68t58.5 -29z" />
<glyph unicode="&#xe45;" horiz-adv-x="904" d="M201 744l-73 34q23 44 40.5 72.5t55 72.5t76.5 70.5t100.5 46.5t133.5 20q87 0 148 -26.5t90 -64.5t41.5 -87t11.5 -87.5t-9 -72.5l-263 -1133h-96l263 1133q8 34 10 64.5t-6 67.5t-29.5 63.5t-66.5 44.5t-111 18q-61 0 -111 -17t-80.5 -39t-58 -59t-39.5 -61t-27 -60z " />
<glyph unicode="&#xe46;" horiz-adv-x="1298" d="M1157 719l-208 -903q-26 -96 -331 -263l-29 70q31 13 145 91.5t123 116.5l198 857q9 39 12.5 65.5t2 53.5t-11 46.5t-29 38.5t-49.5 36l-171 -92l-126 94q-131 -59 -180 -174q50 26 96 26q70 0 108 -50t23 -121q-16 -70 -77 -119.5t-132 -49.5q-51 0 -88.5 29.5 t-46.5 76.5q-11 51 10 140q33 139 106.5 213t209.5 128l121 -89l162 89q104 -51 144.5 -119t17.5 -191zM580 705q-38 0 -71.5 -28t-42.5 -66t12.5 -66t59.5 -28q39 0 73 27.5t43 66.5q9 38 -12.5 66t-61.5 28z" />
<glyph unicode="&#xe47;" d="M-258 1304q0 13 2 22q10 45 50 76.5t85 31.5t69 -31.5t14 -76.5q-11 -48 -53 -85.5t-95 -37.5q-37 0 -76.5 24.5t-74.5 49.5t-61 25q-60 0 -88 -83h-77q-39 18 -64.5 70.5t-12.5 106.5q18 76 99.5 131t165.5 55q34 0 94 -4.5t94.5 -5t75.5 7t65.5 33t35.5 70.5l78 -31 q-19 -43 -42.5 -73t-53.5 -46t-58.5 -25t-69 -10t-72.5 0.5t-81.5 4t-83.5 2.5q-47 0 -99 -31.5t-63 -77.5q-15 -60 46 -102q27 43 55 64t75 21q20 -1 43 -14t34 -22.5t44 -38.5zM-159 1270q23 0 42.5 16t24.5 38q7 24 -5.5 40.5t-35.5 16.5t-42 -16.5t-26 -40.5 q-5 -22 7 -38t35 -16z" />
<glyph unicode="&#xe48;" d="M123 1707h-94l72 310h94z" />
<glyph unicode="&#xe49;" d="M-101 1896q31 0 58 20.5t34 52.5q8 31 -8.5 53.5t-47.5 22.5q-32 0 -59 -22.5t-35 -53.5q-7 -32 9.5 -52.5t48.5 -20.5zM56 1969q-8 -42 -31.5 -89.5t-42.5 -74.5l-20 -27q126 17 242 106t154 200l74 -24q-15 -39 -42.5 -82.5t-83 -98t-125.5 -96.5t-177 -71t-231 -29 l9 39q49 13 85 42.5t48 70.5q-23 -5 -31 -5q-59 0 -90.5 40t-18.5 99q14 59 64.5 99.5t109.5 40.5q57 0 89 -40.5t18 -99.5z" />
<glyph unicode="&#xe4a;" d="M-410 1772q-2 36 8.5 80t34.5 93.5t72.5 97t113.5 78.5l113 -80l155 80q39 -19 63.5 -49t32 -63t7.5 -61.5t-6 -54.5q-8 -34 -29 -72l-12 -27l12 15q24 24 45 49.5t37 48.5t29.5 46t23 43.5t17 38t12 33.5t7.5 26t5 18l2 8h80q-3 -14 -5.5 -25t-16.5 -52.5t-30 -75 t-47 -82t-67 -85t-90 -72t-116 -54.5l-39 36q25 23 57 79t42 99q10 54 3 79t-37 59l-154 -68l-116 68q-22 -11 -45 -36.5t-37 -50.5q24 8 49 8q59 0 90.5 -40.5t17.5 -99.5q-13 -58 -63 -99.5t-109 -41.5q-48 0 -78 30.5t-32 75.5zM-251 1881q-31 0 -56.5 -20.5t-32.5 -51.5 q-7 -32 9.5 -53.5t47.5 -21.5q30 0 56.5 21.5t33.5 53.5q7 30 -10.5 51t-47.5 21z" />
<glyph unicode="&#xe4b;" d="M123 1707h-94l32 141h-141l22 94h142l32 142h94l-33 -142h142l-22 -94h-142z" />
<glyph unicode="&#xe4c;" d="M459 2070q-19 -46 -43 -81.5t-55.5 -60.5t-60.5 -42t-72 -30.5t-75 -20.5t-85 -17q50 -42 34 -118q-14 -59 -65 -100.5t-110 -41.5t-90.5 42.5t-17.5 101.5q14 56 62 107q65 69 163 84q11 2 45 8.5t48.5 9.5t45.5 11.5t48 17t43 22.5t42.5 31t34 41t30.5 53zM-55 1632 q27 -2 53 19t33 49q7 29 -9.5 49.5t-45.5 20.5t-53.5 -20t-31.5 -48q-7 -29 9 -49.5t45 -20.5z" />
<glyph unicode="&#xe4d;" d="M-60 1531q71 0 109.5 -50.5t22.5 -120.5t-77.5 -119.5t-132.5 -49.5t-109.5 49.5t-22.5 119.5q17 71 78.5 121t131.5 50zM-121 1266q39 0 73 27.5t43 66.5t-12 66.5t-60 27.5q-38 0 -72.5 -28t-43.5 -66t12.5 -66t59.5 -28z" />
<glyph unicode="&#xe4e;" d="M0 1466l-3 70q-72 -20 -161 -9q-56 7 -85 27.5t-22 49.5q21 84 111 84q14 0 98.5 -10t150 -0.5t126.5 49.5l7 46q-57 -30 -121 -35t-140.5 5t-98.5 10q-174 0 -208 -149q-14 -62 23 -99q-149 -40 -175 -150q-10 -46 7 -78.5t54.5 -48t75 -22t79.5 -6.5q70 0 130 15l-3 72 q-45 -12 -110 -12q-80 0 -123.5 21.5t-36.5 58.5q10 45 87 75t162 22q8 -1 46 -1q8 0 23 0.5t22 0.5h3q43 3 82 14z" />
<glyph unicode="&#xe4f;" horiz-adv-x="1058" d="M626 872q106 0 184.5 -54.5t110 -144.5t7.5 -193q-24 -106 -99.5 -196.5t-178 -142.5t-205.5 -52q-159 0 -247 116t-51 276q24 106 98.5 196.5t176.5 142.5t204 52zM469 193q122 0 226 85t131 203q28 120 -39.5 203.5t-184.5 83.5q-120 0 -223 -85t-130 -202 q-28 -122 37 -205t183 -83zM570 631q63 0 97.5 -45t20.5 -105q-14 -63 -68.5 -107.5t-117.5 -44.5q-61 0 -95 44.5t-20 107.5q15 64 67.5 107t115.5 43z" />
<glyph unicode="&#xe50;" horiz-adv-x="1245" d="M519 -14q-102 -1 -184.5 25.5t-138.5 80.5t-75 135t5 189q25 107 82.5 190.5t137.5 135t174.5 78.5t198.5 27q215 0 325 -111.5t62 -319.5q-48 -205 -212.5 -321.5t-374.5 -108.5zM696 754q-115 1 -210.5 -32.5t-168 -111.5t-99.5 -194q-18 -90 -3.5 -153.5t62 -104.5 t113.5 -60t151 -19q116 0 209.5 32.5t165.5 110t98 194.5q19 90 5 154t-60.5 105.5t-112 60.5t-150.5 18z" />
<glyph unicode="&#xe51;" horiz-adv-x="1245" d="M717 848q105 0 187 -25t141.5 -78t77.5 -135.5t-5 -198.5q-17 -73 -39.5 -133.5t-54 -110t-58 -84.5t-70.5 -74t-70.5 -59.5t-77.5 -58.5l-47 68l4 2q137 94 211 195t110 255q78 345 -331 345q-194 0 -321 -83.5t-167 -261.5q-77 -326 244 -326q49 0 96.5 31.5t72.5 76.5 q-29 -10 -62 -10q-71 0 -109 49.5t-22 119.5q15 70 77 120t133 50q74 0 109 -53t13 -152q-12 -52 -37.5 -105.5t-65.5 -104t-99.5 -82.5t-128.5 -32q-197 0 -279 107.5t-35 310.5q49 214 210.5 325.5t392.5 111.5zM503 352q-9 -38 12.5 -66t59.5 -28q39 0 73 27.5t43 66.5 q8 39 -13 66t-60 27t-73.5 -27.5t-41.5 -65.5z" />
<glyph unicode="&#xe52;" horiz-adv-x="1245" d="M353 951l-187 -808q-3 -11 -3 -19t1.5 -13.5t6 -9t8 -5.5t12.5 -3t14.5 -1h16.5h587q61 0 123.5 46.5t76.5 108.5l66 284l3 21q18 107 9 145q-16 62 -106 62q-66 0 -116 -83q-13 -18 -22.5 -39t-12.5 -33l-4 -12l-14 -44l-92 2l10 42q7 45 -3 86q-3 29 -12.5 47t-23 24.5 t-20.5 8t-17 1.5q-55 0 -82 -10q-97 -36 -137 -208q-4 -20 -10 -52t-7 -38q71 68 155 68q69 0 108.5 -50.5t23.5 -120.5t-78.5 -119.5t-131.5 -49.5q-56 0 -99 29t-60 77q-33 86 7 256q16 69 40.5 122t63 97.5t96 68t131.5 23.5q106 0 140 -108q79 108 188 108 q246 0 164 -328l-65 -277q-12 -65 -64 -124t-120.5 -92t-128.5 -31h-580q-37 0 -53.5 0.5t-39.5 4.5t-31 12t-15.5 23t-6 38t9.5 57l187 814q1 1 0 11t-1 24t-6.5 31.5t-16 34.5t-30 33t-48.5 26l55 86q73 -29 113.5 -97.5t27.5 -146.5zM556 442q-38 0 -73 -28t-44 -66 t13 -66t60 -28t71.5 28t42.5 66t-11.5 66t-58.5 28z" />
<glyph unicode="&#xe53;" horiz-adv-x="1245" d="M923 847q65 0 111 -24.5t70 -65t32.5 -96.5t4 -115t-19.5 -124q-32 -138 -85.5 -241.5t-148.5 -197.5l-40 61q72 79 112.5 167t69.5 211q75 332 -128 332q-79 0 -136 -90q-16 -23 -29.5 -49.5t-18.5 -41.5l-5 -15l-128 -556h-92l128 556q10 55 -2 106q-10 44 -40.5 67 t-72.5 23q-66 0 -118 -27t-86 -76.5t-56 -104t-38 -124.5q-24 -109 -28 -166q64 67 149 67q69 0 107.5 -50.5t23.5 -120.5q-16 -70 -78.5 -119.5t-131.5 -49.5q-62 0 -107 36.5t-58 94.5q-19 98 30 308q20 88 52.5 160.5t81.5 134t120.5 96t158.5 34.5q64 0 112 -34t62 -93 q95 127 222 127zM309 246q-39 0 -74 -28t-42 -66q-9 -38 13 -66t60 -28t72 28t43 66q8 39 -13 66.5t-59 27.5z" />
<glyph unicode="&#xe54;" horiz-adv-x="1245" d="M174 427q-13 -65 -12.5 -115.5t21 -87.5t51 -62.5t76.5 -41t98 -22t116 -6.5h131q-100 53 -158 141.5t-33 193.5q15 70 77 120t133 50q70 0 108.5 -49.5t23.5 -120.5q-16 -70 -77 -118.5t-132 -50.5q46 -57 121.5 -96t126.5 -51.5t85 -14.5h94l-22 -96h-499 q-92 0 -165.5 14.5t-132.5 46t-92 81.5t-43.5 121t12.5 164q44 193 212 301t402 108h275q111 0 187 87.5t113 230.5h93q-25 -108 -80.5 -199.5t-143.5 -151t-189 -59.5h-275q-129 0 -231.5 -33t-174.5 -105.5t-96 -178.5zM655 521q-38 0 -71.5 -28t-42.5 -66t12.5 -66 t59.5 -28q39 0 73 27.5t43 66.5q9 38 -12.5 66t-61.5 28z" />
<glyph unicode="&#xe55;" horiz-adv-x="1245" d="M174 427q-13 -65 -12.5 -115.5t21 -87.5t51 -62.5t76.5 -41t98 -22t116 -6.5h131q-100 53 -158 141.5t-33 193.5q15 70 77 120t133 50q70 0 108.5 -49.5t23.5 -120.5q-16 -70 -77 -118.5t-132 -50.5q46 -57 117 -96t118.5 -51.5t80.5 -14.5h111l-22 -96h-499 q-92 0 -165.5 14.5t-132.5 46t-92 81.5t-43.5 121t12.5 164q41 179 194.5 286.5t361.5 122.5q-19 38 -5 92q15 69 77.5 120t132.5 51t108.5 -50.5t23.5 -120.5q-13 -49 -48 -92h44q112 0 189.5 88.5t110.5 229.5h93q-25 -108 -80.5 -199.5t-143.5 -151t-189 -59.5h-275 q-125 0 -227 -32.5t-176.5 -105.5t-98.5 -179zM541 427q-9 -38 12.5 -66t59.5 -28q39 0 73 27.5t43 66.5q9 38 -12.5 66t-61.5 28q-38 0 -71.5 -28t-42.5 -66zM710 928q-9 -38 12.5 -66.5t59.5 -28.5q39 0 73 28t43 67q9 38 -12.5 65.5t-61.5 27.5q-38 0 -71.5 -27.5 t-42.5 -65.5z" />
<glyph unicode="&#xe56;" horiz-adv-x="1245" d="M741 847q230 0 319.5 -118t42.5 -319q-48 -206 -208.5 -316.5t-387.5 -110.5q-164 0 -245.5 76t-49.5 214q21 93 82 148t134 55q71 0 109.5 -50.5t22.5 -120.5q-15 -70 -77 -119t-133 -49q-16 0 -17 1q52 -63 194 -63q186 0 316 86.5t167 248.5q41 178 -32.5 261 t-258.5 83q-46 0 -101.5 -10.5t-110 -29t-94.5 -50t-49 -68.5l-2 -4h-94q5 24 17 72.5t21.5 86t17.5 88.5t8.5 89t-8.5 78.5t-30 66t-60.5 42t-95.5 15.5l55 89q111 -11 168.5 -71t61.5 -159t-25 -233l-4 -20q64 51 163 81t184 30zM411 399q-38 0 -72.5 -28t-43.5 -66 t13 -65.5t61 -27.5t72 27t42 66t-12 66.5t-60 27.5z" />
<glyph unicode="&#xe57;" horiz-adv-x="1280" d="M1456 1123l46 -67q-147 -87 -217 -389q-101 -437 -281 -590q-28 -24 -57.5 -41.5t-56 -27t-51 -15.5t-46.5 -7.5t-36 -1.5t-27 1l-13 1l-22 62q141 212 184 394q10 42 15 73t8.5 70.5t-2 66.5t-18.5 52t-40 37.5t-67 12.5q-70 0 -126 -109q-16 -30 -30 -63t-19 -52 l-6 -18l-10 -46l-92 2l10 44q2 8 4 20t5.5 49.5t-2.5 63.5q-4 31 -10.5 52t-23 39t-42.5 18q-50 0 -91.5 -21.5t-68.5 -52.5t-49.5 -78.5t-35 -87.5t-24.5 -91q-18 -83 -27 -162q69 63 146 63q71 0 109.5 -50.5t23.5 -121.5q-17 -71 -78 -120t-133 -49q-57 0 -99 36t-57 92 q-25 101 23 312q100 424 384 424q56 0 93.5 -36t46.5 -92q36 56 90.5 92t110.5 36t96.5 -16t61.5 -46.5t32 -67t10 -85t-7.5 -93t-18.5 -97.5q-17 -70 -43.5 -140.5t-41.5 -102t-58 -119.5q2 2 5 2q68 9 123 58q150 136 239 527q80 341 261 456zM265 246q-38 0 -73 -28 t-42 -66q-9 -38 12.5 -66t59.5 -28q41 0 75 27.5t43 66.5q8 39 -13 66.5t-62 27.5z" />
<glyph unicode="&#xe58;" horiz-adv-x="1245" d="M693 741q-111 0 -208.5 -33.5t-175 -110t-102.5 -186.5q-20 -88 -18 -154t38.5 -110.5t108.5 -62.5q-11 83 52 164t156 81q12 0 23.5 -2.5t20.5 -4.5t19.5 -9t16 -10.5t15 -14.5t13.5 -14.5t13 -18t11.5 -18t12.5 -20t12 -19.5q3 -6 13.5 -23t14 -23t13 -19.5t14.5 -19 t14.5 -14.5t17.5 -12.5t18.5 -6.5t22.5 -3q95 0 144 157q-42 -16 -74 -16q-70 0 -109 49t-24 120q17 71 78.5 121t131.5 50t107.5 -50t24.5 -121q-65 -402 -299 -402q-19 0 -37 4.5t-30.5 8.5t-28 17.5t-22.5 18.5t-22 25l-18 24t-18.5 28t-16.5 26q-6 9 -17.5 29t-17.5 29 t-16 21t-20.5 16.5t-22.5 4.5q-39 0 -62 -31.5t-24.5 -73t6.5 -81.5l14 -66h-70q-186 0 -252 114.5t-20 311.5q29 128 119 225.5t215.5 147.5t266.5 49h273q70 0 137 51t111 123.5t63 149.5l90 -7q-17 -74 -58.5 -146.5t-97 -130.5t-126 -94.5t-141.5 -37.5h-273zM916 294 q39 0 72.5 27t42.5 66t-12 66.5t-60 27.5q-38 0 -72.5 -28t-43.5 -66t13 -65.5t60 -27.5z" />
<glyph unicode="&#xe59;" horiz-adv-x="1245" d="M1391 1125q-90 -575 -326 -575q-53 0 -81.5 30t-46.5 84q-17 47 -26.5 60.5t-33.5 11.5q-51 -6 -73 -78t-17 -162.5t27 -171.5q31 -136 106 -201q20 -17 43.5 -30t37.5 -17l14 -4l-40 -91l-2 1q-106 33 -171 123q-24 33 -39 71q-53 124 -82 271q-11 58 -24 102.5t-36 92 t-59.5 73.5t-83.5 26q-65 0 -115.5 -26t-83.5 -74.5t-53.5 -101t-36.5 -121.5q-20 -81 -15.5 -144.5t23.5 -105.5t50 -66q-17 44 -5 89q15 69 77 119t133 50q70 0 108.5 -50t23.5 -119q-12 -54 -53 -99.5t-93 -69.5t-108.5 -33.5t-99.5 8.5q-55 20 -90 64.5t-48 103.5 t-11.5 123t16.5 130q19 86 51 157.5t79.5 131t117 93t155.5 33.5q82 0 136 -49t74 -134q17 71 61.5 121.5t115.5 56.5t108 -53q9 -15 32 -67q17 -38 28.5 -52t31.5 -14q44 0 86.5 69t68 155.5t40.5 158.5t13 84zM433 283q-38 0 -71.5 -27t-42.5 -65t12.5 -66.5t59.5 -28.5 q39 0 73 28t43 67q9 38 -12.5 65t-61.5 27z" />
<glyph unicode="&#xe5a;" horiz-adv-x="1326" d="M1193 1024h96l-238 -1024h-95zM276 737q-27 25 -38 62t-1 78q15 70 75.5 118.5t131.5 48.5t110.5 -48.5t24.5 -118.5q-16 -66 -86 -123q66 0 109 7q97 16 188 100.5t115 162.5h95l-237 -1024h-96l191 824q-113 -113 -267 -143q-92 -19 -177.5 -3t-137.5 59zM384 783 q40 0 74.5 27.5t43.5 66.5q9 38 -13 66t-62 28q-38 0 -72 -28t-43 -66q-9 -39 12 -66.5t60 -27.5z" />
<glyph unicode="&#xe5b;" horiz-adv-x="1752" d="M1265 567l-120 -128l-44 128l-128 -185l-29 186l-128 -213l-57 195q-64 -184 -175 -291t-231 -107q-116 0 -173 105.5t-23 274.5q38 166 126.5 267.5t196.5 101.5q88 0 126 -69.5t12 -177.5q-22 -108 -89 -168q-49 -49 -102 -49q-48 0 -70 37t-9 94q12 54 51.5 93 t88.5 39q43 0 55 -26q18 74 -5 115.5t-75 41.5q-70 0 -133.5 -77t-92.5 -196q-34 -149 4 -241.5t128 -92.5q108 0 209.5 125.5t146.5 322.5l7 28l7 42l43 -22l61 -211l137 237l37 -207l109 154l52 -140l78 80l159 2q140 -4 215 20q-77 -62 -227 -88h-138zM408 568 q-7 -28 2.5 -47t29.5 -19q24 0 42 18.5t25 47.5q7 30 -2.5 49.5t-33.5 19.5q-20 0 -38 -20t-25 -49z" />
<glyph unicode="&#x2000;" horiz-adv-x="1066" />
<glyph unicode="&#x2001;" horiz-adv-x="2132" />
<glyph unicode="&#x2002;" horiz-adv-x="1066" />
<glyph unicode="&#x2003;" horiz-adv-x="2132" />
<glyph unicode="&#x2004;" horiz-adv-x="710" />
<glyph unicode="&#x2005;" horiz-adv-x="533" />
<glyph unicode="&#x2006;" horiz-adv-x="355" />
<glyph unicode="&#x2007;" horiz-adv-x="355" />
<glyph unicode="&#x2008;" horiz-adv-x="266" />
<glyph unicode="&#x2009;" horiz-adv-x="426" />
<glyph unicode="&#x200a;" horiz-adv-x="118" />
<glyph unicode="&#x2010;" horiz-adv-x="831" d="M708 502h-558l19 85h558z" />
<glyph unicode="&#x2011;" horiz-adv-x="831" d="M708 502h-558l19 85h558z" />
<glyph unicode="&#x2012;" horiz-adv-x="831" d="M708 502h-558l19 85h558z" />
<glyph unicode="&#x2013;" horiz-adv-x="1001" d="M864 587l-19 -85h-661l19 85h661z" />
<glyph unicode="&#x2014;" horiz-adv-x="1271" d="M1135 591l-21 -86h-930l21 86h930z" />
<glyph unicode="&#x2018;" horiz-adv-x="477" d="M311 1104q-18 76 29 159t134 125l-1 -33q-16 -12 -36 -44.5t-30 -59.5t-1 -27h2q33 0 50.5 -22.5t10.5 -58.5q-7 -33 -36.5 -55.5t-62.5 -22.5q-44 0 -59 39z" />
<glyph unicode="&#x2019;" horiz-adv-x="477" d="M493 1343q18 -76 -29.5 -158.5t-134.5 -124.5l2 32q16 12 36.5 44.5t30.5 60t1 27.5h-1q-34 0 -52 22.5t-11 57.5q7 33 36 55.5t62 22.5q45 0 60 -39z" />
<glyph unicode="&#x201c;" horiz-adv-x="750" d="M616 1103q-19 72 29.5 156.5t134.5 126.5v-34q-17 -12 -37.5 -44t-30.5 -59t0 -27h1q34 0 52.5 -23t9.5 -57q-7 -33 -35.5 -56t-61.5 -23q-45 0 -60 40h-2zM340 1103q-20 72 29 156.5t134 126.5v-34q-17 -12 -37.5 -44t-30.5 -59t0 -27h2q34 0 52 -23t9 -57 q-7 -33 -35.5 -56t-61.5 -23q-45 0 -60 40h-1z" />
<glyph unicode="&#x201d;" horiz-adv-x="750" d="M493 1341q20 -72 -28.5 -156.5t-135.5 -126.5l2 34q16 11 36.5 43t30.5 59.5t0 27.5h-2q-33 0 -50.5 23t-10.5 57q7 33 36 56t62 23q47 0 59 -40h1zM770 1341q20 -72 -28.5 -156.5t-135.5 -126.5l2 34q16 11 36 43t30 59.5t0 27.5h-2q-33 0 -50.5 23t-10.5 57 q7 33 36.5 56t62.5 23q46 0 58 -40h2z" />
<glyph unicode="&#x2022;" horiz-adv-x="614" d="M485 546q-15 -64 -70.5 -108.5t-119.5 -44.5t-98.5 44.5t-19.5 108.5q14 64 70 109t120 45t98 -45t20 -109z" />
<glyph unicode="&#x2026;" horiz-adv-x="1216" d="M935 152q29 0 48 -24t12 -55q-7 -32 -37 -56t-60 -24q-31 0 -50 24t-12 56q7 31 37.5 55t61.5 24zM543 152q29 0 47.5 -24t11.5 -55q-7 -32 -37 -56t-60 -24q-31 0 -49.5 24t-11.5 56q7 31 37.5 55t61.5 24zM150 152q29 0 48 -24t12 -55q-7 -32 -37 -56t-60 -24 q-31 0 -50 24t-12 56q7 31 37.5 55t61.5 24z" />
<glyph unicode="&#x202f;" horiz-adv-x="426" />
<glyph unicode="&#x205f;" horiz-adv-x="533" />
<glyph unicode="&#x20ac;" horiz-adv-x="1283" d="M891 870l-22 -92h-461q-13 -40 -24 -89q-15 -72 -17 -95h459l-20 -92h-446q0 -149 53 -249q85 -174 256 -174q90 0 185.5 53.5t176.5 150.5l68 -47q-102 -118 -220.5 -184t-231.5 -66q-109 0 -191 57.5t-130 154.5q-63 125 -60 304h-116l21 92h102q0 5 19 95q6 29 24 89 h-103l23 92h116q76 181 199 308q93 99 200.5 155t219.5 56q113 0 201 -63.5t134 -178.5l-89 -48q-35 90 -103.5 144t-164.5 54q-172 0 -335 -174q-100 -103 -169 -253h446z" />
<glyph unicode="&#x25fc;" horiz-adv-x="1049" d="M0 1050h1050v-1050h-1050v1050z" />
<glyph unicode="&#xee0d;" horiz-adv-x="1549" d="M836 82h313q21 0 30.5 1t21.5 5.5t19 15t11 29.5l206 891h94l-207 -891q-7 -28 -15.5 -49t-16.5 -35.5t-23 -23.5t-25.5 -14.5t-32.5 -7.5t-36 -2.5t-45 -0.5h-406l167 725q3 13 4.5 35t-7.5 62t-31 72.5t-75.5 57t-132.5 24.5q-64 0 -121.5 -17.5t-92 -37.5t-69.5 -54 t-46 -48t-28 -39l194 -32l-17 -72q-6 -1 -16.5 -3t-39 -12.5t-51.5 -27t-46.5 -49t-33.5 -74.5l-48 -210q40 21 82 21q71 0 109 -50.5t22 -120.5q-16 -72 -77.5 -121t-132.5 -49t-110 49.5t-23 120.5l77 333q11 45 34.5 83.5t50 62t51.5 41t41 24.5l17 7l-208 24q3 7 8 19 t26 46.5t45.5 66t67 70t90.5 66t116.5 46.5t143.5 19q74 0 131.5 -16t92 -41.5t57.5 -58.5t32.5 -65t12 -64.5t0.5 -52.5t-5 -33zM299 244q-39 0 -74 -27.5t-44 -66.5t12.5 -67t60.5 -28t73 28t43 67q9 40 -12 67t-59 27z" />
<glyph unicode="&#xee10;" horiz-adv-x="964" d="M294 411q42 -2 78.5 22.5t45.5 61.5q15 39 -2 69.5t-54 34.5q-40 5 -76 -19.5t-49 -64.5q-11 -37 6 -68t51 -36zM503 573l79 -481q21 16 26 43l99 428q12 52 -3 91.5t-61 62t-86.5 36t-115.5 18.5t-109.5 6t-105.5 0h-57q59 133 160.5 207t233.5 74q24 -1 45 -2.5 t41.5 -4.5t31.5 -5t33 -7t28 -6q54 -20 103 -18.5t106 41.5l41 -68q-35 -26 -70.5 -40.5t-59 -19.5t-59.5 -1.5t-49.5 7t-52.5 13.5q-8 2 -27 6t-29.5 6t-27.5 5t-35 4t-39 1q-64 0 -127 -27t-100 -75q95 -3 173.5 -14.5t166 -39t128.5 -85.5t22 -141l-105 -452 q-7 -29 -15.5 -50t-16.5 -35.5t-22.5 -24t-25 -15t-32.5 -7.5t-36 -2.5t-44 -0.5l-67 396q-73 -69 -171 -61q-67 8 -97 62.5t-7 126.5q26 71 88.5 113.5t131.5 33.5q76 -4 108 -74q3 -8 8 -24z" />
<glyph unicode="&#xee31;" d="M-480 1295q72 -15 173 2q100 16 187.5 94.5t112.5 158.5l74 -14q-16 -45 -46 -91t-76.5 -92.5t-114.5 -83t-147 -52.5q-98 -14 -182.5 -1t-137.5 60t-44 113l3 19q14 57 65.5 98.5t110.5 41.5t89.5 -41.5t16.5 -98.5q-15 -69 -84 -113zM-551 1333q29 0 55 22.5t33 52.5 t-8.5 51t-45.5 21q-31 0 -59 -21t-35 -51q-7 -29 11 -52t49 -23z" />
<glyph unicode="&#xee33;" horiz-adv-x="904" d="M-305 1531q71 0 109 -50.5t22 -120.5t-77.5 -119.5t-132.5 -49.5t-109 49.5t-22 119.5q17 71 78.5 121t131.5 50zM-367 1266q39 0 73 27.5t43 66.5t-12 66.5t-60 27.5q-38 0 -72.5 -28t-43.5 -66t12.5 -66t59.5 -28zM201 744l-73 34q23 44 40.5 72.5t55 72.5t76.5 70.5 t100.5 46.5t133.5 20q87 0 148 -26.5t90 -64.5t41.5 -87t11.5 -87.5t-9 -72.5l-167 -722h-96l167 722q8 34 10 64.5t-6 67.5t-29.5 63.5t-66.5 44.5t-111 18q-61 0 -111 -17t-80.5 -39t-58 -59t-39.5 -61t-27 -60z" />
<glyph unicode="&#xee34;" d="M-614 1521q76 15 156 -1t146 -57t105 -116t31 -169q-142 32 -253 46.5t-252 12t-297 -29.5q96 261 364 314zM-840 1300q109 12 219.5 9.5t184.5 -10.5t171 -24q-18 46 -50.5 80.5t-71 54t-82.5 29t-85.5 8.5t-80.5 -10q-130 -30 -205 -137z" />
<glyph unicode="&#xee35;" d="M-614 1521q99 19 202 -11.5t166 -104.5l48 206h94l-77 -334q10 -43 5 -99q-142 32 -253 46.5t-252 12t-297 -29.5q96 261 364 314zM-840 1300q109 12 219.5 9.5t184.5 -10.5t171 -24q-18 46 -50.5 80.5t-71 54t-82.5 29t-85.5 8.5t-80.5 -10q-130 -30 -205 -137z" />
<glyph unicode="&#xee36;" d="M-176 1635q60 0 94.5 -43.5t20.5 -103.5q-11 -50 -51.5 -90t-90.5 -53q36 -78 29 -166q-143 32 -254 46.5t-252.5 12t-297.5 -29.5q96 261 364 314q139 25 257 -32q14 59 67.5 102t113.5 43zM-840 1302q109 12 220 9.5t185.5 -10.5t171.5 -24q-19 46 -51.5 80.5t-71 54 t-82 29t-85 8.5t-80.5 -10q-132 -30 -207 -137zM-227 1415q31 0 58 21.5t34 51.5q7 31 -10 53t-48 22q-29 0 -56 -22t-34 -53q-7 -30 9.5 -51.5t46.5 -21.5z" />
<glyph unicode="&#xee37;" d="M-614 1522q113 22 220 -18l25 109h94l-34 -150q27 -19 63 -57l48 207h94l-77 -335q10 -44 7 -99q-143 32 -254 46.5t-252.5 12t-297.5 -29.5q96 261 364 314zM-840 1302q109 12 220 9.5t185.5 -10.5t171.5 -24q-19 46 -51.5 80.5t-71 54t-82 29t-85 8.5t-80.5 -10 q-132 -30 -207 -137z" />
<glyph unicode="&#xee38;" d="M-505 -445q60 0 93 -42.5t19 -103.5l-78 -343h-94l48 207q-22 -9 -56 -9q-59 0 -91.5 42.5t-18.5 102.5q14 61 66 103.5t112 42.5zM-613 -591q-7 -31 10.5 -53t46.5 -22q33 0 60.5 22t34.5 53q8 32 -9.5 54.5t-50.5 22.5q-30 0 -57.5 -22.5t-34.5 -54.5z" />
<glyph unicode="&#xee39;" d="M-727 -852h111q16 0 24.5 0.5t19.5 3t17 8t11.5 15.5t9.5 25l78 339h94l-78 -339q-8 -33 -17 -56t-23.5 -38t-26.5 -23t-36 -12t-40.5 -4.5t-51.5 -0.5h-205l48 207q-22 -9 -56 -9q-59 0 -91 42.5t-18 102.5q14 61 66 103.5t111 42.5q60 0 93.5 -42.5t19.5 -103.5z M-887 -591q-7 -31 10 -53t46 -22q33 0 60.5 22t34.5 53q8 32 -9 54.5t-50 22.5q-30 0 -57.5 -22.5t-34.5 -54.5z" />
<glyph unicode="&#xee3a;" d="M-468 -427q30 0 49.5 -24t12.5 -54q-7 -32 -37 -56t-60 -24q-31 0 -50 24t-12 56q7 31 36.5 54.5t60.5 23.5z" />
<glyph unicode="&#xee47;" d="M-463 1304q0 13 2 22q10 45 50 76.5t85 31.5t69.5 -31.5t14.5 -76.5q-11 -48 -53 -85.5t-96 -37.5q-29 0 -60.5 15.5t-54 34t-49 34t-47.5 15.5q-61 0 -89 -83h-77q-39 18 -64.5 70.5t-12.5 106.5q18 76 99.5 131t165.5 55q34 0 94 -4.5t94.5 -5t75.5 7t65.5 33 t35.5 70.5l78 -31q-19 -43 -42.5 -73t-53.5 -46t-58.5 -25t-69 -10t-72.5 0.5t-81 4t-83 2.5q-47 0 -99 -31.5t-63 -77.5q-15 -60 46 -102q27 43 54.5 64t74.5 21q20 -1 43 -14t34 -22.5t44 -38.5zM-364 1270q23 0 42.5 16t24.5 38q7 24 -5.5 40.5t-35.5 16.5t-42 -16.5 t-26 -40.5q-5 -22 7 -38t35 -16z" />
<glyph unicode="&#xee48;" d="M15 1178h-94l88 377h93z" />
<glyph unicode="&#xee49;" d="M-242 1447q31 0 58 21t34 53q7 31 -10 53t-48 22q-33 0 -59 -22t-33 -53q-8 -32 8.5 -53t49.5 -21zM-85 1521q-10 -49 -39 -105.5t-53 -88.5l-24 -32q138 19 253.5 108t160.5 232l74 -24q-18 -52 -48 -103t-86 -108.5t-128 -100t-180.5 -71t-235.5 -28.5l10 39 q52 17 95.5 61.5t55.5 85.5q-18 -5 -28 -5q-60 0 -92.5 40.5t-18.5 99.5q13 59 64.5 99.5t111.5 40.5q57 0 89 -40.5t19 -99.5z" />
<glyph unicode="&#xee4a;" d="M-519 1304q-1 36 9.5 80t35 94t73 97.5t113.5 78.5l112 -80l156 80q39 -19 63.5 -49t32 -63.5t7.5 -62t-6 -54.5q-8 -34 -29 -72l-14 -27l12 15q42 42 76 89.5t51 80.5t30.5 70.5t15.5 47.5t5 23h80q-2 -14 -9.5 -43.5t-34.5 -91.5t-65 -117.5t-107.5 -111t-154.5 -81.5 l-39 35q25 23 57 79t42 99q10 54 3 79t-37 59l-154 -68l-116 68q-22 -11 -45 -36.5t-37 -50.5q27 9 50 9q59 0 90 -40.5t17 -99.5q-13 -58 -63 -100t-109 -42q-48 0 -78.5 30.5t-32.5 75.5zM-358 1413q-31 0 -57.5 -20.5t-33.5 -51.5q-7 -32 9 -53.5t47 -21.5q30 0 57 21.5 t34 53.5q7 30 -9.5 51t-46.5 21z" />
<glyph unicode="&#xee4b;" d="M22 1219h-92l32 141h-143l22 94h144l32 142h92l-32 -142h143l-22 -94h-143z" />
<glyph unicode="&#xee4c;" d="M312 1746l77 -12q-22 -66 -64.5 -116.5t-101 -83.5t-117 -53.5t-132.5 -36.5q27 -18 38 -50.5t2 -69.5q-14 -59 -65.5 -100t-110.5 -41t-90.5 41.5t-18.5 101.5q18 73 85 128t147 68q57 10 103 23.5t98 38t90.5 66t59.5 96.5zM-145 1254q29 0 53.5 20.5t31.5 49.5 t-8 49.5t-43 20.5q-29 0 -54.5 -20t-32.5 -48q-7 -29 8.5 -49.5t44.5 -22.5z" />
<glyph unicode="&#xee4d;" d="M24 1821q71 0 109 -50.5t22 -120.5q-15 -70 -77 -119.5t-133 -49.5q-70 0 -108 49t-23 120q17 71 78.5 121t131.5 50zM-36 1556q39 0 72.5 27.5t42.5 66.5t-12 66.5t-60 27.5q-38 0 -72.5 -28t-43.5 -66t13 -66t60 -28z" />
<glyph unicode="&#xf0e48;" d="M-270 1178h-94l88 377h93z" />
<glyph unicode="&#xf0e49;" d="M-483 1454q31 0 57 20.5t33 51.5q8 31 -8.5 53t-47.5 22q-32 0 -59 -22t-35 -53q-7 -31 10.5 -51.5t49.5 -20.5zM-328 1526q-9 -48 -37 -104.5t-51 -89.5l-24 -32q138 21 253.5 110t160.5 232l74 -24q-18 -52 -48 -103t-86.5 -109t-128.5 -101t-180.5 -71.5t-234.5 -28.5 l10 41q50 16 93.5 61t57.5 86q-21 -7 -31 -7q-59 0 -90.5 40.5t-18.5 99.5q14 59 64.5 99.5t109.5 40.5q57 0 89 -40.5t18 -99.5z" />
<glyph unicode="&#xf0e4a;" d="M-777 1304q-1 36 9.5 80t35 94t73 97.5t113.5 78.5l95 -80l139 80q39 -19 63.5 -49t32 -63.5t7.5 -62t-6 -54.5q-8 -34 -29 -72l-14 -27l12 15q24 24 45 49.5t36 48.5t27 46t20 43.5t14 38t9.5 33.5t5.5 26t3 18l1 8h80q-2 -11 -4.5 -24.5t-13.5 -52.5t-26 -74.5 t-43.5 -82.5t-63 -84.5t-87.5 -72.5t-115 -54l-40 35q25 23 57 79t42 99q10 54 3 79t-37 59l-136 -68l-99 68q-22 -11 -45 -36.5t-37 -50.5q27 9 49 9q59 0 90.5 -40.5t17.5 -99.5q-13 -58 -63.5 -100t-109.5 -42q-48 0 -78.5 30.5t-32.5 75.5zM-616 1413q-31 0 -57.5 -20.5 t-33.5 -51.5q-7 -32 9.5 -53.5t47.5 -21.5q30 0 56.5 21.5t33.5 53.5q7 30 -9.5 51t-46.5 21z" />
<glyph unicode="&#xf0e4b;" d="M-340 1219h-95l32 141h-140l22 94h140l33 142h95l-32 -142h140l-22 -94h-140z" />
<glyph unicode="&#xf0e4c;" d="M150 1775l75 -12q-22 -66 -65.5 -116.5t-104.5 -83.5t-121.5 -53.5t-138.5 -36.5q27 -18 37.5 -50.5t1.5 -69.5q-15 -59 -65.5 -100t-109.5 -41t-91 42t-19 101q18 72 85.5 127.5t147.5 68.5q60 10 108.5 23.5t102.5 38t95 66t62 96.5zM-324 1283q29 0 53.5 20.5 t31.5 49.5t-8 49.5t-43 20.5q-29 0 -54.5 -20t-32.5 -48q-7 -29 8.5 -49.5t44.5 -22.5z" />
<glyph unicode="&#xf0e4d;" d="M-299 1531q71 0 109.5 -50.5t22.5 -120.5t-77.5 -119.5t-132.5 -49.5t-109.5 49.5t-22.5 119.5q17 71 78.5 121t131.5 50zM-360 1266q39 0 73 27.5t43 66.5t-12 66.5t-60 27.5q-38 0 -72.5 -28t-43.5 -66t12.5 -66t59.5 -28z" />
<glyph unicode="&#xfee48;" d="M-84 1707h-92l72 309h92z" />
<glyph unicode="&#xfee49;" d="M-261 1918q31 0 58 21t34 53q8 31 -8.5 53t-47.5 22q-32 0 -59 -22t-35 -53q-7 -32 9.5 -53t48.5 -21zM-104 1992q-8 -42 -31.5 -89.5t-42.5 -74.5l-20 -27q126 17 242 105.5t154 199.5l73 -24q-15 -39 -42.5 -82.5t-83 -98t-125 -96.5t-176.5 -71t-231 -29l8 39 q48 13 84 43.5t49 69.5q-23 -5 -30 -5q-59 0 -91 40.5t-19 99.5q14 59 64.5 99.5t109.5 40.5q57 0 89.5 -41t18.5 -99z" />
<glyph unicode="&#xfee4a;" d="M-546 1772q-2 36 8.5 80t34.5 93.5t72.5 97t113.5 78.5l112 -80l156 80q39 -19 63.5 -49t32 -63t7.5 -61.5t-6 -54.5q-8 -34 -29 -72l-12 -27l12 15q24 24 45 49.5t37 48.5t29 46t22.5 43.5t17 38t12.5 33.5t7.5 26l4.5 18l2 8h80q-3 -14 -5.5 -25t-16.5 -52.5t-30 -75 t-47 -82t-67 -85t-90 -72t-116 -54.5l-39 36q25 23 57 79t42 99q10 54 3 79t-37 59l-154 -68l-116 68q-22 -11 -45 -36.5t-37 -50.5q24 8 50 8q59 0 90 -40.5t17 -99.5q-13 -58 -63 -99.5t-109 -41.5q-47 0 -77 30.5t-32 75.5zM-387 1881q-31 0 -56.5 -20.5t-32.5 -51.5 q-7 -32 9 -53.5t47 -21.5q30 0 57 21.5t34 53.5q7 30 -10.5 51t-47.5 21z" />
<glyph unicode="&#xfee4b;" d="M-84 1707h-92l33 141h-161l22 94h161l32 142h92l-32 -142h160l-22 -94h-160z" />
<glyph unicode="&#xfee4c;" d="M323 2070q-20 -46 -44.5 -81.5t-57 -60.5t-62.5 -42t-75.5 -30.5t-79.5 -20.5t-89 -17q50 -42 34 -118q-14 -59 -65.5 -100.5t-110.5 -41.5t-90.5 42.5t-17.5 101.5q14 56 62 107q64 69 164 84q11 2 47 8.5t51.5 9.5t48.5 11.5t50.5 17t44.5 22.5t44 31t35.5 41t31.5 53z M-208 1632q27 -2 52.5 19t32.5 49q7 29 -9 49.5t-45 20.5t-54 -20t-32 -48q-7 -29 9.5 -49.5t45.5 -20.5z" />
<glyph unicode="&#xfee4d;" d="M-92 1831q70 0 108 -49.5t23 -120.5q-16 -70 -77.5 -119.5t-132.5 -49.5t-109 49.5t-22 119.5q15 70 77 120t133 50zM-154 1567q39 0 73 27.5t43 66.5q9 38 -12 65.5t-61 27.5q-38 0 -71.5 -27.5t-42.5 -65.5t12 -66t59 -28z" />
</font>
</defs>
</svg>
