<?xml version="1.0" standalone="no"?>
<!DOCTYPE svg PUBLIC "-//W3C//DTD SVG 1.1//EN" "http://www.w3.org/Graphics/SVG/1.1/DTD/svg11.dtd" >
<svg xmlns="http://www.w3.org/2000/svg" xmlns:xlink="http://www.w3.org/1999/xlink" version="1.1">
<metadata>
Created by FontForge 20170731 at Fri May  5 14:18:55 2017
 By Aleksey,,,
Copyright (c) 2015, Cadson Demak (info@cadsondemak.com)
</metadata>
<defs>
<font id="Pridi-ExtraLight" horiz-adv-x="0" >
  <font-face 
    font-family="Pridi ExtraLight"
    font-weight="275"
    font-stretch="normal"
    units-per-em="1000"
    panose-1="0 0 3 0 0 0 0 0 0 0"
    ascent="750"
    descent="-250"
    x-height="480"
    cap-height="647"
    bbox="-555 -433 1115 1035"
    underline-thickness="50"
    underline-position="-150"
    unicode-range="U+000D-FB02"
  />
<missing-glyph horiz-adv-x="600" 
d="M94 714h411v-714h-411v714zM454 51v612h-309v-612h309z" />
    <glyph glyph-name="fi" unicode="fi" horiz-adv-x="551" 
d="M48 45h35q19 0 26.5 8t7.5 28v354h-82v45h82v37q0 73 47 116.5t120 43.5q55 0 90 -11.5t67 -41.5v-59h-52v43q-35 23 -101 23q-118 0 -118 -113v-38h277v-399q0 -20 7.5 -28t26.5 -8h35v-45h-122v435h-224v-354q0 -20 7.5 -28t26.5 -8h35v-45h-191v45z" />
    <glyph glyph-name="fl" unicode="fl" horiz-adv-x="551" 
d="M48 45h35q19 0 26.5 8t7.5 28v354h-82v45h82v37q0 73 44.5 116.5t116.5 43.5q56 0 96.5 -12t72.5 -41v-543q0 -20 7.5 -28t26.5 -8h35v-45h-122v435h-224v-354q0 -20 7.5 -28t26.5 -8h35v-45h-191v45zM395 480v128q-35 23 -113 23q-58 0 -85 -28t-27 -85v-38h225z" />
    <glyph glyph-name="ru_lakkhangyaothai" unicode="&#xe24;&#xe45;" horiz-adv-x="834" 
d="M427 365q0 136 -158 136q-53 0 -99 -16t-79 -45v-12l91 -58v-35q-34 -14 -46 -36.5t-12 -66.5v-81q15 6 36 6q88 0 88 -86q0 -46 -22 -66t-67 -20q-48 0 -68 22t-20 71v160q0 85 59 114l-85 51v57q45 40 102 62t122 22q108 0 163 -53q67 53 159 53q97 0 137.5 -46.5
t40.5 -135.5v-563h-53v563q0 71 -28 105t-96 34q-40 0 -71 -11t-61 -36q20 -38 20 -87v-568h-53v566zM198 34.5q10 9.5 10 36.5q0 25 -10.5 35.5t-37.5 10.5q-26 0 -37 -10.5t-11 -35.5q0 -27 10.5 -36.5t37.5 -9.5q28 0 38 9.5z" />
    <glyph glyph-name="lu_lakkhangyaothai" unicode="&#xe26;&#xe45;" horiz-adv-x="898" 
d="M485 365q0 136 -158 136q-54 0 -101.5 -16t-80.5 -45v-12l111 -68v-35q-17 -14 -24 -25.5t-8.5 -27t-1.5 -50.5v-144q0 -49 -20 -71t-68 -22q-45 0 -67 20t-22 66q0 86 88 86q21 0 36 -6v77q0 42 6 65.5t29 45.5l-105 64v57q45 40 104 62t124 22q112 0 166 -56
q66 56 162 56q97 0 137.5 -46.5t40.5 -135.5v-563h-53v563q0 71 -28 105t-96 34q-42 0 -73.5 -12t-62.5 -39q18 -36 18 -83v-568h-53v566zM170.5 34.5q10.5 9.5 10.5 36.5q0 25 -10.5 35.5t-37.5 10.5t-37.5 -10.5t-10.5 -35.5q0 -27 10 -36.5t38 -9.5q27 0 37.5 9.5z" />
    <glyph glyph-name=".notdef" horiz-adv-x="600" 
d="M94 714h411v-714h-411v714zM454 51v612h-309v-612h309z" />
    <glyph glyph-name=".null" 
 />
    <glyph glyph-name="nonmarkingreturn" unicode="&#xd;" horiz-adv-x="400" 
 />
    <glyph glyph-name="space" unicode=" " horiz-adv-x="400" 
 />
    <glyph glyph-name="exclam" unicode="!" horiz-adv-x="173" 
d="M56 647h61l-6 -499h-49zM55 63h63v-63h-63v63z" />
    <glyph glyph-name="quotedbl" unicode="&#x22;" horiz-adv-x="288" 
d="M55 721h65l-11 -178h-43zM168 721h65l-11 -178h-43z" />
    <glyph glyph-name="numbersign" unicode="#" horiz-adv-x="746" 
d="M177 182h-122v45h132l46 208h-148v45h158l36 167h53l-36 -167h227l36 167h53l-36 -167h115v-45h-125l-46 -208h141v-45h-151l-39 -182h-53l39 182h-227l-39 -182h-53zM467 227l46 208h-227l-46 -208h227z" />
    <glyph glyph-name="dollar" unicode="$" horiz-adv-x="540" 
d="M245 -14q-52 4 -103.5 21.5t-86.5 43.5v78h53v-55q29 -19 77.5 -31t94.5 -12q75 0 114.5 32t39.5 90q0 40 -18.5 66.5t-51 45t-86.5 38.5q-76 28 -121.5 52.5t-70.5 58.5t-25 84q0 74 50.5 115.5t133.5 47.5v106h53v-106q49 -4 96 -18.5t78 -35.5v-78h-53v55
q-25 15 -65 23.5t-84 8.5q-73 0 -115.5 -28.5t-42.5 -89.5q0 -40 23 -66t53.5 -40.5t98.5 -41.5q67 -26 107 -48.5t65.5 -58.5t25.5 -90q0 -70 -49 -116t-138 -51v-106h-53v106z" />
    <glyph glyph-name="percent" unicode="%" horiz-adv-x="776" 
d="M131.5 374.5q-35.5 20.5 -56 56t-20.5 77.5t20.5 77.5t56 56t77.5 20.5t77.5 -20.5t56 -56t20.5 -77.5t-20.5 -77.5t-56 -56t-77.5 -20.5t-77.5 20.5zM549 647h53l-377 -647h-53zM284 433q31 31 31 75t-31 75t-75 31t-75 -31t-31 -75t31 -75t75 -31t75 31zM489.5 5.5
q-35.5 20.5 -56 56t-20.5 77.5t20.5 77.5t56 56t77.5 20.5t77.5 -20.5t56 -56t20.5 -77.5t-20.5 -77.5t-56 -56t-77.5 -20.5t-77.5 20.5zM642 64q31 31 31 75t-31 75t-75 31t-75 -31t-31 -75t31 -75t75 -31t75 31z" />
    <glyph glyph-name="ampersand" unicode="&#x26;" horiz-adv-x="682" 
d="M113 29.5q-58 44.5 -58 123.5q0 73 33.5 117.5t110.5 88.5q-50 50 -73.5 86t-23.5 77q0 66 37 103t111 37q73 0 110.5 -40t37.5 -104v-40h-53v40q0 48 -23.5 73t-70.5 25q-50 0 -74 -22t-24 -72q0 -32 15 -55t58 -69l14 -15l240 -254q29 57 29 149v80h118v-44h-37
q-19 0 -26.5 -7.5t-7.5 -27.5q0 -118 -42 -186l87 -93h-64l-56 60q-46 -41 -96 -58t-118 -17q-96 0 -154 44.5zM369.5 45.5q42.5 14.5 79.5 48.5l-217 230q-67 -31 -96.5 -70.5t-29.5 -100.5t48 -91.5t113 -30.5q60 0 102.5 14.5z" />
    <glyph glyph-name="quotesingle" unicode="'" horiz-adv-x="175" 
d="M55 721h65l-11 -178h-43z" />
    <glyph glyph-name="parenleft" unicode="(" horiz-adv-x="319" 
d="M55 316q0 256 139 391h70q-79 -60 -118.5 -161.5t-39.5 -229.5t39.5 -229.5t118.5 -161.5h-70q-139 135 -139 391z" />
    <glyph glyph-name="parenright" unicode=")" horiz-adv-x="319" 
d="M173.5 86.5q39.5 101.5 39.5 229.5t-39.5 229.5t-118.5 161.5h70q139 -135 139 -391t-139 -391h-70q79 60 118.5 161.5z" />
    <glyph glyph-name="asterisk" unicode="*" horiz-adv-x="396" 
d="M87 461l82 103l-114 31l16 53l106 -43l-6 116h55l-7 -116l106 43l16 -53l-114 -31l82 -103l-47 -30l-64 102l-65 -102z" />
    <glyph glyph-name="plus" unicode="+" horiz-adv-x="411" 
d="M178 282h-123v45h123v110h53v-110h125v-45h-125v-110h-53v110z" />
    <glyph glyph-name="comma" unicode="," horiz-adv-x="205" 
d="M83 69h67l-56 -185h-39z" />
    <glyph glyph-name="hyphen" unicode="-" horiz-adv-x="381" 
d="M55 327h271v-45h-271v45z" />
    <glyph glyph-name="period" unicode="." horiz-adv-x="179" 
d="M55 69h69v-69h-69v69z" />
    <glyph glyph-name="slash" unicode="/" horiz-adv-x="414" 
d="M306 676h53l-251 -676h-53z" />
    <glyph glyph-name="zero" unicode="0" horiz-adv-x="612" 
d="M109.5 70q-64.5 85 -64.5 254t64 253.5t197 84.5t197 -84.5t64 -253.5t-64.5 -254t-196.5 -85t-196.5 85zM462 100q54 69 54 224t-54 223.5t-156 68.5t-156 -68.5t-54 -223.5t54 -224t156 -69t156 69z" />
    <glyph glyph-name="one" unicode="1" horiz-adv-x="383" 
d="M83 45h63q22 0 30 8t8 28v514l-117 -71l-22 38l137 85h55v-566q0 -20 8 -28t30 -8h63v-45h-255v45z" />
    <glyph glyph-name="two" unicode="2" horiz-adv-x="522" 
d="M55 45q0 91 52.5 153t155.5 112q58 28 90.5 53.5t47.5 57t15 77.5q0 61 -42 89.5t-116 28.5q-44 0 -84 -8.5t-65 -23.5v-55h-53v78q35 24 90 39.5t111 15.5q93 0 151.5 -41.5t58.5 -122.5q0 -54 -19.5 -93.5t-61.5 -73t-114 -67.5q-86 -41 -125 -92.5t-39 -126.5h353v-45
h-406v45z" />
    <glyph glyph-name="three" unicode="3" horiz-adv-x="541" 
d="M55 51v78h53v-55q30 -20 71.5 -31.5t87.5 -11.5q89 0 128.5 36t39.5 120q0 65 -38.5 96.5t-118.5 31.5h-72v47h77q145 0 145 138q0 116 -158 116q-44 0 -84 -8.5t-65 -23.5v-55h-53v78q35 24 90 39.5t111 15.5q94 0 152 -41t58 -121q0 -116 -92 -161q99 -39 99 -152
q0 -105 -54.5 -153.5t-168.5 -48.5q-117 0 -208 66z" />
    <glyph glyph-name="four" unicode="4" horiz-adv-x="565" 
d="M255 45h63q22 0 30 8t8 28v91h-321v45l313 430h61v-430h121v-45h-121v-91q0 -20 8 -28t30 -8h63v-45h-255v45zM356 217v366l-267 -366h267z" />
    <glyph glyph-name="five" unicode="5" horiz-adv-x="544" 
d="M150.5 2q-51.5 17 -95.5 49v78h53v-55q65 -43 166 -43q85 0 124.5 46.5t39.5 134.5q0 63 -19.5 98t-58.5 49t-102 14h-179v41l20 233h368v-45h-322l-16 -182h138q222 0 222 -208q0 -109 -54 -168t-165 -59q-68 0 -119.5 17z" />
    <glyph glyph-name="six" unicode="6" horiz-adv-x="553" 
d="M115 54q-60 69 -60 222q0 212 73 299t183 87q50 0 86.5 -10.5t70.5 -33.5l-24 -38q-33 20 -62 28t-72 8q-173 0 -201 -253q33 47 77.5 68.5t110.5 21.5q104 0 162.5 -58t58.5 -164q0 -246 -235 -246q-108 0 -168 69zM423.5 78q43.5 47 43.5 153q0 91 -42.5 133.5
t-135.5 42.5q-45 0 -87 -19t-69 -57t-27 -91q0 -107 47 -158t130 -51q97 0 140.5 47z" />
    <glyph glyph-name="seven" unicode="7" horiz-adv-x="498" 
d="M407 602h-319v-73h-53v118h428v-37l-244 -610h-53z" />
    <glyph glyph-name="eight" unicode="8" horiz-adv-x="570" 
d="M55 180q0 60 29 99.5t75 57.5q-49 24 -71 62.5t-22 93.5q0 82 60 125.5t159 43.5t159 -43.5t60 -125.5q0 -55 -22 -93.5t-71 -62.5q46 -18 75 -57.5t29 -99.5q0 -195 -230 -195t-230 195zM295 360q81 0 119.5 31.5t38.5 101.5q0 62 -44 92.5t-125 30.5
q-80 0 -123.5 -30.5t-43.5 -92.5q0 -70 38.5 -101.5t119.5 -31.5h20zM420.5 66.5q43.5 35.5 43.5 113.5q0 66 -43 101.5t-127 35.5h-18q-84 0 -127 -35.5t-43 -101.5q0 -78 43.5 -113.5t135.5 -35.5t135.5 35.5z" />
    <glyph glyph-name="nine" unicode="9" horiz-adv-x="573" 
d="M183.5 -4.5q-36.5 10.5 -70.5 33.5l24 38q33 -20 62 -28t72 -8q86 0 132.5 63.5t60.5 189.5q-33 -47 -77 -68.5t-109 -21.5q-104 0 -163.5 58t-59.5 164q0 123 60.5 184.5t178.5 61.5q224 0 224 -291q0 -213 -70 -299.5t-178 -86.5q-50 0 -86.5 10.5zM371.5 259
q41.5 19 68.5 57t27 91q0 209 -173 209q-97 0 -142.5 -47.5t-45.5 -152.5q0 -90 43 -133t136 -43q45 0 86.5 19z" />
    <glyph glyph-name="colon" unicode=":" horiz-adv-x="183" 
d="M55 490h73v-73h-73v73zM55 73h73v-73h-73v73z" />
    <glyph glyph-name="semicolon" unicode=";" horiz-adv-x="208" 
d="M80 490h73v-73h-73v73zM83 69h67l-56 -185h-39z" />
    <glyph glyph-name="less" unicode="&#x3c;" horiz-adv-x="628" 
d="M55 298v50l518 223v-57l-457 -191l457 -191v-57z" />
    <glyph glyph-name="equal" unicode="=" horiz-adv-x="391" 
d="M55 395h281v-45h-281v45zM55 257h281v-45h-281v45z" />
    <glyph glyph-name="greater" unicode="&#x3e;" horiz-adv-x="628" 
d="M55 132l457 191l-457 191v57l518 -223v-50l-518 -223v57z" />
    <glyph glyph-name="question" unicode="?" horiz-adv-x="521" 
d="M190 180q0 67 27 111t93 74q42 19 63.5 36t31.5 40.5t10 61.5q0 113 -158 113q-43 0 -83 -10t-66 -27v-55h-53v78q35 26 90.5 43t110.5 17q94 0 152 -39.5t58 -119.5q0 -47 -13.5 -78t-44.5 -55t-89 -52q-47 -23 -61.5 -54.5t-14.5 -83.5v-32h-53v32zM182 69h69v-69h-69
v69z" />
    <glyph glyph-name="at" unicode="@" horiz-adv-x="856" 
d="M224 -61.5q-84 48.5 -126.5 136t-42.5 203.5q0 115 44 199t127.5 129.5t201.5 45.5q201 0 287 -97t86 -277q0 -97 -35.5 -158t-113.5 -61q-39 0 -65.5 21.5t-33.5 51.5q-53 -73 -158 -73q-61 0 -95.5 27.5t-34.5 76.5q0 55 34.5 82t101.5 32l135 9v40q0 50 -19.5 71
t-70.5 21q-32 0 -54.5 -4.5t-43.5 -14.5v-29h-53v58q30 18 69.5 27t79.5 9q145 0 145 -138v-145q0 -36 15.5 -56t47.5 -20q48 0 73 41.5t25 131.5q0 111 -30 182.5t-100.5 108.5t-191.5 37q-156 0 -239 -88t-83 -240q0 -165 85 -253.5t237 -88.5q125 0 220 43v-48
q-99 -41 -220 -41q-120 0 -204 48.5zM497.5 131q38.5 26 38.5 78v34l-136 -9q-46 -3 -65 -18.5t-19 -52.5q0 -31 20 -44.5t63 -13.5q60 0 98.5 26z" />
    <glyph glyph-name="A" unicode="A" horiz-adv-x="724" 
d="M45 45h35q41 0 54 36l204 566h49l203 -566q13 -36 54 -36h35v-45h-186v45h58l-59 164h-260l-59 -164h58v-45h-186v45zM476 254l-114 318l-114 -318h228z" />
    <glyph glyph-name="B" unicode="B" horiz-adv-x="575" 
d="M45 45h35q19 0 26.5 8t7.5 28v485q0 20 -7.5 28t-26.5 8h-35v45h300q87 0 130 -44.5t43 -123.5q0 -53 -22 -92.5t-67 -57.5q51 -14 76 -55.5t25 -98.5q0 -74 -41.5 -124.5t-120.5 -50.5h-323v45zM331 349q68 0 102 34.5t34 95.5q0 66 -28.5 94.5t-97.5 28.5h-174v-253
h164zM364 45q56 0 85.5 33t29.5 98q0 66 -31.5 97t-107.5 31h-173v-259h197z" />
    <glyph glyph-name="C" unicode="C" horiz-adv-x="595" 
d="M190 28q-71 43 -108 119t-37 174q0 99 34.5 176t103.5 121t170 44q126 0 197 -51v-78h-53v55q-53 28 -144 28q-120 0 -188.5 -78.5t-68.5 -216.5q0 -89 33.5 -154.5t93.5 -100.5t136 -35q97 0 157 35l24 -39q-69 -42 -181 -42q-98 0 -169 43z" />
    <glyph glyph-name="D" unicode="D" horiz-adv-x="620" 
d="M45 43h25q19 0 26.5 8t7.5 28v489q0 20 -7.5 28t-26.5 8h-25v43h264q136 0 201 -86.5t65 -239.5q0 -150 -67 -235.5t-199 -85.5h-264v43zM304 43q114 0 167 69.5t53 208.5q0 142 -52.5 212.5t-167.5 70.5h-147v-561h147z" />
    <glyph glyph-name="E" unicode="E" horiz-adv-x="543" 
d="M45 45h35q19 0 26.5 8t7.5 28v485q0 20 -7.5 28t-26.5 8h-35v45h453v-103h-48v24q0 19 -8 26.5t-28 7.5h-247v-255h211v-45h-211v-257h247q20 0 28 7.5t8 26.5v25h48v-104h-453v45z" />
    <glyph glyph-name="F" unicode="F" horiz-adv-x="543" 
d="M45 45h35q19 0 26.5 8t7.5 28v485q0 20 -7.5 28t-26.5 8h-35v45h453v-103h-48v24q0 19 -8 26.5t-28 7.5h-247v-255h211v-45h-211v-221q0 -20 7.5 -28t26.5 -8h35v-45h-191v45z" />
    <glyph glyph-name="G" unicode="G" horiz-adv-x="604" 
d="M182.5 28q-68.5 43 -103 119t-34.5 174q0 154 74.5 247.5t223.5 93.5q126 0 197 -51v-78h-53v55q-53 28 -144 28q-119 0 -183 -77.5t-64 -217.5q0 -136 67.5 -213t185.5 -77q49 0 86 7t71 23v219h-153v45h206v-285q-46 -29 -96 -42t-114 -13q-98 0 -166.5 43z" />
    <glyph glyph-name="H" unicode="H" horiz-adv-x="676" 
d="M45 45h35q19 0 26.5 8t7.5 28v485q0 20 -7.5 28t-26.5 8h-35v45h191v-45h-35q-19 0 -26.5 -8t-7.5 -28v-219h342v219q0 20 -7.5 28t-26.5 8h-35v45h191v-45h-35q-19 0 -26.5 -8t-7.5 -28v-485q0 -20 7.5 -28t26.5 -8h35v-45h-191v45h35q19 0 26.5 8t7.5 28v221h-342v-221
q0 -20 7.5 -28t26.5 -8h35v-45h-191v45z" />
    <glyph glyph-name="I" unicode="I" horiz-adv-x="281" 
d="M45 45h35q19 0 26.5 8t7.5 28v485q0 20 -7.5 28t-26.5 8h-35v45h191v-45h-35q-19 0 -26.5 -8t-7.5 -28v-485q0 -20 7.5 -28t26.5 -8h35v-45h-191v45z" />
    <glyph glyph-name="J" unicode="J" horiz-adv-x="483" 
d="M90 2q-42 17 -75 50v65h52v-43q40 -43 120 -43q67 0 98 35t31 104v396q0 20 -7.5 28t-26.5 8h-35v45h191v-45h-35q-19 0 -26.5 -8t-7.5 -28v-392q0 -89 -45.5 -139t-132.5 -50q-59 0 -101 17z" />
    <glyph glyph-name="K" unicode="K" horiz-adv-x="634" 
d="M45 45h31q22 0 30 8t8 28v487q0 20 -7.5 28t-26.5 8h-25v43h171v-43h-25q-19 0 -26.5 -8t-7.5 -28v-272l282 306h-58v45h186v-45h-40q-18 0 -28.5 -7t-29.5 -26l-179 -194l195 -295q13 -19 26 -27t33 -8h35v-45h-190v45h58l-193 291l-97 -105v-150q0 -20 8 -28t30 -8h31
v-45h-191v45z" />
    <glyph glyph-name="L" unicode="L" horiz-adv-x="503" 
d="M45 43h21q22 0 30 8t8 28v489q0 20 -7.5 28t-26.5 8h-25v43h171v-43h-25q-19 0 -26.5 -8t-7.5 -28v-525h247q20 0 28 7.5t8 26.5v25h48v-102h-443v43z" />
    <glyph glyph-name="M" unicode="M" horiz-adv-x="776" 
d="M45 45h35q19 0 26.5 8t7.5 28v485q0 20 -7.5 28t-26.5 8h-35v45h137l206 -486l206 486h137v-45h-35q-19 0 -26.5 -8t-7.5 -28v-485q0 -20 7.5 -28t26.5 -8h35v-45h-191v45h35q19 0 26.5 8t7.5 28v483l-197 -464h-48l-197 464v-483q0 -20 7.5 -28t26.5 -8h35v-45h-191v45z
" />
    <glyph glyph-name="N" unicode="N" horiz-adv-x="686" 
d="M45 45h35q19 0 26.5 8t7.5 28v485q0 20 -7.5 28t-26.5 8h-35v45h117l357 -553v472q0 20 -7.5 28t-26.5 8h-35v45h191v-45h-35q-19 0 -26.5 -8t-7.5 -28v-566h-48l-357 553v-472q0 -20 7.5 -28t26.5 -8h35v-45h-191v45z" />
    <glyph glyph-name="O" unicode="O" horiz-adv-x="652" 
d="M114 68.5q-69 83.5 -69 252.5q0 171 67.5 256t213.5 85t213.5 -85t67.5 -256q0 -169 -69 -252.5t-212 -83.5t-212 83.5zM498 99q58 68 58 222q0 157 -57.5 226t-172.5 69t-172.5 -69t-57.5 -226q0 -154 58 -222t172 -68t172 68z" />
    <glyph glyph-name="P" unicode="P" horiz-adv-x="615" 
d="M45 45h31q22 0 30 8t8 28v485q0 20 -8 28t-30 8h-31v45h332q90 0 141.5 -51t51.5 -141q0 -91 -52.5 -145.5t-141.5 -54.5h-209v-174q0 -20 8 -28t30 -8h31v-45h-191v45zM369 300q150 0 150 155q0 82 -36 114.5t-114 32.5h-202v-302h202z" />
    <glyph glyph-name="Q" unicode="Q" horiz-adv-x="652" 
d="M341.5 -106q-36.5 39 -39.5 92q-127 7 -192 98t-65 237q0 154 69.5 247.5t211.5 93.5t211.5 -93.5t69.5 -247.5q0 -144 -64 -235t-187 -100q3 -42 25 -64.5t61 -22.5q57 0 76 28v41h53v-55q-40 -58 -129 -58q-64 0 -100.5 39zM496 107.5q60 76.5 60 213.5
q0 140 -59.5 217.5t-170.5 77.5t-170.5 -77.5t-59.5 -217.5q0 -137 60 -213.5t170 -76.5t170 76.5z" />
    <glyph glyph-name="R" unicode="R" horiz-adv-x="609" 
d="M45 45h31q22 0 30 8t8 28v485q0 20 -8 28t-30 8h-31v45h305q91 0 142 -47t51 -130q0 -80 -47.5 -130.5t-132.5 -54.5l107 -205q10 -20 24 -27.5t35 -7.5h35v-45h-190v45h58l-126 240h-139v-204q0 -20 8 -28t30 -8h31v-45h-191v45zM342 330q74 0 112 37t38 103
q0 69 -36 100.5t-114 31.5h-175v-272h175z" />
    <glyph glyph-name="S" unicode="S" horiz-adv-x="520" 
d="M146.5 3.5q-60.5 18.5 -101.5 47.5v80h55v-57q29 -19 76.5 -31t93.5 -12q75 0 114.5 32t39.5 90q0 40 -18.5 66.5t-51 45t-86.5 38.5q-76 28 -121.5 52.5t-70.5 58.5t-25 84q0 81 58.5 122.5t151.5 41.5q56 0 111 -15.5t90 -39.5v-80h-55v57q-26 15 -65 23.5t-82 8.5
q-73 0 -115.5 -28.5t-42.5 -89.5q0 -40 23 -66t53.5 -40.5t98.5 -41.5q67 -26 107 -48.5t65.5 -58.5t25.5 -90q0 -74 -55 -121t-154 -47q-59 0 -119.5 18.5z" />
    <glyph glyph-name="T" unicode="T" horiz-adv-x="527" 
d="M168 45h31q22 0 30 8t8 28v521h-118q-20 0 -28 -7.5t-8 -26.5v-24h-48v103h457v-103h-48v24q0 19 -8 26.5t-28 7.5h-118v-521q0 -20 8 -28t30 -8h31v-45h-191v45z" />
    <glyph glyph-name="U" unicode="U" horiz-adv-x="646" 
d="M151.5 37q-57.5 52 -57.5 140v392q0 20 -7.5 28t-26.5 8h-25v42h171v-42h-25q-19 0 -26.5 -8t-7.5 -28v-399q0 -70 44.5 -106t131.5 -36t131.5 36t44.5 106v399q0 20 -7.5 28t-26.5 8h-25v42h171v-42h-25q-19 0 -26.5 -8t-7.5 -28v-392q0 -88 -57.5 -140t-171.5 -52
t-171.5 52z" />
    <glyph glyph-name="V" unicode="V" horiz-adv-x="704" 
d="M124 568q-8 23 -17 29.5t-33 6.5h-29v43h104l203 -571l203 571h104v-43h-29q-24 0 -33 -6.5t-17 -29.5l-203 -568h-49z" />
    <glyph glyph-name="W" unicode="W" horiz-adv-x="887" 
d="M125 566q-5 20 -15 28t-34 8h-31v45h116l120 -560l135 451h55l135 -451l121 560h115v-45h-31q-24 0 -34 -8t-15 -28l-128 -566h-48l-143 468l-141 -468h-48z" />
    <glyph glyph-name="X" unicode="X" horiz-adv-x="662" 
d="M45 45h35q24 0 36 7t24 26l163 249l-158 242q-12 19 -24 26t-36 7h-35v45h186v-45h-58l153 -233l153 233h-58v45h186v-45h-35q-24 0 -36 -7t-24 -26l-159 -242l164 -249q12 -19 24 -26t36 -7h35v-45h-186v45h58l-158 240l-158 -240h58v-45h-186v45z" />
    <glyph glyph-name="Y" unicode="Y" horiz-adv-x="664" 
d="M247 43h25q19 0 26.5 8t7.5 28v154l-182 335q-10 18 -23 27t-31 9h-25v43h171v-43h-25q-22 0 -22 -13q0 -9 8 -23l155 -288l155 288q8 14 8 23q0 13 -22 13h-25v43h171v-43h-25q-18 0 -31 -9t-23 -27l-181 -335v-154q0 -20 7.5 -28t26.5 -8h25v-43h-171v43z" />
    <glyph glyph-name="Z" unicode="Z" horiz-adv-x="555" 
d="M45 43l395 561h-294q-20 0 -28 -7.5t-8 -26.5v-25h-48v102h437v-43l-395 -561h322q20 0 28 7.5t8 26.5v25h48v-102h-465v43z" />
    <glyph glyph-name="bracketleft" unicode="[" horiz-adv-x="272" 
d="M65 750h152v-45h-99v-743h99v-45h-152v833z" />
    <glyph glyph-name="backslash" unicode="\" horiz-adv-x="414" 
d="M55 676h53l251 -676h-53z" />
    <glyph glyph-name="bracketright" unicode="]" horiz-adv-x="272" 
d="M55 -38h99v743h-99v45h152v-833h-152v45z" />
    <glyph glyph-name="asciicircum" unicode="^" horiz-adv-x="566" 
d="M258 719h50l203 -348h-57l-171 293l-171 -293h-57z" />
    <glyph glyph-name="underscore" unicode="_" horiz-adv-x="451" 
d="M55 0h341v-45h-341v45z" />
    <glyph glyph-name="grave" unicode="`" horiz-adv-x="274" 
d="M55 721h79l85 -178h-48z" />
    <glyph glyph-name="a" unicode="a" horiz-adv-x="518" 
d="M74.5 19q-39.5 34 -39.5 98q0 69 42 100t119 36l174 12v65q0 64 -25 91.5t-91 27.5q-41 0 -70 -6t-56 -19v-37h-53v61q78 47 177 47q93 0 132 -43t39 -123v-251q0 -22 7.5 -31t24.5 -9h28v-38h-96l-11 61q-56 -76 -188 -76q-74 0 -113.5 34zM323 64.5q47 33.5 47 100.5
v58l-175 -12q-62 -4 -85.5 -25t-23.5 -71q0 -42 26.5 -63t87.5 -21q76 0 123 33.5z" />
    <glyph glyph-name="b" unicode="b" horiz-adv-x="583" 
d="M148 80l-7 -80h-46v571q0 28 -7 38.5t-32 10.5h-21v42h113v-258q33 49 79 70t105 21q98 0 152 -68t54 -192q0 -119 -59 -184.5t-158 -65.5q-118 0 -173 95zM487 237q0 109 -42 162t-128 53q-45 0 -84.5 -22t-63.5 -63t-24 -95v-61q0 -50 21.5 -92t59.5 -67t84 -25
q177 0 177 210z" />
    <glyph glyph-name="c" unicode="c" horiz-adv-x="508" 
d="M165.5 14.5q-55.5 29.5 -88 86.5t-32.5 137q0 122 63 189.5t175 67.5q61 0 102.5 -12.5t77.5 -38.5v-78h-53v55q-29 15 -56 21.5t-71 6.5q-82 0 -134.5 -51t-52.5 -160q0 -71 28 -117.5t72 -68t94 -21.5q51 0 83.5 8t65.5 27l24 -39q-37 -23 -78 -32.5t-95 -9.5
q-69 0 -124.5 29.5z" />
    <glyph glyph-name="d" unicode="d" horiz-adv-x="583" 
d="M100.5 51q-55.5 65 -55.5 185q0 121 56 190t154 69q66 0 109 -21t71 -70v167q0 28 -7 38.5t-32 10.5h-21v42h113v-584q0 -22 7.5 -31t24.5 -9h28v-38h-105l-10 76q-58 -90 -179 -90q-98 0 -153.5 65zM351.5 52q40.5 24 63.5 67t23 97v56q0 83 -47.5 131.5t-122.5 48.5
q-172 0 -172 -216q0 -103 41.5 -155.5t123.5 -52.5q50 0 90.5 24z" />
    <glyph glyph-name="e" unicode="e" horiz-adv-x="534" 
d="M160 12.5q-53 27.5 -84 83t-31 136.5q0 130 60.5 196.5t171.5 66.5q106 0 159 -61.5t53 -170.5v-45h-390q0 -97 51.5 -143.5t128.5 -46.5q51 0 83 7.5t57 23.5v34h53v-57q-43 -27 -88 -39t-105 -12q-66 0 -119 27.5zM441 263q0 94 -39.5 140t-124.5 46q-87 0 -132.5 -50
t-45.5 -136h342z" />
    <glyph glyph-name="f" unicode="f" horiz-adv-x="394" 
d="M48 45h35q19 0 26.5 8t7.5 28v354h-82v45h82v29q0 76 39.5 122t109.5 46q47 0 80.5 -11.5t60.5 -37.5v-59h-52v43q-16 11 -36 15t-49 4q-50 0 -75 -31.5t-25 -89.5v-30h157v-45h-157v-354q0 -20 7.5 -28t26.5 -8h35v-45h-191v45z" />
    <glyph glyph-name="g" unicode="g" horiz-adv-x="583" 
d="M211.5 -186q-39.5 14 -75.5 45v65h52v-43q22 -19 50 -27t68 -8q62 0 95.5 38.5t33.5 106.5v86q-28 -49 -71 -70t-109 -21q-98 0 -154 69t-56 190q0 119 58 184.5t157 65.5q57 0 100 -21.5t73 -68.5l10 75h105v-38h-28q-17 0 -24.5 -9t-7.5 -31v-407q0 -88 -48.5 -141.5
t-129.5 -53.5q-59 0 -98.5 14zM390.5 77.5q47.5 48.5 47.5 131.5v56q0 55 -21.5 97.5t-60.5 66.5t-89 24q-83 0 -127 -52.5t-44 -155.5q0 -216 172 -216q75 0 122.5 48.5z" />
    <glyph glyph-name="h" unicode="h" horiz-adv-x="598" 
d="M45 45h35q19 0 26.5 8t7.5 28v500q0 20 -7.5 28t-26.5 8h-26v45h113v-242q33 39 75 57t100 18q73 0 112.5 -43t39.5 -121v-250q0 -20 7.5 -28t26.5 -8h35v-45h-123v330q0 63 -27.5 92.5t-85.5 29.5q-42 0 -79 -18t-59 -51.5t-22 -77.5v-224q0 -20 7.5 -28t26.5 -8h35v-45
h-191v45z" />
    <glyph glyph-name="i" unicode="i" horiz-adv-x="261" 
d="M99 627h63v-63h-63v63zM35 45h35q19 0 26.5 8t7.5 28v318q0 20 -7.5 28t-26.5 8h-35v45h122v-399q0 -20 7.5 -28t26.5 -8h35v-45h-191v45z" />
    <glyph glyph-name="j" unicode="j" horiz-adv-x="344" 
d="M211 627h63v-63h-63v63zM50 -155.5q-33 13.5 -65 44.5v65h52v-43q17 -19 38.5 -26.5t51.5 -7.5q50 0 74.5 27.5t24.5 93.5v401q0 20 -7.5 28t-26.5 8h-35v45h122v-478q0 -85 -39 -128t-109 -43q-48 0 -81 13.5z" />
    <glyph glyph-name="k" unicode="k" horiz-adv-x="572" 
d="M45 45h31q22 0 30 8t8 28v502q0 20 -7.5 28t-26.5 8h-25v43h171v-43h-25q-19 0 -26.5 -8t-7.5 -28v-348l223 200h-59v45h186v-45h-39q-15 0 -22.5 -3.5t-15 -11t-11.5 -10.5l-121 -109l136 -223q13 -21 23.5 -27t34.5 -6h35v-45h-102l-166 267l-102 -92v-94q0 -20 8 -28
t30 -8h31v-45h-191v45z" />
    <glyph glyph-name="l" unicode="l" horiz-adv-x="271" 
d="M45 45h35q19 0 26.5 8t7.5 28v500q0 20 -7.5 28t-26.5 8h-35v45h122v-581q0 -20 7.5 -28t26.5 -8h35v-45h-191v45z" />
    <glyph glyph-name="m" unicode="m" horiz-adv-x="842" 
d="M45 45h35q19 0 26.5 8t7.5 28v318q0 20 -7.5 28t-26.5 8h-26v45h100l6 -68q25 42 61 62.5t94 20.5q47 0 77.5 -23t41.5 -65q23 44 60 66t98 22q77 0 111.5 -40t34.5 -120v-254q0 -20 7.5 -28t26.5 -8h35v-45h-123v336q0 62 -23.5 87.5t-80.5 25.5q-58 0 -93.5 -34
t-35.5 -97v-237q0 -20 7.5 -28t26.5 -8h35v-45h-120v331q0 60 -22 89t-74 29q-64 0 -100.5 -37.5t-36.5 -106.5v-224q0 -20 7.5 -28t26.5 -8h35v-45h-191v45z" />
    <glyph glyph-name="n" unicode="n" horiz-adv-x="597" 
d="M45 45h35q19 0 26.5 8t7.5 28v318q0 20 -7.5 28t-26.5 8h-26v45h100l6 -69q35 45 77 64.5t105 19.5q76 0 113.5 -42.5t37.5 -121.5v-250q0 -20 7.5 -28t26.5 -8h35v-45h-122v330q0 63 -26 91t-87 28q-43 0 -79.5 -17.5t-58.5 -50t-22 -76.5v-224q0 -20 7.5 -28t26.5 -8
h35v-45h-191v45z" />
    <glyph glyph-name="o" unicode="o" horiz-adv-x="558" 
d="M101.5 53q-56.5 68 -56.5 186q0 119 57 187.5t177 68.5t177 -68.5t57 -187.5q0 -118 -56.5 -186t-177.5 -68t-177.5 68zM415.5 83q46.5 52 46.5 156t-46.5 157t-136.5 53t-136.5 -53t-46.5 -157t46.5 -156t136.5 -52t136.5 52z" />
    <glyph glyph-name="p" unicode="p" horiz-adv-x="583" 
d="M35 -166h21q25 0 32 10.5t7 38.5v519q0 22 -7.5 31t-24.5 9h-28v38h105l10 -76q58 91 179 91q98 0 153.5 -65.5t55.5 -185.5q0 -121 -56 -190t-154 -69q-58 0 -102.5 21t-77.5 70v-193q0 -28 7 -38.5t32 -10.5h21v-42h-173v42zM487 244q0 104 -41.5 156.5t-123.5 52.5
q-50 0 -90.5 -24.5t-63.5 -67.5t-23 -97v-56q0 -55 23.5 -95.5t62.5 -62.5t84 -22q172 0 172 216z" />
    <glyph glyph-name="q" unicode="q" horiz-adv-x="583" 
d="M435 76q-33 -49 -79 -70t-105 -21q-98 0 -152 65.5t-54 189.5q0 79 27.5 136.5t77 88t114.5 30.5q58 0 100 -22t71 -74l7 81h106v-38h-28q-17 0 -24.5 -9t-7.5 -31v-519q0 -28 7 -38.5t32 -10.5h21v-42h-113v284zM350.5 50q39.5 22 63.5 63t24 95v56q0 50 -21.5 93.5
t-58.5 69.5t-83 26q-87 0 -133 -54t-46 -161q0 -109 41.5 -159.5t128.5 -50.5q45 0 84.5 22z" />
    <glyph glyph-name="r" unicode="r" horiz-adv-x="366" 
d="M45 45h35q19 0 26.5 8t7.5 28v318q0 20 -7.5 28t-26.5 8h-26v45h93l15 -60q21 35 52.5 47.5t82.5 12.5h34v-45h-32q-71 0 -101.5 -31.5t-30.5 -97.5v-225q0 -20 7.5 -28t26.5 -8h35v-45h-191v45z" />
    <glyph glyph-name="s" unicode="s" horiz-adv-x="445" 
d="M129.5 -1q-47.5 14 -84.5 38v70h53v-46q53 -30 133 -30q61 0 89.5 19t28.5 61q0 37 -26.5 59t-93.5 47q-72 27 -105 43t-53.5 42t-20.5 68q0 61 46.5 93t126.5 32q48 0 91 -13t74 -35v-70h-53v46q-23 13 -49.5 19.5t-63.5 6.5q-62 0 -91.5 -18t-29.5 -61
q0 -38 24.5 -56.5t75.5 -35.5q24 -8 36 -13q8 -3 58.5 -23t77.5 -53t27 -78q0 -60 -43 -93t-129 -33q-51 0 -98.5 14z" />
    <glyph glyph-name="t" unicode="t" horiz-adv-x="399" 
d="M151 23.5q-34 38.5 -34 112.5v299h-82v45h82v117l53 25v-142h157v-45h-157v-300q0 -55 19.5 -79.5t61.5 -24.5q28 0 47 4.5t34 16.5v43h52v-59q-29 -27 -60 -39t-77 -12q-62 0 -96 38.5z" />
    <glyph glyph-name="u" unicode="u" horiz-adv-x="578" 
d="M145.5 28q-41.5 43 -41.5 121v250q0 20 -7.5 28t-26.5 8h-35v45h122v-330q0 -122 122 -122q66 0 108.5 40.5t42.5 112.5v218q0 20 -7.5 28t-26.5 8h-35v45h122v-399q0 -20 7.5 -28t26.5 -8h26v-45h-99l-6 68q-32 -43 -72.5 -63t-101.5 -20q-77 0 -118.5 43z" />
    <glyph glyph-name="v" unicode="v" horiz-adv-x="576" 
d="M102 415q-5 14 -12 18t-28 4h-27v43h99l153 -437l155 437h99v-43h-28q-20 0 -27.5 -4t-12.5 -18l-149 -415h-72z" />
    <glyph glyph-name="w" unicode="w" horiz-adv-x="776" 
d="M102 415q-5 14 -12 18t-28 4h-27v43h101l103 -437l124 394h49l123 -394l105 437h101v-43h-28q-20 0 -27.5 -4t-12.5 -18l-99 -415h-71l-115 367l-115 -367h-71z" />
    <glyph glyph-name="x" unicode="x" horiz-adv-x="572" 
d="M35 45h35q23 0 34.5 7t26.5 26l126 166l-120 158q-15 20 -26 26.5t-34 6.5h-35v45h183v-45h-56l117 -156l117 156h-56v45h183v-45h-35q-23 0 -34 -6.5t-26 -26.5l-121 -158l127 -166q15 -19 26.5 -26t34.5 -7h35v-45h-183v45h55l-123 163l-123 -163h55v-45h-183v45z" />
    <glyph glyph-name="y" unicode="y" horiz-adv-x="548" 
d="M203 -183q-41 17 -74 50v65h52v-43q40 -43 118 -43q66 0 98.5 38t32.5 107v89q-31 -41 -68 -58t-98 -17q-77 0 -118.5 43t-41.5 121v230q0 20 -7.5 28t-26.5 8h-35v45h122v-310q0 -122 122 -122q66 0 108.5 40.5t42.5 112.5v198q0 20 -7.5 28t-26.5 8h-35v45h122v-485
q0 -88 -48.5 -141.5t-131.5 -53.5q-59 0 -100 17z" />
    <glyph glyph-name="z" unicode="z" horiz-adv-x="485" 
d="M45 43l325 394h-224q-20 0 -28 -7.5t-8 -26.5v-25h-48v102h367v-43l-325 -394h252q20 0 28 7.5t8 26.5v25h48v-102h-395v43z" />
    <glyph glyph-name="braceleft" unicode="{" horiz-adv-x="339" 
d="M157 -47.5q-31 35.5 -31 100.5v178q0 43 -20.5 61.5t-59.5 18.5h-11v45h11q39 0 59.5 18.5t20.5 61.5v178q0 65 31 100.5t92 35.5h35v-45h-25q-43 0 -61.5 -21t-18.5 -64v-180q0 -40 -17.5 -68t-47.5 -38v-1q30 -10 47.5 -38t17.5 -68v-180q0 -43 18.5 -64t61.5 -21h25
v-45h-35q-61 0 -92 35.5z" />
    <glyph glyph-name="bar" unicode="|" horiz-adv-x="163" 
d="M55 767h53v-887h-53v887z" />
    <glyph glyph-name="braceright" unicode="}" horiz-adv-x="339" 
d="M55 -38h25q43 0 61.5 21t18.5 64v180q0 40 17.5 68t47.5 38v1q-30 10 -47.5 38t-17.5 68v180q0 43 -18.5 64t-61.5 21h-25v45h35q61 0 92 -35.5t31 -100.5v-178q0 -43 20.5 -61.5t59.5 -18.5h11v-45h-11q-39 0 -59.5 -18.5t-20.5 -61.5v-178q0 -65 -31 -100.5t-92 -35.5
h-35v45z" />
    <glyph glyph-name="asciitilde" unicode="~" horiz-adv-x="569" 
d="M85 336.5q30 33.5 91 33.5q32 0 56 -10t58 -31q33 -20 54.5 -29t48.5 -9q44 0 59 19.5t15 59.5h47q0 -58 -30 -91.5t-91 -33.5q-33 0 -59.5 11t-61.5 32q-34 19 -53.5 27.5t-42.5 8.5q-44 0 -59 -19.5t-15 -59.5h-47q0 58 30 91.5z" />
    <glyph glyph-name="uni00A0" unicode="&#xa0;" horiz-adv-x="400" 
 />
    <glyph glyph-name="exclamdown" unicode="&#xa1;" horiz-adv-x="173" 
d="M55 495h63v-63h-63v63zM62 347h49l6 -499h-61z" />
    <glyph glyph-name="cent" unicode="&#xa2;" horiz-adv-x="518" 
d="M262 -13q-96 9 -156.5 74.5t-60.5 176.5q0 114 58 181t159 75v76h53v-76q50 -2 88 -14.5t70 -35.5v-78h-53v55q-28 15 -58 21.5t-74 6.5q-83 0 -137.5 -51.5t-54.5 -159.5q0 -71 28 -117.5t72 -68t94 -21.5q51 0 83.5 8t65.5 27l24 -39q-33 -20 -68.5 -29.5t-79.5 -11.5
v-76h-53v77z" />
    <glyph glyph-name="sterling" unicode="&#xa3;" horiz-adv-x="488" 
d="M57 45h22q28 0 43 24.5t15 70.5v225h-82v45h82v92q0 73 46 116.5t119 43.5q46 0 79.5 -13t61.5 -39v-59h-52v43q-34 22 -85 22q-53 0 -84.5 -29t-31.5 -84v-93h167v-45h-167v-225q0 -34 -6.5 -56.5t-25.5 -38.5h295v-45h-396v45z" />
    <glyph glyph-name="currency" unicode="&#xa4;" horiz-adv-x="604" 
d="M65 108l80 74q-27 30 -42 67.5t-15 79.5q0 77 47 135l-80 74l32 33l80 -75q59 48 136 48q74 0 134 -47l80 74l32 -33l-80 -73q23 -28 36 -63t13 -73q0 -86 -59 -148l80 -73l-32 -33l-82 76q-54 -37 -122 -37t-123 38l-83 -77zM386.5 182.5q37.5 22.5 59 61.5t21.5 85
t-21.5 85t-59 61.5t-83.5 22.5t-83.5 -22.5t-59 -61.5t-21.5 -85t21.5 -85t59 -61.5t83.5 -22.5t83.5 22.5z" />
    <glyph glyph-name="yen" unicode="&#xa5;" horiz-adv-x="664" 
d="M247 43h25q19 0 26.5 8t7.5 28v55h-134v45h134v54h-134v45h109l-157 290q-10 18 -23 27t-31 9h-25v43h171v-43h-25q-22 0 -22 -13q0 -9 8 -23l155 -289l155 289q8 14 8 23q0 13 -22 13h-25v43h171v-43h-25q-18 0 -31 -9t-23 -27l-157 -290h110v-45h-134v-54h134v-45h-134
v-55q0 -20 7.5 -28t26.5 -8h25v-43h-171v43z" />
    <glyph glyph-name="brokenbar" unicode="&#xa6;" horiz-adv-x="163" 
d="M55 767h53v-333h-53v333zM55 213h53v-333h-53v333z" />
    <glyph glyph-name="section" unicode="&#xa7;" horiz-adv-x="500" 
d="M136.5 -137.5q-60.5 18.5 -101.5 47.5v78h53v-55q29 -19 77.5 -31t94.5 -12q75 0 114.5 32t39.5 90q0 40 -18.5 66.5t-51 45t-86.5 38.5q-76 28 -121.5 52.5t-70.5 58.5t-25 84q0 57 32 97q-32 38 -32 94q0 81 58.5 122.5t151.5 41.5q56 0 111 -15.5t90 -39.5v-78h-53v55
q-25 15 -65 23.5t-84 8.5q-73 0 -115.5 -28.5t-42.5 -89.5q0 -40 23 -66t53.5 -40.5t98.5 -41.5q67 -26 107 -48.5t65.5 -58.5t25.5 -90t-30 -95q30 -39 30 -96q0 -74 -55 -121t-154 -47q-59 0 -119.5 18.5zM414 203q0 40 -18.5 66t-50.5 44t-87 40q-61 23 -92.5 37.5
t-55.5 31.5q-18 -25 -18 -65t23 -66t53.5 -40.5t98.5 -41.5q46 -18 77.5 -33.5t55.5 -33.5q14 23 14 61z" />
    <glyph glyph-name="dieresis" unicode="&#xa8;" horiz-adv-x="367" 
d="M55 661h68v-68h-68v68zM244 661h68v-68h-68v68z" />
    <glyph glyph-name="copyright" unicode="&#xa9;" horiz-adv-x="828" 
d="M233 33q-82 48 -130 130t-48 179q0 98 48 180t130.5 130t181.5 48q98 0 180 -48t130 -130t48 -180t-48 -179.5t-130.5 -129.5t-181.5 -48q-98 0 -180 48zM572 70.5q70 40.5 110 112t40 158.5q0 88 -40 160t-110 113t-158 41t-158 -41t-110 -113t-40 -160q0 -87 40 -158.5
t110 -112t158 -40.5t158 40.5zM288.5 113.5q-55.5 29.5 -88 86.5t-32.5 137q0 122 65.5 189.5t177.5 67.5q62 0 105.5 -12.5t79.5 -38.5v-78h-53v55q-28 15 -58 21.5t-74 6.5q-83 0 -137.5 -51.5t-54.5 -159.5q0 -71 28 -117.5t72 -68t94 -21.5q51 0 83.5 8t65.5 27l24 -39
q-37 -23 -78 -32.5t-95 -9.5q-69 0 -124.5 29.5z" />
    <glyph glyph-name="ordfeminine" unicode="&#xaa;" horiz-adv-x="398" 
d="M79.5 357q-24.5 22 -24.5 63q0 84 104 91l103 7v39q0 37 -14.5 52t-52.5 15q-27 0 -41.5 -3t-32.5 -11v-25h-41v46q50 31 114 31q111 0 111 -106v-154q0 -14 4.5 -20t15.5 -6h18v-31h-62l-11 39q-41 -49 -121 -49q-45 0 -69.5 22zM235 392.5q27 20.5 27 64.5v28l-103 -7
q-34 -2 -48.5 -15.5t-14.5 -42.5q0 -48 65 -48q47 0 74 20.5z" />
    <glyph glyph-name="guillemotleft" unicode="&#xab;" horiz-adv-x="558" 
d="M55 298v50l248 213v-57l-207 -181l207 -181v-57zM255 298v50l248 213v-57l-207 -181l207 -181v-57z" />
    <glyph glyph-name="logicalnot" unicode="&#xac;" horiz-adv-x="511" 
d="M403 282h-348v45h401v-185h-53v140z" />
    <glyph glyph-name="uni00AD" unicode="&#xad;" horiz-adv-x="381" 
d="M55 327h271v-45h-271v45z" />
    <glyph glyph-name="registered" unicode="&#xae;" horiz-adv-x="828" 
d="M233 33q-82 48 -130 130t-48 179q0 98 48 180t130.5 130t181.5 48q98 0 180 -48t130 -130t48 -180t-48 -179.5t-130.5 -129.5t-181.5 -48q-98 0 -180 48zM572 70.5q70 40.5 110 112t40 158.5q0 88 -40 160t-110 113t-158 41t-158 -41t-110 -113t-40 -160q0 -87 40 -158.5
t110 -112t158 -40.5t158 40.5zM227 154h20q15 0 20.5 6t5.5 20v327q0 15 -5.5 20.5t-20.5 5.5h-20v40h220q68 0 105.5 -33t37.5 -91t-35.5 -94.5t-99.5 -38.5l61 -116q14 -27 28 -35t40 -8h26v-39h-26q-41 0 -66 16.5t-47 58.5l-64 123h-89v-136q0 -14 5.5 -20t21.5 -6h21
v-36h-139v36zM440 355q54 0 81 24t27 70q0 47 -25.5 65.5t-82.5 18.5h-122v-178h122z" />
    <glyph glyph-name="macron" unicode="&#xaf;" horiz-adv-x="431" 
d="M55 639h321v-45h-321v45z" />
    <glyph glyph-name="degree" unicode="&#xb0;" horiz-adv-x="356" 
d="M91 452q-36 36 -36 86q0 52 36 88t86 36q52 0 88 -36t36 -88q0 -50 -36 -86t-88 -36q-50 0 -86 36zM234 482.5q23 22.5 23 55.5q0 35 -22.5 57.5t-57.5 22.5q-33 0 -55.5 -23t-22.5 -57q0 -33 22.5 -55.5t55.5 -22.5q34 0 57 22.5z" />
    <glyph glyph-name="plusminus" unicode="&#xb1;" horiz-adv-x="411" 
d="M178 282h-123v45h123v110h53v-110h125v-45h-125v-110h-53v110zM55 85h301v-45h-301v45z" />
    <glyph glyph-name="uni00B2" unicode="&#xb2;" horiz-adv-x="334" 
d="M55 378q0 36 26.5 61t80.5 57q44 26 58 39t14 39q0 27 -17 38.5t-53 11.5q-42 0 -68 -15v-25h-41v46q19 14 50 23t59 9q54 0 83 -23.5t29 -64.5q0 -34 -20.5 -55t-80.5 -58q-42 -26 -59.5 -41.5t-17.5 -36.5h181v-38h-224v33z" />
    <glyph glyph-name="uni00B3" unicode="&#xb3;" horiz-adv-x="345" 
d="M103.5 346.5q-30.5 11.5 -48.5 31.5v41h41v-26q25 -20 71 -20q82 0 82 59q0 30 -16.5 41.5t-55.5 11.5h-40v36h42q35 0 49 13t14 44q0 23 -17.5 34.5t-49.5 11.5q-44 0 -73 -18v-27h-41v48q19 15 49 25t59 10q53 0 83.5 -22t30.5 -62q0 -53 -43 -75q25 -8 37.5 -24.5
t12.5 -46.5q0 -48 -33.5 -72.5t-89.5 -24.5q-33 0 -63.5 11.5z" />
    <glyph glyph-name="acute" unicode="&#xb4;" horiz-adv-x="274" 
d="M140 721h79l-116 -178h-48z" />
    <glyph glyph-name="paragraph" unicode="&#xb6;" horiz-adv-x="623" 
d="M183 -111h31q22 0 30 8t8 28v394q-97 0 -147 42t-50 117q0 85 51 127t158 42h294v-43h-21q-22 0 -30 -8t-8 -28v-643q0 -20 8 -28t30 -8h31v-45h-122v760h-141v-760h-122v45z" />
    <glyph glyph-name="periodcentered" unicode="&#xb7;" horiz-adv-x="179" 
d="M55 341h69v-69h-69v69z" />
    <glyph glyph-name="cedilla" unicode="&#xb8;" horiz-adv-x="280" 
d="M55 -219v39q29 -8 53 -8q74 0 74 47q0 21 -7 32.5t-27 17t-58 5.5l13 86h45l-8 -53q46 -6 65.5 -28t19.5 -58q0 -44 -30.5 -66.5t-85.5 -22.5q-25 0 -54 9z" />
    <glyph glyph-name="uni00B9" unicode="&#xb9;" horiz-adv-x="292" 
d="M69 381h35q22 0 27.5 5.5t5.5 25.5v201l-69 -47l-23 33l90 58h44v-245q0 -20 5.5 -25.5t27.5 -5.5h35v-36h-178v36z" />
    <glyph glyph-name="ordmasculine" unicode="&#xba;" horiz-adv-x="410" 
d="M92.5 379.5q-37.5 44.5 -37.5 118.5q0 75 38 119.5t112 44.5t112 -44.5t38 -119.5q0 -74 -37.5 -118.5t-112.5 -44.5t-112.5 44.5zM313 498q0 126 -108 126t-108 -126q0 -125 108 -125t108 125z" />
    <glyph glyph-name="guillemotright" unicode="&#xbb;" horiz-adv-x="558" 
d="M55 142l207 181l-207 181v57l248 -213v-50l-248 -213v57zM255 142l207 181l-207 181v57l248 -213v-50l-248 -213v57z" />
    <glyph glyph-name="onequarter" unicode="&#xbc;" horiz-adv-x="609" 
d="M79 381h35q22 0 27.5 5.5t5.5 25.5v201l-69 -47l-23 33l90 58h44v-245q0 -20 5.5 -25.5t27.5 -5.5h35v-36h-178v36zM499 647h53l-411 -647h-53zM404 36h31q11 0 14.5 4t3.5 13v30h-155v36l151 193h46v-193h59v-36h-59v-30q0 -9 4 -13t15 -4h30v-36h-140v36zM453 119v142
l-109 -142h109z" />
    <glyph glyph-name="onehalf" unicode="&#xbd;" horiz-adv-x="641" 
d="M79 381h35q22 0 27.5 5.5t5.5 25.5v201l-69 -47l-23 33l90 58h44v-245q0 -20 5.5 -25.5t27.5 -5.5h35v-36h-178v36zM499 647h53l-411 -647h-53zM362 33q0 36 26.5 61t80.5 57q44 26 58 39t14 39q0 27 -17 38.5t-53 11.5q-42 0 -68 -15v-25h-41v46q19 14 50 23t59 9
q54 0 83 -23.5t29 -64.5q0 -34 -20.5 -55t-80.5 -58q-42 -26 -59.5 -41.5t-17.5 -36.5h181v-38h-224v33z" />
    <glyph glyph-name="threequarters" unicode="&#xbe;" horiz-adv-x="616" 
d="M103.5 346.5q-30.5 11.5 -48.5 31.5v41h41v-26q25 -20 71 -20q82 0 82 59q0 30 -16.5 41.5t-55.5 11.5h-40v36h42q35 0 49 13t14 44q0 23 -17.5 34.5t-49.5 11.5q-44 0 -73 -18v-27h-41v48q19 15 49 25t59 10q53 0 83.5 -22t30.5 -62q0 -53 -43 -75q25 -8 37.5 -24.5
t12.5 -46.5q0 -48 -33.5 -72.5t-89.5 -24.5q-33 0 -63.5 11.5zM506 647h53l-411 -647h-53zM411 36h31q11 0 14.5 4t3.5 13v30h-155v36l151 193h46v-193h59v-36h-59v-30q0 -9 4 -13t15 -4h30v-36h-140v36zM460 119v142l-109 -142h109z" />
    <glyph glyph-name="questiondown" unicode="&#xbf;" horiz-adv-x="521" 
d="M270 495h69v-69h-69v69zM113 -127.5q-58 39.5 -58 119.5q0 47 13.5 78t44.5 55t89 52q47 23 61.5 54.5t14.5 83.5v32h53v-32q0 -67 -27 -111t-93 -74q-42 -19 -63.5 -36t-31.5 -40.5t-10 -61.5q0 -113 158 -113q43 0 83 10t66 27v55h53v-78q-35 -26 -90.5 -43t-110.5 -17
q-94 0 -152 39.5z" />
    <glyph glyph-name="Agrave" unicode="&#xc0;" horiz-adv-x="724" 
d="M228 881h79l85 -178h-48zM45 45h35q41 0 54 36l204 566h49l203 -566q13 -36 54 -36h35v-45h-186v45h58l-59 164h-260l-59 -164h58v-45h-186v45zM476 254l-114 318l-114 -318h228z" />
    <glyph glyph-name="Aacute" unicode="&#xc1;" horiz-adv-x="724" 
d="M429 881h79l-116 -178h-48zM45 45h35q41 0 54 36l204 566h49l203 -566q13 -36 54 -36h35v-45h-186v45h58l-59 164h-260l-59 -164h58v-45h-186v45zM476 254l-114 318l-114 -318h228z" />
    <glyph glyph-name="Acircumflex" unicode="&#xc2;" horiz-adv-x="724" 
d="M328 881h69l115 -178h-58l-92 139l-91 -139h-58zM45 45h35q41 0 54 36l204 566h49l203 -566q13 -36 54 -36h35v-45h-186v45h58l-59 164h-260l-59 -164h58v-45h-186v45zM476 254l-114 318l-114 -318h228z" />
    <glyph glyph-name="Atilde" unicode="&#xc3;" horiz-adv-x="724" 
d="M279 808q25 0 46.5 -8.5t49.5 -24.5q26 -14 40.5 -20t30.5 -6q24 0 34.5 12t10.5 47h47q0 -105 -92 -105q-23 0 -42.5 8t-45.5 23q-25 14 -42.5 21t-36.5 7q-24 0 -34.5 -12t-10.5 -47h-47q0 105 92 105zM45 45h35q41 0 54 36l204 566h49l203 -566q13 -36 54 -36h35v-45
h-186v45h58l-59 164h-260l-59 -164h58v-45h-186v45zM476 254l-114 318l-114 -318h228z" />
    <glyph glyph-name="Adieresis" unicode="&#xc4;" horiz-adv-x="724" 
d="M234 791h68v-68h-68v68zM423 791h68v-68h-68v68zM45 45h35q41 0 54 36l204 566h49l203 -566q13 -36 54 -36h35v-45h-186v45h58l-59 164h-260l-59 -164h58v-45h-186v45zM476 254l-114 318l-114 -318h228z" />
    <glyph glyph-name="Aring" unicode="&#xc5;" horiz-adv-x="724" 
d="M679 45v-45h-186v45h58l-59 164h-260l-59 -164h58v-45h-186v45h35q41 0 54 36l191 529q-31 11 -50.5 38.5t-19.5 62.5q0 45 31 76.5t76 31.5t76.5 -31.5t31.5 -76.5q0 -35 -19.5 -62t-50.5 -38l190 -530q13 -36 54 -36h35zM316 665q18 -18 46 -18t46.5 18t18.5 46
t-18.5 46.5t-46.5 18.5t-46 -18.5t-18 -46.5t18 -46zM476 254l-114 318l-114 -318h228z" />
    <glyph glyph-name="AE" unicode="&#xc6;" horiz-adv-x="850" 
d="M45 45h35q41 0 54 36l224 566h447v-103h-48v24q0 19 -8 26.5t-28 7.5h-237v-255h201v-45h-201v-257h237q20 0 28 7.5t8 26.5v25h48v-104h-443v45h31q22 0 30 8t8 28v128h-194l-64 -164h58v-45h-186v45zM431 254v348h-39l-137 -348h176z" />
    <glyph glyph-name="Ccedilla" unicode="&#xc7;" horiz-adv-x="595" 
d="M497 533v55q-53 28 -144 28q-120 0 -188.5 -78.5t-68.5 -216.5q0 -89 33.5 -154.5t93.5 -100.5t136 -35q97 0 157 35l24 -39q-64 -39 -167 -42l-6 -38q46 -6 65.5 -28t19.5 -58q0 -44 -30.5 -66.5t-85.5 -22.5q-25 0 -54 9v39q29 -8 53 -8q74 0 74 47q0 21 -7 32.5
t-27 17t-58 5.5l11 72q-89 7 -153 51.5t-97 117.5t-33 166q0 99 34.5 176t103.5 121t170 44q126 0 197 -51v-78h-53z" />
    <glyph glyph-name="Egrave" unicode="&#xc8;" horiz-adv-x="543" 
d="M162 881h79l85 -178h-48zM45 45h35q19 0 26.5 8t7.5 28v485q0 20 -7.5 28t-26.5 8h-35v45h453v-103h-48v24q0 19 -8 26.5t-28 7.5h-247v-255h211v-45h-211v-257h247q20 0 28 7.5t8 26.5v25h48v-104h-453v45z" />
    <glyph glyph-name="Eacute" unicode="&#xc9;" horiz-adv-x="543" 
d="M329 881h79l-116 -178h-48zM45 45h35q19 0 26.5 8t7.5 28v485q0 20 -7.5 28t-26.5 8h-35v45h453v-103h-48v24q0 19 -8 26.5t-28 7.5h-247v-255h211v-45h-211v-257h247q20 0 28 7.5t8 26.5v25h48v-104h-453v45z" />
    <glyph glyph-name="Ecircumflex" unicode="&#xca;" horiz-adv-x="543" 
d="M248 881h69l115 -178h-58l-92 139l-91 -139h-58zM45 45h35q19 0 26.5 8t7.5 28v485q0 20 -7.5 28t-26.5 8h-35v45h453v-103h-48v24q0 19 -8 26.5t-28 7.5h-247v-255h211v-45h-211v-257h247q20 0 28 7.5t8 26.5v25h48v-104h-453v45z" />
    <glyph glyph-name="Edieresis" unicode="&#xcb;" horiz-adv-x="543" 
d="M155 791h68v-68h-68v68zM344 791h68v-68h-68v68zM45 45h35q19 0 26.5 8t7.5 28v485q0 20 -7.5 28t-26.5 8h-35v45h453v-103h-48v24q0 19 -8 26.5t-28 7.5h-247v-255h211v-45h-211v-257h247q20 0 28 7.5t8 26.5v25h48v-104h-453v45z" />
    <glyph glyph-name="Igrave" unicode="&#xcc;" horiz-adv-x="281" 
d="M0 881h79l85 -178h-48zM45 45h35q19 0 26.5 8t7.5 28v485q0 20 -7.5 28t-26.5 8h-35v45h191v-45h-35q-19 0 -26.5 -8t-7.5 -28v-485q0 -20 7.5 -28t26.5 -8h35v-45h-191v45z" />
    <glyph glyph-name="Iacute" unicode="&#xcd;" horiz-adv-x="281" 
d="M195 881h79l-116 -178h-48zM45 45h35q19 0 26.5 8t7.5 28v485q0 20 -7.5 28t-26.5 8h-35v45h191v-45h-35q-19 0 -26.5 -8t-7.5 -28v-485q0 -20 7.5 -28t26.5 -8h35v-45h-191v45z" />
    <glyph glyph-name="Icircumflex" unicode="&#xce;" horiz-adv-x="281" 
d="M106 881h69l115 -178h-58l-92 139l-91 -139h-58zM45 45h35q19 0 26.5 8t7.5 28v485q0 20 -7.5 28t-26.5 8h-35v45h191v-45h-35q-19 0 -26.5 -8t-7.5 -28v-485q0 -20 7.5 -28t26.5 -8h35v-45h-191v45z" />
    <glyph glyph-name="Idieresis" unicode="&#xcf;" horiz-adv-x="281" 
d="M12 791h68v-68h-68v68zM201 791h68v-68h-68v68zM45 45h35q19 0 26.5 8t7.5 28v485q0 20 -7.5 28t-26.5 8h-35v45h191v-45h-35q-19 0 -26.5 -8t-7.5 -28v-485q0 -20 7.5 -28t26.5 -8h35v-45h-191v45z" />
    <glyph glyph-name="Eth" unicode="&#xd0;" horiz-adv-x="620" 
d="M45 43h25q19 0 26.5 8t7.5 28v223h-59v45h59v221q0 20 -7.5 28t-26.5 8h-25v43h264q136 0 201 -86.5t65 -239.5q0 -150 -67 -235.5t-199 -85.5h-264v43zM304 43q114 0 167 69.5t53 208.5q0 142 -52.5 212.5t-167.5 70.5h-147v-257h159v-45h-159v-259h147z" />
    <glyph glyph-name="Ntilde" unicode="&#xd1;" horiz-adv-x="686" 
d="M259 808q25 0 46.5 -8.5t49.5 -24.5q26 -14 40.5 -20t30.5 -6q24 0 34.5 12t10.5 47h47q0 -105 -92 -105q-23 0 -42.5 8t-45.5 23q-25 14 -42.5 21t-36.5 7q-24 0 -34.5 -12t-10.5 -47h-47q0 105 92 105zM45 45h35q19 0 26.5 8t7.5 28v485q0 20 -7.5 28t-26.5 8h-35v45
h117l357 -553v472q0 20 -7.5 28t-26.5 8h-35v45h191v-45h-35q-19 0 -26.5 -8t-7.5 -28v-566h-48l-357 553v-472q0 -20 7.5 -28t26.5 -8h35v-45h-191v45z" />
    <glyph glyph-name="Ograve" unicode="&#xd2;" horiz-adv-x="652" 
d="M190 881h79l85 -178h-48zM114 68.5q-69 83.5 -69 252.5q0 171 67.5 256t213.5 85t213.5 -85t67.5 -256q0 -169 -69 -252.5t-212 -83.5t-212 83.5zM498 99q58 68 58 222q0 157 -57.5 226t-172.5 69t-172.5 -69t-57.5 -226q0 -154 58 -222t172 -68t172 68z" />
    <glyph glyph-name="Oacute" unicode="&#xd3;" horiz-adv-x="652" 
d="M373 881h79l-116 -178h-48zM114 68.5q-69 83.5 -69 252.5q0 171 67.5 256t213.5 85t213.5 -85t67.5 -256q0 -169 -69 -252.5t-212 -83.5t-212 83.5zM498 99q58 68 58 222q0 157 -57.5 226t-172.5 69t-172.5 -69t-57.5 -226q0 -154 58 -222t172 -68t172 68z" />
    <glyph glyph-name="Ocircumflex" unicode="&#xd4;" horiz-adv-x="652" 
d="M292 881h69l115 -178h-58l-92 139l-91 -139h-58zM114 68.5q-69 83.5 -69 252.5q0 171 67.5 256t213.5 85t213.5 -85t67.5 -256q0 -169 -69 -252.5t-212 -83.5t-212 83.5zM498 99q58 68 58 222q0 157 -57.5 226t-172.5 69t-172.5 -69t-57.5 -226q0 -154 58 -222t172 -68
t172 68z" />
    <glyph glyph-name="Otilde" unicode="&#xd5;" horiz-adv-x="652" 
d="M243 808q25 0 46.5 -8.5t49.5 -24.5q26 -14 40 -20t31 -6q24 0 34.5 12t10.5 47h47q0 -105 -92 -105q-23 0 -42.5 8t-45.5 23q-25 14 -42.5 21t-36.5 7q-24 0 -34.5 -12t-10.5 -47h-47q0 105 92 105zM114 68.5q-69 83.5 -69 252.5q0 171 67.5 256t213.5 85t213.5 -85
t67.5 -256q0 -169 -69 -252.5t-212 -83.5t-212 83.5zM498 99q58 68 58 222q0 157 -57.5 226t-172.5 69t-172.5 -69t-57.5 -226q0 -154 58 -222t172 -68t172 68z" />
    <glyph glyph-name="Odieresis" unicode="&#xd6;" horiz-adv-x="652" 
d="M198 791h68v-68h-68v68zM387 791h68v-68h-68v68zM114 68.5q-69 83.5 -69 252.5q0 171 67.5 256t213.5 85t213.5 -85t67.5 -256q0 -169 -69 -252.5t-212 -83.5t-212 83.5zM498 99q58 68 58 222q0 157 -57.5 226t-172.5 69t-172.5 -69t-57.5 -226q0 -154 58 -222t172 -68
t172 68z" />
    <glyph glyph-name="multiply" unicode="&#xd7;" horiz-adv-x="350" 
d="M56 222l82 82l-83 83l38 37l82 -83l83 83l37 -38l-82 -82l82 -81l-38 -38l-81 81l-82 -82z" />
    <glyph glyph-name="Oslash" unicode="&#xd8;" horiz-adv-x="652" 
d="M179 16q-134 69 -134 305q0 171 67.5 256t213.5 85q51 0 88 -10l14 37h53l-20 -53q75 -33 110.5 -112t35.5 -203q0 -169 -69 -252.5t-212 -83.5q-52 0 -101 13l-15 -41h-53zM398 608q-35 8 -72 8q-115 0 -172.5 -69t-57.5 -226q0 -197 100 -259zM498 99q58 68 58 222
q0 109 -28 175t-83 95l-204 -549q34 -11 85 -11q114 0 172 68z" />
    <glyph glyph-name="Ugrave" unicode="&#xd9;" horiz-adv-x="646" 
d="M195 881h79l85 -178h-48zM151.5 37q-57.5 52 -57.5 140v392q0 20 -7.5 28t-26.5 8h-25v42h171v-42h-25q-19 0 -26.5 -8t-7.5 -28v-399q0 -70 44.5 -106t131.5 -36t131.5 36t44.5 106v399q0 20 -7.5 28t-26.5 8h-25v42h171v-42h-25q-19 0 -26.5 -8t-7.5 -28v-392
q0 -88 -57.5 -140t-171.5 -52t-171.5 52z" />
    <glyph glyph-name="Uacute" unicode="&#xda;" horiz-adv-x="646" 
d="M369 881h79l-116 -178h-48zM151.5 37q-57.5 52 -57.5 140v392q0 20 -7.5 28t-26.5 8h-25v42h171v-42h-25q-19 0 -26.5 -8t-7.5 -28v-399q0 -70 44.5 -106t131.5 -36t131.5 36t44.5 106v399q0 20 -7.5 28t-26.5 8h-25v42h171v-42h-25q-19 0 -26.5 -8t-7.5 -28v-392
q0 -88 -57.5 -140t-171.5 -52t-171.5 52z" />
    <glyph glyph-name="Ucircumflex" unicode="&#xdb;" horiz-adv-x="646" 
d="M289 881h69l115 -178h-58l-92 139l-91 -139h-58zM151.5 37q-57.5 52 -57.5 140v392q0 20 -7.5 28t-26.5 8h-25v42h171v-42h-25q-19 0 -26.5 -8t-7.5 -28v-399q0 -70 44.5 -106t131.5 -36t131.5 36t44.5 106v399q0 20 -7.5 28t-26.5 8h-25v42h171v-42h-25q-19 0 -26.5 -8
t-7.5 -28v-392q0 -88 -57.5 -140t-171.5 -52t-171.5 52z" />
    <glyph glyph-name="Udieresis" unicode="&#xdc;" horiz-adv-x="646" 
d="M195 791h68v-68h-68v68zM384 791h68v-68h-68v68zM151.5 37q-57.5 52 -57.5 140v392q0 20 -7.5 28t-26.5 8h-25v42h171v-42h-25q-19 0 -26.5 -8t-7.5 -28v-399q0 -70 44.5 -106t131.5 -36t131.5 36t44.5 106v399q0 20 -7.5 28t-26.5 8h-25v42h171v-42h-25q-19 0 -26.5 -8
t-7.5 -28v-392q0 -88 -57.5 -140t-171.5 -52t-171.5 52z" />
    <glyph glyph-name="Yacute" unicode="&#xdd;" horiz-adv-x="664" 
d="M381 881h79l-116 -178h-48zM247 43h25q19 0 26.5 8t7.5 28v154l-182 335q-10 18 -23 27t-31 9h-25v43h171v-43h-25q-22 0 -22 -13q0 -9 8 -23l155 -288l155 288q8 14 8 23q0 13 -22 13h-25v43h171v-43h-25q-18 0 -31 -9t-23 -27l-181 -335v-154q0 -20 7.5 -28t26.5 -8h25
v-43h-171v43z" />
    <glyph glyph-name="Thorn" unicode="&#xde;" horiz-adv-x="615" 
d="M45 45h31q22 0 30 8t8 28v485q0 20 -8 28t-30 8h-31v45h122v-128h210q90 0 141.5 -51t51.5 -141q0 -91 -52.5 -145t-141.5 -54h-209v-47q0 -20 8 -28t30 -8h31v-45h-191v45zM369 173q150 0 150 154q0 82 -36 114.5t-114 32.5h-202v-301h202z" />
    <glyph glyph-name="germandbls" unicode="&#xdf;" horiz-adv-x="624" 
d="M238 21l21 40q33 -17 63.5 -23.5t70.5 -6.5q65 0 100 37.5t35 115.5q0 75 -33 112t-113 37h-64v45h55q72 0 105.5 41t33.5 107q0 141 -175 141q-87 0 -128.5 -40t-41.5 -123v-504h-122v45h35q19 0 26.5 8t7.5 28v421q0 97 55 153.5t168 56.5q110 0 168 -51.5t58 -134.5
q0 -55 -25.5 -102.5t-72.5 -65.5q114 -31 114 -175q0 -91 -47.5 -144.5t-138.5 -53.5q-93 0 -155 36z" />
    <glyph glyph-name="agrave" unicode="&#xe0;" horiz-adv-x="518" 
d="M115 707h79l85 -178h-48zM74.5 19q-39.5 34 -39.5 98q0 69 42 100t119 36l174 12v65q0 64 -25 91.5t-91 27.5q-41 0 -70 -6t-56 -19v-37h-53v61q78 47 177 47q93 0 132 -43t39 -123v-251q0 -22 7.5 -31t24.5 -9h28v-38h-96l-11 61q-56 -76 -188 -76q-74 0 -113.5 34z
M323 64.5q47 33.5 47 100.5v58l-175 -12q-62 -4 -85.5 -25t-23.5 -71q0 -42 26.5 -63t87.5 -21q76 0 123 33.5z" />
    <glyph glyph-name="aacute" unicode="&#xe1;" horiz-adv-x="518" 
d="M301 707h79l-116 -178h-48zM74.5 19q-39.5 34 -39.5 98q0 69 42 100t119 36l174 12v65q0 64 -25 91.5t-91 27.5q-41 0 -70 -6t-56 -19v-37h-53v61q78 47 177 47q93 0 132 -43t39 -123v-251q0 -22 7.5 -31t24.5 -9h28v-38h-96l-11 61q-56 -76 -188 -76q-74 0 -113.5 34z
M323 64.5q47 33.5 47 100.5v58l-175 -12q-62 -4 -85.5 -25t-23.5 -71q0 -42 26.5 -63t87.5 -21q76 0 123 33.5z" />
    <glyph glyph-name="acircumflex" unicode="&#xe2;" horiz-adv-x="518" 
d="M211 707h69l115 -178h-58l-92 139l-91 -139h-58zM74.5 19q-39.5 34 -39.5 98q0 69 42 100t119 36l174 12v65q0 64 -25 91.5t-91 27.5q-41 0 -70 -6t-56 -19v-37h-53v61q78 47 177 47q93 0 132 -43t39 -123v-251q0 -22 7.5 -31t24.5 -9h28v-38h-96l-11 61
q-56 -76 -188 -76q-74 0 -113.5 34zM323 64.5q47 33.5 47 100.5v58l-175 -12q-62 -4 -85.5 -25t-23.5 -71q0 -42 26.5 -63t87.5 -21q76 0 123 33.5z" />
    <glyph glyph-name="atilde" unicode="&#xe3;" horiz-adv-x="518" 
d="M171 634q25 0 46.5 -8.5t49.5 -24.5q26 -14 40.5 -20t30.5 -6q24 0 34.5 12t10.5 47h47q0 -105 -92 -105q-23 0 -42.5 8t-45.5 23q-25 14 -42.5 21t-36.5 7q-24 0 -34.5 -12t-10.5 -47h-47q0 105 92 105zM74.5 19q-39.5 34 -39.5 98q0 69 42 100t119 36l174 12v65
q0 64 -25 91.5t-91 27.5q-41 0 -70 -6t-56 -19v-37h-53v61q78 47 177 47q93 0 132 -43t39 -123v-251q0 -22 7.5 -31t24.5 -9h28v-38h-96l-11 61q-56 -76 -188 -76q-74 0 -113.5 34zM323 64.5q47 33.5 47 100.5v58l-175 -12q-62 -4 -85.5 -25t-23.5 -71q0 -42 26.5 -63
t87.5 -21q76 0 123 33.5z" />
    <glyph glyph-name="adieresis" unicode="&#xe4;" horiz-adv-x="518" 
d="M115 617h68v-68h-68v68zM304 617h68v-68h-68v68zM74.5 19q-39.5 34 -39.5 98q0 69 42 100t119 36l174 12v65q0 64 -25 91.5t-91 27.5q-41 0 -70 -6t-56 -19v-37h-53v61q78 47 177 47q93 0 132 -43t39 -123v-251q0 -22 7.5 -31t24.5 -9h28v-38h-96l-11 61
q-56 -76 -188 -76q-74 0 -113.5 34zM323 64.5q47 33.5 47 100.5v58l-175 -12q-62 -4 -85.5 -25t-23.5 -71q0 -42 26.5 -63t87.5 -21q76 0 123 33.5z" />
    <glyph glyph-name="aring" unicode="&#xe5;" horiz-adv-x="518" 
d="M172 560q-31 31 -31 76t31 76.5t76 31.5t76.5 -31.5t31.5 -76.5t-31.5 -76t-76.5 -31t-76 31zM294.5 590q18.5 18 18.5 46t-18.5 46.5t-46.5 18.5t-46 -18.5t-18 -46.5t18 -46t46 -18t46.5 18zM74.5 19q-39.5 34 -39.5 98q0 69 42 100t119 36l174 12v65q0 64 -25 91.5
t-91 27.5q-41 0 -70 -6t-56 -19v-37h-53v61q78 47 177 47q93 0 132 -43t39 -123v-251q0 -22 7.5 -31t24.5 -9h28v-38h-96l-11 61q-56 -76 -188 -76q-74 0 -113.5 34zM323 64.5q47 33.5 47 100.5v58l-175 -12q-62 -4 -85.5 -25t-23.5 -71q0 -42 26.5 -63t87.5 -21
q76 0 123 33.5z" />
    <glyph glyph-name="ae" unicode="&#xe6;" horiz-adv-x="859" 
d="M74.5 19q-39.5 34 -39.5 98q0 69 42 100t119 36l174 12v65q0 64 -25 91.5t-91 27.5q-41 0 -70 -6t-56 -19v-37h-53v61q78 47 177 47q69 0 105.5 -23t54.5 -71q58 94 190 94q106 0 159 -60.5t53 -171.5v-45h-390q0 -62 26.5 -105t68 -64t85.5 -21q51 0 83 7.5t57 23.5v34
h53v-57q-43 -27 -88 -39t-105 -12q-65 0 -116.5 29t-82.5 84q-25 -57 -85 -85t-132 -28q-74 0 -113.5 34zM766 263q0 99 -39.5 142.5t-124.5 43.5t-131.5 -48t-46.5 -138h342zM323 64.5q47 33.5 47 100.5v58l-175 -12q-62 -4 -85.5 -25t-23.5 -71q0 -42 26.5 -63t87.5 -21
q76 0 123 33.5z" />
    <glyph glyph-name="ccedilla" unicode="&#xe7;" horiz-adv-x="508" 
d="M410 366v55q-29 15 -56 21.5t-71 6.5q-82 0 -134.5 -51t-52.5 -160q0 -71 28 -117.5t72 -68t94 -21.5q51 0 83.5 8t65.5 27l24 -39q-34 -21 -70 -30.5t-82 -11.5l-6 -38q46 -6 65.5 -28t19.5 -58q0 -44 -30.5 -66.5t-85.5 -22.5q-25 0 -54 9v39q29 -8 53 -8q74 0 74 47
q0 21 -7 32.5t-27 17t-58 5.5l11 72q-64 5 -114 36t-78.5 86t-28.5 130q0 122 63 189.5t175 67.5q61 0 102.5 -12.5t77.5 -38.5v-78h-53z" />
    <glyph glyph-name="egrave" unicode="&#xe8;" horiz-adv-x="534" 
d="M151 707h79l85 -178h-48zM160 12.5q-53 27.5 -84 83t-31 136.5q0 130 60.5 196.5t171.5 66.5q106 0 159 -61.5t53 -170.5v-45h-390q0 -97 51.5 -143.5t128.5 -46.5q51 0 83 7.5t57 23.5v34h53v-57q-43 -27 -88 -39t-105 -12q-66 0 -119 27.5zM441 263q0 94 -39.5 140
t-124.5 46q-87 0 -132.5 -50t-45.5 -136h342z" />
    <glyph glyph-name="eacute" unicode="&#xe9;" horiz-adv-x="534" 
d="M318 707h79l-116 -178h-48zM160 12.5q-53 27.5 -84 83t-31 136.5q0 130 60.5 196.5t171.5 66.5q106 0 159 -61.5t53 -170.5v-45h-390q0 -97 51.5 -143.5t128.5 -46.5q51 0 83 7.5t57 23.5v34h53v-57q-43 -27 -88 -39t-105 -12q-66 0 -119 27.5zM441 263q0 94 -39.5 140
t-124.5 46q-87 0 -132.5 -50t-45.5 -136h342z" />
    <glyph glyph-name="ecircumflex" unicode="&#xea;" horiz-adv-x="534" 
d="M243 707h69l115 -178h-58l-92 139l-91 -139h-58zM160 12.5q-53 27.5 -84 83t-31 136.5q0 130 60.5 196.5t171.5 66.5q106 0 159 -61.5t53 -170.5v-45h-390q0 -97 51.5 -143.5t128.5 -46.5q51 0 83 7.5t57 23.5v34h53v-57q-43 -27 -88 -39t-105 -12q-66 0 -119 27.5z
M441 263q0 94 -39.5 140t-124.5 46q-87 0 -132.5 -50t-45.5 -136h342z" />
    <glyph glyph-name="edieresis" unicode="&#xeb;" horiz-adv-x="534" 
d="M148 617h68v-68h-68v68zM337 617h68v-68h-68v68zM160 12.5q-53 27.5 -84 83t-31 136.5q0 130 60.5 196.5t171.5 66.5q106 0 159 -61.5t53 -170.5v-45h-390q0 -97 51.5 -143.5t128.5 -46.5q51 0 83 7.5t57 23.5v34h53v-57q-43 -27 -88 -39t-105 -12q-66 0 -119 27.5z
M441 263q0 94 -39.5 140t-124.5 46q-87 0 -132.5 -50t-45.5 -136h342z" />
    <glyph glyph-name="igrave" unicode="&#xec;" horiz-adv-x="261" 
d="M-22 707h79l85 -178h-48zM35 45h35q19 0 26.5 8t7.5 28v318q0 20 -7.5 28t-26.5 8h-35v45h122v-399q0 -20 7.5 -28t26.5 -8h35v-45h-191v45z" />
    <glyph glyph-name="iacute" unicode="&#xed;" horiz-adv-x="261" 
d="M164 707h79l-116 -178h-48zM35 45h35q19 0 26.5 8t7.5 28v318q0 20 -7.5 28t-26.5 8h-35v45h122v-399q0 -20 7.5 -28t26.5 -8h35v-45h-191v45z" />
    <glyph glyph-name="icircumflex" unicode="&#xee;" horiz-adv-x="261" 
d="M71 701h69l115 -178h-58l-92 139l-91 -139h-58zM35 45h35q19 0 26.5 8t7.5 28v318q0 20 -7.5 28t-26.5 8h-35v45h122v-399q0 -20 7.5 -28t26.5 -8h35v-45h-191v45z" />
    <glyph glyph-name="idieresis" unicode="&#xef;" horiz-adv-x="261" 
d="M-23 617h68v-68h-68v68zM166 617h68v-68h-68v68zM35 45h35q19 0 26.5 8t7.5 28v318q0 20 -7.5 28t-26.5 8h-35v45h122v-399q0 -20 7.5 -28t26.5 -8h35v-45h-191v45z" />
    <glyph glyph-name="eth" unicode="&#xf0;" horiz-adv-x="567" 
d="M101 36q-55 51 -55 151q0 29 2 44q11 106 79 167t175 61q110 0 169 -96q1 72 -9 118.5t-34 82.5l-113 -64v52l78 44q-32 20 -79 20q-40 0 -72.5 -7t-64.5 -24l-21 43q28 16 71.5 25t90.5 9q76 0 123 -39l73 42v-52l-42 -24q50 -72 50 -210q0 -46 -6 -103
q-16 -152 -83.5 -221.5t-175.5 -69.5q-101 0 -156 51zM398 82q52 51 63 158q1 7 1 21q0 47 -22 81.5t-58 52.5t-77 18q-96 0 -146.5 -45.5t-59.5 -136.5q-3 -24 -3 -46q0 -81 40 -117.5t126 -36.5q84 0 136 51z" />
    <glyph glyph-name="ntilde" unicode="&#xf1;" horiz-adv-x="597" 
d="M229 634q25 0 46.5 -8.5t49.5 -24.5q26 -14 40 -20t31 -6q24 0 34.5 12t10.5 47h47q0 -105 -92 -105q-23 0 -42.5 8t-45.5 23q-25 14 -42.5 21t-36.5 7q-24 0 -34.5 -12t-10.5 -47h-47q0 105 92 105zM45 45h35q19 0 26.5 8t7.5 28v318q0 20 -7.5 28t-26.5 8h-26v45h100
l6 -69q35 45 77 64.5t105 19.5q76 0 113.5 -42.5t37.5 -121.5v-250q0 -20 7.5 -28t26.5 -8h35v-45h-122v330q0 63 -26 91t-87 28q-43 0 -79.5 -17.5t-58.5 -50t-22 -76.5v-224q0 -20 7.5 -28t26.5 -8h35v-45h-191v45z" />
    <glyph glyph-name="ograve" unicode="&#xf2;" horiz-adv-x="558" 
d="M159 707h79l85 -178h-48zM101.5 53q-56.5 68 -56.5 186q0 119 57 187.5t177 68.5t177 -68.5t57 -187.5q0 -118 -56.5 -186t-177.5 -68t-177.5 68zM415.5 83q46.5 52 46.5 156t-46.5 157t-136.5 53t-136.5 -53t-46.5 -157t46.5 -156t136.5 -52t136.5 52z" />
    <glyph glyph-name="oacute" unicode="&#xf3;" horiz-adv-x="558" 
d="M329 707h79l-116 -178h-48zM101.5 53q-56.5 68 -56.5 186q0 119 57 187.5t177 68.5t177 -68.5t57 -187.5q0 -118 -56.5 -186t-177.5 -68t-177.5 68zM415.5 83q46.5 52 46.5 156t-46.5 157t-136.5 53t-136.5 -53t-46.5 -157t46.5 -156t136.5 -52t136.5 52z" />
    <glyph glyph-name="ocircumflex" unicode="&#xf4;" horiz-adv-x="558" 
d="M245 707h69l115 -178h-58l-92 139l-91 -139h-58zM101.5 53q-56.5 68 -56.5 186q0 119 57 187.5t177 68.5t177 -68.5t57 -187.5q0 -118 -56.5 -186t-177.5 -68t-177.5 68zM415.5 83q46.5 52 46.5 156t-46.5 157t-136.5 53t-136.5 -53t-46.5 -157t46.5 -156t136.5 -52
t136.5 52z" />
    <glyph glyph-name="otilde" unicode="&#xf5;" horiz-adv-x="558" 
d="M196 634q25 0 46.5 -8.5t49.5 -24.5q26 -14 40 -20t31 -6q24 0 34.5 12t10.5 47h47q0 -105 -92 -105q-23 0 -42.5 8t-45.5 23q-25 14 -42.5 21t-36.5 7q-24 0 -34.5 -12t-10.5 -47h-47q0 105 92 105zM101.5 53q-56.5 68 -56.5 186q0 119 57 187.5t177 68.5t177 -68.5
t57 -187.5q0 -118 -56.5 -186t-177.5 -68t-177.5 68zM415.5 83q46.5 52 46.5 156t-46.5 157t-136.5 53t-136.5 -53t-46.5 -157t46.5 -156t136.5 -52t136.5 52z" />
    <glyph glyph-name="odieresis" unicode="&#xf6;" horiz-adv-x="558" 
d="M151 617h68v-68h-68v68zM340 617h68v-68h-68v68zM101.5 53q-56.5 68 -56.5 186q0 119 57 187.5t177 68.5t177 -68.5t57 -187.5q0 -118 -56.5 -186t-177.5 -68t-177.5 68zM415.5 83q46.5 52 46.5 156t-46.5 157t-136.5 53t-136.5 -53t-46.5 -157t46.5 -156t136.5 -52
t136.5 52z" />
    <glyph glyph-name="divide" unicode="&#xf7;" horiz-adv-x="411" 
d="M175 449h59v-59h-59v59zM55 327h301v-45h-301v45zM175 219h59v-59h-59v59z" />
    <glyph glyph-name="oslash" unicode="&#xf8;" horiz-adv-x="558" 
d="M168 5q-63 27 -93 87.5t-30 146.5q0 119 57 187.5t177 68.5q31 0 66 -7l17 47h53l-23 -62q62 -28 91.5 -88.5t29.5 -145.5q0 -118 -56.5 -186t-177.5 -68q-34 0 -64 6l-15 -43h-53zM329 444q-27 5 -50 5q-90 0 -136.5 -53t-46.5 -157q0 -143 88 -189zM415.5 83
q46.5 52 46.5 156q0 142 -87 189l-144 -393q20 -4 48 -4q90 0 136.5 52z" />
    <glyph glyph-name="ugrave" unicode="&#xf9;" horiz-adv-x="578" 
d="M150 707h79l85 -178h-48zM145.5 28q-41.5 43 -41.5 121v250q0 20 -7.5 28t-26.5 8h-35v45h122v-330q0 -122 122 -122q66 0 108.5 40.5t42.5 112.5v218q0 20 -7.5 28t-26.5 8h-35v45h122v-399q0 -20 7.5 -28t26.5 -8h26v-45h-99l-6 68q-32 -43 -72.5 -63t-101.5 -20
q-77 0 -118.5 43z" />
    <glyph glyph-name="uacute" unicode="&#xfa;" horiz-adv-x="578" 
d="M334 707h79l-116 -178h-48zM145.5 28q-41.5 43 -41.5 121v250q0 20 -7.5 28t-26.5 8h-35v45h122v-330q0 -122 122 -122q66 0 108.5 40.5t42.5 112.5v218q0 20 -7.5 28t-26.5 8h-35v45h122v-399q0 -20 7.5 -28t26.5 -8h26v-45h-99l-6 68q-32 -43 -72.5 -63t-101.5 -20
q-77 0 -118.5 43z" />
    <glyph glyph-name="ucircumflex" unicode="&#xfb;" horiz-adv-x="578" 
d="M246 707h69l115 -178h-58l-92 139l-91 -139h-58zM145.5 28q-41.5 43 -41.5 121v250q0 20 -7.5 28t-26.5 8h-35v45h122v-330q0 -122 122 -122q66 0 108.5 40.5t42.5 112.5v218q0 20 -7.5 28t-26.5 8h-35v45h122v-399q0 -20 7.5 -28t26.5 -8h26v-45h-99l-6 68
q-32 -43 -72.5 -63t-101.5 -20q-77 0 -118.5 43z" />
    <glyph glyph-name="udieresis" unicode="&#xfc;" horiz-adv-x="578" 
d="M147 617h68v-68h-68v68zM336 617h68v-68h-68v68zM145.5 28q-41.5 43 -41.5 121v250q0 20 -7.5 28t-26.5 8h-35v45h122v-330q0 -122 122 -122q66 0 108.5 40.5t42.5 112.5v218q0 20 -7.5 28t-26.5 8h-35v45h122v-399q0 -20 7.5 -28t26.5 -8h26v-45h-99l-6 68
q-32 -43 -72.5 -63t-101.5 -20q-77 0 -118.5 43z" />
    <glyph glyph-name="yacute" unicode="&#xfd;" horiz-adv-x="548" 
d="M327 707h79l-116 -178h-48zM203 -183q-41 17 -74 50v65h52v-43q40 -43 118 -43q66 0 98.5 38t32.5 107v89q-31 -41 -68 -58t-98 -17q-77 0 -118.5 43t-41.5 121v230q0 20 -7.5 28t-26.5 8h-35v45h122v-310q0 -122 122 -122q66 0 108.5 40.5t42.5 112.5v198q0 20 -7.5 28
t-26.5 8h-35v45h122v-485q0 -88 -48.5 -141.5t-131.5 -53.5q-59 0 -100 17z" />
    <glyph glyph-name="thorn" unicode="&#xfe;" horiz-adv-x="583" 
d="M95 580q0 22 -7.5 31t-24.5 9h-28v42h113v-258q30 46 76.5 68.5t104.5 22.5q98 0 153.5 -65.5t55.5 -185.5q0 -121 -56 -190t-154 -69q-58 0 -102.5 21t-77.5 70v-193q0 -28 7 -38.5t32 -10.5h21v-42h-113v788zM487 244q0 104 -41.5 156.5t-123.5 52.5q-50 0 -90.5 -24.5
t-63.5 -67.5t-23 -97v-56q0 -55 23.5 -95.5t62.5 -62.5t84 -22q172 0 172 216z" />
    <glyph glyph-name="ydieresis" unicode="&#xff;" horiz-adv-x="548" 
d="M149 617h68v-68h-68v68zM338 617h68v-68h-68v68zM203 -183q-41 17 -74 50v65h52v-43q40 -43 118 -43q66 0 98.5 38t32.5 107v89q-31 -41 -68 -58t-98 -17q-77 0 -118.5 43t-41.5 121v230q0 20 -7.5 28t-26.5 8h-35v45h122v-310q0 -122 122 -122q66 0 108.5 40.5
t42.5 112.5v198q0 20 -7.5 28t-26.5 8h-35v45h122v-485q0 -88 -48.5 -141.5t-131.5 -53.5q-59 0 -100 17z" />
    <glyph glyph-name="Amacron" unicode="&#x100;" horiz-adv-x="724" 
d="M227 768h271v-45h-271v45zM45 45h35q41 0 54 36l204 566h49l203 -566q13 -36 54 -36h35v-45h-186v45h58l-59 164h-260l-59 -164h58v-45h-186v45zM476 254l-114 318l-114 -318h228z" />
    <glyph glyph-name="amacron" unicode="&#x101;" horiz-adv-x="518" 
d="M115 594h271v-45h-271v45zM74.5 19q-39.5 34 -39.5 98q0 69 42 100t119 36l174 12v65q0 64 -25 91.5t-91 27.5q-41 0 -70 -6t-56 -19v-37h-53v61q78 47 177 47q93 0 132 -43t39 -123v-251q0 -22 7.5 -31t24.5 -9h28v-38h-96l-11 61q-56 -76 -188 -76q-74 0 -113.5 34z
M323 64.5q47 33.5 47 100.5v58l-175 -12q-62 -4 -85.5 -25t-23.5 -71q0 -42 26.5 -63t87.5 -21q76 0 123 33.5z" />
    <glyph glyph-name="Abreve" unicode="&#x102;" horiz-adv-x="724" 
d="M261.5 738.5q-39.5 35.5 -39.5 94.5h43q0 -42 26.5 -64.5t70.5 -22.5t70.5 22.5t26.5 64.5h43q0 -59 -39.5 -94.5t-100.5 -35.5t-100.5 35.5zM45 45h35q41 0 54 36l204 566h49l203 -566q13 -36 54 -36h35v-45h-186v45h58l-59 164h-260l-59 -164h58v-45h-186v45zM476 254
l-114 318l-114 -318h228z" />
    <glyph glyph-name="abreve" unicode="&#x103;" horiz-adv-x="518" 
d="M154.5 564.5q-39.5 35.5 -39.5 94.5h43q0 -42 26.5 -64.5t70.5 -22.5t70.5 22.5t26.5 64.5h43q0 -59 -39.5 -94.5t-100.5 -35.5t-100.5 35.5zM74.5 19q-39.5 34 -39.5 98q0 69 42 100t119 36l174 12v65q0 64 -25 91.5t-91 27.5q-41 0 -70 -6t-56 -19v-37h-53v61
q78 47 177 47q93 0 132 -43t39 -123v-251q0 -22 7.5 -31t24.5 -9h28v-38h-96l-11 61q-56 -76 -188 -76q-74 0 -113.5 34zM323 64.5q47 33.5 47 100.5v58l-175 -12q-62 -4 -85.5 -25t-23.5 -71q0 -42 26.5 -63t87.5 -21q76 0 123 33.5z" />
    <glyph glyph-name="Aogonek" unicode="&#x104;" horiz-adv-x="724" 
d="M571 -106q0 -29 10.5 -42t32.5 -13q25 0 49 7v-37q-20 -10 -49 -10q-40 0 -63 24t-23 71q0 59 49 106h-84v45h58l-59 164h-260l-59 -164h58v-45h-186v45h35q41 0 54 36l204 566h49l203 -566q13 -36 54 -36h35v-45h-57q-51 -46 -51 -106zM476 254l-114 318l-114 -318h228z
" />
    <glyph glyph-name="aogonek" unicode="&#x105;" horiz-adv-x="518" 
d="M381 -106q0 -29 10.5 -42t32.5 -13q25 0 49 7v-37q-20 -10 -49 -10q-40 0 -63 24t-23 71q0 59 49 106l-11 61q-56 -76 -188 -76q-74 0 -113.5 34t-39.5 98q0 69 42 100t119 36l174 12v65q0 64 -25 91.5t-91 27.5q-41 0 -70 -6t-56 -19v-37h-53v61q78 47 177 47
q93 0 132 -43t39 -123v-251q0 -22 7.5 -31t24.5 -9h28v-38h-51q-51 -46 -51 -106zM370 223l-175 -12q-62 -4 -85.5 -25t-23.5 -71q0 -42 26.5 -63t87.5 -21q76 0 123 33.5t47 100.5v58z" />
    <glyph glyph-name="Cacute" unicode="&#x106;" horiz-adv-x="595" 
d="M393 881h79l-116 -178h-48zM190 28q-71 43 -108 119t-37 174q0 99 34.5 176t103.5 121t170 44q126 0 197 -51v-78h-53v55q-53 28 -144 28q-120 0 -188.5 -78.5t-68.5 -216.5q0 -89 33.5 -154.5t93.5 -100.5t136 -35q97 0 157 35l24 -39q-69 -42 -181 -42q-98 0 -169 43z
" />
    <glyph glyph-name="cacute" unicode="&#x107;" horiz-adv-x="508" 
d="M324 707h79l-116 -178h-48zM165.5 14.5q-55.5 29.5 -88 86.5t-32.5 137q0 122 63 189.5t175 67.5q61 0 102.5 -12.5t77.5 -38.5v-78h-53v55q-29 15 -56 21.5t-71 6.5q-82 0 -134.5 -51t-52.5 -160q0 -71 28 -117.5t72 -68t94 -21.5q51 0 83.5 8t65.5 27l24 -39
q-37 -23 -78 -32.5t-95 -9.5q-69 0 -124.5 29.5z" />
    <glyph glyph-name="Ccircumflex" unicode="&#x108;" horiz-adv-x="595" 
d="M321 881h69l115 -178h-58l-92 139l-91 -139h-58zM190 28q-71 43 -108 119t-37 174q0 99 34.5 176t103.5 121t170 44q126 0 197 -51v-78h-53v55q-53 28 -144 28q-120 0 -188.5 -78.5t-68.5 -216.5q0 -89 33.5 -154.5t93.5 -100.5t136 -35q97 0 157 35l24 -39
q-69 -42 -181 -42q-98 0 -169 43z" />
    <glyph glyph-name="ccircumflex" unicode="&#x109;" horiz-adv-x="508" 
d="M255 707h69l115 -178h-58l-92 139l-91 -139h-58zM165.5 14.5q-55.5 29.5 -88 86.5t-32.5 137q0 122 63 189.5t175 67.5q61 0 102.5 -12.5t77.5 -38.5v-78h-53v55q-29 15 -56 21.5t-71 6.5q-82 0 -134.5 -51t-52.5 -160q0 -71 28 -117.5t72 -68t94 -21.5q51 0 83.5 8
t65.5 27l24 -39q-37 -23 -78 -32.5t-95 -9.5q-69 0 -124.5 29.5z" />
    <glyph glyph-name="Cdotaccent" unicode="&#x10a;" horiz-adv-x="595" 
d="M327 791h68v-68h-68v68zM190 28q-71 43 -108 119t-37 174q0 99 34.5 176t103.5 121t170 44q126 0 197 -51v-78h-53v55q-53 28 -144 28q-120 0 -188.5 -78.5t-68.5 -216.5q0 -89 33.5 -154.5t93.5 -100.5t136 -35q97 0 157 35l24 -39q-69 -42 -181 -42q-98 0 -169 43z" />
    <glyph glyph-name="cdotaccent" unicode="&#x10b;" horiz-adv-x="508" 
d="M260 641h68v-68h-68v68zM165.5 14.5q-55.5 29.5 -88 86.5t-32.5 137q0 122 63 189.5t175 67.5q61 0 102.5 -12.5t77.5 -38.5v-78h-53v55q-29 15 -56 21.5t-71 6.5q-82 0 -134.5 -51t-52.5 -160q0 -71 28 -117.5t72 -68t94 -21.5q51 0 83.5 8t65.5 27l24 -39
q-37 -23 -78 -32.5t-95 -9.5q-69 0 -124.5 29.5z" />
    <glyph glyph-name="Ccaron" unicode="&#x10c;" horiz-adv-x="595" 
d="M201 881h58l91 -139l92 139h58l-115 -178h-69zM190 28q-71 43 -108 119t-37 174q0 99 34.5 176t103.5 121t170 44q126 0 197 -51v-78h-53v55q-53 28 -144 28q-120 0 -188.5 -78.5t-68.5 -216.5q0 -89 33.5 -154.5t93.5 -100.5t136 -35q97 0 157 35l24 -39
q-69 -42 -181 -42q-98 0 -169 43z" />
    <glyph glyph-name="ccaron" unicode="&#x10d;" horiz-adv-x="508" 
d="M145 707h58l91 -139l92 139h58l-115 -178h-69zM165.5 14.5q-55.5 29.5 -88 86.5t-32.5 137q0 122 63 189.5t175 67.5q61 0 102.5 -12.5t77.5 -38.5v-78h-53v55q-29 15 -56 21.5t-71 6.5q-82 0 -134.5 -51t-52.5 -160q0 -71 28 -117.5t72 -68t94 -21.5q51 0 83.5 8
t65.5 27l24 -39q-37 -23 -78 -32.5t-95 -9.5q-69 0 -124.5 29.5z" />
    <glyph glyph-name="Dcaron" unicode="&#x10e;" horiz-adv-x="620" 
d="M140 881h58l91 -139l92 139h58l-115 -178h-69zM45 43h25q19 0 26.5 8t7.5 28v489q0 20 -7.5 28t-26.5 8h-25v43h264q136 0 201 -86.5t65 -239.5q0 -150 -67 -235.5t-199 -85.5h-264v43zM304 43q114 0 167 69.5t53 208.5q0 142 -52.5 212.5t-167.5 70.5h-147v-561h147z
" />
    <glyph glyph-name="dcaron" unicode="&#x10f;" horiz-adv-x="695" 
d="M591 721h79l-86 -178h-48zM100.5 51q-55.5 65 -55.5 185q0 121 56 190t154 69q66 0 109 -21t71 -70v167q0 28 -7 38.5t-32 10.5h-21v42h113v-584q0 -22 7.5 -31t24.5 -9h28v-38h-105l-10 76q-58 -90 -179 -90q-98 0 -153.5 65zM351.5 52q40.5 24 63.5 67t23 97v56
q0 83 -47.5 131.5t-122.5 48.5q-172 0 -172 -216q0 -103 41.5 -155.5t123.5 -52.5q50 0 90.5 24z" />
    <glyph glyph-name="Dcroat" unicode="&#x110;" horiz-adv-x="620" 
d="M45 43h25q19 0 26.5 8t7.5 28v223h-59v45h59v221q0 20 -7.5 28t-26.5 8h-25v43h264q136 0 201 -86.5t65 -239.5q0 -150 -67 -235.5t-199 -85.5h-264v43zM304 43q114 0 167 69.5t53 208.5q0 142 -52.5 212.5t-167.5 70.5h-147v-257h159v-45h-159v-259h147z" />
    <glyph glyph-name="dcroat" unicode="&#x111;" horiz-adv-x="583" 
d="M100.5 51q-55.5 65 -55.5 185q0 121 56 190t154 69q66 0 109 -21t71 -70v134h-166v45h166q0 19 -8.5 28t-30.5 9h-21v42h113v-79h52v-45h-52v-460q0 -22 7.5 -31t24.5 -9h28v-38h-105l-10 76q-58 -90 -179 -90q-98 0 -153.5 65zM351.5 52q40.5 24 63.5 67t23 97v56
q0 83 -47.5 131.5t-122.5 48.5q-172 0 -172 -216q0 -103 41.5 -155.5t123.5 -52.5q50 0 90.5 24z" />
    <glyph glyph-name="Emacron" unicode="&#x112;" horiz-adv-x="543" 
d="M148 768h271v-45h-271v45zM45 45h35q19 0 26.5 8t7.5 28v485q0 20 -7.5 28t-26.5 8h-35v45h453v-103h-48v24q0 19 -8 26.5t-28 7.5h-247v-255h211v-45h-211v-257h247q20 0 28 7.5t8 26.5v25h48v-104h-453v45z" />
    <glyph glyph-name="emacron" unicode="&#x113;" horiz-adv-x="534" 
d="M147 594h271v-45h-271v45zM160 12.5q-53 27.5 -84 83t-31 136.5q0 130 60.5 196.5t171.5 66.5q106 0 159 -61.5t53 -170.5v-45h-390q0 -97 51.5 -143.5t128.5 -46.5q51 0 83 7.5t57 23.5v34h53v-57q-43 -27 -88 -39t-105 -12q-66 0 -119 27.5zM441 263q0 94 -39.5 140
t-124.5 46q-87 0 -132.5 -50t-45.5 -136h342z" />
    <glyph glyph-name="Ebreve" unicode="&#x114;" horiz-adv-x="543" 
d="M201.5 738.5q-39.5 35.5 -39.5 94.5h43q0 -42 26.5 -64.5t70.5 -22.5t70.5 22.5t26.5 64.5h43q0 -59 -39.5 -94.5t-100.5 -35.5t-100.5 35.5zM45 45h35q19 0 26.5 8t7.5 28v485q0 20 -7.5 28t-26.5 8h-35v45h453v-103h-48v24q0 19 -8 26.5t-28 7.5h-247v-255h211v-45
h-211v-257h247q20 0 28 7.5t8 26.5v25h48v-104h-453v45z" />
    <glyph glyph-name="ebreve" unicode="&#x115;" horiz-adv-x="534" 
d="M180.5 564.5q-39.5 35.5 -39.5 94.5h43q0 -42 26.5 -64.5t70.5 -22.5t70.5 22.5t26.5 64.5h43q0 -59 -39.5 -94.5t-100.5 -35.5t-100.5 35.5zM160 12.5q-53 27.5 -84 83t-31 136.5q0 130 60.5 196.5t171.5 66.5q106 0 159 -61.5t53 -170.5v-45h-390q0 -97 51.5 -143.5
t128.5 -46.5q51 0 83 7.5t57 23.5v34h53v-57q-43 -27 -88 -39t-105 -12q-66 0 -119 27.5zM441 263q0 94 -39.5 140t-124.5 46q-87 0 -132.5 -50t-45.5 -136h342z" />
    <glyph glyph-name="Edotaccent" unicode="&#x116;" horiz-adv-x="543" 
d="M258 791h68v-68h-68v68zM45 45h35q19 0 26.5 8t7.5 28v485q0 20 -7.5 28t-26.5 8h-35v45h453v-103h-48v24q0 19 -8 26.5t-28 7.5h-247v-255h211v-45h-211v-257h247q20 0 28 7.5t8 26.5v25h48v-104h-453v45z" />
    <glyph glyph-name="edotaccent" unicode="&#x117;" horiz-adv-x="534" 
d="M247 617h68v-68h-68v68zM160 12.5q-53 27.5 -84 83t-31 136.5q0 130 60.5 196.5t171.5 66.5q106 0 159 -61.5t53 -170.5v-45h-390q0 -97 51.5 -143.5t128.5 -46.5q51 0 83 7.5t57 23.5v34h53v-57q-43 -27 -88 -39t-105 -12q-66 0 -119 27.5zM441 263q0 94 -39.5 140
t-124.5 46q-87 0 -132.5 -50t-45.5 -136h342z" />
    <glyph glyph-name="Eogonek" unicode="&#x118;" horiz-adv-x="543" 
d="M450 544v24q0 19 -8 26.5t-28 7.5h-247v-255h211v-45h-211v-257h247q20 0 28 7.5t8 26.5v25h48v-104h-41q-51 -46 -51 -106q0 -29 10.5 -42t32.5 -13q25 0 49 7v-37q-20 -10 -49 -10q-40 0 -63 24t-23 71q0 59 49 106h-367v45h35q19 0 26.5 8t7.5 28v485q0 20 -7.5 28
t-26.5 8h-35v45h453v-103h-48z" />
    <glyph glyph-name="eogonek" unicode="&#x119;" horiz-adv-x="534" 
d="M489 218h-390q0 -97 51.5 -143.5t128.5 -46.5q51 0 83 7.5t57 23.5v34h53v-57q-39 -25 -78 -36q-51 -46 -51 -106q0 -29 10.5 -42t32.5 -13q25 0 49 7v-37q-20 -10 -49 -10q-40 0 -63 24t-23 71q0 51 38 94q-27 -3 -59 -3q-66 0 -119 27.5t-84 83t-31 136.5
q0 130 60.5 196.5t171.5 66.5q106 0 159 -61.5t53 -170.5v-45zM441 263q0 94 -39.5 140t-124.5 46q-87 0 -132.5 -50t-45.5 -136h342z" />
    <glyph glyph-name="Ecaron" unicode="&#x11a;" horiz-adv-x="543" 
d="M143 881h58l91 -139l92 139h58l-115 -178h-69zM45 45h35q19 0 26.5 8t7.5 28v485q0 20 -7.5 28t-26.5 8h-35v45h453v-103h-48v24q0 19 -8 26.5t-28 7.5h-247v-255h211v-45h-211v-257h247q20 0 28 7.5t8 26.5v25h48v-104h-453v45z" />
    <glyph glyph-name="ecaron" unicode="&#x11b;" horiz-adv-x="534" 
d="M132 707h58l91 -139l92 139h58l-115 -178h-69zM160 12.5q-53 27.5 -84 83t-31 136.5q0 130 60.5 196.5t171.5 66.5q106 0 159 -61.5t53 -170.5v-45h-390q0 -97 51.5 -143.5t128.5 -46.5q51 0 83 7.5t57 23.5v34h53v-57q-43 -27 -88 -39t-105 -12q-66 0 -119 27.5z
M441 263q0 94 -39.5 140t-124.5 46q-87 0 -132.5 -50t-45.5 -136h342z" />
    <glyph glyph-name="Gcircumflex" unicode="&#x11c;" horiz-adv-x="604" 
d="M310 881h69l115 -178h-58l-92 139l-91 -139h-58zM182.5 28q-68.5 43 -103 119t-34.5 174q0 154 74.5 247.5t223.5 93.5q126 0 197 -51v-78h-53v55q-53 28 -144 28q-119 0 -183 -77.5t-64 -217.5q0 -136 67.5 -213t185.5 -77q49 0 86 7t71 23v219h-153v45h206v-285
q-46 -29 -96 -42t-114 -13q-98 0 -166.5 43z" />
    <glyph glyph-name="gcircumflex" unicode="&#x11d;" horiz-adv-x="583" 
d="M243 707h69l115 -178h-58l-92 139l-91 -139h-58zM211.5 -186q-39.5 14 -75.5 45v65h52v-43q22 -19 50 -27t68 -8q62 0 95.5 38.5t33.5 106.5v86q-28 -49 -71 -70t-109 -21q-98 0 -154 69t-56 190q0 119 58 184.5t157 65.5q57 0 100 -21.5t73 -68.5l10 75h105v-38h-28
q-17 0 -24.5 -9t-7.5 -31v-407q0 -88 -48.5 -141.5t-129.5 -53.5q-59 0 -98.5 14zM390.5 77.5q47.5 48.5 47.5 131.5v56q0 55 -21.5 97.5t-60.5 66.5t-89 24q-83 0 -127 -52.5t-44 -155.5q0 -216 172 -216q75 0 122.5 48.5z" />
    <glyph glyph-name="Gbreve" unicode="&#x11e;" horiz-adv-x="604" 
d="M242.5 738.5q-39.5 35.5 -39.5 94.5h43q0 -42 26.5 -64.5t70.5 -22.5t70.5 22.5t26.5 64.5h43q0 -59 -39.5 -94.5t-100.5 -35.5t-100.5 35.5zM182.5 28q-68.5 43 -103 119t-34.5 174q0 154 74.5 247.5t223.5 93.5q126 0 197 -51v-78h-53v55q-53 28 -144 28
q-119 0 -183 -77.5t-64 -217.5q0 -136 67.5 -213t185.5 -77q49 0 86 7t71 23v219h-153v45h206v-285q-46 -29 -96 -42t-114 -13q-98 0 -166.5 43z" />
    <glyph glyph-name="gbreve" unicode="&#x11f;" horiz-adv-x="583" 
d="M156.5 564.5q-39.5 35.5 -39.5 94.5h43q0 -42 26.5 -64.5t70.5 -22.5t70.5 22.5t26.5 64.5h43q0 -59 -39.5 -94.5t-100.5 -35.5t-100.5 35.5zM211.5 -186q-39.5 14 -75.5 45v65h52v-43q22 -19 50 -27t68 -8q62 0 95.5 38.5t33.5 106.5v86q-28 -49 -71 -70t-109 -21
q-98 0 -154 69t-56 190q0 119 58 184.5t157 65.5q57 0 100 -21.5t73 -68.5l10 75h105v-38h-28q-17 0 -24.5 -9t-7.5 -31v-407q0 -88 -48.5 -141.5t-129.5 -53.5q-59 0 -98.5 14zM390.5 77.5q47.5 48.5 47.5 131.5v56q0 55 -21.5 97.5t-60.5 66.5t-89 24q-83 0 -127 -52.5
t-44 -155.5q0 -216 172 -216q75 0 122.5 48.5z" />
    <glyph glyph-name="Gdotaccent" unicode="&#x120;" horiz-adv-x="604" 
d="M309 771h68v-68h-68v68zM182.5 28q-68.5 43 -103 119t-34.5 174q0 154 74.5 247.5t223.5 93.5q126 0 197 -51v-78h-53v55q-53 28 -144 28q-119 0 -183 -77.5t-64 -217.5q0 -136 67.5 -213t185.5 -77q49 0 86 7t71 23v219h-153v45h206v-285q-46 -29 -96 -42t-114 -13
q-98 0 -166.5 43z" />
    <glyph glyph-name="gdotaccent" unicode="&#x121;" horiz-adv-x="583" 
d="M233 617h68v-68h-68v68zM211.5 -186q-39.5 14 -75.5 45v65h52v-43q22 -19 50 -27t68 -8q62 0 95.5 38.5t33.5 106.5v86q-28 -49 -71 -70t-109 -21q-98 0 -154 69t-56 190q0 119 58 184.5t157 65.5q57 0 100 -21.5t73 -68.5l10 75h105v-38h-28q-17 0 -24.5 -9t-7.5 -31
v-407q0 -88 -48.5 -141.5t-129.5 -53.5q-59 0 -98.5 14zM390.5 77.5q47.5 48.5 47.5 131.5v56q0 55 -21.5 97.5t-60.5 66.5t-89 24q-83 0 -127 -52.5t-44 -155.5q0 -216 172 -216q75 0 122.5 48.5z" />
    <glyph glyph-name="Gcommaaccent" unicode="&#x122;" horiz-adv-x="604" 
d="M182.5 28q-68.5 43 -103 119t-34.5 174q0 154 74.5 247.5t223.5 93.5q126 0 197 -51v-78h-53v55q-53 28 -144 28q-119 0 -183 -77.5t-64 -217.5q0 -136 67.5 -213t185.5 -77q49 0 86 7t71 23v219h-153v45h206v-285q-46 -29 -96 -42t-114 -13q-98 0 -166.5 43zM334 -49h67
l-56 -185h-39z" />
    <glyph glyph-name="gcommaaccent" unicode="&#x123;" horiz-adv-x="583" 
d="M272 767h39l-28 -185h-67zM211.5 -186q-39.5 14 -75.5 45v65h52v-43q22 -19 50 -27t68 -8q62 0 95.5 38.5t33.5 106.5v86q-28 -49 -71 -70t-109 -21q-98 0 -154 69t-56 190q0 119 58 184.5t157 65.5q57 0 100 -21.5t73 -68.5l10 75h105v-38h-28q-17 0 -24.5 -9t-7.5 -31
v-407q0 -88 -48.5 -141.5t-129.5 -53.5q-59 0 -98.5 14zM390.5 77.5q47.5 48.5 47.5 131.5v56q0 55 -21.5 97.5t-60.5 66.5t-89 24q-83 0 -127 -52.5t-44 -155.5q0 -216 172 -216q75 0 122.5 48.5z" />
    <glyph glyph-name="Hcircumflex" unicode="&#x124;" horiz-adv-x="676" 
d="M304 881h69l115 -178h-58l-92 139l-91 -139h-58zM45 45h35q19 0 26.5 8t7.5 28v485q0 20 -7.5 28t-26.5 8h-35v45h191v-45h-35q-19 0 -26.5 -8t-7.5 -28v-219h342v219q0 20 -7.5 28t-26.5 8h-35v45h191v-45h-35q-19 0 -26.5 -8t-7.5 -28v-485q0 -20 7.5 -28t26.5 -8h35
v-45h-191v45h35q19 0 26.5 8t7.5 28v221h-342v-221q0 -20 7.5 -28t26.5 -8h35v-45h-191v45z" />
    <glyph glyph-name="hcircumflex" unicode="&#x125;" horiz-adv-x="598" 
d="M199 881h69l115 -178h-58l-92 139l-91 -139h-58zM45 45h35q19 0 26.5 8t7.5 28v500q0 20 -7.5 28t-26.5 8h-26v45h113v-242q33 39 75 57t100 18q73 0 112.5 -43t39.5 -121v-250q0 -20 7.5 -28t26.5 -8h35v-45h-123v330q0 63 -27.5 92.5t-85.5 29.5q-42 0 -79 -18
t-59 -51.5t-22 -77.5v-224q0 -20 7.5 -28t26.5 -8h35v-45h-191v45z" />
    <glyph glyph-name="Hbar" unicode="&#x126;" horiz-adv-x="676" 
d="M569.5 594q-7.5 -8 -7.5 -28v-86h69v-45h-69v-354q0 -20 7.5 -28t26.5 -8h35v-45h-191v45h35q19 0 26.5 8t7.5 28v221h-342v-221q0 -20 7.5 -28t26.5 -8h35v-45h-191v45h35q19 0 26.5 8t7.5 28v354h-68v45h68v86q0 20 -7.5 28t-26.5 8h-35v45h191v-45h-35q-19 0 -26.5 -8
t-7.5 -28v-86h342v86q0 20 -7.5 28t-26.5 8h-35v45h191v-45h-35q-19 0 -26.5 -8zM509 435h-342v-88h342v88z" />
    <glyph glyph-name="hbar" unicode="&#x127;" horiz-adv-x="598" 
d="M45 45h35q19 0 26.5 8t7.5 28v450h-60v45h60v5q0 20 -7.5 28t-26.5 8h-26v45h113v-86h208v-45h-208v-111q33 39 75 57t100 18q73 0 112.5 -43t39.5 -121v-250q0 -20 7.5 -28t26.5 -8h35v-45h-123v330q0 63 -27.5 92.5t-85.5 29.5q-42 0 -79 -18t-59 -51.5t-22 -77.5v-224
q0 -20 7.5 -28t26.5 -8h35v-45h-191v45z" />
    <glyph glyph-name="Itilde" unicode="&#x128;" horiz-adv-x="281" 
d="M56 808q25 0 46.5 -8.5t49.5 -24.5q26 -14 40.5 -20t30.5 -6q24 0 34.5 12t10.5 47h47q0 -105 -92 -105q-23 0 -42.5 8t-45.5 23q-25 14 -42.5 21t-36.5 7q-24 0 -34.5 -12t-10.5 -47h-47q0 105 92 105zM45 45h35q19 0 26.5 8t7.5 28v485q0 20 -7.5 28t-26.5 8h-35v45
h191v-45h-35q-19 0 -26.5 -8t-7.5 -28v-485q0 -20 7.5 -28t26.5 -8h35v-45h-191v45z" />
    <glyph glyph-name="itilde" unicode="&#x129;" horiz-adv-x="261" 
d="M38 634q25 0 46.5 -8.5t49.5 -24.5q26 -14 40 -20t31 -6q24 0 34.5 12t10.5 47h47q0 -105 -92 -105q-23 0 -42.5 8t-45.5 23q-25 14 -42.5 21t-36.5 7q-24 0 -34.5 -12t-10.5 -47h-47q0 105 92 105zM35 45h35q19 0 26.5 8t7.5 28v318q0 20 -7.5 28t-26.5 8h-35v45h122
v-399q0 -20 7.5 -28t26.5 -8h35v-45h-191v45z" />
    <glyph glyph-name="Imacron" unicode="&#x12a;" horiz-adv-x="281" 
d="M5 768h271v-45h-271v45zM45 45h35q19 0 26.5 8t7.5 28v485q0 20 -7.5 28t-26.5 8h-35v45h191v-45h-35q-19 0 -26.5 -8t-7.5 -28v-485q0 -20 7.5 -28t26.5 -8h35v-45h-191v45z" />
    <glyph glyph-name="imacron" unicode="&#x12b;" horiz-adv-x="261" 
d="M-28 589h271v-45h-271v45zM35 45h35q19 0 26.5 8t7.5 28v318q0 20 -7.5 28t-26.5 8h-35v45h122v-399q0 -20 7.5 -28t26.5 -8h35v-45h-191v45z" />
    <glyph glyph-name="Ibreve" unicode="&#x12c;" horiz-adv-x="281" 
d="M39.5 738.5q-39.5 35.5 -39.5 94.5h43q0 -42 26.5 -64.5t70.5 -22.5t70.5 22.5t26.5 64.5h43q0 -59 -39.5 -94.5t-100.5 -35.5t-100.5 35.5zM45 45h35q19 0 26.5 8t7.5 28v485q0 20 -7.5 28t-26.5 8h-35v45h191v-45h-35q-19 0 -26.5 -8t-7.5 -28v-485q0 -20 7.5 -28
t26.5 -8h35v-45h-191v45z" />
    <glyph glyph-name="ibreve" unicode="&#x12d;" horiz-adv-x="261" 
d="M29.5 564.5q-39.5 35.5 -39.5 94.5h43q0 -42 26.5 -64.5t70.5 -22.5t70.5 22.5t26.5 64.5h43q0 -59 -39.5 -94.5t-100.5 -35.5t-100.5 35.5zM35 45h35q19 0 26.5 8t7.5 28v318q0 20 -7.5 28t-26.5 8h-35v45h122v-399q0 -20 7.5 -28t26.5 -8h35v-45h-191v45z" />
    <glyph glyph-name="Iogonek" unicode="&#x12e;" horiz-adv-x="281" 
d="M174.5 594q-7.5 -8 -7.5 -28v-485q0 -20 7.5 -28t26.5 -8h35v-45h-69q-51 -46 -51 -106q0 -29 10.5 -42t32.5 -13q25 0 49 7v-37q-20 -10 -49 -10q-40 0 -63 24t-23 71q0 59 49 106h-77v45h35q19 0 26.5 8t7.5 28v485q0 20 -7.5 28t-26.5 8h-35v45h191v-45h-35
q-19 0 -26.5 -8z" />
    <glyph glyph-name="iogonek" unicode="&#x12f;" horiz-adv-x="261" 
d="M162 564h-63v63h63v-63zM113 -106q0 -29 10.5 -42t32.5 -13q25 0 49 7v-37q-20 -10 -49 -10q-40 0 -63 24t-23 71q0 59 49 106h-84v45h35q19 0 26.5 8t7.5 28v318q0 20 -7.5 28t-26.5 8h-35v45h122v-399q0 -20 7.5 -28t26.5 -8h35v-45h-62q-51 -46 -51 -106z" />
    <glyph glyph-name="Idotaccent" unicode="&#x130;" horiz-adv-x="281" 
d="M106 791h68v-68h-68v68zM45 45h35q19 0 26.5 8t7.5 28v485q0 20 -7.5 28t-26.5 8h-35v45h191v-45h-35q-19 0 -26.5 -8t-7.5 -28v-485q0 -20 7.5 -28t26.5 -8h35v-45h-191v45z" />
    <glyph glyph-name="dotlessi" unicode="&#x131;" horiz-adv-x="261" 
d="M35 45h35q19 0 26.5 8t7.5 28v318q0 20 -7.5 28t-26.5 8h-35v45h122v-399q0 -20 7.5 -28t26.5 -8h35v-45h-191v45z" />
    <glyph glyph-name="IJ" unicode="&#x132;" horiz-adv-x="727" 
d="M45 45h35q19 0 26.5 8t7.5 28v485q0 20 -7.5 28t-26.5 8h-35v45h191v-45h-35q-19 0 -26.5 -8t-7.5 -28v-485q0 -20 7.5 -28t26.5 -8h35v-45h-191v45zM344 2q-42 17 -75 50v65h52v-43q40 -43 120 -43q67 0 98 35t31 104v396q0 20 -7.5 28t-26.5 8h-35v45h191v-45h-35
q-19 0 -26.5 -8t-7.5 -28v-392q0 -89 -45.5 -139t-132.5 -50q-59 0 -101 17z" />
    <glyph glyph-name="ij" unicode="&#x133;" horiz-adv-x="497" 
d="M99 627h63v-63h-63v63zM369 627h63v-63h-63v63zM35 45h35q19 0 26.5 8t7.5 28v318q0 20 -7.5 28t-26.5 8h-35v45h122v-399q0 -20 7.5 -28t26.5 -8h35v-45h-191v45zM198 -155.5q-33 13.5 -65 44.5v65h52v-43q17 -19 38.5 -26.5t51.5 -7.5q50 0 74.5 27.5t24.5 93.5v401
q0 20 -7.5 28t-26.5 8h-35v45h122v-478q0 -85 -39 -128t-109 -43q-48 0 -81 13.5z" />
    <glyph glyph-name="Jcircumflex" unicode="&#x134;" horiz-adv-x="483" 
d="M306 881h69l115 -178h-58l-92 139l-91 -139h-58zM90 2q-42 17 -75 50v65h52v-43q40 -43 120 -43q67 0 98 35t31 104v396q0 20 -7.5 28t-26.5 8h-35v45h191v-45h-35q-19 0 -26.5 -8t-7.5 -28v-392q0 -89 -45.5 -139t-132.5 -50q-59 0 -101 17z" />
    <glyph glyph-name="jcircumflex" unicode="&#x135;" horiz-adv-x="395" 
d="M196 707h69l115 -178h-58l-92 139l-91 -139h-58zM50 -155.5q-33 13.5 -65 44.5v65h52v-43q17 -19 38.5 -26.5t51.5 -7.5q50 0 74.5 27.5t24.5 93.5v401q0 20 -7.5 28t-26.5 8h-35v45h122v-478q0 -85 -39 -128t-109 -43q-48 0 -81 13.5z" />
    <glyph glyph-name="Kcommaaccent" unicode="&#x136;" horiz-adv-x="634" 
d="M45 45h31q22 0 30 8t8 28v487q0 20 -7.5 28t-26.5 8h-25v43h171v-43h-25q-19 0 -26.5 -8t-7.5 -28v-272l282 306h-58v45h186v-45h-40q-18 0 -28.5 -7t-29.5 -26l-179 -194l195 -295q13 -19 26 -27t33 -8h35v-45h-190v45h58l-193 291l-97 -105v-150q0 -20 8 -28t30 -8h31
v-45h-191v45zM283 -49h67l-56 -185h-39z" />
    <glyph glyph-name="kcommaaccent" unicode="&#x137;" horiz-adv-x="572" 
d="M45 45h31q22 0 30 8t8 28v502q0 20 -7.5 28t-26.5 8h-25v43h171v-43h-25q-19 0 -26.5 -8t-7.5 -28v-348l223 200h-59v45h186v-45h-39q-15 0 -22.5 -3.5t-15 -11t-11.5 -10.5l-121 -109l136 -223q13 -21 23.5 -27t34.5 -6h35v-45h-102l-166 267l-102 -92v-94q0 -20 8 -28
t30 -8h31v-45h-191v45zM266 -49h67l-56 -185h-39z" />
    <glyph glyph-name="kgreenlandic" unicode="&#x138;" horiz-adv-x="570" 
d="M45 45h31q22 0 30 8t8 28v320q0 20 -7.5 28t-26.5 8h-25v43h171v-43h-25q-19 0 -26.5 -8t-7.5 -28v-185l218 219h-58v45h186v-45h-35q-18 0 -29.5 -7t-30.5 -26l-121 -119l134 -203q13 -19 24.5 -27t34.5 -8h35v-45h-190v45h63l-135 205l-96 -95v-74q0 -20 8 -28t30 -8
h31v-45h-191v45z" />
    <glyph glyph-name="Lacute" unicode="&#x139;" horiz-adv-x="503" 
d="M189 881h79l-116 -178h-48zM45 43h21q22 0 30 8t8 28v489q0 20 -7.5 28t-26.5 8h-25v43h171v-43h-25q-19 0 -26.5 -8t-7.5 -28v-525h247q20 0 28 7.5t8 26.5v25h48v-102h-443v43z" />
    <glyph glyph-name="lacute" unicode="&#x13a;" horiz-adv-x="271" 
d="M145 881h79l-116 -178h-48zM45 45h35q19 0 26.5 8t7.5 28v500q0 20 -7.5 28t-26.5 8h-35v45h122v-581q0 -20 7.5 -28t26.5 -8h35v-45h-191v45z" />
    <glyph glyph-name="Lcommaaccent" unicode="&#x13b;" horiz-adv-x="503" 
d="M45 43h21q22 0 30 8t8 28v489q0 20 -7.5 28t-26.5 8h-25v43h171v-43h-25q-19 0 -26.5 -8t-7.5 -28v-525h247q20 0 28 7.5t8 26.5v25h48v-102h-443v43zM236 -49h67l-56 -185h-39z" />
    <glyph glyph-name="lcommaaccent" unicode="&#x13c;" horiz-adv-x="271" 
d="M45 45h35q19 0 26.5 8t7.5 28v500q0 20 -7.5 28t-26.5 8h-35v45h122v-581q0 -20 7.5 -28t26.5 -8h35v-45h-191v45zM113 -49h67l-56 -185h-39z" />
    <glyph glyph-name="Lcaron" unicode="&#x13d;" horiz-adv-x="503" 
d="M347 714h67l-56 -185h-39zM45 43h21q22 0 30 8t8 28v489q0 20 -7.5 28t-26.5 8h-25v43h171v-43h-25q-19 0 -26.5 -8t-7.5 -28v-525h247q20 0 28 7.5t8 26.5v25h48v-102h-443v43z" />
    <glyph glyph-name="lcaron" unicode="&#x13e;" horiz-adv-x="361" 
d="M289 760h67l-56 -185h-39zM45 45h35q19 0 26.5 8t7.5 28v500q0 20 -7.5 28t-26.5 8h-35v45h122v-581q0 -20 7.5 -28t26.5 -8h35v-45h-191v45z" />
    <glyph glyph-name="Ldot" unicode="&#x13f;" horiz-adv-x="503" 
d="M45 43h21q22 0 30 8t8 28v489q0 20 -7.5 28t-26.5 8h-25v43h171v-43h-25q-19 0 -26.5 -8t-7.5 -28v-525h247q20 0 28 7.5t8 26.5v25h48v-102h-443v43zM289 340h68v-68h-68v68z" />
    <glyph glyph-name="ldot" unicode="&#x140;" horiz-adv-x="342" 
d="M45 45h35q19 0 26.5 8t7.5 28v500q0 20 -7.5 28t-26.5 8h-35v45h122v-581q0 -20 7.5 -28t26.5 -8h35v-45h-191v45zM269 349h68v-68h-68v68z" />
    <glyph glyph-name="Lslash" unicode="&#x141;" horiz-adv-x="505" 
d="M490 102v-102h-443v43h21q22 0 30 8t8 28v164l-61 -35v52l61 35v273q0 20 -7.5 28t-26.5 8h-25v43h171v-43h-25q-19 0 -26.5 -8t-7.5 -28v-242l133 76v-52l-133 -76v-231h247q20 0 28 7.5t8 26.5v25h48z" />
    <glyph glyph-name="lslash" unicode="&#x142;" horiz-adv-x="274" 
d="M170 292v-211q0 -20 7.5 -28t26.5 -8h35v-45h-191v45h35q19 0 26.5 8t7.5 28v180l-93 -53v52l93 53v268q0 20 -7.5 28t-26.5 8h-35v45h122v-318l101 58v-52z" />
    <glyph glyph-name="Nacute" unicode="&#x143;" horiz-adv-x="686" 
d="M384 881h79l-116 -178h-48zM45 45h35q19 0 26.5 8t7.5 28v485q0 20 -7.5 28t-26.5 8h-35v45h117l357 -553v472q0 20 -7.5 28t-26.5 8h-35v45h191v-45h-35q-19 0 -26.5 -8t-7.5 -28v-566h-48l-357 553v-472q0 -20 7.5 -28t26.5 -8h35v-45h-191v45z" />
    <glyph glyph-name="nacute" unicode="&#x144;" horiz-adv-x="597" 
d="M346 707h79l-116 -178h-48zM45 45h35q19 0 26.5 8t7.5 28v318q0 20 -7.5 28t-26.5 8h-26v45h100l6 -69q35 45 77 64.5t105 19.5q76 0 113.5 -42.5t37.5 -121.5v-250q0 -20 7.5 -28t26.5 -8h35v-45h-122v330q0 63 -26 91t-87 28q-43 0 -79.5 -17.5t-58.5 -50t-22 -76.5
v-224q0 -20 7.5 -28t26.5 -8h35v-45h-191v45z" />
    <glyph glyph-name="Ncommaaccent" unicode="&#x145;" horiz-adv-x="686" 
d="M45 45h35q19 0 26.5 8t7.5 28v485q0 20 -7.5 28t-26.5 8h-35v45h117l357 -553v472q0 20 -7.5 28t-26.5 8h-35v45h191v-45h-35q-19 0 -26.5 -8t-7.5 -28v-566h-48l-357 553v-472q0 -20 7.5 -28t26.5 -8h35v-45h-191v45zM329 -49h67l-56 -185h-39z" />
    <glyph glyph-name="ncommaaccent" unicode="&#x146;" horiz-adv-x="597" 
d="M45 45h35q19 0 26.5 8t7.5 28v318q0 20 -7.5 28t-26.5 8h-26v45h100l6 -69q35 45 77 64.5t105 19.5q76 0 113.5 -42.5t37.5 -121.5v-250q0 -20 7.5 -28t26.5 -8h35v-45h-122v330q0 63 -26 91t-87 28q-43 0 -79.5 -17.5t-58.5 -50t-22 -76.5v-224q0 -20 7.5 -28t26.5 -8
h35v-45h-191v45zM304 -49h67l-56 -185h-39z" />
    <glyph glyph-name="Ncaron" unicode="&#x147;" horiz-adv-x="686" 
d="M188 881h58l91 -139l92 139h58l-115 -178h-69zM45 45h35q19 0 26.5 8t7.5 28v485q0 20 -7.5 28t-26.5 8h-35v45h117l357 -553v472q0 20 -7.5 28t-26.5 8h-35v45h191v-45h-35q-19 0 -26.5 -8t-7.5 -28v-566h-48l-357 553v-472q0 -20 7.5 -28t26.5 -8h35v-45h-191v45z" />
    <glyph glyph-name="ncaron" unicode="&#x148;" horiz-adv-x="597" 
d="M156 707h58l91 -139l92 139h58l-115 -178h-69zM45 45h35q19 0 26.5 8t7.5 28v318q0 20 -7.5 28t-26.5 8h-26v45h100l6 -69q35 45 77 64.5t105 19.5q76 0 113.5 -42.5t37.5 -121.5v-250q0 -20 7.5 -28t26.5 -8h35v-45h-122v330q0 63 -26 91t-87 28q-43 0 -79.5 -17.5
t-58.5 -50t-22 -76.5v-224q0 -20 7.5 -28t26.5 -8h35v-45h-191v45z" />
    <glyph glyph-name="napostrophe" unicode="&#x149;" horiz-adv-x="666" 
d="M73 714h67l-56 -185h-39zM114 45h35q19 0 26.5 8t7.5 28v318q0 20 -7.5 28t-26.5 8h-26v45h100l6 -69q35 45 77 64.5t105 19.5q76 0 113.5 -42.5t37.5 -121.5v-250q0 -20 7.5 -28t26.5 -8h35v-45h-122v330q0 63 -26 91t-87 28q-43 0 -79.5 -17.5t-58.5 -50t-22 -76.5
v-224q0 -20 7.5 -28t26.5 -8h35v-45h-191v45z" />
    <glyph glyph-name="Eng" unicode="&#x14a;" horiz-adv-x="686" 
d="M293 -268q-42 17 -75 50v65h52v-43q40 -43 120 -43q67 0 98 35t31 104v107l-352 546v-472q0 -20 7.5 -28t26.5 -8h35v-45h-191v45h35q19 0 26.5 8t7.5 28v485q0 20 -7.5 28t-26.5 8h-35v45h117l357 -553v472q0 20 -7.5 28t-26.5 8h-35v45h191v-45h-35q-19 0 -26.5 -8
t-7.5 -28v-662q0 -89 -45.5 -139t-132.5 -50q-59 0 -101 17z" />
    <glyph glyph-name="eng" unicode="&#x14b;" horiz-adv-x="573" 
d="M264 -246.5q-33 13.5 -65 44.5v65h52v-43q17 -19 38.5 -26.5t51.5 -7.5q50 0 74.5 27.5t24.5 93.5v423q0 63 -26 91t-87 28q-43 0 -79.5 -17.5t-58.5 -50t-22 -76.5v-224q0 -20 7.5 -28t26.5 -8h35v-45h-191v45h35q19 0 26.5 8t7.5 28v318q0 20 -7.5 28t-26.5 8h-26v45
h100l6 -69q35 45 77 64.5t105 19.5q76 0 113.5 -42.5t37.5 -121.5v-420q0 -85 -39 -128t-109 -43q-48 0 -81 13.5z" />
    <glyph glyph-name="Omacron" unicode="&#x14c;" horiz-adv-x="652" 
d="M191 768h271v-45h-271v45zM114 68.5q-69 83.5 -69 252.5q0 171 67.5 256t213.5 85t213.5 -85t67.5 -256q0 -169 -69 -252.5t-212 -83.5t-212 83.5zM498 99q58 68 58 222q0 157 -57.5 226t-172.5 69t-172.5 -69t-57.5 -226q0 -154 58 -222t172 -68t172 68z" />
    <glyph glyph-name="omacron" unicode="&#x14d;" horiz-adv-x="558" 
d="M144 594h271v-45h-271v45zM101.5 53q-56.5 68 -56.5 186q0 119 57 187.5t177 68.5t177 -68.5t57 -187.5q0 -118 -56.5 -186t-177.5 -68t-177.5 68zM415.5 83q46.5 52 46.5 156t-46.5 157t-136.5 53t-136.5 -53t-46.5 -157t46.5 -156t136.5 -52t136.5 52z" />
    <glyph glyph-name="Obreve" unicode="&#x14e;" horiz-adv-x="652" 
d="M225.5 738.5q-39.5 35.5 -39.5 94.5h43q0 -42 26.5 -64.5t70.5 -22.5t70.5 22.5t26.5 64.5h43q0 -59 -39.5 -94.5t-100.5 -35.5t-100.5 35.5zM114 68.5q-69 83.5 -69 252.5q0 171 67.5 256t213.5 85t213.5 -85t67.5 -256q0 -169 -69 -252.5t-212 -83.5t-212 83.5zM498 99
q58 68 58 222q0 157 -57.5 226t-172.5 69t-172.5 -69t-57.5 -226q0 -154 58 -222t172 -68t172 68z" />
    <glyph glyph-name="obreve" unicode="&#x14f;" horiz-adv-x="558" 
d="M178.5 564.5q-39.5 35.5 -39.5 94.5h43q0 -42 26.5 -64.5t70.5 -22.5t70.5 22.5t26.5 64.5h43q0 -59 -39.5 -94.5t-100.5 -35.5t-100.5 35.5zM101.5 53q-56.5 68 -56.5 186q0 119 57 187.5t177 68.5t177 -68.5t57 -187.5q0 -118 -56.5 -186t-177.5 -68t-177.5 68z
M415.5 83q46.5 52 46.5 156t-46.5 157t-136.5 53t-136.5 -53t-46.5 -157t46.5 -156t136.5 -52t136.5 52z" />
    <glyph glyph-name="Ohungarumlaut" unicode="&#x150;" horiz-adv-x="652" 
d="M280 881h79l-116 -178h-48zM446 881h79l-116 -178h-48zM114 68.5q-69 83.5 -69 252.5q0 171 67.5 256t213.5 85t213.5 -85t67.5 -256q0 -169 -69 -252.5t-212 -83.5t-212 83.5zM498 99q58 68 58 222q0 157 -57.5 226t-172.5 69t-172.5 -69t-57.5 -226q0 -154 58 -222
t172 -68t172 68z" />
    <glyph glyph-name="ohungarumlaut" unicode="&#x151;" horiz-adv-x="558" 
d="M242 707h79l-116 -178h-48zM408 707h79l-116 -178h-48zM101.5 53q-56.5 68 -56.5 186q0 119 57 187.5t177 68.5t177 -68.5t57 -187.5q0 -118 -56.5 -186t-177.5 -68t-177.5 68zM415.5 83q46.5 52 46.5 156t-46.5 157t-136.5 53t-136.5 -53t-46.5 -157t46.5 -156
t136.5 -52t136.5 52z" />
    <glyph glyph-name="OE" unicode="&#x152;" horiz-adv-x="814" 
d="M117.5 77.5q-72.5 77.5 -72.5 243.5q0 168 71 247t220 79h433v-103h-48v24q0 19 -8 26.5t-28 7.5h-227v-255h191v-45h-191v-257h227q20 0 28 7.5t8 26.5v25h48v-104h-433q-146 0 -218.5 77.5zM405 45v556h-69q-119 0 -179.5 -63t-60.5 -217q0 -151 61 -213.5t179 -62.5
h69z" />
    <glyph glyph-name="oe" unicode="&#x153;" horiz-adv-x="951" 
d="M101.5 53q-56.5 68 -56.5 186q0 119 57 187.5t177 68.5q80 0 132 -32t77 -91q28 60 81 91.5t125 31.5q106 0 159 -60.5t53 -171.5v-45h-390q0 -62 26.5 -105t68 -64t85.5 -21q51 0 83 7.5t57 23.5v34h53v-57q-43 -27 -88 -39t-105 -12q-72 0 -124.5 31t-81.5 91
q-28 -56 -80.5 -89t-130.5 -33q-121 0 -177.5 68zM415.5 83q46.5 52 46.5 156t-47 157t-136 53q-90 0 -136.5 -53t-46.5 -157t46.5 -156t136.5 -52t136.5 52zM858 263q0 99 -39.5 142.5t-124.5 43.5t-131.5 -48t-46.5 -138h342z" />
    <glyph glyph-name="Racute" unicode="&#x154;" horiz-adv-x="609" 
d="M338 881h79l-116 -178h-48zM45 45h31q22 0 30 8t8 28v485q0 20 -8 28t-30 8h-31v45h305q91 0 142 -47t51 -130q0 -80 -47.5 -130.5t-132.5 -54.5l107 -205q10 -20 24 -27.5t35 -7.5h35v-45h-190v45h58l-126 240h-139v-204q0 -20 8 -28t30 -8h31v-45h-191v45zM342 330
q74 0 112 37t38 103q0 69 -36 100.5t-114 31.5h-175v-272h175z" />
    <glyph glyph-name="racute" unicode="&#x155;" horiz-adv-x="366" 
d="M254 707h79l-116 -178h-48zM45 45h35q19 0 26.5 8t7.5 28v318q0 20 -7.5 28t-26.5 8h-26v45h93l15 -60q21 35 52.5 47.5t82.5 12.5h34v-45h-32q-71 0 -101.5 -31.5t-30.5 -97.5v-225q0 -20 7.5 -28t26.5 -8h35v-45h-191v45z" />
    <glyph glyph-name="Rcommaaccent" unicode="&#x156;" horiz-adv-x="609" 
d="M45 45h31q22 0 30 8t8 28v485q0 20 -8 28t-30 8h-31v45h305q91 0 142 -47t51 -130q0 -80 -47.5 -130.5t-132.5 -54.5l107 -205q10 -20 24 -27.5t35 -7.5h35v-45h-190v45h58l-126 240h-139v-204q0 -20 8 -28t30 -8h31v-45h-191v45zM342 330q74 0 112 37t38 103
q0 69 -36 100.5t-114 31.5h-175v-272h175zM285 -49h67l-56 -185h-39z" />
    <glyph glyph-name="rcommaaccent" unicode="&#x157;" horiz-adv-x="366" 
d="M45 45h35q19 0 26.5 8t7.5 28v318q0 20 -7.5 28t-26.5 8h-26v45h93l15 -60q21 35 52.5 47.5t82.5 12.5h34v-45h-32q-71 0 -101.5 -31.5t-30.5 -97.5v-225q0 -20 7.5 -28t26.5 -8h35v-45h-191v45zM120 -49h67l-56 -185h-39z" />
    <glyph glyph-name="Rcaron" unicode="&#x158;" horiz-adv-x="609" 
d="M156 881h58l91 -139l92 139h58l-115 -178h-69zM45 45h31q22 0 30 8t8 28v485q0 20 -8 28t-30 8h-31v45h305q91 0 142 -47t51 -130q0 -80 -47.5 -130.5t-132.5 -54.5l107 -205q10 -20 24 -27.5t35 -7.5h35v-45h-190v45h58l-126 240h-139v-204q0 -20 8 -28t30 -8h31v-45
h-191v45zM342 330q74 0 112 37t38 103q0 69 -36 100.5t-114 31.5h-175v-272h175z" />
    <glyph glyph-name="rcaron" unicode="&#x159;" horiz-adv-x="366" 
d="M45 707h58l91 -139l92 139h58l-115 -178h-69zM45 45h35q19 0 26.5 8t7.5 28v318q0 20 -7.5 28t-26.5 8h-26v45h93l15 -60q21 35 52.5 47.5t82.5 12.5h34v-45h-32q-71 0 -101.5 -31.5t-30.5 -97.5v-225q0 -20 7.5 -28t26.5 -8h35v-45h-191v45z" />
    <glyph glyph-name="Sacute" unicode="&#x15a;" horiz-adv-x="520" 
d="M317 881h79l-116 -178h-48zM146.5 3.5q-60.5 18.5 -101.5 47.5v80h55v-57q29 -19 76.5 -31t93.5 -12q75 0 114.5 32t39.5 90q0 40 -18.5 66.5t-51 45t-86.5 38.5q-76 28 -121.5 52.5t-70.5 58.5t-25 84q0 81 58.5 122.5t151.5 41.5q56 0 111 -15.5t90 -39.5v-80h-55v57
q-26 15 -65 23.5t-82 8.5q-73 0 -115.5 -28.5t-42.5 -89.5q0 -40 23 -66t53.5 -40.5t98.5 -41.5q67 -26 107 -48.5t65.5 -58.5t25.5 -90q0 -74 -55 -121t-154 -47q-59 0 -119.5 18.5z" />
    <glyph glyph-name="sacute" unicode="&#x15b;" horiz-adv-x="445" 
d="M278 707h79l-116 -178h-48zM129.5 -1q-47.5 14 -84.5 38v70h53v-46q53 -30 133 -30q61 0 89.5 19t28.5 61q0 37 -26.5 59t-93.5 47q-72 27 -105 43t-53.5 42t-20.5 68q0 61 46.5 93t126.5 32q48 0 91 -13t74 -35v-70h-53v46q-23 13 -49.5 19.5t-63.5 6.5q-62 0 -91.5 -18
t-29.5 -61q0 -38 24.5 -56.5t75.5 -35.5q24 -8 36 -13q8 -3 58.5 -23t77.5 -53t27 -78q0 -60 -43 -93t-129 -33q-51 0 -98.5 14z" />
    <glyph glyph-name="Scircumflex" unicode="&#x15c;" horiz-adv-x="520" 
d="M231 881h69l115 -178h-58l-92 139l-91 -139h-58zM146.5 3.5q-60.5 18.5 -101.5 47.5v80h55v-57q29 -19 76.5 -31t93.5 -12q75 0 114.5 32t39.5 90q0 40 -18.5 66.5t-51 45t-86.5 38.5q-76 28 -121.5 52.5t-70.5 58.5t-25 84q0 81 58.5 122.5t151.5 41.5q56 0 111 -15.5
t90 -39.5v-80h-55v57q-26 15 -65 23.5t-82 8.5q-73 0 -115.5 -28.5t-42.5 -89.5q0 -40 23 -66t53.5 -40.5t98.5 -41.5q67 -26 107 -48.5t65.5 -58.5t25.5 -90q0 -74 -55 -121t-154 -47q-59 0 -119.5 18.5z" />
    <glyph glyph-name="scircumflex" unicode="&#x15d;" horiz-adv-x="445" 
d="M193 707h69l115 -178h-58l-92 139l-91 -139h-58zM129.5 -1q-47.5 14 -84.5 38v70h53v-46q53 -30 133 -30q61 0 89.5 19t28.5 61q0 37 -26.5 59t-93.5 47q-72 27 -105 43t-53.5 42t-20.5 68q0 61 46.5 93t126.5 32q48 0 91 -13t74 -35v-70h-53v46q-23 13 -49.5 19.5
t-63.5 6.5q-62 0 -91.5 -18t-29.5 -61q0 -38 24.5 -56.5t75.5 -35.5q24 -8 36 -13q8 -3 58.5 -23t77.5 -53t27 -78q0 -60 -43 -93t-129 -33q-51 0 -98.5 14z" />
    <glyph glyph-name="Scedilla" unicode="&#x15e;" horiz-adv-x="520" 
d="M424 35.5q-51 -46.5 -143 -50.5l-6 -38q46 -6 65.5 -28t19.5 -58q0 -44 -30.5 -66.5t-85.5 -22.5q-25 0 -54 9v39q29 -8 53 -8q74 0 74 47q0 21 -7 32.5t-27 17t-58 5.5l11 72q-53 4 -104.5 21.5t-86.5 43.5v80h55v-57q29 -19 76.5 -31t93.5 -12q75 0 114.5 32t39.5 90
q0 40 -18.5 66.5t-51 45t-86.5 38.5q-76 28 -121.5 52.5t-70.5 58.5t-25 84q0 81 58.5 122.5t151.5 41.5q56 0 111 -15.5t90 -39.5v-80h-55v57q-26 15 -65 23.5t-82 8.5q-73 0 -115.5 -28.5t-42.5 -89.5q0 -40 23 -66t53.5 -40.5t98.5 -41.5q67 -26 107 -48.5t65.5 -58.5
t25.5 -90q0 -71 -51 -117.5z" />
    <glyph glyph-name="scedilla" unicode="&#x15f;" horiz-adv-x="445" 
d="M361.5 21.5q-38.5 -32.5 -115.5 -36.5l-6 -38q46 -6 65.5 -28t19.5 -58q0 -44 -30.5 -66.5t-85.5 -22.5q-25 0 -54 9v39q29 -8 53 -8q74 0 74 47q0 21 -7 32.5t-27 17t-58 5.5l11 72q-88 6 -156 51v70h53v-46q53 -30 133 -30q61 0 89.5 19t28.5 61q0 37 -26.5 59
t-93.5 47q-72 27 -105 43t-53.5 42t-20.5 68q0 61 46.5 93t126.5 32q48 0 91 -13t74 -35v-70h-53v46q-23 13 -49.5 19.5t-63.5 6.5q-62 0 -91.5 -18t-29.5 -61q0 -38 24.5 -56.5t75.5 -35.5q24 -8 36 -13q8 -3 58.5 -23t77.5 -53t27 -78q0 -57 -38.5 -89.5z" />
    <glyph glyph-name="Scaron" unicode="&#x160;" horiz-adv-x="520" 
d="M120 881h58l91 -139l92 139h58l-115 -178h-69zM146.5 3.5q-60.5 18.5 -101.5 47.5v80h55v-57q29 -19 76.5 -31t93.5 -12q75 0 114.5 32t39.5 90q0 40 -18.5 66.5t-51 45t-86.5 38.5q-76 28 -121.5 52.5t-70.5 58.5t-25 84q0 81 58.5 122.5t151.5 41.5q56 0 111 -15.5
t90 -39.5v-80h-55v57q-26 15 -65 23.5t-82 8.5q-73 0 -115.5 -28.5t-42.5 -89.5q0 -40 23 -66t53.5 -40.5t98.5 -41.5q67 -26 107 -48.5t65.5 -58.5t25.5 -90q0 -74 -55 -121t-154 -47q-59 0 -119.5 18.5z" />
    <glyph glyph-name="scaron" unicode="&#x161;" horiz-adv-x="445" 
d="M75 707h58l91 -139l92 139h58l-115 -178h-69zM129.5 -1q-47.5 14 -84.5 38v70h53v-46q53 -30 133 -30q61 0 89.5 19t28.5 61q0 37 -26.5 59t-93.5 47q-72 27 -105 43t-53.5 42t-20.5 68q0 61 46.5 93t126.5 32q48 0 91 -13t74 -35v-70h-53v46q-23 13 -49.5 19.5
t-63.5 6.5q-62 0 -91.5 -18t-29.5 -61q0 -38 24.5 -56.5t75.5 -35.5q24 -8 36 -13q8 -3 58.5 -23t77.5 -53t27 -78q0 -60 -43 -93t-129 -33q-51 0 -98.5 14z" />
    <glyph glyph-name="uni0162" unicode="&#x162;" horiz-adv-x="527" 
d="M492 647v-103h-48v24q0 19 -8 26.5t-28 7.5h-118v-521q0 -20 8 -28t30 -8h31v-45h-73l-8 -53q46 -6 65.5 -28t19.5 -58q0 -44 -30.5 -66.5t-85.5 -22.5q-25 0 -54 9v39q29 -8 53 -8q74 0 74 47q0 21 -7 32.5t-27 17t-58 5.5l13 86h-73v45h31q22 0 30 8t8 28v521h-118
q-20 0 -28 -7.5t-8 -26.5v-24h-48v103h457z" />
    <glyph glyph-name="uni0163" unicode="&#x163;" horiz-adv-x="399" 
d="M331.5 0q-26.5 -12 -63.5 -14l-6 -39q46 -6 65.5 -28t19.5 -58q0 -44 -30.5 -66.5t-85.5 -22.5q-25 0 -54 9v39q29 -8 53 -8q74 0 74 47q0 21 -7 32.5t-27 17t-58 5.5l11 73q-51 7 -78.5 45t-27.5 104v299h-82v45h82v117l53 25v-142h157v-45h-157v-300q0 -55 19.5 -79.5
t61.5 -24.5q28 0 47 4.5t34 16.5v43h52v-59q-26 -24 -52.5 -36z" />
    <glyph glyph-name="Tcaron" unicode="&#x164;" horiz-adv-x="527" 
d="M114 881h58l91 -139l92 139h58l-115 -178h-69zM168 45h31q22 0 30 8t8 28v521h-118q-20 0 -28 -7.5t-8 -26.5v-24h-48v103h457v-103h-48v24q0 19 -8 26.5t-28 7.5h-118v-521q0 -20 8 -28t30 -8h31v-45h-191v45z" />
    <glyph glyph-name="tcaron" unicode="&#x165;" horiz-adv-x="399" 
d="M314 762h67l-56 -185h-39zM151 23.5q-34 38.5 -34 112.5v299h-82v45h82v117l53 25v-142h157v-45h-157v-300q0 -55 19.5 -79.5t61.5 -24.5q28 0 47 4.5t34 16.5v43h52v-59q-29 -27 -60 -39t-77 -12q-62 0 -96 38.5z" />
    <glyph glyph-name="Tbar" unicode="&#x166;" horiz-adv-x="527" 
d="M492 647v-103h-48v24q0 19 -8 26.5t-28 7.5h-118v-236h134v-45h-134v-240q0 -20 8 -28t30 -8h31v-45h-191v45h31q22 0 30 8t8 28v240h-134v45h134v236h-118q-20 0 -28 -7.5t-8 -26.5v-24h-48v103h457z" />
    <glyph glyph-name="tbar" unicode="&#x167;" horiz-adv-x="401" 
d="M386 95v-59q-29 -27 -60 -39t-77 -12q-62 0 -96 38.5t-34 112.5v105h-84v45h84v149h-82v45h82v117l53 25v-142h157v-45h-157v-149h184v-45h-184v-106q0 -55 19.5 -79.5t61.5 -24.5q28 0 47 4.5t34 16.5v43h52z" />
    <glyph glyph-name="Utilde" unicode="&#x168;" horiz-adv-x="646" 
d="M240 808q25 0 46.5 -8.5t49.5 -24.5q26 -14 40 -20t31 -6q24 0 34.5 12t10.5 47h47q0 -105 -92 -105q-23 0 -42.5 8t-45.5 23q-25 14 -42.5 21t-36.5 7q-24 0 -34.5 -12t-10.5 -47h-47q0 105 92 105zM151.5 37q-57.5 52 -57.5 140v392q0 20 -7.5 28t-26.5 8h-25v42h171
v-42h-25q-19 0 -26.5 -8t-7.5 -28v-399q0 -70 44.5 -106t131.5 -36t131.5 36t44.5 106v399q0 20 -7.5 28t-26.5 8h-25v42h171v-42h-25q-19 0 -26.5 -8t-7.5 -28v-392q0 -88 -57.5 -140t-171.5 -52t-171.5 52z" />
    <glyph glyph-name="utilde" unicode="&#x169;" horiz-adv-x="578" 
d="M211 634q25 0 46.5 -8.5t49.5 -24.5q26 -14 40.5 -20t30.5 -6q24 0 34.5 12t10.5 47h47q0 -105 -92 -105q-23 0 -42.5 8t-45.5 23q-25 14 -42.5 21t-36.5 7q-24 0 -34.5 -12t-10.5 -47h-47q0 105 92 105zM145.5 28q-41.5 43 -41.5 121v250q0 20 -7.5 28t-26.5 8h-35v45
h122v-330q0 -122 122 -122q66 0 108.5 40.5t42.5 112.5v218q0 20 -7.5 28t-26.5 8h-35v45h122v-399q0 -20 7.5 -28t26.5 -8h26v-45h-99l-6 68q-32 -43 -72.5 -63t-101.5 -20q-77 0 -118.5 43z" />
    <glyph glyph-name="Umacron" unicode="&#x16a;" horiz-adv-x="646" 
d="M188 768h271v-45h-271v45zM151.5 37q-57.5 52 -57.5 140v392q0 20 -7.5 28t-26.5 8h-25v42h171v-42h-25q-19 0 -26.5 -8t-7.5 -28v-399q0 -70 44.5 -106t131.5 -36t131.5 36t44.5 106v399q0 20 -7.5 28t-26.5 8h-25v42h171v-42h-25q-19 0 -26.5 -8t-7.5 -28v-392
q0 -88 -57.5 -140t-171.5 -52t-171.5 52z" />
    <glyph glyph-name="umacron" unicode="&#x16b;" horiz-adv-x="578" 
d="M143 594h271v-45h-271v45zM145.5 28q-41.5 43 -41.5 121v250q0 20 -7.5 28t-26.5 8h-35v45h122v-330q0 -122 122 -122q66 0 108.5 40.5t42.5 112.5v218q0 20 -7.5 28t-26.5 8h-35v45h122v-399q0 -20 7.5 -28t26.5 -8h26v-45h-99l-6 68q-32 -43 -72.5 -63t-101.5 -20
q-77 0 -118.5 43z" />
    <glyph glyph-name="Ubreve" unicode="&#x16c;" horiz-adv-x="646" 
d="M220.5 738.5q-39.5 35.5 -39.5 94.5h43q0 -42 26.5 -64.5t70.5 -22.5t70.5 22.5t26.5 64.5h43q0 -59 -39.5 -94.5t-100.5 -35.5t-100.5 35.5zM151.5 37q-57.5 52 -57.5 140v392q0 20 -7.5 28t-26.5 8h-25v42h171v-42h-25q-19 0 -26.5 -8t-7.5 -28v-399q0 -70 44.5 -106
t131.5 -36t131.5 36t44.5 106v399q0 20 -7.5 28t-26.5 8h-25v42h171v-42h-25q-19 0 -26.5 -8t-7.5 -28v-392q0 -88 -57.5 -140t-171.5 -52t-171.5 52z" />
    <glyph glyph-name="ubreve" unicode="&#x16d;" horiz-adv-x="578" 
d="M186.5 564.5q-39.5 35.5 -39.5 94.5h43q0 -42 26.5 -64.5t70.5 -22.5t70.5 22.5t26.5 64.5h43q0 -59 -39.5 -94.5t-100.5 -35.5t-100.5 35.5zM145.5 28q-41.5 43 -41.5 121v250q0 20 -7.5 28t-26.5 8h-35v45h122v-330q0 -122 122 -122q66 0 108.5 40.5t42.5 112.5v218
q0 20 -7.5 28t-26.5 8h-35v45h122v-399q0 -20 7.5 -28t26.5 -8h26v-45h-99l-6 68q-32 -43 -72.5 -63t-101.5 -20q-77 0 -118.5 43z" />
    <glyph glyph-name="Uring" unicode="&#x16e;" horiz-adv-x="646" 
d="M247 734q-31 31 -31 76t31 76.5t76 31.5t76.5 -31.5t31.5 -76.5t-31.5 -76t-76.5 -31t-76 31zM369.5 764q18.5 18 18.5 46t-18.5 46.5t-46.5 18.5t-46 -18.5t-18 -46.5t18 -46t46 -18t46.5 18zM151.5 37q-57.5 52 -57.5 140v392q0 20 -7.5 28t-26.5 8h-25v42h171v-42h-25
q-19 0 -26.5 -8t-7.5 -28v-399q0 -70 44.5 -106t131.5 -36t131.5 36t44.5 106v399q0 20 -7.5 28t-26.5 8h-25v42h171v-42h-25q-19 0 -26.5 -8t-7.5 -28v-392q0 -88 -57.5 -140t-171.5 -52t-171.5 52z" />
    <glyph glyph-name="uring" unicode="&#x16f;" horiz-adv-x="578" 
d="M201 560q-31 31 -31 76t31 76.5t76 31.5t76.5 -31.5t31.5 -76.5t-31.5 -76t-76.5 -31t-76 31zM323.5 590q18.5 18 18.5 46t-18.5 46.5t-46.5 18.5t-46 -18.5t-18 -46.5t18 -46t46 -18t46.5 18zM145.5 28q-41.5 43 -41.5 121v250q0 20 -7.5 28t-26.5 8h-35v45h122v-330
q0 -122 122 -122q66 0 108.5 40.5t42.5 112.5v218q0 20 -7.5 28t-26.5 8h-35v45h122v-399q0 -20 7.5 -28t26.5 -8h26v-45h-99l-6 68q-32 -43 -72.5 -63t-101.5 -20q-77 0 -118.5 43z" />
    <glyph glyph-name="Uhungarumlaut" unicode="&#x170;" horiz-adv-x="646" 
d="M285 881h79l-116 -178h-48zM451 881h79l-116 -178h-48zM151.5 37q-57.5 52 -57.5 140v392q0 20 -7.5 28t-26.5 8h-25v42h171v-42h-25q-19 0 -26.5 -8t-7.5 -28v-399q0 -70 44.5 -106t131.5 -36t131.5 36t44.5 106v399q0 20 -7.5 28t-26.5 8h-25v42h171v-42h-25
q-19 0 -26.5 -8t-7.5 -28v-392q0 -88 -57.5 -140t-171.5 -52t-171.5 52z" />
    <glyph glyph-name="uhungarumlaut" unicode="&#x171;" horiz-adv-x="578" 
d="M239 707h79l-116 -178h-48zM405 707h79l-116 -178h-48zM145.5 28q-41.5 43 -41.5 121v250q0 20 -7.5 28t-26.5 8h-35v45h122v-330q0 -122 122 -122q66 0 108.5 40.5t42.5 112.5v218q0 20 -7.5 28t-26.5 8h-35v45h122v-399q0 -20 7.5 -28t26.5 -8h26v-45h-99l-6 68
q-32 -43 -72.5 -63t-101.5 -20q-77 0 -118.5 43z" />
    <glyph glyph-name="Uogonek" unicode="&#x172;" horiz-adv-x="646" 
d="M611 647v-42h-25q-19 0 -26.5 -8t-7.5 -28v-392q0 -82 -49.5 -133t-148.5 -58q-37 -42 -37 -92q0 -29 10.5 -42t32.5 -13q25 0 49 7v-37q-20 -10 -49 -10q-40 0 -63 24t-23 71q0 50 35 91q-107 4 -161 55t-54 137v392q0 20 -7.5 28t-26.5 8h-25v42h171v-42h-25
q-19 0 -26.5 -8t-7.5 -28v-399q0 -70 44.5 -106t131.5 -36t131.5 36t44.5 106v399q0 20 -7.5 28t-26.5 8h-25v42h171z" />
    <glyph glyph-name="uogonek" unicode="&#x173;" horiz-adv-x="578" 
d="M441 -106q0 -29 10.5 -42t32.5 -13q25 0 49 7v-37q-20 -10 -49 -10q-40 0 -63 24t-23 71q0 59 49 106h-3l-6 68q-32 -43 -72.5 -63t-101.5 -20q-77 0 -118.5 43t-41.5 121v250q0 20 -7.5 28t-26.5 8h-35v45h122v-330q0 -122 122 -122q66 0 108.5 40.5t42.5 112.5v218
q0 20 -7.5 28t-26.5 8h-35v45h122v-399q0 -20 7.5 -28t26.5 -8h26v-45h-51q-51 -46 -51 -106z" />
    <glyph glyph-name="Wcircumflex" unicode="&#x174;" horiz-adv-x="887" 
d="M409 881h69l115 -178h-58l-92 139l-91 -139h-58zM125 566q-5 20 -15 28t-34 8h-31v45h116l120 -560l135 451h55l135 -451l121 560h115v-45h-31q-24 0 -34 -8t-15 -28l-128 -566h-48l-143 468l-141 -468h-48z" />
    <glyph glyph-name="wcircumflex" unicode="&#x175;" horiz-adv-x="776" 
d="M354 707h69l115 -178h-58l-92 139l-91 -139h-58zM102 415q-5 14 -12 18t-28 4h-27v43h101l103 -437l124 394h49l123 -394l105 437h101v-43h-28q-20 0 -27.5 -4t-12.5 -18l-99 -415h-71l-115 367l-115 -367h-71z" />
    <glyph glyph-name="Ycircumflex" unicode="&#x176;" horiz-adv-x="664" 
d="M298 881h69l115 -178h-58l-92 139l-91 -139h-58zM247 43h25q19 0 26.5 8t7.5 28v154l-182 335q-10 18 -23 27t-31 9h-25v43h171v-43h-25q-22 0 -22 -13q0 -9 8 -23l155 -288l155 288q8 14 8 23q0 13 -22 13h-25v43h171v-43h-25q-18 0 -31 -9t-23 -27l-181 -335v-154
q0 -20 7.5 -28t26.5 -8h25v-43h-171v43z" />
    <glyph glyph-name="ycircumflex" unicode="&#x177;" horiz-adv-x="548" 
d="M249 707h69l115 -178h-58l-92 139l-91 -139h-58zM203 -183q-41 17 -74 50v65h52v-43q40 -43 118 -43q66 0 98.5 38t32.5 107v89q-31 -41 -68 -58t-98 -17q-77 0 -118.5 43t-41.5 121v230q0 20 -7.5 28t-26.5 8h-35v45h122v-310q0 -122 122 -122q66 0 108.5 40.5
t42.5 112.5v198q0 20 -7.5 28t-26.5 8h-35v45h122v-485q0 -88 -48.5 -141.5t-131.5 -53.5q-59 0 -100 17z" />
    <glyph glyph-name="Ydieresis" unicode="&#x178;" horiz-adv-x="664" 
d="M204 791h68v-68h-68v68zM393 791h68v-68h-68v68zM247 43h25q19 0 26.5 8t7.5 28v154l-182 335q-10 18 -23 27t-31 9h-25v43h171v-43h-25q-22 0 -22 -13q0 -9 8 -23l155 -288l155 288q8 14 8 23q0 13 -22 13h-25v43h171v-43h-25q-18 0 -31 -9t-23 -27l-181 -335v-154
q0 -20 7.5 -28t26.5 -8h25v-43h-171v43z" />
    <glyph glyph-name="Zacute" unicode="&#x179;" horiz-adv-x="555" 
d="M331 881h79l-116 -178h-48zM45 43l395 561h-294q-20 0 -28 -7.5t-8 -26.5v-25h-48v102h437v-43l-395 -561h322q20 0 28 7.5t8 26.5v25h48v-102h-465v43z" />
    <glyph glyph-name="zacute" unicode="&#x17a;" horiz-adv-x="485" 
d="M292 707h79l-116 -178h-48zM45 43l325 394h-224q-20 0 -28 -7.5t-8 -26.5v-25h-48v102h367v-43l-325 -394h252q20 0 28 7.5t8 26.5v25h48v-102h-395v43z" />
    <glyph glyph-name="Zdotaccent" unicode="&#x17b;" horiz-adv-x="555" 
d="M250 791h68v-68h-68v68zM45 43l395 561h-294q-20 0 -28 -7.5t-8 -26.5v-25h-48v102h437v-43l-395 -561h322q20 0 28 7.5t8 26.5v25h48v-102h-465v43z" />
    <glyph glyph-name="zdotaccent" unicode="&#x17c;" horiz-adv-x="485" 
d="M219 617h68v-68h-68v68zM45 43l325 394h-224q-20 0 -28 -7.5t-8 -26.5v-25h-48v102h367v-43l-325 -394h252q20 0 28 7.5t8 26.5v25h48v-102h-395v43z" />
    <glyph glyph-name="Zcaron" unicode="&#x17d;" horiz-adv-x="555" 
d="M135 881h58l91 -139l92 139h58l-115 -178h-69zM45 43l395 561h-294q-20 0 -28 -7.5t-8 -26.5v-25h-48v102h437v-43l-395 -561h322q20 0 28 7.5t8 26.5v25h48v-102h-465v43z" />
    <glyph glyph-name="zcaron" unicode="&#x17e;" horiz-adv-x="485" 
d="M108 707h58l91 -139l92 139h58l-115 -178h-69zM45 43l325 394h-224q-20 0 -28 -7.5t-8 -26.5v-25h-48v102h367v-43l-325 -394h252q20 0 28 7.5t8 26.5v25h48v-102h-395v43z" />
    <glyph glyph-name="uni018F" unicode="&#x18f;" horiz-adv-x="669" 
d="M115.5 69q-70.5 84 -70.5 229v50h528q0 132 -68.5 200t-180.5 68q-142 0 -203 -41v-56h-53v75q47 35 110 51.5t146 16.5q88 0 155.5 -35.5t106 -109t38.5 -182.5q0 -171 -76.5 -260.5t-221.5 -89.5q-140 0 -210.5 84zM511.5 107.5q61.5 76.5 61.5 195.5h-474
q0 -272 227 -272q124 0 185.5 76.5z" />
    <glyph glyph-name="florin" unicode="&#x192;" horiz-adv-x="548" 
d="M-98 -147q-29 12 -51 38l13 59h52l-9 -43q15 -12 29.5 -16t40.5 -4q49 0 73.5 27t37.5 86l92 435h-82l10 45h81l7 37q31 160 178 160q41 0 69 -13t50 -39l-11 -57h-52l9 43q-12 12 -27.5 16t-43.5 4q-50 0 -79 -28t-40 -85l-7 -38h158l-10 -45h-157l-92 -434
q-17 -78 -57.5 -119t-111.5 -41q-41 0 -70 12z" />
    <glyph glyph-name="Ohorn" unicode="&#x1a0;" horiz-adv-x="690" 
d="M114 68.5q-69 83.5 -69 252.5q0 171 67.5 256t213.5 85q152 0 220 -94q47 0 64 21t17 67v33h53v-33q0 -118 -110 -129q37 -78 37 -206q0 -169 -69 -252.5t-212 -83.5t-212 83.5zM498 99q58 68 58 222q0 157 -57.5 226t-172.5 69t-172.5 -69t-57.5 -226q0 -154 58 -222
t172 -68t172 68z" />
    <glyph glyph-name="ohorn" unicode="&#x1a1;" horiz-adv-x="608" 
d="M101.5 53q-56.5 68 -56.5 186q0 119 57 187.5t177 68.5q125 0 185 -79v1q47 0 64 21t17 67v33h53v-33q0 -118 -111 -129q26 -56 26 -137q0 -118 -56.5 -186t-177.5 -68t-177.5 68zM415.5 83q46.5 52 46.5 156t-46.5 157t-136.5 53t-136.5 -53t-46.5 -157t46.5 -156
t136.5 -52t136.5 52z" />
    <glyph glyph-name="Uhorn" unicode="&#x1af;" horiz-adv-x="689" 
d="M151.5 37q-57.5 52 -57.5 140v392q0 20 -7.5 28t-26.5 8h-25v42h171v-42h-25q-19 0 -26.5 -8t-7.5 -28v-399q0 -70 44.5 -106t131.5 -36t131.5 36t44.5 106v399q0 20 -7.5 28t-26.5 8h-25v42h112v-79q43 1 58.5 22.5t15.5 65.5v33h53v-33q0 -127 -127 -130v-349
q0 -88 -57.5 -140t-171.5 -52t-171.5 52z" />
    <glyph glyph-name="uhorn" unicode="&#x1b0;" horiz-adv-x="620" 
d="M145.5 28q-41.5 43 -41.5 121v250q0 20 -7.5 28t-26.5 8h-35v45h122v-330q0 -122 122 -122q66 0 108.5 40.5t42.5 112.5v218q0 20 -7.5 28t-26.5 8h-35v45h122v-63q43 1 58.5 22.5t15.5 65.5v33h53v-33q0 -127 -127 -130v-294q0 -20 7.5 -28t26.5 -8h26v-45h-99l-6 68
q-32 -43 -72.5 -63t-101.5 -20q-77 0 -118.5 43z" />
    <glyph glyph-name="uni01CD" unicode="&#x1cd;" horiz-adv-x="724" 
d="M213 881h58l91 -139l92 139h58l-115 -178h-69zM45 45h35q41 0 54 36l204 566h49l203 -566q13 -36 54 -36h35v-45h-186v45h58l-59 164h-260l-59 -164h58v-45h-186v45zM476 254l-114 318l-114 -318h228z" />
    <glyph glyph-name="uni01CE" unicode="&#x1ce;" horiz-adv-x="518" 
d="M106 707h58l91 -139l92 139h58l-115 -178h-69zM74.5 19q-39.5 34 -39.5 98q0 69 42 100t119 36l174 12v65q0 64 -25 91.5t-91 27.5q-41 0 -70 -6t-56 -19v-37h-53v61q78 47 177 47q93 0 132 -43t39 -123v-251q0 -22 7.5 -31t24.5 -9h28v-38h-96l-11 61q-56 -76 -188 -76
q-74 0 -113.5 34zM323 64.5q47 33.5 47 100.5v58l-175 -12q-62 -4 -85.5 -25t-23.5 -71q0 -42 26.5 -63t87.5 -21q76 0 123 33.5z" />
    <glyph glyph-name="uni01CF" unicode="&#x1cf;" horiz-adv-x="281" 
d="M-9 881h58l91 -139l92 139h58l-115 -178h-69zM45 45h35q19 0 26.5 8t7.5 28v485q0 20 -7.5 28t-26.5 8h-35v45h191v-45h-35q-19 0 -26.5 -8t-7.5 -28v-485q0 -20 7.5 -28t26.5 -8h35v-45h-191v45z" />
    <glyph glyph-name="uni01D0" unicode="&#x1d0;" horiz-adv-x="261" 
d="M-42 707h58l91 -139l92 139h58l-115 -178h-69zM35 45h35q19 0 26.5 8t7.5 28v318q0 20 -7.5 28t-26.5 8h-35v45h122v-399q0 -20 7.5 -28t26.5 -8h35v-45h-191v45z" />
    <glyph glyph-name="uni01D1" unicode="&#x1d1;" horiz-adv-x="652" 
d="M177 881h58l91 -139l92 139h58l-115 -178h-69zM114 68.5q-69 83.5 -69 252.5q0 171 67.5 256t213.5 85t213.5 -85t67.5 -256q0 -169 -69 -252.5t-212 -83.5t-212 83.5zM498 99q58 68 58 222q0 157 -57.5 226t-172.5 69t-172.5 -69t-57.5 -226q0 -154 58 -222t172 -68
t172 68z" />
    <glyph glyph-name="uni01D2" unicode="&#x1d2;" horiz-adv-x="558" 
d="M130 707h58l91 -139l92 139h58l-115 -178h-69zM101.5 53q-56.5 68 -56.5 186q0 119 57 187.5t177 68.5t177 -68.5t57 -187.5q0 -118 -56.5 -186t-177.5 -68t-177.5 68zM415.5 83q46.5 52 46.5 156t-46.5 157t-136.5 53t-136.5 -53t-46.5 -157t46.5 -156t136.5 -52
t136.5 52z" />
    <glyph glyph-name="uni01D3" unicode="&#x1d3;" horiz-adv-x="646" 
d="M174 881h58l91 -139l92 139h58l-115 -178h-69zM151.5 37q-57.5 52 -57.5 140v392q0 20 -7.5 28t-26.5 8h-25v42h171v-42h-25q-19 0 -26.5 -8t-7.5 -28v-399q0 -70 44.5 -106t131.5 -36t131.5 36t44.5 106v399q0 20 -7.5 28t-26.5 8h-25v42h171v-42h-25q-19 0 -26.5 -8
t-7.5 -28v-392q0 -88 -57.5 -140t-171.5 -52t-171.5 52z" />
    <glyph glyph-name="uni01D4" unicode="&#x1d4;" horiz-adv-x="578" 
d="M138 707h58l91 -139l92 139h58l-115 -178h-69zM145.5 28q-41.5 43 -41.5 121v250q0 20 -7.5 28t-26.5 8h-35v45h122v-330q0 -122 122 -122q66 0 108.5 40.5t42.5 112.5v218q0 20 -7.5 28t-26.5 8h-35v45h122v-399q0 -20 7.5 -28t26.5 -8h26v-45h-99l-6 68
q-32 -43 -72.5 -63t-101.5 -20q-77 0 -118.5 43z" />
    <glyph glyph-name="uni01D5" unicode="&#x1d5;" horiz-adv-x="646" 
d="M188 933h271v-45h-271v45zM195 791h68v-68h-68v68zM384 791h68v-68h-68v68zM151.5 37q-57.5 52 -57.5 140v392q0 20 -7.5 28t-26.5 8h-25v42h171v-42h-25q-19 0 -26.5 -8t-7.5 -28v-399q0 -70 44.5 -106t131.5 -36t131.5 36t44.5 106v399q0 20 -7.5 28t-26.5 8h-25v42
h171v-42h-25q-19 0 -26.5 -8t-7.5 -28v-392q0 -88 -57.5 -140t-171.5 -52t-171.5 52z" />
    <glyph glyph-name="uni01D6" unicode="&#x1d6;" horiz-adv-x="578" 
d="M140 753h271v-45h-271v45zM147 617h68v-68h-68v68zM336 617h68v-68h-68v68zM145.5 28q-41.5 43 -41.5 121v250q0 20 -7.5 28t-26.5 8h-35v45h122v-330q0 -122 122 -122q66 0 108.5 40.5t42.5 112.5v218q0 20 -7.5 28t-26.5 8h-35v45h122v-399q0 -20 7.5 -28t26.5 -8h26
v-45h-99l-6 68q-32 -43 -72.5 -63t-101.5 -20q-77 0 -118.5 43z" />
    <glyph glyph-name="uni01D7" unicode="&#x1d7;" horiz-adv-x="646" 
d="M369 980h79l-106 -148h-48zM196 791h68v-68h-68v68zM385 791h68v-68h-68v68zM151.5 37q-57.5 52 -57.5 140v392q0 20 -7.5 28t-26.5 8h-25v42h171v-42h-25q-19 0 -26.5 -8t-7.5 -28v-399q0 -70 44.5 -106t131.5 -36t131.5 36t44.5 106v399q0 20 -7.5 28t-26.5 8h-25v42
h171v-42h-25q-19 0 -26.5 -8t-7.5 -28v-392q0 -88 -57.5 -140t-171.5 -52t-171.5 52z" />
    <glyph glyph-name="uni01D8" unicode="&#x1d8;" horiz-adv-x="578" 
d="M320 806h79l-106 -148h-48zM147 617h68v-68h-68v68zM336 617h68v-68h-68v68zM145.5 28q-41.5 43 -41.5 121v250q0 20 -7.5 28t-26.5 8h-35v45h122v-330q0 -122 122 -122q66 0 108.5 40.5t42.5 112.5v218q0 20 -7.5 28t-26.5 8h-35v45h122v-399q0 -20 7.5 -28t26.5 -8h26
v-45h-99l-6 68q-32 -43 -72.5 -63t-101.5 -20q-77 0 -118.5 43z" />
    <glyph glyph-name="uni01D9" unicode="&#x1d9;" horiz-adv-x="646" 
d="M195 958h58l71 -99l72 99h58l-95 -128h-69zM196 791h68v-68h-68v68zM385 791h68v-68h-68v68zM151.5 37q-57.5 52 -57.5 140v392q0 20 -7.5 28t-26.5 8h-25v42h171v-42h-25q-19 0 -26.5 -8t-7.5 -28v-399q0 -70 44.5 -106t131.5 -36t131.5 36t44.5 106v399q0 20 -7.5 28
t-26.5 8h-25v42h171v-42h-25q-19 0 -26.5 -8t-7.5 -28v-392q0 -88 -57.5 -140t-171.5 -52t-171.5 52z" />
    <glyph glyph-name="uni01DA" unicode="&#x1da;" horiz-adv-x="578" 
d="M146 784h58l71 -99l72 99h58l-95 -128h-69zM147 617h68v-68h-68v68zM336 617h68v-68h-68v68zM145.5 28q-41.5 43 -41.5 121v250q0 20 -7.5 28t-26.5 8h-35v45h122v-330q0 -122 122 -122q66 0 108.5 40.5t42.5 112.5v218q0 20 -7.5 28t-26.5 8h-35v45h122v-399
q0 -20 7.5 -28t26.5 -8h26v-45h-99l-6 68q-32 -43 -72.5 -63t-101.5 -20q-77 0 -118.5 43z" />
    <glyph glyph-name="uni01DB" unicode="&#x1db;" horiz-adv-x="646" 
d="M201 980h79l75 -148h-48zM196 791h68v-68h-68v68zM385 791h68v-68h-68v68zM151.5 37q-57.5 52 -57.5 140v392q0 20 -7.5 28t-26.5 8h-25v42h171v-42h-25q-19 0 -26.5 -8t-7.5 -28v-399q0 -70 44.5 -106t131.5 -36t131.5 36t44.5 106v399q0 20 -7.5 28t-26.5 8h-25v42h171
v-42h-25q-19 0 -26.5 -8t-7.5 -28v-392q0 -88 -57.5 -140t-171.5 -52t-171.5 52z" />
    <glyph glyph-name="uni01DC" unicode="&#x1dc;" horiz-adv-x="578" 
d="M152 806h79l75 -148h-48zM147 617h68v-68h-68v68zM336 617h68v-68h-68v68zM145.5 28q-41.5 43 -41.5 121v250q0 20 -7.5 28t-26.5 8h-35v45h122v-330q0 -122 122 -122q66 0 108.5 40.5t42.5 112.5v218q0 20 -7.5 28t-26.5 8h-35v45h122v-399q0 -20 7.5 -28t26.5 -8h26
v-45h-99l-6 68q-32 -43 -72.5 -63t-101.5 -20q-77 0 -118.5 43z" />
    <glyph glyph-name="Gcaron" unicode="&#x1e6;" horiz-adv-x="604" 
d="M199 881h58l91 -139l92 139h58l-115 -178h-69zM182.5 28q-68.5 43 -103 119t-34.5 174q0 154 74.5 247.5t223.5 93.5q126 0 197 -51v-78h-53v55q-53 28 -144 28q-119 0 -183 -77.5t-64 -217.5q0 -136 67.5 -213t185.5 -77q49 0 86 7t71 23v219h-153v45h206v-285
q-46 -29 -96 -42t-114 -13q-98 0 -166.5 43z" />
    <glyph glyph-name="gcaron" unicode="&#x1e7;" horiz-adv-x="583" 
d="M142 707h58l91 -139l92 139h58l-115 -178h-69zM211.5 -186q-39.5 14 -75.5 45v65h52v-43q22 -19 50 -27t68 -8q62 0 95.5 38.5t33.5 106.5v86q-28 -49 -71 -70t-109 -21q-98 0 -154 69t-56 190q0 119 58 184.5t157 65.5q57 0 100 -21.5t73 -68.5l10 75h105v-38h-28
q-17 0 -24.5 -9t-7.5 -31v-407q0 -88 -48.5 -141.5t-129.5 -53.5q-59 0 -98.5 14zM390.5 77.5q47.5 48.5 47.5 131.5v56q0 55 -21.5 97.5t-60.5 66.5t-89 24q-83 0 -127 -52.5t-44 -155.5q0 -216 172 -216q75 0 122.5 48.5z" />
    <glyph glyph-name="Aringacute" unicode="&#x1fa;" horiz-adv-x="724" 
d="M378 845h-48l85 178h79zM679 45v-45h-186v45h58l-59 164h-260l-59 -164h58v-45h-186v45h35q41 0 54 36l191 529q-31 11 -50.5 38.5t-19.5 62.5q0 45 31 76.5t76 31.5t76.5 -31.5t31.5 -76.5q0 -35 -19.5 -62t-50.5 -38l190 -530q13 -36 54 -36h35zM316 665q18 -18 46 -18
t46.5 18t18.5 46t-18.5 46.5t-46.5 18.5t-46 -18.5t-18 -46.5t18 -46zM476 254l-114 318l-114 -318h228z" />
    <glyph glyph-name="aringacute" unicode="&#x1fb;" horiz-adv-x="518" 
d="M302 913h79l-116 -143h-48zM179 554q-31 31 -31 76t31 76.5t76 31.5t76.5 -31.5t31.5 -76.5t-31.5 -76t-76.5 -31t-76 31zM301.5 584q18.5 18 18.5 46t-18.5 46.5t-46.5 18.5t-46 -18.5t-18 -46.5t18 -46t46 -18t46.5 18zM74.5 19q-39.5 34 -39.5 98q0 69 42 100t119 36
l174 12v65q0 64 -25 91.5t-91 27.5q-41 0 -70 -6t-56 -19v-37h-53v61q78 47 177 47q93 0 132 -43t39 -123v-251q0 -22 7.5 -31t24.5 -9h28v-38h-96l-11 61q-56 -76 -188 -76q-74 0 -113.5 34zM323 64.5q47 33.5 47 100.5v58l-175 -12q-62 -4 -85.5 -25t-23.5 -71
q0 -42 26.5 -63t87.5 -21q76 0 123 33.5z" />
    <glyph glyph-name="AEacute" unicode="&#x1fc;" horiz-adv-x="850" 
d="M582 881h79l-116 -178h-48zM45 45h35q41 0 54 36l224 566h447v-103h-48v24q0 19 -8 26.5t-28 7.5h-237v-255h201v-45h-201v-257h237q20 0 28 7.5t8 26.5v25h48v-104h-443v45h31q22 0 30 8t8 28v128h-194l-64 -164h58v-45h-186v45zM431 254v348h-39l-137 -348h176z" />
    <glyph glyph-name="aeacute" unicode="&#x1fd;" horiz-adv-x="859" 
d="M476 707h79l-116 -178h-48zM74.5 19q-39.5 34 -39.5 98q0 69 42 100t119 36l174 12v65q0 64 -25 91.5t-91 27.5q-41 0 -70 -6t-56 -19v-37h-53v61q78 47 177 47q69 0 105.5 -23t54.5 -71q58 94 190 94q106 0 159 -60.5t53 -171.5v-45h-390q0 -62 26.5 -105t68 -64
t85.5 -21q51 0 83 7.5t57 23.5v34h53v-57q-43 -27 -88 -39t-105 -12q-65 0 -116.5 29t-82.5 84q-25 -57 -85 -85t-132 -28q-74 0 -113.5 34zM766 263q0 99 -39.5 142.5t-124.5 43.5t-131.5 -48t-46.5 -138h342zM323 64.5q47 33.5 47 100.5v58l-175 -12q-62 -4 -85.5 -25
t-23.5 -71q0 -42 26.5 -63t87.5 -21q76 0 123 33.5z" />
    <glyph glyph-name="Oslashacute" unicode="&#x1fe;" horiz-adv-x="652" 
d="M370 872h79l-116 -178h-48zM179 16q-134 69 -134 305q0 171 67.5 256t213.5 85q51 0 88 -10l14 37h53l-20 -53q75 -33 110.5 -112t35.5 -203q0 -169 -69 -252.5t-212 -83.5q-52 0 -101 13l-15 -41h-53zM398 608q-35 8 -72 8q-115 0 -172.5 -69t-57.5 -226
q0 -197 100 -259zM498 99q58 68 58 222q0 109 -28 175t-83 95l-204 -549q34 -11 85 -11q114 0 172 68z" />
    <glyph glyph-name="oslashacute" unicode="&#x1ff;" horiz-adv-x="558" 
d="M313 701h79l-116 -178h-48zM168 5q-63 27 -93 87.5t-30 146.5q0 119 57 187.5t177 68.5q31 0 66 -7l17 47h53l-23 -62q62 -28 91.5 -88.5t29.5 -145.5q0 -118 -56.5 -186t-177.5 -68q-34 0 -64 6l-15 -43h-53zM329 444q-27 5 -50 5q-90 0 -136.5 -53t-46.5 -157
q0 -143 88 -189zM415.5 83q46.5 52 46.5 156q0 142 -87 189l-144 -393q20 -4 48 -4q90 0 136.5 52z" />
    <glyph glyph-name="Scommaaccent" unicode="&#x218;" horiz-adv-x="520" 
d="M146.5 3.5q-60.5 18.5 -101.5 47.5v80h55v-57q29 -19 76.5 -31t93.5 -12q75 0 114.5 32t39.5 90q0 40 -18.5 66.5t-51 45t-86.5 38.5q-76 28 -121.5 52.5t-70.5 58.5t-25 84q0 81 58.5 122.5t151.5 41.5q56 0 111 -15.5t90 -39.5v-80h-55v57q-26 15 -65 23.5t-82 8.5
q-73 0 -115.5 -28.5t-42.5 -89.5q0 -40 23 -66t53.5 -40.5t98.5 -41.5q67 -26 107 -48.5t65.5 -58.5t25.5 -90q0 -74 -55 -121t-154 -47q-59 0 -119.5 18.5zM236 -49h79l-86 -178h-48z" />
    <glyph glyph-name="scommaaccent" unicode="&#x219;" horiz-adv-x="445" 
d="M129.5 -1q-47.5 14 -84.5 38v70h53v-46q53 -30 133 -30q61 0 89.5 19t28.5 61q0 37 -26.5 59t-93.5 47q-72 27 -105 43t-53.5 42t-20.5 68q0 61 46.5 93t126.5 32q48 0 91 -13t74 -35v-70h-53v46q-23 13 -49.5 19.5t-63.5 6.5q-62 0 -91.5 -18t-29.5 -61
q0 -38 24.5 -56.5t75.5 -35.5q24 -8 36 -13q8 -3 58.5 -23t77.5 -53t27 -78q0 -60 -43 -93t-129 -33q-51 0 -98.5 14zM198 -49h79l-86 -178h-48z" />
    <glyph glyph-name="uni021A" unicode="&#x21a;" horiz-adv-x="527" 
d="M168 45h31q22 0 30 8t8 28v521h-118q-20 0 -28 -7.5t-8 -26.5v-24h-48v103h457v-103h-48v24q0 19 -8 26.5t-28 7.5h-118v-521q0 -20 8 -28t30 -8h31v-45h-191v45zM245 -49h67l-56 -185h-39z" />
    <glyph glyph-name="uni021B" unicode="&#x21b;" horiz-adv-x="399" 
d="M151 23.5q-34 38.5 -34 112.5v299h-82v45h82v117l53 25v-142h157v-45h-157v-300q0 -55 19.5 -79.5t61.5 -24.5q28 0 47 4.5t34 16.5v43h52v-59q-29 -27 -60 -39t-77 -12q-62 0 -96 38.5zM222 -49h67l-56 -185h-39z" />
    <glyph glyph-name="uni0237" unicode="&#x237;" horiz-adv-x="344" 
d="M50 -155.5q-33 13.5 -65 44.5v65h52v-43q17 -19 38.5 -26.5t51.5 -7.5q50 0 74.5 27.5t24.5 93.5v401q0 20 -7.5 28t-26.5 8h-35v45h122v-478q0 -85 -39 -128t-109 -43q-48 0 -81 13.5z" />
    <glyph glyph-name="uni0251" unicode="&#x251;" horiz-adv-x="583" 
d="M100.5 51q-55.5 65 -55.5 185q0 121 56 190t154 69q66 0 109 -21t71 -70l5 76h48v-402q0 -22 7.5 -31t24.5 -9h28v-38h-105l-10 76q-58 -90 -179 -90q-98 0 -153.5 65zM351.5 52q40.5 24 63.5 67t23 97v56q0 83 -47.5 131.5t-122.5 48.5q-172 0 -172 -216
q0 -103 41.5 -155.5t123.5 -52.5q50 0 90.5 24z" />
    <glyph glyph-name="uni0259" unicode="&#x259;" horiz-adv-x="534" 
d="M98 46.5q-53 61.5 -53 170.5v45h390q0 97 -51.5 143.5t-128.5 46.5q-51 0 -83 -7.5t-57 -23.5v-34h-53v57q43 27 88 39t105 12q66 0 119 -27.5t84 -83t31 -136.5q0 -130 -60.5 -196.5t-171.5 -66.5q-106 0 -159 61.5zM389.5 81q45.5 50 45.5 136h-342q0 -94 39.5 -140
t124.5 -46q87 0 132.5 50z" />
    <glyph glyph-name="uni02BB" unicode="&#x2bb;" horiz-adv-x="252" 
d="M149 667h48l-63 -198h-79z" />
    <glyph glyph-name="uni02BC" unicode="&#x2bc;" horiz-adv-x="252" 
d="M118 667h79l-94 -198h-48z" />
    <glyph glyph-name="uni02BE" unicode="&#x2be;" 
d="M-65 535q43 0 61 17t18 56t-18 56t-61 17v43q59 0 90.5 -30.5t31.5 -85.5t-31.5 -85.5t-90.5 -30.5v43z" />
    <glyph glyph-name="uni02BF" unicode="&#x2bf;" 
d="M-33.5 522.5q-31.5 30.5 -31.5 85.5t31.5 85.5t90.5 30.5v-43q-43 0 -61 -17t-18 -56t18 -56t61 -17v-43q-59 0 -90.5 30.5z" />
    <glyph glyph-name="circumflex" unicode="&#x2c6;" horiz-adv-x="409" 
d="M170 721h69l115 -178h-58l-92 139l-91 -139h-58z" />
    <glyph glyph-name="caron" unicode="&#x2c7;" horiz-adv-x="409" 
d="M55 721h58l91 -139l92 139h58l-115 -178h-69z" />
    <glyph glyph-name="uni02C8" unicode="&#x2c8;" 
d="M-33 701h65v-168h-65v168z" />
    <glyph glyph-name="uni02C9" unicode="&#x2c9;" horiz-adv-x="589" 
d="M159 619h271v-45h-271v45z" />
    <glyph glyph-name="uni02CA" unicode="&#x2ca;" 
d="M45 701h79l-116 -178h-48z" />
    <glyph glyph-name="uni02CB" unicode="&#x2cb;" 
d="M-93 701h79l85 -178h-48z" />
    <glyph glyph-name="uni02CC" unicode="&#x2cc;" 
d="M-33 -41h65v-168h-65v168z" />
    <glyph glyph-name="breve" unicode="&#x2d8;" horiz-adv-x="390" 
d="M94.5 598.5q-39.5 35.5 -39.5 94.5h43q0 -42 26.5 -64.5t70.5 -22.5t70.5 22.5t26.5 64.5h43q0 -59 -39.5 -94.5t-100.5 -35.5t-100.5 35.5z" />
    <glyph glyph-name="dotaccent" unicode="&#x2d9;" horiz-adv-x="178" 
d="M55 661h68v-68h-68v68z" />
    <glyph glyph-name="ring" unicode="&#x2da;" horiz-adv-x="325" 
d="M86 564q-31 31 -31 76t31 76.5t76 31.5t76.5 -31.5t31.5 -76.5t-31.5 -76t-76.5 -31t-76 31zM208.5 594q18.5 18 18.5 46t-18.5 46.5t-46.5 18.5t-46 -18.5t-18 -46.5t18 -46t46 -18t46.5 18z" />
    <glyph glyph-name="ogonek" unicode="&#x2db;" horiz-adv-x="245" 
d="M78 -177q-23 24 -23 71q0 59 49 106h45q-51 -46 -51 -106q0 -29 10.5 -42t32.5 -13q25 0 49 7v-37q-20 -10 -49 -10q-40 0 -63 24z" />
    <glyph glyph-name="tilde" unicode="&#x2dc;" horiz-adv-x="461" 
d="M147 681q25 0 46.5 -8.5t49.5 -24.5q26 -14 40 -20t31 -6q24 0 34.5 12t10.5 47h47q0 -105 -92 -105q-23 0 -42.5 8t-45.5 23q-25 14 -42.5 21t-36.5 7q-24 0 -34.5 -12t-10.5 -47h-47q0 105 92 105z" />
    <glyph glyph-name="hungarumlaut" unicode="&#x2dd;" horiz-adv-x="440" 
d="M140 721h79l-116 -178h-48zM306 721h79l-116 -178h-48z" />
    <glyph glyph-name="gravecomb" unicode="&#x300;" 
d="M-408 701h79l85 -178h-48z" />
    <glyph glyph-name="acutecomb" unicode="&#x301;" 
d="M-265 701h79l-116 -178h-48z" />
    <glyph glyph-name="uni0302" unicode="&#x302;" 
d="M-34 701h69l115 -178h-58l-92 139l-91 -139h-58z" />
    <glyph glyph-name="tildecomb" unicode="&#x303;" 
d="M-394 661q25 0 46.5 -8.5t49.5 -24.5q26 -14 40 -20t31 -6q24 0 34.5 12t10.5 47h47q0 -105 -92 -105q-23 0 -42.5 8t-45.5 23q-25 14 -42.5 21t-36.5 7q-24 0 -34.5 -12t-10.5 -47h-47q0 105 92 105z" />
    <glyph glyph-name="uni0304" unicode="&#x304;" 
d="M-134 619h271v-45h-271v45z" />
    <glyph glyph-name="uni0306" unicode="&#x306;" 
d="M-100.5 578.5q-39.5 35.5 -39.5 94.5h43q0 -42 26.5 -64.5t70.5 -22.5t70.5 22.5t26.5 64.5h43q0 -59 -39.5 -94.5t-100.5 -35.5t-100.5 35.5z" />
    <glyph glyph-name="uni0307" unicode="&#x307;" 
d="M-34 641h68v-68h-68v68z" />
    <glyph glyph-name="uni0308" unicode="&#x308;" 
d="M-128 641h68v-68h-68v68zM61 641h68v-68h-68v68z" />
    <glyph glyph-name="hookabovecomb" unicode="&#x309;" 
d="M-343 575q41 0 56.5 12.5t15.5 37.5q0 23 -15 31.5t-50 8.5q-22 0 -48 -8v41q23 9 55 9q49 0 75 -19t26 -63q0 -63 -71 -78v-38h-44v66z" />
    <glyph glyph-name="uni030A" unicode="&#x30a;" 
d="M-76 544q-31 31 -31 76t31 76.5t76 31.5t76.5 -31.5t31.5 -76.5t-31.5 -76t-76.5 -31t-76 31zM46.5 574q18.5 18 18.5 46t-18.5 46.5t-46.5 18.5t-46 -18.5t-18 -46.5t18 -46t46 -18t46.5 18z" />
    <glyph glyph-name="uni030B" unicode="&#x30b;" 
d="M-109 701h79l-116 -178h-48zM57 701h79l-116 -178h-48z" />
    <glyph glyph-name="uni030C" unicode="&#x30c;" 
d="M-149 701h58l91 -139l92 139h58l-115 -178h-69z" />
    <glyph glyph-name="uni031B" unicode="&#x31b;" 
d="M-100 548q47 0 64 21t17 67v33h53v-33q0 -130 -134 -130v42z" />
    <glyph glyph-name="dotbelowcomb" unicode="&#x323;" 
d="M-333 -64h68v-68h-68v68z" />
    <glyph glyph-name="uni0324" unicode="&#x324;" 
d="M-127 -64h68v-68h-68v68zM60 -64h68v-68h-68v68z" />
    <glyph glyph-name="uni0326" unicode="&#x326;" 
d="M-14 -49h79l-86 -178h-48z" />
    <glyph glyph-name="uni0327" unicode="&#x327;" 
d="M-97 -219v39q29 -8 53 -8q74 0 74 47q0 21 -7 32.5t-27 17t-58 5.5l13 86h45l-8 -53q46 -6 65.5 -28t19.5 -58q0 -44 -30.5 -66.5t-85.5 -22.5q-25 0 -54 9z" />
    <glyph glyph-name="uni0328" unicode="&#x328;" 
d="M-40 -177q-23 24 -23 71q0 59 49 106h45q-51 -46 -51 -106q0 -29 10.5 -42t32.5 -13q25 0 49 7v-37q-20 -10 -49 -10q-40 0 -63 24z" />
    <glyph glyph-name="uni032E" unicode="&#x32e;" 
d="M-100.5 -144.5q-39.5 35.5 -39.5 94.5h43q0 -42 26.5 -64.5t70.5 -22.5t70.5 22.5t26.5 64.5h43q0 -59 -39.5 -94.5t-100.5 -35.5t-100.5 35.5z" />
    <glyph glyph-name="uni0331" unicode="&#x331;" 
d="M-134 -76h271v-45h-271v45z" />
    <glyph glyph-name="uni0394" unicode="&#x394;" horiz-adv-x="730" 
d="M55 49l281 624h58l281 -624v-49h-620v49zM616 49l-251 560l-252 -560h503z" />
    <glyph glyph-name="uni03A9" unicode="&#x3a9;" horiz-adv-x="776" 
d="M55 103h48v-24q0 -19 8 -26.5t28 -7.5h129q-88 73 -132.5 144t-44.5 172q0 147 73.5 240.5t223.5 93.5t223.5 -93.5t73.5 -240.5q0 -101 -44.5 -172t-132.5 -144h129q20 0 28 7.5t8 26.5v24h48v-103h-264v63q89 62 133 133t44 165q0 133 -60.5 210.5t-185.5 77.5
q-124 0 -185 -77.5t-61 -210.5q0 -94 44 -165t133 -133v-63h-264v103z" />
    <glyph glyph-name="uni03BC" unicode="&#x3bc;" horiz-adv-x="579" 
d="M105 399q0 20 -8 28t-27 8h-35v45h123v-336q0 -57 31 -86.5t91 -29.5q66 0 108.5 40.5t42.5 112.5v218q0 20 -7.5 28t-26.5 8h-35v45h122v-399q0 -20 7.5 -28t26.5 -8h26v-45h-99l-6 68q-32 -43 -72.5 -63t-101.5 -20q-66 0 -107 43v-236h-53v607z" />
    <glyph glyph-name="pi" unicode="&#x3c0;" horiz-adv-x="673" 
d="M451 15.5q-28 30.5 -28 90.5v329h-224v-354q0 -20 8 -28t30 -8h31v-45h-191v45h31q22 0 30 8t8 28v354h-111v45h559v-45h-118v-326q0 -43 12 -60.5t46 -17.5q39 0 52 26v43h52v-59q-23 -30 -46.5 -43t-57.5 -13q-55 0 -83 30.5z" />
    <glyph glyph-name="uni0E01" unicode="&#xe01;" horiz-adv-x="546" 
d="M70 238q0 85 60 114l-85 51v57q45 40 102 62t122 22q103 0 157.5 -47t54.5 -130v-367h-54v365q0 136 -158 136q-53 0 -99 -16t-79 -45v-12l91 -58v-35q-34 -14 -46 -36.5t-12 -66.5v-232h-54v238z" />
    <glyph glyph-name="uni0E02" unicode="&#xe02;" horiz-adv-x="496" 
d="M125.5 11.5q-40.5 26.5 -52.5 69.5t-12 110v36q0 45 19.5 82t50.5 64q-48 0 -67 20t-19 65q0 46 21.5 66t67.5 20q47 0 67.5 -19t20.5 -63v-29q0 -18 -10.5 -34t-32.5 -39q-32 -35 -48.5 -62.5t-16.5 -67.5v-39q0 -62 6.5 -93.5t35 -50.5t90.5 -19t90 19t34.5 50t6.5 94
v338h54v-338q0 -67 -12 -110t-52.5 -69.5t-120.5 -26.5t-120.5 26.5zM170.5 423q10.5 11 10.5 35q0 27 -10.5 36.5t-37.5 9.5q-28 0 -38 -9.5t-10 -36.5q0 -25 10.5 -35.5t37.5 -10.5t37.5 11z" />
    <glyph glyph-name="uni0E03" unicode="&#xe03;" horiz-adv-x="545" 
d="M175.5 10.5q-40.5 25.5 -53 64.5t-12.5 96v26q0 44 20.5 77.5t59.5 75.5q32 34 47.5 57.5t15.5 51.5v24l-41 -24v-1q0 -86 -89 -86q-50 0 -69 20.5t-19 69.5q0 82 89 82q33 0 52.5 -10.5t27.5 -33.5l49 29h54v-67q0 -35 -18.5 -64t-54.5 -68q-36 -42 -53.5 -69t-17.5 -61
v-29q0 -51 6.5 -79t35 -46t90.5 -18t90 19t34.5 50t6.5 94v338h54v-338q0 -67 -12 -110t-52.5 -69.5t-120.5 -26.5q-79 0 -119.5 25.5zM162 421.5q10 9.5 10 36.5q0 25 -10.5 35.5t-37.5 10.5q-26 0 -37 -10.5t-11 -35.5q0 -27 10.5 -36.5t37.5 -9.5q28 0 38 9.5z" />
    <glyph glyph-name="uni0E04" unicode="&#xe04;" horiz-adv-x="560" 
d="M65 338q0 95 48.5 150.5t166.5 55.5t166.5 -55.5t48.5 -150.5v-338h-54v338q0 82 -34.5 122.5t-126.5 40.5t-126.5 -40.5t-34.5 -122.5v-116l40 35q14 12 33 33q22 24 39.5 34t51.5 10q46 0 67.5 -20t21.5 -66q0 -42 -24.5 -63.5t-68.5 -21.5q-36 0 -60.5 17.5
t-24.5 45.5l-75 -65v-161h-54v338zM317.5 212.5q10.5 10.5 10.5 35.5q0 27 -10 36.5t-38 9.5q-27 0 -37.5 -9.5t-10.5 -36.5q0 -24 11 -35t37 -11q27 0 37.5 10.5z" />
    <glyph glyph-name="uni0E05" unicode="&#xe05;" horiz-adv-x="560" 
d="M65 396q0 74 29.5 111t86.5 37q41 0 65 -15.5t34 -48.5q12 33 35.5 48.5t63.5 15.5q60 0 88 -35.5t28 -112.5v-396h-54v394q0 60 -12 83t-53 23q-34 0 -52 -19t-18 -54v-15h-53v15q0 36 -15.5 54.5t-49.5 18.5q-40 0 -54.5 -24t-14.5 -83v-171l40 35q14 12 33 33
q22 24 39.5 34t51.5 10q46 0 67.5 -20t21.5 -66q0 -42 -24.5 -63.5t-68.5 -21.5q-36 0 -60.5 17.5t-24.5 45.5l-75 -65v-161h-54v396zM317.5 212.5q10.5 10.5 10.5 35.5q0 27 -10 36.5t-38 9.5q-27 0 -37.5 -9.5t-10.5 -36.5q0 -24 11 -35t37 -11q27 0 37.5 10.5z" />
    <glyph glyph-name="uni0E06" unicode="&#xe06;" horiz-adv-x="566" 
d="M45 71q0 45 23 65.5t70 20.5q9 0 14.5 -1t9.5 -1v42q0 45 15.5 78.5t44.5 74.5q24 36 35.5 58.5t11.5 50.5v24l-46 -24v-1q0 -86 -89 -86q-50 0 -69 20.5t-19 69.5q0 82 89 82q33 0 52.5 -10.5t27.5 -33.5l54 29h54v-67q0 -35 -13.5 -63.5t-40.5 -68.5
q-27 -41 -40.5 -68.5t-13.5 -61.5v-55l232 -95v479h54v-529h-46l-237 97q4 -9 4 -26q0 -45 -22.5 -65.5t-66.5 -20.5q-88 0 -88 86zM173 421.5q10 9.5 10 36.5q0 25 -10.5 35.5t-37.5 10.5q-26 0 -37 -10.5t-11 -35.5q0 -27 10.5 -36.5t37.5 -9.5q28 0 38 9.5zM170.5 36
q10.5 11 10.5 35q0 27 -10.5 36.5t-37.5 9.5q-28 0 -38 -9.5t-10 -36.5q0 -25 10.5 -35.5t37.5 -10.5t37.5 11z" />
    <glyph glyph-name="uni0E07" unicode="&#xe07;" horiz-adv-x="481" 
d="M25 360h58l117 -317h79q42 0 62.5 17t20.5 54v264q-15 -6 -36 -6q-88 0 -88 86q0 46 21.5 66t67.5 20q49 0 69 -21.5t20 -71.5v-329q0 -49 -31 -85.5t-98 -36.5h-129zM363.5 423q10.5 11 10.5 35q0 27 -10.5 36.5t-37.5 9.5q-28 0 -38 -9.5t-10 -36.5q0 -25 10.5 -35.5
t37.5 -10.5t37.5 11z" />
    <glyph glyph-name="uni0E08" unicode="&#xe08;" horiz-adv-x="516" 
d="M200 194q-17 -16 -51 -16q-88 0 -88 85q0 46 21.5 66t67.5 20q33 0 50 -8.5t25.5 -27.5t16.5 -57l44 -213h28q83 0 83 77v246q0 71 -38 103t-118 32q-51 0 -93.5 -14.5t-81.5 -50.5l-31 34q81 74 206 74q114 0 162 -47t48 -135v-240q0 -49 -31 -85.5t-99 -36.5h-77z
M186.5 228q10.5 11 10.5 35q0 27 -10.5 36.5t-37.5 9.5q-28 0 -38 -9.5t-10 -36.5q0 -25 10.5 -35.5t37.5 -10.5t37.5 11z" />
    <glyph glyph-name="uni0E09" unicode="&#xe09;" horiz-adv-x="560" 
d="M356.5 6.5q-19.5 21.5 -19.5 71.5q0 11 7 25l-117 -103h-58v168q-15 -6 -36 -6q-88 0 -88 86q0 46 21.5 66t67.5 20q49 0 68.5 -21.5t19.5 -71.5v-188l195 169q14 12 19 22t5 28v97q0 65 -48.5 98.5t-121.5 33.5q-113 0 -183 -65l-31 34q79 74 214 74q103 0 163.5 -48
t60.5 -131v-101q0 -27 -19.5 -50t-61.5 -55q53 0 76.5 -21.5t23.5 -66.5q0 -46 -21.5 -66t-67.5 -20q-49 0 -68.5 21.5zM170.5 213q10.5 11 10.5 35q0 27 -10.5 36.5t-37.5 9.5q-28 0 -38 -9.5t-10 -36.5q0 -25 10.5 -35.5t37.5 -10.5t37.5 11zM464 34.5q10 9.5 10 36.5
q0 25 -10.5 35.5t-37.5 10.5t-37.5 -10t-10.5 -36q0 -27 10.5 -36.5t37.5 -9.5q28 0 38 9.5z" />
    <glyph glyph-name="uni0E0A" unicode="&#xe0a;" horiz-adv-x="496" 
d="M125.5 11.5q-40.5 26.5 -52.5 69.5t-12 110v36q0 45 19.5 82t50.5 64q-48 0 -67 20t-19 65q0 46 21.5 66t67.5 20q47 0 67.5 -19t20.5 -63v-29q0 -18 -10.5 -34t-32.5 -39q-32 -35 -48.5 -62.5t-16.5 -67.5v-39q0 -62 6.5 -93.5t35 -50.5t90.5 -19t90 19t34.5 50t6.5 94
v60q0 51 -18 75t-64 24h-15v43h15q35 0 52.5 10t23.5 31t6 58v52h54v-52q0 -46 -12.5 -76.5t-45.5 -45.5q32 -17 45 -46.5t13 -72.5v-60q0 -67 -12 -110t-52.5 -69.5t-120.5 -26.5t-120.5 26.5zM170.5 423q10.5 11 10.5 35q0 27 -10.5 36.5t-37.5 9.5q-28 0 -38 -9.5
t-10 -36.5q0 -25 10.5 -35.5t37.5 -10.5t37.5 11z" />
    <glyph glyph-name="uni0E0B" unicode="&#xe0b;" horiz-adv-x="545" 
d="M175.5 10.5q-40.5 25.5 -53 64.5t-12.5 96v26q0 44 20.5 77.5t59.5 75.5q32 34 47.5 57.5t15.5 51.5v24l-41 -24v-1q0 -86 -89 -86q-50 0 -69 20.5t-19 69.5q0 82 89 82q33 0 52.5 -10.5t27.5 -33.5l49 29h54v-67q0 -35 -18.5 -64t-54.5 -68q-36 -42 -53.5 -69t-17.5 -61
v-29q0 -51 6.5 -79t35 -46t90.5 -18t90 19t34.5 50t6.5 94v60q0 51 -18 75t-64 24h-15v43h15q35 0 52.5 10t23.5 31t6 58v52h54v-52q0 -46 -12.5 -76.5t-45.5 -45.5q32 -17 45 -46.5t13 -72.5v-60q0 -67 -12 -110t-52.5 -69.5t-120.5 -26.5q-79 0 -119.5 25.5zM162 421.5
q10 9.5 10 36.5q0 25 -10.5 35.5t-37.5 10.5q-26 0 -37 -10.5t-11 -35.5q0 -27 10.5 -36.5t37.5 -9.5q28 0 38 9.5z" />
    <glyph glyph-name="uni0E0C" unicode="&#xe0c;" horiz-adv-x="806" 
d="M90 6.5q-20 21.5 -20 71.5v160q0 85 60 114l-85 51v57q46 41 98 62.5t116 21.5q102 0 151.5 -46.5t49.5 -130.5v-222l227 -95v479h54v-529h-46l-230 97q4 -9 4 -26q0 -45 -22.5 -65.5t-66.5 -20.5q-88 0 -88 86q0 46 22.5 66t69.5 20q11 0 23 -2v210q0 72 -34.5 104
t-113.5 32q-99 0 -168 -61v-12l91 -58v-35q-34 -14 -46 -36.5t-12 -66.5v-81q15 6 36 6q88 0 88 -86q0 -46 -21.5 -66t-67.5 -20q-49 0 -69 21.5zM198 34.5q10 9.5 10 36.5q0 25 -10.5 35.5t-37.5 10.5q-26 0 -37 -10.5t-11 -35.5q0 -27 10.5 -36.5t37.5 -9.5q28 0 38 9.5z
M417.5 36q10.5 11 10.5 35q0 27 -10.5 36.5t-37.5 9.5q-28 0 -38 -9.5t-10 -36.5q0 -25 10.5 -35.5t37.5 -10.5t37.5 11z" />
    <glyph glyph-name="uni0E0D" unicode="&#xe0d;" horiz-adv-x="862" 
d="M90 6.5q-20 21.5 -20 71.5v160q0 85 60 114l-85 51v57q46 41 98 62.5t116 21.5q102 0 151.5 -46.5t49.5 -130.5v-136q0 -55 11 -90t42 -54t89 -19t89 19t41.5 54t10.5 90v298h54v-298q0 -97 -42.5 -151.5t-152.5 -54.5t-152.5 54.5t-42.5 151.5v134q0 72 -34.5 104
t-113.5 32q-99 0 -168 -61v-12l91 -58v-35q-34 -14 -46 -36.5t-12 -66.5v-81q15 6 36 6q88 0 88 -86q0 -46 -21.5 -66t-67.5 -20q-49 0 -69 21.5zM198 34.5q10 9.5 10 36.5q0 25 -10.5 35.5t-37.5 10.5q-26 0 -37 -10.5t-11 -35.5q0 -27 10.5 -36.5t37.5 -9.5q28 0 38 9.5z
M473.5 -181.5q-76.5 33.5 -76.5 102.5q0 45 20 66t68 21q45 0 67 -20.5t22 -65.5q0 -39 -14 -56t-41 -21q10 -8 27 -10.5t49 -2.5h56q52 0 83 25t56 74l36 -51q-32 -47 -71.5 -71t-103.5 -24q-101 0 -177.5 33.5zM523.5 -113.5q10.5 10.5 10.5 35.5q0 27 -10 36.5t-38 9.5
q-27 0 -38 -9.5t-11 -36.5q0 -24 11 -35t38 -11t37.5 10.5z" />
    <glyph glyph-name="uni0E0E" unicode="&#xe0e;" horiz-adv-x="603" 
d="M202 -206q22 54 62 75.5t96 21.5q82 0 125 -50v524q0 136 -158 136q-54 0 -101.5 -16t-80.5 -45v-12l111 -68v-35q-17 -14 -24 -25.5t-8.5 -27t-1.5 -50.5v-144q0 -49 -20 -71t-68 -22q-45 0 -67 20t-22 66q0 86 88 86q21 0 36 -6v77q0 42 6 65.5t29 45.5l-105 64v57
q45 40 104 62t124 22q103 0 157 -47t54 -130v-588h-53q-16 29 -49 48.5t-76 19.5q-41 0 -68 -14t-46 -54zM170.5 34.5q10.5 9.5 10.5 36.5q0 25 -10.5 35.5t-37.5 10.5t-37.5 -10.5t-10.5 -35.5q0 -27 10 -36.5t38 -9.5q27 0 37.5 9.5z" />
    <glyph glyph-name="uni0E0F" unicode="&#xe0f;" horiz-adv-x="603" 
d="M356 -163q-36 -51 -92 -51q-94 0 -119 99l43 11q11 -36 28.5 -51t47.5 -15q53 0 81 55l140 -61v541q0 136 -158 136q-54 0 -101.5 -16t-80.5 -45v-12l111 -68v-35q-17 -14 -24 -25.5t-8.5 -27t-1.5 -50.5v-144q0 -49 -20 -71t-68 -22q-45 0 -67 20t-22 66q0 86 88 86
q21 0 36 -6v77q0 42 6 65.5t29 45.5l-105 64v57q45 40 104 62t124 22q103 0 157 -47t54 -130v-588h-53zM170.5 34.5q10.5 9.5 10.5 36.5q0 25 -10.5 35.5t-37.5 10.5t-37.5 -10.5t-10.5 -35.5q0 -27 10 -36.5t38 -9.5q27 0 37.5 9.5z" />
    <glyph glyph-name="uni0E10" unicode="&#xe10;" horiz-adv-x="537" 
d="M205 194q-17 -16 -51 -16q-88 0 -88 85q0 46 21.5 66t67.5 20q33 0 50 -8.5t25.5 -27.5t16.5 -57l44 -213h28q83 0 83 77v246q0 71 -38 103t-118 32q-51 0 -93.5 -14.5t-81.5 -50.5l-31 34q81 74 206 74q85 0 135 -28q35 19 41 58l50 -11q-2 -23 -15 -45.5t-35 -36.5
q34 -44 34 -119v-240q0 -49 -31 -85.5t-99 -36.5h-77zM191.5 228q10.5 11 10.5 35q0 27 -10.5 36.5t-37.5 9.5q-28 0 -38 -9.5t-10 -36.5q0 -25 10.5 -35.5t37.5 -10.5t37.5 11zM77 -177l43 11q11 -36 27.5 -51t46.5 -15q56 0 81 48l141 -44v57q-7 -4 -19.5 -6.5t-23.5 -2.5
q-88 0 -88 79q0 44 21 62.5t68 18.5q44 0 63.5 -20.5t19.5 -67.5v-165h-40l-131 41q-31 -44 -92 -44q-92 0 -117 99zM407 -131q11 10 11 30q0 22 -10.5 31t-36.5 9q-27 0 -37 -8.5t-10 -31.5q0 -21 10.5 -30.5t36.5 -9.5q25 0 36 10z" />
    <glyph glyph-name="uni0E11" unicode="&#xe11;" horiz-adv-x="585" 
d="M151 197q0 45 15.5 78.5t44.5 74.5q24 36 35.5 58.5t11.5 50.5v24l-46 -24v-1q0 -86 -89 -86q-50 0 -69 20.5t-19 69.5q0 82 89 82q33 0 52.5 -10.5t27.5 -33.5l54 29h54v-56l22 22q28 28 50.5 38.5t55.5 10.5q40 0 60 -19t20 -53v-472h-54v472q0 14 -8.5 21.5t-22.5 7.5
q-24 0 -35.5 -7t-34.5 -30l-68 -68q-14 -30 -40 -66q-27 -42 -40 -69t-13 -61v-200h-53v197zM162 421.5q10 9.5 10 36.5q0 25 -10.5 35.5t-37.5 10.5q-26 0 -37 -10.5t-11 -35.5q0 -27 10.5 -36.5t37.5 -9.5q28 0 38 9.5z" />
    <glyph glyph-name="uni0E12" unicode="&#xe12;" horiz-adv-x="843" 
d="M329 71q0 46 22.5 66t69.5 20q11 0 23 -2v239q0 41 -4.5 63t-18 32.5t-41.5 10.5q-68 0 -68 -73v-15h-53v15q0 37 -14.5 55t-48.5 18q-39 0 -53.5 -24t-14.5 -83v-346l149 130q-32 2 -52 21.5t-20 58.5q0 45 22 65.5t67 20.5q48 0 68 -19.5t20 -63.5q0 -30 -10.5 -49
t-35.5 -41l-195 -170h-66v396q0 148 114 148q40 0 63.5 -15.5t33.5 -48.5q12 34 34.5 49t62.5 15q60 0 87 -35.5t27 -112.5v-251l227 -95v479h54v-529h-46l-230 97q4 -9 4 -26q0 -45 -22.5 -65.5t-66.5 -20.5q-88 0 -88 86zM331 222q11 11 11 35q0 27 -11 36.5t-38 9.5
q-28 0 -38 -9.5t-10 -36.5q0 -25 10.5 -35.5t37.5 -10.5t38 11zM454.5 36q10.5 11 10.5 35q0 27 -10.5 36.5t-37.5 9.5q-28 0 -38 -9.5t-10 -36.5q0 -25 10.5 -35.5t37.5 -10.5t37.5 11z" />
    <glyph glyph-name="uni0E13" unicode="&#xe13;" horiz-adv-x="826" 
d="M90 6.5q-20 21.5 -20 71.5v160q0 85 60 114l-85 51v57q46 41 98 62.5t116 21.5q102 0 151.5 -46.5t49.5 -130.5v-315l223 160q15 10 19.5 18t4.5 25v274h54v-275q0 -28 -16 -47t-62 -49q53 0 75 -21t22 -66q0 -46 -21.5 -66t-67.5 -20q-49 0 -68.5 21.5t-19.5 71.5
q0 19 5 29l-144 -107h-57v365q0 72 -34.5 104t-113.5 32q-99 0 -168 -61v-12l91 -58v-35q-34 -14 -46 -36.5t-12 -66.5v-81q15 6 36 6q88 0 88 -86q0 -46 -21.5 -66t-67.5 -20q-49 0 -69 21.5zM198 34.5q10 9.5 10 36.5q0 25 -10.5 35.5t-37.5 10.5q-26 0 -37 -10.5
t-11 -35.5q0 -27 10.5 -36.5t37.5 -9.5q28 0 38 9.5zM730 34.5q10 9.5 10 36.5q0 25 -10.5 35.5t-37.5 10.5t-37.5 -10t-10.5 -36q0 -27 10.5 -36.5t37.5 -9.5q28 0 38 9.5z" />
    <glyph glyph-name="uni0E14" unicode="&#xe14;" horiz-adv-x="566" 
d="M65 348q0 93 49.5 144.5t168.5 51.5t168.5 -51.5t49.5 -144.5v-348h-54v348q0 79 -35.5 116t-128.5 37t-128.5 -37t-35.5 -116v-301l149 130q-32 2 -52 21.5t-20 58.5q0 45 22 65.5t67 20.5q48 0 68 -19.5t20 -63.5q0 -30 -10.5 -49t-35.5 -41l-195 -170h-67v348z
M322 222q11 11 11 35q0 27 -11 36.5t-38 9.5q-28 0 -38 -9.5t-10 -36.5q0 -25 10.5 -35.5t37.5 -10.5t38 11z" />
    <glyph glyph-name="uni0E15" unicode="&#xe15;" horiz-adv-x="566" 
d="M65 396q0 74 30.5 111t87.5 37q81 0 100 -64q12 33 36 48.5t64 15.5q60 0 89 -36t29 -112v-396h-54v394q0 60 -13 83t-54 23q-34 0 -52.5 -19t-18.5 -54v-15h-53v15q0 36 -16 54.5t-50 18.5q-40 0 -55.5 -24.5t-15.5 -82.5v-346l149 130q-32 2 -52 21.5t-20 58.5
q0 45 22 65.5t67 20.5q48 0 68 -19.5t20 -63.5q0 -30 -10.5 -49t-35.5 -41l-195 -170h-67v396zM322 222q11 11 11 35q0 27 -11 36.5t-38 9.5q-28 0 -38 -9.5t-10 -36.5q0 -25 10.5 -35.5t37.5 -10.5t38 11z" />
    <glyph glyph-name="uni0E16" unicode="&#xe16;" horiz-adv-x="546" 
d="M90.5 7q-20.5 22 -20.5 71v160q0 85 60 114l-85 51v57q45 40 102 62t122 22q103 0 157.5 -47t54.5 -130v-367h-54v365q0 136 -158 136q-53 0 -99 -16t-79 -45v-12l91 -58v-35q-34 -14 -46 -36.5t-12 -66.5v-81q15 6 36 6q88 0 88 -86q0 -46 -22 -66t-67 -20
q-48 0 -68.5 22zM198 34.5q10 9.5 10 36.5q0 25 -10.5 35.5t-37.5 10.5q-26 0 -37 -10.5t-11 -35.5q0 -27 10.5 -36.5t37.5 -9.5q28 0 38 9.5z" />
    <glyph glyph-name="uni0E17" unicode="&#xe17;" horiz-adv-x="593" 
d="M159 378q-15 -6 -36 -6q-88 0 -88 86q0 46 21.5 66t67.5 20q49 0 68.5 -21.5t19.5 -71.5v-212l150 251q17 29 37.5 41.5t52.5 12.5q76 0 76 -72v-472h-54v472q0 29 -26 29q-14 0 -23.5 -6.5t-18.5 -22.5l-194 -322v-150h-53v378zM160.5 423q10.5 11 10.5 35
q0 27 -10.5 36.5t-37.5 9.5q-28 0 -38 -9.5t-10 -36.5q0 -25 10.5 -35.5t37.5 -10.5t37.5 11z" />
    <glyph glyph-name="uni0E18" unicode="&#xe18;" horiz-adv-x="492" 
d="M129 11.5q-43 26.5 -57.5 70.5t-14.5 109v42h54v-42q0 -58 8.5 -91.5t39 -52.5t93.5 -19q68 0 104.5 24t36.5 78v64q0 38 -16.5 54.5t-60.5 26.5l-271 61v67q0 63 56 102t146 39q120 0 184 -51l-28 -32q-53 40 -157 40q-69 0 -108.5 -26t-39.5 -72v-35l242 -54
q59 -13 83 -40.5t24 -80.5v-63q0 -70 -52 -107.5t-143 -37.5q-80 0 -123 26.5z" />
    <glyph glyph-name="uni0E19" unicode="&#xe19;" horiz-adv-x="588" 
d="M384.5 6.5q-19.5 21.5 -19.5 71.5q0 19 5 29l-154 -107h-57v378q-15 -6 -36 -6q-88 0 -88 86q0 46 21.5 66t67.5 20q49 0 68.5 -21.5t19.5 -71.5v-399l233 160q15 10 19.5 18t4.5 25v274h54v-275q0 -28 -16 -47t-62 -49q53 0 75 -21t22 -66q0 -46 -21.5 -66t-67.5 -20
q-49 0 -68.5 21.5zM160.5 423q10.5 11 10.5 35q0 27 -10.5 36.5t-37.5 9.5q-28 0 -38 -9.5t-10 -36.5q0 -25 10.5 -35.5t37.5 -10.5t37.5 11zM492 34.5q10 9.5 10 36.5q0 25 -10.5 35.5t-37.5 10.5t-37.5 -10t-10.5 -36q0 -27 10.5 -36.5t37.5 -9.5q28 0 38 9.5z" />
    <glyph glyph-name="uni0E1A" unicode="&#xe1a;" horiz-adv-x="634" 
d="M203 39.5q-44 54.5 -44 151.5v187q-15 -6 -36 -6q-88 0 -88 86q0 46 21.5 66t67.5 20q49 0 69 -21.5t20 -71.5v-260q0 -56 11 -90.5t44 -53.5t96 -19t96 19t44 53.5t11 90.5v338h54v-338q0 -97 -44 -151.5t-161 -54.5t-161 54.5zM160.5 423q10.5 11 10.5 35
q0 27 -10.5 36.5t-37.5 9.5q-28 0 -38 -9.5t-10 -36.5q0 -25 10.5 -35.5t37.5 -10.5t37.5 11z" />
    <glyph glyph-name="uni0E1B" unicode="&#xe1b;" horiz-adv-x="634" 
d="M203 39.5q-44 54.5 -44 151.5v187q-15 -6 -36 -6q-88 0 -88 86q0 46 21.5 66t67.5 20q49 0 69 -21.5t20 -71.5v-260q0 -56 11 -90.5t44 -53.5t96 -19t96 19t44 53.5t11 90.5v523h54v-523q0 -97 -44 -151.5t-161 -54.5t-161 54.5zM160.5 423q10.5 11 10.5 35
q0 27 -10.5 36.5t-37.5 9.5q-28 0 -38 -9.5t-10 -36.5q0 -25 10.5 -35.5t37.5 -10.5t37.5 11z" />
    <glyph glyph-name="uni0E1C" unicode="&#xe1c;" horiz-adv-x="558" 
d="M65 451q0 50 20 71.5t69 21.5q46 0 67.5 -20t21.5 -66q0 -86 -88 -86q-21 0 -36 6v-301l136 176h48l136 -176v452h54v-529h-54l-160 208l-160 -208h-54v451zM192.5 422.5q10.5 10.5 10.5 35.5q0 27 -10 36.5t-38 9.5q-27 0 -37.5 -9.5t-10.5 -36.5q0 -24 11 -35t37 -11
q27 0 37.5 10.5z" />
    <glyph glyph-name="uni0E1D" unicode="&#xe1d;" horiz-adv-x="558" 
d="M65 451q0 50 20 71.5t69 21.5q46 0 67.5 -20t21.5 -66q0 -86 -88 -86q-21 0 -36 6v-301l136 176h48l136 -176v637h54v-714h-54l-160 208l-160 -208h-54v451zM192.5 422.5q10.5 10.5 10.5 35.5q0 27 -10 36.5t-38 9.5q-27 0 -37.5 -9.5t-10.5 -36.5q0 -24 11 -35t37 -11
q27 0 37.5 10.5z" />
    <glyph glyph-name="uni0E1E" unicode="&#xe1e;" horiz-adv-x="638" 
d="M159 378q-15 -6 -36 -6q-88 0 -88 86q0 46 21.5 66t67.5 20q49 0 69 -21.5t20 -71.5v-339l129 301h48l129 -301v417h54v-529h-54l-153 353l-153 -353h-54v378zM160.5 423q10.5 11 10.5 35q0 27 -10.5 36.5t-37.5 9.5q-28 0 -38 -9.5t-10 -36.5q0 -25 10.5 -35.5
t37.5 -10.5t37.5 11z" />
    <glyph glyph-name="uni0E1F" unicode="&#xe1f;" horiz-adv-x="638" 
d="M159 378q-15 -6 -36 -6q-88 0 -88 86q0 46 21.5 66t67.5 20q49 0 69 -21.5t20 -71.5v-339l129 301h48l129 -301v602h54v-714h-54l-153 353l-153 -353h-54v378zM160.5 423q10.5 11 10.5 35q0 27 -10.5 36.5t-37.5 9.5q-28 0 -38 -9.5t-10 -36.5q0 -25 10.5 -35.5
t37.5 -10.5t37.5 11z" />
    <glyph glyph-name="uni0E20" unicode="&#xe20;" horiz-adv-x="604" 
d="M67 5q-22 20 -22 66q0 86 88 86q21 0 36 -6v77q0 42 6 65.5t29 45.5l-105 64v57q45 40 104 62t124 22q103 0 157.5 -47t54.5 -130v-367h-54v365q0 136 -158 136q-54 0 -101.5 -16t-80.5 -45v-12l112 -68v-35q-17 -14 -24 -25.5t-8.5 -27t-1.5 -50.5v-144q0 -49 -20.5 -71
t-68.5 -22q-45 0 -67 20zM170.5 34.5q10.5 9.5 10.5 36.5q0 25 -10.5 35.5t-37.5 10.5t-37.5 -10.5t-10.5 -35.5q0 -27 10 -36.5t38 -9.5q27 0 37.5 9.5z" />
    <glyph glyph-name="uni0E21" unicode="&#xe21;" horiz-adv-x="578" 
d="M52 71q0 45 23 65.5t70 20.5q9 0 14.5 -1t9.5 -1v223q-15 -6 -36 -6q-88 0 -88 86q0 46 21.5 66t67.5 20q49 0 68.5 -21.5t19.5 -71.5v-306l237 -95v479h54v-529h-46l-242 97q4 -9 4 -26q0 -45 -22.5 -65.5t-66.5 -20.5q-88 0 -88 86zM170.5 423q10.5 11 10.5 35
q0 27 -10.5 36.5t-37.5 9.5q-28 0 -38 -9.5t-10 -36.5q0 -25 10.5 -35.5t37.5 -10.5t37.5 11zM177.5 36q10.5 11 10.5 35q0 27 -10.5 36.5t-37.5 9.5q-28 0 -38 -9.5t-10 -36.5q0 -25 10.5 -35.5t37.5 -10.5t37.5 11z" />
    <glyph glyph-name="uni0E22" unicode="&#xe22;" horiz-adv-x="523" 
d="M97 25q-52 40 -52 113q0 89 61 122q-31 18 -44 46t-13 74v67q0 49 21.5 73t66.5 24t67 -20t22 -66q0 -86 -88 -86q-9 0 -20.5 2.5t-18.5 6.5q0 -49 20 -73.5t65 -24.5h45v-43h-45q-88 0 -88 -101q0 -57 37 -84t120 -27q77 0 114.5 33t37.5 103v365h53v-367
q0 -84 -51.5 -130.5t-153.5 -46.5q-104 0 -156 40zM175.5 422.5q10.5 10.5 10.5 35.5q0 27 -10 36.5t-38 9.5q-27 0 -37.5 -9.5t-10.5 -36.5q0 -24 11 -35t37 -11q27 0 37.5 10.5z" />
    <glyph glyph-name="uni0E23" unicode="&#xe23;" horiz-adv-x="460" 
d="M181 5q-22 20 -22 66q0 86 88 86q21 0 36 -6v76q0 28 -4.5 40.5t-17.5 19.5t-44 15l-172 44v57q0 64 51.5 102.5t140.5 38.5q61 0 103 -12t75 -38l-28 -32q-29 22 -65 30.5t-86 8.5q-68 0 -103 -25.5t-35 -72.5v-25l172 -44q40 -11 53 -35t13 -72v-149q0 -49 -20 -71
t-68 -22q-45 0 -67 20zM284.5 34.5q10.5 9.5 10.5 36.5q0 25 -10.5 35.5t-37.5 10.5t-37.5 -10.5t-10.5 -35.5q0 -27 10 -36.5t38 -9.5q27 0 37.5 9.5z" />
    <glyph glyph-name="uni0E24" unicode="&#xe24;" horiz-adv-x="546" 
d="M427 365q0 136 -158 136q-53 0 -99 -16t-79 -45v-12l91 -58v-35q-34 -14 -46 -36.5t-12 -66.5v-81q15 6 36 6q88 0 88 -86q0 -46 -22 -66t-67 -20q-48 0 -68.5 22t-20.5 71v160q0 85 60 114l-85 51v57q45 40 102 62t122 22q103 0 157.5 -47t54.5 -130v-568h-54v566z
M198 34.5q10 9.5 10 36.5q0 25 -10.5 35.5t-37.5 10.5q-26 0 -37 -10.5t-11 -35.5q0 -27 10.5 -36.5t37.5 -9.5q28 0 38 9.5z" />
    <glyph glyph-name="uni0E25" unicode="&#xe25;" horiz-adv-x="518" 
d="M46 98q0 113 47 165t140 52q60 0 103 -24t63 -70v148q0 66 -39.5 99t-110.5 33q-51 0 -92.5 -14.5t-80.5 -50.5l-31 34q43 40 93.5 57t110.5 17q101 0 152.5 -47t51.5 -132v-365h-53q0 139 -39 205.5t-135 66.5q-117 0 -126 -122q18 7 36 7q88 0 88 -86q0 -46 -22 -66
t-67 -20q-89 0 -89 113zM174 34.5q10 9.5 10 36.5q0 25 -10.5 35.5t-37.5 10.5q-26 0 -37 -10.5t-11 -35.5q0 -24 11.5 -35t36.5 -11q28 0 38 9.5z" />
    <glyph glyph-name="uni0E26" unicode="&#xe26;" horiz-adv-x="604" 
d="M485 365q0 136 -158 136q-54 0 -101.5 -16t-80.5 -45v-12l112 -68v-35q-17 -14 -24 -25.5t-8.5 -27t-1.5 -50.5v-144q0 -49 -20.5 -71t-68.5 -22q-45 0 -67 20t-22 66q0 86 88 86q21 0 36 -6v77q0 42 6 65.5t29 45.5l-105 64v57q45 40 104 62t124 22q103 0 157.5 -47
t54.5 -130v-568h-54v566zM170.5 34.5q10.5 9.5 10.5 36.5q0 25 -10.5 35.5t-37.5 10.5t-37.5 -10.5t-10.5 -35.5q0 -27 10 -36.5t38 -9.5q27 0 37.5 9.5z" />
    <glyph glyph-name="uni0E27" unicode="&#xe27;" horiz-adv-x="466" 
d="M244.5 5q-21.5 20 -21.5 66q0 86 88 86q21 0 36 -6v213q0 72 -32 104.5t-104 32.5q-47 0 -79.5 -14.5t-75.5 -50.5l-31 34q49 41 88 57.5t98 16.5q105 0 147.5 -47t42.5 -137v-282q0 -50 -20 -71.5t-69 -21.5q-46 0 -67.5 20zM348.5 34.5q10.5 9.5 10.5 36.5
q0 25 -10.5 35.5t-37.5 10.5t-37.5 -10.5t-10.5 -35.5q0 -27 10 -36.5t38 -9.5q27 0 37.5 9.5z" />
    <glyph glyph-name="uni0E28" unicode="&#xe28;" horiz-adv-x="567" 
d="M65 338q0 95 48.5 150.5t166.5 55.5q81 0 131 -28q35 19 41 58l50 -11q-2 -24 -15 -46t-34 -36q42 -50 42 -143v-338h-54v338q0 82 -34.5 122.5t-126.5 40.5t-126.5 -40.5t-34.5 -122.5v-116l40 35q14 12 33 33q22 24 39.5 34t51.5 10q46 0 67.5 -20t21.5 -66
q0 -42 -24.5 -63.5t-68.5 -21.5q-36 0 -60.5 17.5t-24.5 45.5l-75 -65v-161h-54v338zM317.5 212.5q10.5 10.5 10.5 35.5q0 27 -10 36.5t-38 9.5q-27 0 -37.5 -9.5t-10.5 -36.5q0 -24 11 -35t37 -11q27 0 37.5 10.5z" />
    <glyph glyph-name="uni0E29" unicode="&#xe29;" horiz-adv-x="634" 
d="M203 39.5q-44 54.5 -44 151.5v187q-15 -6 -36 -6q-88 0 -88 86q0 46 21.5 66t67.5 20q49 0 68.5 -21.5t19.5 -71.5v-260q0 -55 11.5 -90t44.5 -54t96 -19t96 19t44 53.5t11 90.5v16q-28 -2 -42 -2q-94 0 -144.5 26.5t-50.5 88.5q0 86 87 86q47 0 66 -22t19 -66
q0 -23 -9 -39t-31 -27q20 -4 41 -4h25q19 0 39 3v278h54v-338q0 -97 -44 -151.5t-161 -54.5t-161 54.5zM160.5 423q10.5 11 10.5 35q0 27 -10.5 36.5t-37.5 9.5q-28 0 -38 -9.5t-10 -36.5q0 -25 10.5 -35.5t37.5 -10.5t37.5 11zM400.5 286q10.5 11 10.5 35q0 26 -10 35.5
t-37 9.5q-28 0 -38 -9.5t-10 -35.5q0 -25 10.5 -35.5t37.5 -10.5q26 0 36.5 11z" />
    <glyph glyph-name="uni0E2A" unicode="&#xe2a;" horiz-adv-x="518" 
d="M46 98q0 113 47 165t140 52q60 0 103 -24t63 -70v148q0 66 -39.5 99t-110.5 33q-51 0 -92.5 -14.5t-80.5 -50.5l-31 34q43 40 93.5 57t110.5 17q76 0 126 -28q34 19 40 58l50 -11q-2 -24 -15 -46t-34 -36q37 -44 37 -116v-365h-53q0 139 -39 205.5t-135 66.5
q-117 0 -126 -122q18 7 36 7q88 0 88 -86q0 -46 -22 -66t-67 -20q-89 0 -89 113zM174 34.5q10 9.5 10 36.5q0 25 -10.5 35.5t-37.5 10.5q-26 0 -37 -10.5t-11 -35.5q0 -24 11.5 -35t36.5 -11q28 0 38 9.5z" />
    <glyph glyph-name="uni0E2B" unicode="&#xe2b;" horiz-adv-x="582" 
d="M159 378q-15 -6 -36 -6q-88 0 -88 86q0 46 21.5 66t67.5 20q49 0 68.5 -21.5t19.5 -71.5v-373l176 266q10 15 17.5 22.5t20.5 11.5q-31 5 -47.5 23.5t-16.5 50.5q0 47 21 69.5t66 22.5q46 0 67 -22.5t21 -69.5q0 -30 -15.5 -49t-44.5 -25q23 -6 31.5 -22.5t8.5 -42.5
v-313h-54v309q0 16 -3 22t-11 6q-6 0 -10 -3.5t-11 -13.5l-216 -320h-53v378zM160.5 423q10.5 11 10.5 35q0 27 -10.5 36.5t-37.5 9.5q-28 0 -38 -9.5t-10 -36.5q0 -25 10.5 -35.5t37.5 -10.5t37.5 11zM486.5 423q10.5 11 10.5 35q0 27 -10.5 36.5t-37.5 9.5q-28 0 -38 -9.5
t-10 -36.5q0 -25 10.5 -35.5t37.5 -10.5t37.5 11z" />
    <glyph glyph-name="uni0E2C" unicode="&#xe2c;" horiz-adv-x="638" 
d="M159 378q-15 -6 -36 -6q-88 0 -88 86q0 46 21.5 66t67.5 20q49 0 69 -21.5t20 -71.5v-339l129 281h48l129 -281v313q0 51 -18 75t-64 24h-15v43h15q35 0 52.5 10t23.5 31t6 58v48h54v-48q0 -46 -12.5 -76.5t-45.5 -45.5q32 -17 45 -46.5t13 -72.5v-425h-54l-153 333
l-153 -333h-54v378zM160.5 423q10.5 11 10.5 35q0 27 -10.5 36.5t-37.5 9.5q-28 0 -38 -9.5t-10 -36.5q0 -25 10.5 -35.5t37.5 -10.5t37.5 11z" />
    <glyph glyph-name="uni0E2D" unicode="&#xe2d;" horiz-adv-x="520" 
d="M99.5 29.5q-42.5 44.5 -42.5 117.5v91q0 50 19.5 71.5t68.5 21.5q46 0 67.5 -20t21.5 -66q0 -86 -88 -86q-21 0 -36 6v-44q0 -47 37.5 -70t105.5 -23q67 0 107.5 23.5t40.5 70.5v247q0 69 -35 100.5t-117 31.5q-51 0 -93 -15t-80 -50l-31 34q81 74 204 74
q111 0 158.5 -47t47.5 -135v-225q0 -60 -47 -106t-155 -46q-111 0 -153.5 44.5zM183.5 209.5q10.5 10.5 10.5 35.5q0 27 -10 36.5t-38 9.5q-27 0 -37.5 -9.5t-10.5 -36.5q0 -24 11 -35t37 -11q27 0 37.5 10.5z" />
    <glyph glyph-name="uni0E2E" unicode="&#xe2e;" horiz-adv-x="540" 
d="M99.5 29.5q-42.5 44.5 -42.5 117.5v91q0 50 19.5 71.5t68.5 21.5q46 0 67.5 -20t21.5 -66q0 -86 -88 -86q-21 0 -36 6v-44q0 -47 37.5 -70t105.5 -23q67 0 107.5 23.5t40.5 70.5v247q0 69 -35 100.5t-117 31.5q-51 0 -93 -15t-80 -50l-31 34q81 74 204 74q82 0 134 -29
q36 19 42 59l50 -11q-2 -24 -16 -47t-36 -37q32 -44 32 -117v-225q0 -60 -47 -106t-155 -46q-111 0 -153.5 44.5zM183.5 209.5q10.5 10.5 10.5 35.5q0 27 -10 36.5t-38 9.5q-27 0 -37.5 -9.5t-10.5 -36.5q0 -24 11 -35t37 -11q27 0 37.5 10.5z" />
    <glyph glyph-name="uni0E2F" unicode="&#xe2f;" horiz-adv-x="477" 
d="M358 354q-19 -33 -56.5 -51.5t-87.5 -18.5q-72 0 -120.5 35.5t-48.5 111.5q0 113 89 113q45 0 67 -20t22 -66q0 -86 -88 -86q-23 0 -35 8q8 -27 41.5 -40t72.5 -13q74 0 109.5 47.5t35.5 154.5h53v-529h-54v354zM172.5 422.5q10.5 10.5 10.5 35.5q0 27 -10 36.5t-38 9.5
q-25 0 -36.5 -11t-11.5 -35t11 -35t37 -11q27 0 37.5 10.5z" />
    <glyph glyph-name="uni0E30" unicode="&#xe30;" horiz-adv-x="394" 
d="M95.5 338.5q-50.5 27.5 -50.5 82.5q0 87 88 87q48 0 67.5 -22t19.5 -67q0 -20 -11 -37.5t-30 -23.5q16 -4 51 -4q58 0 93 37l26 -31q-43 -49 -135 -49q-68 0 -118.5 27.5zM180 422q0 27 -10.5 36.5t-37.5 9.5q-28 0 -38 -9.5t-10 -36.5q0 -24 11 -35t37 -11q48 0 48 46z
M95.5 58.5q-50.5 27.5 -50.5 82.5q0 87 88 87q48 0 67.5 -22t19.5 -67q0 -20 -11 -37.5t-30 -23.5q16 -4 51 -4q58 0 93 37l26 -31q-43 -49 -135 -49q-68 0 -118.5 27.5zM180 142q0 27 -10.5 36.5t-37.5 9.5q-28 0 -38 -9.5t-10 -36.5q0 -24 11 -35t37 -11q48 0 48 46z" />
    <glyph glyph-name="uni0E31" unicode="&#xe31;" 
d="M-253.5 642.5q-47.5 27.5 -47.5 88.5q0 87 88 87q48 0 67.5 -22t19.5 -67q0 -46 -42 -68q19 -3 36 -3h22q97 0 155 54l25 -34q-32 -31 -80 -47t-103 -16q-93 0 -140.5 27.5zM-177 697q11 11 11 35q0 27 -10.5 36.5t-37.5 9.5q-28 0 -38 -9.5t-10 -36.5q0 -25 10.5 -35.5
t37.5 -10.5q26 0 37 11z" />
    <glyph glyph-name="uni0E32" unicode="&#xe32;" horiz-adv-x="441" 
d="M323 362q0 71 -28 105t-96 34q-44 0 -77 -13.5t-66 -43.5l-31 34q37 35 79.5 50.5t93.5 15.5q97 0 137.5 -46.5t40.5 -135.5v-362h-53v362z" />
    <glyph glyph-name="uni0E33" unicode="&#xe33;" horiz-adv-x="441" 
d="M-167 637.5q-25 22.5 -25 64.5t25 64.5t67 22.5t67 -22.5t25 -64.5t-25 -64.5t-67 -22.5t-67 22.5zM-62 668q12 11 12 34t-12 34t-38 11t-38 -11t-12 -34t12 -34t38 -11t38 11zM323 362q0 71 -28 105t-96 34q-44 0 -77 -13.5t-66 -43.5l-31 34q37 35 79.5 50.5t93.5 15.5
q97 0 137.5 -46.5t40.5 -135.5v-362h-53v362z" />
    <glyph glyph-name="uni0E34" unicode="&#xe34;" 
d="M-424 728.5q59 39.5 147 39.5q89 0 147.5 -39.5t65.5 -113.5h-426q7 74 66 113.5zM-126 656q-10 32 -52 51t-99 19t-99 -19t-52 -51h302z" />
    <glyph glyph-name="uni0E35" unicode="&#xe35;" 
d="M-424 728.5q59 39.5 147 39.5q46 0 89 -15t69 -41v102h54v-199h-425q7 74 66 113.5zM-124 656q-20 33 -59.5 51.5t-93.5 18.5q-57 0 -99 -19t-52 -51h304z" />
    <glyph glyph-name="uni0E36" unicode="&#xe36;" 
d="M-424 728.5q59 39.5 147 39.5q44 0 78 -11q1 37 20 54.5t57 17.5q43 0 61 -17.5t18 -58.5q0 -29 -11 -45t-36 -24q23 -25 26 -69h-426q7 74 66 113.5zM-91.5 726q9.5 9 9.5 29q0 21 -9 29t-31 8t-30.5 -8t-8.5 -29q0 -16 11.5 -27t27.5 -11q21 0 30.5 9zM-126 656
q-14 28 -55 49t-96 21q-57 0 -99 -19t-52 -51h302z" />
    <glyph glyph-name="uni0E37" unicode="&#xe37;" 
d="M-424 728.5q59 39.5 147 39.5q29 0 60 -7v53h54v-72q26 -12 44 -30v102h54v-199h-425q7 74 66 113.5zM-122 656q-47 70 -155 70q-57 0 -99 -19t-52 -51h306z" />
    <glyph glyph-name="uni0E38" unicode="&#xe38;" 
d="M-118 -225q-17 -7 -36 -7q-88 0 -88 86q0 46 21.5 66t67.5 20q49 0 68.5 -21.5t19.5 -71.5v-179h-53v107zM-117 -181.5q11 10.5 11 35.5q0 27 -10.5 36.5t-37.5 9.5q-28 0 -38 -9.5t-10 -36.5q0 -25 10.5 -35.5t37.5 -10.5q26 0 37 10.5z" />
    <glyph glyph-name="uni0E39" unicode="&#xe39;" 
d="M-229.5 -292.5q-20.5 19.5 -20.5 56.5v11q-18 -7 -36 -7q-88 0 -88 86q0 46 21.5 66t67.5 20q49 0 68.5 -21.5t19.5 -71.5v-73q0 -25 8 -34t30 -9q26 0 33.5 8.5t7.5 34.5v160h53v-170q0 -36 -21.5 -56t-72.5 -20q-50 0 -70.5 19.5zM-249 -181.5q11 10.5 11 35.5
q0 27 -10.5 36.5t-37.5 9.5q-28 0 -38 -9.5t-10 -36.5q0 -25 10.5 -35.5t37.5 -10.5q26 0 37 10.5z" />
    <glyph glyph-name="uni0E3A" unicode="&#xe3a;" 
d="M-122 -145.5q-8 7.5 -8 27.5q0 21 7.5 28.5t29.5 7.5q21 0 29 -7.5t8 -28.5q0 -19 -8.5 -27t-28.5 -8q-21 0 -29 7.5z" />
    <glyph glyph-name="uni0E3F" unicode="&#xe3f;" horiz-adv-x="565" 
d="M255 0h-220v45h35q19 0 26.5 8t7.5 28v485q0 20 -7.5 28t-26.5 8h-35v45h220v120h53v-120h27q87 0 130 -44.5t43 -123.5q0 -53 -22 -92.5t-67 -57.5q51 -14 76 -55.5t25 -98.5q0 -74 -41.5 -124.5t-120.5 -50.5h-50v-120h-53v120zM321 349q68 0 102 34.5t34 95.5
q0 66 -28.5 94.5t-97.5 28.5h-174v-253h164zM354 45q56 0 85.5 33t29.5 98q0 66 -31.5 97t-107.5 31h-173v-259h197z" />
    <glyph glyph-name="uni0E40" unicode="&#xe40;" horiz-adv-x="267" 
d="M84.5 6.5q-19.5 21.5 -19.5 71.5v451h53v-379q18 7 36 7q88 0 88 -86q0 -46 -21.5 -66t-67.5 -20q-49 0 -68.5 21.5zM192 34.5q10 9.5 10 36.5q0 25 -10.5 35.5t-37.5 10.5q-26 0 -37 -10.5t-11 -35.5q0 -27 10.5 -36.5t37.5 -9.5q28 0 38 9.5z" />
    <glyph glyph-name="uni0E41" unicode="&#xe41;" horiz-adv-x="511" 
d="M84.5 6.5q-19.5 21.5 -19.5 71.5v451h53v-379q18 7 36 7q88 0 88 -86q0 -46 -21.5 -66t-67.5 -20q-49 0 -68.5 21.5zM328.5 6.5q-19.5 21.5 -19.5 71.5v451h53v-379q18 7 36 7q88 0 88 -86q0 -46 -21.5 -66t-67.5 -20q-49 0 -68.5 21.5zM192 34.5q10 9.5 10 36.5
q0 25 -10.5 35.5t-37.5 10.5q-26 0 -37 -10.5t-11 -35.5q0 -27 10.5 -36.5t37.5 -9.5q28 0 38 9.5zM436 34.5q10 9.5 10 36.5q0 25 -10.5 35.5t-37.5 10.5q-26 0 -37 -10.5t-11 -35.5q0 -27 10.5 -36.5t37.5 -9.5q28 0 38 9.5z" />
    <glyph glyph-name="uni0E42" unicode="&#xe42;" horiz-adv-x="318" 
d="M125.5 6.5q-19.5 21.5 -19.5 71.5v424q0 35 -2.5 51t-11 26t-29.5 21l-88 46v62q30 26 74.5 40t92.5 14q53 0 91 -8.5t70 -28.5l-26 -36q-29 15 -60 22.5t-75 7.5q-33 0 -64.5 -8t-49.5 -21v-22l80 -42q25 -13 36 -28t13 -34t2 -62v-352q18 7 36 7q88 0 88 -86
q0 -46 -21.5 -66t-67.5 -20q-49 0 -68.5 21.5zM233 34.5q10 9.5 10 36.5q0 25 -10.5 35.5t-37.5 10.5q-26 0 -37 -10.5t-11 -35.5q0 -27 10.5 -36.5t37.5 -9.5q28 0 38 9.5z" />
    <glyph glyph-name="uni0E43" unicode="&#xe43;" horiz-adv-x="327" 
d="M147.5 6.5q-19.5 21.5 -19.5 71.5v302q0 30 17 57t50 65q34 39 50 64.5t16 54.5q0 43 -25 64.5t-82 21.5q-54 0 -85 -23.5t-31 -65.5v-27h-53v27q0 63 48.5 97.5t120.5 34.5q79 0 118.5 -35.5t39.5 -93.5q0 -36 -18.5 -67t-54.5 -73q-29 -34 -43.5 -57t-14.5 -46v-228
q18 7 36 7q88 0 88 -86q0 -46 -21.5 -66t-67.5 -20q-49 0 -68.5 21.5zM255 34.5q10 9.5 10 36.5q0 25 -10.5 35.5t-37.5 10.5q-26 0 -37 -10.5t-11 -35.5q0 -27 10.5 -36.5t37.5 -9.5q28 0 38 9.5z" />
    <glyph glyph-name="uni0E44" unicode="&#xe44;" horiz-adv-x="283" 
d="M103.5 6.5q-19.5 21.5 -19.5 71.5v411q0 65 11.5 97.5t49.5 72.5l53 55h-223v43h293v-40l-85 -85q-29 -29 -38.5 -58.5t-7.5 -86.5v-337q18 7 36 7q88 0 88 -86q0 -46 -21.5 -66t-67.5 -20q-49 0 -68.5 21.5zM211 34.5q10 9.5 10 36.5q0 25 -10.5 35.5t-37.5 10.5
q-26 0 -37 -10.5t-11 -35.5q0 -27 10.5 -36.5t37.5 -9.5q28 0 38 9.5z" />
    <glyph glyph-name="uni0E45" unicode="&#xe45;" horiz-adv-x="441" 
d="M323 362q0 71 -28 105t-96 34q-44 0 -77 -13.5t-66 -43.5l-31 34q37 35 79.5 50.5t93.5 15.5q97 0 137.5 -46.5t40.5 -135.5v-563h-53v563z" />
    <glyph glyph-name="uni0E46" unicode="&#xe46;" horiz-adv-x="488" 
d="M369 422q0 47 -12 62.5t-43 15.5q-58 0 -58 -63v-9h-54v9q0 31 -11.5 47t-42.5 16q-35 0 -47 -22t-12 -72q15 6 36 6q88 0 88 -86q0 -46 -22 -66t-67 -20q-47 0 -68 24.5t-21 72.5v65q0 142 106 142q39 0 59.5 -15.5t28.5 -48.5q9 33 31.5 48.5t61.5 15.5q55 0 78 -29
t23 -103v-412h-54v422zM163 289.5q10 9.5 10 36.5q0 25 -10.5 35.5t-37.5 10.5q-26 0 -37 -10.5t-11 -35.5q0 -27 10.5 -36.5t37.5 -9.5q28 0 38 9.5z" />
    <glyph glyph-name="uni0E47" unicode="&#xe47;" 
d="M-232 614q-19 7 -40 27l-37 35l-62 -61h-46v109q0 53 26.5 81t87.5 28h194v-42h-193q-36 0 -52.5 -15t-16.5 -52v-57l45 45h35l26 -28q0 40 18.5 56.5t59.5 16.5q79 0 79 -72q0 -41 -18.5 -59.5t-60.5 -18.5q-26 0 -45 7zM-155 651q9 8 9 31q0 20 -9.5 29.5t-31.5 9.5
q-23 0 -31.5 -9t-8.5 -30q0 -23 8.5 -31t31.5 -8t32 8z" />
    <glyph glyph-name="uni0E48" unicode="&#xe48;" 
d="M-118 775h53v-160h-53v160z" />
    <glyph glyph-name="uni0E49" unicode="&#xe49;" 
d="M-294 652q24 0 36.5 6t18.5 20q-8 -2 -17 -2q-63 0 -63 64q0 37 18 53t56 16q40 0 57 -17t17 -55q0 -56 -31 -82q58 0 90.5 33.5t32.5 90.5v9h50v-12q0 -41 -19 -78t-57 -60t-92 -23h-97v37zM-214.5 712q8.5 9 8.5 28q0 21 -9 28.5t-30 7.5q-24 0 -32 -7t-8 -29
q0 -20 8.5 -28.5t31.5 -8.5q22 0 30.5 9z" />
    <glyph glyph-name="uni0E4A" unicode="&#xe4a;" 
d="M-328.5 634.5q-20.5 18.5 -20.5 58.5q0 43 19.5 63.5t63.5 20.5q28 0 43 -8t23 -25q19 33 59 33q53 0 53 -62v-40h11q22 0 32 12.5t10 45.5v42h43v-38q0 -60 -23.5 -81.5t-70.5 -21.5h-49v70q0 16 -5 23t-17 7t-19 -10t-7 -27q0 -81 -84 -81q-41 0 -61.5 18.5z
M-232 663.5q10 9.5 10 32.5q0 25 -9 33.5t-35 8.5q-25 0 -34.5 -9t-9.5 -33q0 -22 9.5 -32t33.5 -10q25 0 35 9.5z" />
    <glyph glyph-name="uni0E4B" unicode="&#xe4b;" 
d="M-193 672h-75v45h75v58h53v-58h75v-45h-75v-57h-53v57z" />
    <glyph glyph-name="uni0E4C" unicode="&#xe4c;" 
d="M-311 695q0 56 47.5 83.5t137.5 27.5h119v-43h-113q-44 0 -65 -5q39 -18 39 -62q0 -41 -19.5 -61t-63.5 -20q-82 0 -82 80zM-194 662q10 9 10 34q0 23 -10.5 33t-34.5 10q-26 0 -35.5 -9.5t-9.5 -33.5q0 -25 9.5 -34t35.5 -9q25 0 35 9z" />
    <glyph glyph-name="uni0E4D" unicode="&#xe4d;" 
d="M-167 637.5q-25 22.5 -25 64.5t25 64.5t67 22.5t67 -22.5t25 -64.5t-25 -64.5t-67 -22.5t-67 22.5zM-62 668q12 11 12 34t-12 34t-38 11t-38 -11t-12 -34t12 -34t38 -11t38 11z" />
    <glyph glyph-name="uni0E4E" unicode="&#xe4e;" 
d="M-222 616q-22 19 -22 54q0 21 10.5 36.5t25.5 23.5q-36 21 -36 60q0 32 23 50t54 18h61v-47h-56q-36 0 -36 -31q0 -13 9 -22t28 -9h37v-39h-36q-23 0 -32.5 -10.5t-9.5 -29.5q0 -34 39 -34q29 0 40 16l34 -21q-22 -34 -73 -34q-38 0 -60 19z" />
    <glyph glyph-name="uni0E4F" unicode="&#xe4f;" horiz-adv-x="598" 
d="M110.5 54.5q-65.5 69.5 -65.5 184.5q0 116 66 186t188 70t188 -70t66 -186q0 -115 -65.5 -184.5t-188.5 -69.5t-188.5 69.5zM447 84q55 53 55 155t-55.5 156t-147.5 54t-147.5 -54t-55.5 -156t55 -155t148 -53t148 53zM185 127q-40 42 -40 112q0 71 40 113.5t114 42.5
t114 -42.5t40 -113.5q0 -70 -40 -112t-114 -42t-114 42zM375.5 159.5q28.5 27.5 28.5 79.5q0 53 -28.5 81t-76.5 28t-76.5 -28t-28.5 -81q0 -52 28.5 -79.5t76.5 -27.5t76.5 27.5z" />
    <glyph glyph-name="uni0E50" unicode="&#xe50;" horiz-adv-x="598" 
d="M110.5 54.5q-65.5 69.5 -65.5 184.5q0 116 66 186t188 70t188 -70t66 -186q0 -115 -65.5 -184.5t-188.5 -69.5t-188.5 69.5zM447 84q55 53 55 155t-55.5 156t-147.5 54t-147.5 -54t-55.5 -156t55 -155t148 -53t148 53z" />
    <glyph glyph-name="uni0E51" unicode="&#xe51;" horiz-adv-x="602" 
d="M241 -15q133 20 197.5 75.5t64.5 168.5q0 95 -47.5 150t-155.5 55q-204 0 -204 -187q0 -60 30.5 -93t80.5 -33q22 0 37.5 3.5t31.5 12.5q-64 11 -64 79q0 45 22 65.5t67 20.5q48 0 68 -21t20 -66q0 -61 -47.5 -100.5t-130.5 -39.5q-74 0 -120 45.5t-46 126.5
q0 111 66 172t189 61q132 0 194.5 -70t62.5 -181q0 -124 -73.5 -196t-231.5 -95zM338 181q11 11 11 35q0 27 -11 36.5t-38 9.5q-28 0 -38 -9.5t-10 -36.5q0 -25 10.5 -35.5t37.5 -10.5t38 11z" />
    <glyph glyph-name="uni0E52" unicode="&#xe52;" horiz-adv-x="660" 
d="M131 39q-66 54 -66 143v362h54v-362q0 -75 51.5 -114.5t149.5 -39.5q101 0 161 40.5t60 113.5v174q0 56 -13.5 75.5t-50.5 19.5q-28 0 -46 -19.5t-18 -53.5v-19h-53v19q0 35 -16.5 54t-44.5 19q-37 0 -51.5 -24.5t-14.5 -82.5v-17q15 6 36 6q88 0 88 -86q0 -46 -22 -66
t-67 -20q-48 0 -68.5 22t-20.5 71v93q0 148 113 148q76 0 95 -64q23 64 95 64q64 0 88.5 -32t24.5 -110v-171q0 -57 -33.5 -101.5t-96 -70t-145.5 -25.5q-123 0 -189 54zM307 210.5q10 9.5 10 36.5q0 25 -10.5 35.5t-37.5 10.5q-26 0 -37 -10.5t-11 -35.5q0 -27 10.5 -36.5
t37.5 -9.5q28 0 38 9.5z" />
    <glyph glyph-name="uni0E53" unicode="&#xe53;" horiz-adv-x="606" 
d="M85.5 7q-20.5 22 -20.5 71v269q0 74 33.5 111t94.5 37q42 0 71.5 -16t38.5 -48q23 64 110 64q67 0 97.5 -35.5t30.5 -112.5v-347h-54v345q0 57 -17.5 81.5t-59.5 24.5q-36 0 -58.5 -19.5t-22.5 -53.5v-145h-53v145q0 35 -20 54t-56 19q-41 0 -61 -25.5t-20 -81.5v-193
q15 6 36 6q88 0 88 -86q0 -46 -22 -66t-67 -20q-48 0 -68.5 22zM193 34.5q10 9.5 10 36.5q0 25 -10.5 35.5t-37.5 10.5q-26 0 -37 -10.5t-11 -35.5q0 -27 10.5 -36.5t37.5 -9.5q28 0 38 9.5z" />
    <glyph glyph-name="uni0E54" unicode="&#xe54;" horiz-adv-x="603" 
d="M86.5 45.5q-41.5 45.5 -41.5 122.5v105q0 91 53 149t158 58h137q59 0 89 11.5t62 48.5l34 -25q-31 -43 -72 -60.5t-113 -17.5h-133q-82 0 -121.5 -43t-39.5 -121v-103q0 -59 26.5 -92.5t80.5 -33.5h121q-19 18 -26.5 43.5t-7.5 60.5v89q0 49 20.5 71t68.5 22q45 0 67 -20
t22 -66q0 -86 -88 -86q-21 0 -36 6v-13q0 -56 20 -81.5t61 -25.5h103v-44h-328q-75 0 -116.5 45.5zM420.5 208.5q10.5 10.5 10.5 35.5q0 27 -10 36.5t-38 9.5q-27 0 -37.5 -9.5t-10.5 -36.5q0 -24 11 -35t37 -11q27 0 37.5 10.5z" />
    <glyph glyph-name="uni0E55" unicode="&#xe55;" horiz-adv-x="603" 
d="M86.5 45.5q-41.5 45.5 -41.5 122.5v105q0 91 53 149t158 58q-6 12 -6 32q0 46 21.5 66t67.5 20q45 0 67 -20t22 -66q0 -20 -4 -32q41 2 66.5 15t53.5 45l34 -25q-31 -43 -72 -60.5t-113 -17.5h-133q-82 0 -121.5 -43t-39.5 -121v-103q0 -59 26.5 -92.5t80.5 -33.5h121
q-19 18 -26.5 43.5t-7.5 60.5v89q0 49 20.5 71t68.5 22q45 0 67 -20t22 -66q0 -86 -88 -86q-21 0 -36 6v-13q0 -56 20 -81.5t61 -25.5h103v-44h-328q-75 0 -116.5 45.5zM377.5 476.5q10.5 10.5 10.5 35.5q0 27 -10 36.5t-38 9.5q-27 0 -37.5 -9.5t-10.5 -36.5q0 -24 11 -35
t37 -11q27 0 37.5 10.5zM420.5 208.5q10.5 10.5 10.5 35.5q0 27 -10 36.5t-38 9.5q-27 0 -37.5 -9.5t-10.5 -36.5q0 -24 11 -35t37 -11q27 0 37.5 10.5z" />
    <glyph glyph-name="uni0E56" unicode="&#xe56;" horiz-adv-x="587" 
d="M150.5 21q-62.5 36 -62.5 104q0 45 20 66t68 21q45 0 67 -20.5t22 -65.5q0 -67 -59 -78q33 -17 98 -17q97 0 147 51.5t50 147.5q0 102 -47 160.5t-137 58.5q-109 0 -163 -78h-54l-75 169l48 17l60 -135q65 73 184 73q117 0 176 -73.5t59 -191.5q0 -112 -63.5 -178.5
t-184.5 -66.5q-91 0 -153.5 36zM214.5 90.5q10.5 10.5 10.5 35.5q0 27 -10 36.5t-38 9.5q-27 0 -38 -9.5t-11 -36.5q0 -24 11 -35t38 -11t37.5 10.5z" />
    <glyph glyph-name="uni0E57" unicode="&#xe57;" horiz-adv-x="771" 
d="M85.5 7q-20.5 22 -20.5 71v269q0 73 32.5 110.5t90.5 37.5q86 0 105 -64q23 64 105 64q123 0 123 -148v-304q54 0 82.5 17t38.5 49.5t10 86.5v348h54v-348q0 -95 -40.5 -145.5t-144.5 -50.5h-54v345q0 58 -15 82t-57 24q-35 0 -55.5 -19t-20.5 -54v-145h-53v145
q0 35 -18 54t-53 19q-40 0 -58 -25t-18 -82v-193q15 6 36 6q88 0 88 -86q0 -46 -22 -66t-67 -20q-48 0 -68.5 22zM193 34.5q10 9.5 10 36.5q0 25 -10.5 35.5t-37.5 10.5q-26 0 -37 -10.5t-11 -35.5q0 -27 10.5 -36.5t37.5 -9.5q28 0 38 9.5z" />
    <glyph glyph-name="uni0E58" unicode="&#xe58;" horiz-adv-x="570" 
d="M75.5 20.5q-30.5 35.5 -30.5 112.5v150q0 89 48.5 143t142.5 54h119q59 0 89 11.5t62 48.5l34 -25q-31 -43 -72 -60.5t-113 -17.5h-115q-68 0 -104.5 -39.5t-36.5 -114.5v-148q0 -57 17.5 -81.5t59.5 -24.5q36 0 58.5 19.5t22.5 53.5v55h53v-55q0 -35 20 -54t56 -19
q41 0 61 25.5t20 81.5v33q-15 -6 -36 -6q-88 0 -88 86q0 46 22 66t67 20q48 0 68.5 -22t20.5 -71v-109q0 -74 -33.5 -111t-94.5 -37q-42 0 -71.5 16t-38.5 48q-23 -64 -110 -64q-67 0 -97.5 35.5zM468.5 214q10.5 11 10.5 35q0 27 -10.5 36.5t-37.5 9.5q-28 0 -38 -9.5
t-10 -36.5q0 -25 10.5 -35.5t37.5 -10.5t37.5 11z" />
    <glyph glyph-name="uni0E59" unicode="&#xe59;" horiz-adv-x="639" 
d="M85.5 7q-20.5 22 -20.5 71v269q0 76 32.5 112t102.5 36q39 0 61.5 -15t37.5 -41q13 27 38.5 41.5t58.5 14.5q49 0 75.5 -27t26.5 -72q34 0 52.5 27t18.5 72h45q0 -62 -31 -102t-90 -40h-36q0 56 -14.5 77t-51.5 21q-26 0 -45.5 -16.5t-19.5 -44.5q0 -9 1 -14l72 -376h-53
l-70 369q-8 41 -23.5 61.5t-52.5 20.5q-45 0 -63 -24.5t-18 -82.5v-193q15 6 36 6q88 0 88 -86q0 -46 -22 -66t-67 -20q-48 0 -68.5 22zM193 34.5q10 9.5 10 36.5q0 25 -10.5 35.5t-37.5 10.5q-26 0 -37 -10.5t-11 -35.5q0 -27 10.5 -36.5t37.5 -9.5q28 0 38 9.5z" />
    <glyph glyph-name="uni0E5A" unicode="&#xe5a;" horiz-adv-x="708" 
d="M358 354q-19 -33 -56.5 -51.5t-87.5 -18.5q-72 0 -120.5 35.5t-48.5 111.5q0 113 89 113q45 0 67 -20t22 -66q0 -86 -88 -86q-23 0 -35 8q8 -27 41.5 -40t72.5 -13q74 0 109.5 47.5t35.5 154.5h53v-201q12 -1 33 -1q74 0 109.5 47.5t35.5 154.5h53v-529h-54v354
q-19 -33 -56.5 -51.5t-87.5 -18.5q-22 0 -33 1v-285h-54v354zM172.5 422.5q10.5 10.5 10.5 35.5q0 27 -10 36.5t-38 9.5q-25 0 -36.5 -11t-11.5 -35t11 -35t37 -11q27 0 37.5 10.5z" />
    <glyph glyph-name="uni0E5B" unicode="&#xe5b;" horiz-adv-x="1140" 
d="M168.5 16.5q-61.5 31.5 -92.5 87t-31 125.5q0 115 53.5 183t183.5 68q111 0 163 -52.5t52 -145.5q0 -81 -42.5 -129t-108.5 -48q-78 0 -120.5 35t-42.5 95q0 45 20 66t68 21q45 0 67 -20.5t22 -65.5q0 -69 -71 -81q24 -8 62 -8q44 0 69.5 36.5t25.5 98.5
q0 79 -39.5 115.5t-124.5 36.5q-106 0 -144.5 -53t-38.5 -152q0 -92 58.5 -144.5t160.5 -52.5q110 0 173.5 57t63.5 170q0 80 23 114t83 34q55 0 76.5 -31.5t21.5 -85.5v-45q0 -42 2.5 -61t11 -27t27.5 -8q26 0 35.5 17.5t9.5 55.5v39q0 64 21.5 88.5t71.5 24.5
q47 0 66 -28.5t19 -81.5v-15h92v-44h-145v52q0 40 -6 56.5t-27 16.5q-18 0 -26.5 -7t-10.5 -23t-2 -50v-28q0 -54 -21.5 -85.5t-75.5 -31.5t-74.5 31t-20.5 108v46q0 38 -9 55.5t-37 17.5q-21 0 -32 -9.5t-15 -32t-4 -65.5q0 -77 -32 -138.5t-97.5 -97t-161.5 -35.5
q-88 0 -149.5 31.5zM309.5 200.5q10.5 10.5 10.5 35.5q0 27 -10 36.5t-38 9.5q-27 0 -38 -9.5t-11 -36.5q0 -24 11 -35t38 -11t37.5 10.5z" />
    <glyph glyph-name="uni1E0C" unicode="&#x1e0c;" horiz-adv-x="620" 
d="M45 43h25q19 0 26.5 8t7.5 28v489q0 20 -7.5 28t-26.5 8h-25v43h264q136 0 201 -86.5t65 -239.5q0 -150 -67 -235.5t-199 -85.5h-264v43zM304 43q114 0 167 69.5t53 208.5q0 142 -52.5 212.5t-167.5 70.5h-147v-561h147zM236 -64h68v-68h-68v68z" />
    <glyph glyph-name="uni1E0D" unicode="&#x1e0d;" horiz-adv-x="583" 
d="M100.5 51q-55.5 65 -55.5 185q0 121 56 190t154 69q66 0 109 -21t71 -70v167q0 28 -7 38.5t-32 10.5h-21v42h113v-584q0 -22 7.5 -31t24.5 -9h28v-38h-105l-10 76q-58 -90 -179 -90q-98 0 -153.5 65zM351.5 52q40.5 24 63.5 67t23 97v56q0 83 -47.5 131.5t-122.5 48.5
q-172 0 -172 -216q0 -103 41.5 -155.5t123.5 -52.5q50 0 90.5 24zM266 -64h68v-68h-68v68z" />
    <glyph glyph-name="uni1E0E" unicode="&#x1e0e;" horiz-adv-x="620" 
d="M45 43h25q19 0 26.5 8t7.5 28v489q0 20 -7.5 28t-26.5 8h-25v43h264q136 0 201 -86.5t65 -239.5q0 -150 -67 -235.5t-199 -85.5h-264v43zM304 43q114 0 167 69.5t53 208.5q0 142 -52.5 212.5t-167.5 70.5h-147v-561h147zM141 -76h271v-45h-271v45z" />
    <glyph glyph-name="uni1E0F" unicode="&#x1e0f;" horiz-adv-x="583" 
d="M100.5 51q-55.5 65 -55.5 185q0 121 56 190t154 69q66 0 109 -21t71 -70v167q0 28 -7 38.5t-32 10.5h-21v42h113v-584q0 -22 7.5 -31t24.5 -9h28v-38h-105l-10 76q-58 -90 -179 -90q-98 0 -153.5 65zM351.5 52q40.5 24 63.5 67t23 97v56q0 83 -47.5 131.5t-122.5 48.5
q-172 0 -172 -216q0 -103 41.5 -155.5t123.5 -52.5q50 0 90.5 24zM185 -76h271v-45h-271v45z" />
    <glyph glyph-name="uni1E20" unicode="&#x1e20;" horiz-adv-x="604" 
d="M205 768h271v-45h-271v45zM182.5 28q-68.5 43 -103 119t-34.5 174q0 154 74.5 247.5t223.5 93.5q126 0 197 -51v-78h-53v55q-53 28 -144 28q-119 0 -183 -77.5t-64 -217.5q0 -136 67.5 -213t185.5 -77q49 0 86 7t71 23v219h-153v45h206v-285q-46 -29 -96 -42t-114 -13
q-98 0 -166.5 43z" />
    <glyph glyph-name="uni1E21" unicode="&#x1e21;" horiz-adv-x="583" 
d="M144 594h271v-45h-271v45zM211.5 -186q-39.5 14 -75.5 45v65h52v-43q22 -19 50 -27t68 -8q62 0 95.5 38.5t33.5 106.5v86q-28 -49 -71 -70t-109 -21q-98 0 -154 69t-56 190q0 119 58 184.5t157 65.5q57 0 100 -21.5t73 -68.5l10 75h105v-38h-28q-17 0 -24.5 -9t-7.5 -31
v-407q0 -88 -48.5 -141.5t-129.5 -53.5q-59 0 -98.5 14zM390.5 77.5q47.5 48.5 47.5 131.5v56q0 55 -21.5 97.5t-60.5 66.5t-89 24q-83 0 -127 -52.5t-44 -155.5q0 -216 172 -216q75 0 122.5 48.5z" />
    <glyph glyph-name="uni1E24" unicode="&#x1e24;" horiz-adv-x="676" 
d="M45 45h35q19 0 26.5 8t7.5 28v485q0 20 -7.5 28t-26.5 8h-35v45h191v-45h-35q-19 0 -26.5 -8t-7.5 -28v-219h342v219q0 20 -7.5 28t-26.5 8h-35v45h191v-45h-35q-19 0 -26.5 -8t-7.5 -28v-485q0 -20 7.5 -28t26.5 -8h35v-45h-191v45h35q19 0 26.5 8t7.5 28v221h-342v-221
q0 -20 7.5 -28t26.5 -8h35v-45h-191v45zM304 -64h68v-68h-68v68z" />
    <glyph glyph-name="uni1E25" unicode="&#x1e25;" horiz-adv-x="598" 
d="M45 45h35q19 0 26.5 8t7.5 28v500q0 20 -7.5 28t-26.5 8h-26v45h113v-242q33 39 75 57t100 18q73 0 112.5 -43t39.5 -121v-250q0 -20 7.5 -28t26.5 -8h35v-45h-123v330q0 63 -27.5 92.5t-85.5 29.5q-42 0 -79 -18t-59 -51.5t-22 -77.5v-224q0 -20 7.5 -28t26.5 -8h35v-45
h-191v45zM282 -64h68v-68h-68v68z" />
    <glyph glyph-name="uni1E2A" unicode="&#x1e2a;" horiz-adv-x="676" 
d="M45 45h35q19 0 26.5 8t7.5 28v485q0 20 -7.5 28t-26.5 8h-35v45h191v-45h-35q-19 0 -26.5 -8t-7.5 -28v-219h342v219q0 20 -7.5 28t-26.5 8h-35v45h191v-45h-35q-19 0 -26.5 -8t-7.5 -28v-485q0 -20 7.5 -28t26.5 -8h35v-45h-191v45h35q19 0 26.5 8t7.5 28v221h-342v-221
q0 -20 7.5 -28t26.5 -8h35v-45h-191v45zM237.5 -144.5q-39.5 35.5 -39.5 94.5h43q0 -42 26.5 -64.5t70.5 -22.5t70.5 22.5t26.5 64.5h43q0 -59 -39.5 -94.5t-100.5 -35.5t-100.5 35.5z" />
    <glyph glyph-name="uni1E2B" unicode="&#x1e2b;" horiz-adv-x="598" 
d="M45 45h35q19 0 26.5 8t7.5 28v500q0 20 -7.5 28t-26.5 8h-26v45h113v-242q33 39 75 57t100 18q73 0 112.5 -43t39.5 -121v-250q0 -20 7.5 -28t26.5 -8h35v-45h-123v330q0 63 -27.5 92.5t-85.5 29.5q-42 0 -79 -18t-59 -51.5t-22 -77.5v-224q0 -20 7.5 -28t26.5 -8h35v-45
h-191v45zM228.5 -144.5q-39.5 35.5 -39.5 94.5h43q0 -42 26.5 -64.5t70.5 -22.5t70.5 22.5t26.5 64.5h43q0 -59 -39.5 -94.5t-100.5 -35.5t-100.5 35.5z" />
    <glyph glyph-name="uni1E36" unicode="&#x1e36;" horiz-adv-x="503" 
d="M45 43h21q22 0 30 8t8 28v489q0 20 -7.5 28t-26.5 8h-25v43h171v-43h-25q-19 0 -26.5 -8t-7.5 -28v-525h247q20 0 28 7.5t8 26.5v25h48v-102h-443v43zM233 -64h68v-68h-68v68z" />
    <glyph glyph-name="uni1E37" unicode="&#x1e37;" horiz-adv-x="271" 
d="M45 45h35q19 0 26.5 8t7.5 28v500q0 20 -7.5 28t-26.5 8h-35v45h122v-581q0 -20 7.5 -28t26.5 -8h35v-45h-191v45zM106 -64h68v-68h-68v68z" />
    <glyph glyph-name="uni1E38" unicode="&#x1e38;" horiz-adv-x="503" 
d="M37 768h271v-45h-271v45zM45 43h21q22 0 30 8t8 28v489q0 20 -7.5 28t-26.5 8h-25v43h171v-43h-25q-19 0 -26.5 -8t-7.5 -28v-525h247q20 0 28 7.5t8 26.5v25h48v-102h-443v43zM233 -64h68v-68h-68v68z" />
    <glyph glyph-name="uni1E39" unicode="&#x1e39;" horiz-adv-x="271" 
d="M-1 768h271v-45h-271v45zM45 45h35q19 0 26.5 8t7.5 28v500q0 20 -7.5 28t-26.5 8h-35v45h122v-581q0 -20 7.5 -28t26.5 -8h35v-45h-191v45zM104 -64h68v-68h-68v68z" />
    <glyph glyph-name="uni1E3A" unicode="&#x1e3a;" horiz-adv-x="503" 
d="M45 43h21q22 0 30 8t8 28v489q0 20 -7.5 28t-26.5 8h-25v43h171v-43h-25q-19 0 -26.5 -8t-7.5 -28v-525h247q20 0 28 7.5t8 26.5v25h48v-102h-443v43zM132 -76h271v-45h-271v45z" />
    <glyph glyph-name="uni1E3B" unicode="&#x1e3b;" horiz-adv-x="271" 
d="M45 45h35q19 0 26.5 8t7.5 28v500q0 20 -7.5 28t-26.5 8h-35v45h122v-581q0 -20 7.5 -28t26.5 -8h35v-45h-191v45zM7 -76h271v-45h-271v45z" />
    <glyph glyph-name="uni1E42" unicode="&#x1e42;" horiz-adv-x="776" 
d="M45 45h35q19 0 26.5 8t7.5 28v485q0 20 -7.5 28t-26.5 8h-35v45h137l206 -486l206 486h137v-45h-35q-19 0 -26.5 -8t-7.5 -28v-485q0 -20 7.5 -28t26.5 -8h35v-45h-191v45h35q19 0 26.5 8t7.5 28v483l-197 -464h-48l-197 464v-483q0 -20 7.5 -28t26.5 -8h35v-45h-191v45z
M354 -64h68v-68h-68v68z" />
    <glyph glyph-name="uni1E43" unicode="&#x1e43;" horiz-adv-x="842" 
d="M45 45h35q19 0 26.5 8t7.5 28v318q0 20 -7.5 28t-26.5 8h-26v45h100l6 -68q25 42 61 62.5t94 20.5q47 0 77.5 -23t41.5 -65q23 44 60 66t98 22q77 0 111.5 -40t34.5 -120v-254q0 -20 7.5 -28t26.5 -8h35v-45h-123v336q0 62 -23.5 87.5t-80.5 25.5q-58 0 -93.5 -34
t-35.5 -97v-237q0 -20 7.5 -28t26.5 -8h35v-45h-120v331q0 60 -22 89t-74 29q-64 0 -100.5 -37.5t-36.5 -106.5v-224q0 -20 7.5 -28t26.5 -8h35v-45h-191v45zM400 -64h68v-68h-68v68z" />
    <glyph glyph-name="uni1E44" unicode="&#x1e44;" horiz-adv-x="686" 
d="M309 791h68v-68h-68v68zM45 45h35q19 0 26.5 8t7.5 28v485q0 20 -7.5 28t-26.5 8h-35v45h117l357 -553v472q0 20 -7.5 28t-26.5 8h-35v45h191v-45h-35q-19 0 -26.5 -8t-7.5 -28v-566h-48l-357 553v-472q0 -20 7.5 -28t26.5 -8h35v-45h-191v45z" />
    <glyph glyph-name="uni1E45" unicode="&#x1e45;" horiz-adv-x="597" 
d="M291 617h68v-68h-68v68zM45 45h35q19 0 26.5 8t7.5 28v318q0 20 -7.5 28t-26.5 8h-26v45h100l6 -69q35 45 77 64.5t105 19.5q76 0 113.5 -42.5t37.5 -121.5v-250q0 -20 7.5 -28t26.5 -8h35v-45h-122v330q0 63 -26 91t-87 28q-43 0 -79.5 -17.5t-58.5 -50t-22 -76.5v-224
q0 -20 7.5 -28t26.5 -8h35v-45h-191v45z" />
    <glyph glyph-name="uni1E46" unicode="&#x1e46;" horiz-adv-x="686" 
d="M45 45h35q19 0 26.5 8t7.5 28v485q0 20 -7.5 28t-26.5 8h-35v45h117l357 -553v472q0 20 -7.5 28t-26.5 8h-35v45h191v-45h-35q-19 0 -26.5 -8t-7.5 -28v-566h-48l-357 553v-472q0 -20 7.5 -28t26.5 -8h35v-45h-191v45zM314 -64h68v-68h-68v68z" />
    <glyph glyph-name="uni1E47" unicode="&#x1e47;" horiz-adv-x="597" 
d="M45 45h35q19 0 26.5 8t7.5 28v318q0 20 -7.5 28t-26.5 8h-26v45h100l6 -69q35 45 77 64.5t105 19.5q76 0 113.5 -42.5t37.5 -121.5v-250q0 -20 7.5 -28t26.5 -8h35v-45h-122v330q0 63 -26 91t-87 28q-43 0 -79.5 -17.5t-58.5 -50t-22 -76.5v-224q0 -20 7.5 -28t26.5 -8
h35v-45h-191v45zM292 -64h68v-68h-68v68z" />
    <glyph glyph-name="uni1E48" unicode="&#x1e48;" horiz-adv-x="686" 
d="M45 45h35q19 0 26.5 8t7.5 28v485q0 20 -7.5 28t-26.5 8h-35v45h117l357 -553v472q0 20 -7.5 28t-26.5 8h-35v45h191v-45h-35q-19 0 -26.5 -8t-7.5 -28v-566h-48l-357 553v-472q0 -20 7.5 -28t26.5 -8h35v-45h-191v45zM203 -76h271v-45h-271v45z" />
    <glyph glyph-name="uni1E49" unicode="&#x1e49;" horiz-adv-x="597" 
d="M45 45h35q19 0 26.5 8t7.5 28v318q0 20 -7.5 28t-26.5 8h-26v45h100l6 -69q35 45 77 64.5t105 19.5q76 0 113.5 -42.5t37.5 -121.5v-250q0 -20 7.5 -28t26.5 -8h35v-45h-122v330q0 63 -26 91t-87 28q-43 0 -79.5 -17.5t-58.5 -50t-22 -76.5v-224q0 -20 7.5 -28t26.5 -8
h35v-45h-191v45zM161 -76h271v-45h-271v45z" />
    <glyph glyph-name="uni1E5A" unicode="&#x1e5a;" horiz-adv-x="609" 
d="M45 45h31q22 0 30 8t8 28v485q0 20 -8 28t-30 8h-31v45h305q91 0 142 -47t51 -130q0 -80 -47.5 -130.5t-132.5 -54.5l107 -205q10 -20 24 -27.5t35 -7.5h35v-45h-190v45h58l-126 240h-139v-204q0 -20 8 -28t30 -8h31v-45h-191v45zM342 330q74 0 112 37t38 103
q0 69 -36 100.5t-114 31.5h-175v-272h175zM282 -64h68v-68h-68v68z" />
    <glyph glyph-name="uni1E5B" unicode="&#x1e5b;" horiz-adv-x="366" 
d="M45 45h35q19 0 26.5 8t7.5 28v318q0 20 -7.5 28t-26.5 8h-26v45h93l15 -60q21 35 52.5 47.5t82.5 12.5h34v-45h-32q-71 0 -101.5 -31.5t-30.5 -97.5v-225q0 -20 7.5 -28t26.5 -8h35v-45h-191v45zM107 -64h68v-68h-68v68z" />
    <glyph glyph-name="uni1E5C" unicode="&#x1e5c;" horiz-adv-x="609" 
d="M171 768h271v-45h-271v45zM45 45h31q22 0 30 8t8 28v485q0 20 -8 28t-30 8h-31v45h305q91 0 142 -47t51 -130q0 -80 -47.5 -130.5t-132.5 -54.5l107 -205q10 -20 24 -27.5t35 -7.5h35v-45h-190v45h58l-126 240h-139v-204q0 -20 8 -28t30 -8h31v-45h-191v45zM342 330
q74 0 112 37t38 103q0 69 -36 100.5t-114 31.5h-175v-272h175zM282 -64h68v-68h-68v68z" />
    <glyph glyph-name="uni1E5D" unicode="&#x1e5d;" horiz-adv-x="366" 
d="M55 594h271v-45h-271v45zM45 45h35q19 0 26.5 8t7.5 28v318q0 20 -7.5 28t-26.5 8h-26v45h93l15 -60q21 35 52.5 47.5t82.5 12.5h34v-45h-32q-71 0 -101.5 -31.5t-30.5 -97.5v-225q0 -20 7.5 -28t26.5 -8h35v-45h-191v45zM107 -64h68v-68h-68v68z" />
    <glyph glyph-name="uni1E5E" unicode="&#x1e5e;" horiz-adv-x="609" 
d="M45 45h31q22 0 30 8t8 28v485q0 20 -8 28t-30 8h-31v45h305q91 0 142 -47t51 -130q0 -80 -47.5 -130.5t-132.5 -54.5l107 -205q10 -20 24 -27.5t35 -7.5h35v-45h-190v45h58l-126 240h-139v-204q0 -20 8 -28t30 -8h31v-45h-191v45zM342 330q74 0 112 37t38 103
q0 69 -36 100.5t-114 31.5h-175v-272h175zM191 -76h271v-45h-271v45z" />
    <glyph glyph-name="uni1E5F" unicode="&#x1e5f;" horiz-adv-x="385" 
d="M64 45h35q19 0 26.5 8t7.5 28v318q0 20 -7.5 28t-26.5 8h-26v45h93l15 -60q21 35 52.5 47.5t82.5 12.5h34v-45h-32q-71 0 -101.5 -31.5t-30.5 -97.5v-225q0 -20 7.5 -28t26.5 -8h35v-45h-191v45zM45 -76h271v-45h-271v45z" />
    <glyph glyph-name="uni1E60" unicode="&#x1e60;" horiz-adv-x="520" 
d="M232 791h68v-68h-68v68zM146.5 3.5q-60.5 18.5 -101.5 47.5v80h55v-57q29 -19 76.5 -31t93.5 -12q75 0 114.5 32t39.5 90q0 40 -18.5 66.5t-51 45t-86.5 38.5q-76 28 -121.5 52.5t-70.5 58.5t-25 84q0 81 58.5 122.5t151.5 41.5q56 0 111 -15.5t90 -39.5v-80h-55v57
q-26 15 -65 23.5t-82 8.5q-73 0 -115.5 -28.5t-42.5 -89.5q0 -40 23 -66t53.5 -40.5t98.5 -41.5q67 -26 107 -48.5t65.5 -58.5t25.5 -90q0 -74 -55 -121t-154 -47q-59 0 -119.5 18.5z" />
    <glyph glyph-name="uni1E61" unicode="&#x1e61;" horiz-adv-x="445" 
d="M190 617h68v-68h-68v68zM129.5 -1q-47.5 14 -84.5 38v70h53v-46q53 -30 133 -30q61 0 89.5 19t28.5 61q0 37 -26.5 59t-93.5 47q-72 27 -105 43t-53.5 42t-20.5 68q0 61 46.5 93t126.5 32q48 0 91 -13t74 -35v-70h-53v46q-23 13 -49.5 19.5t-63.5 6.5q-62 0 -91.5 -18
t-29.5 -61q0 -38 24.5 -56.5t75.5 -35.5q24 -8 36 -13q8 -3 58.5 -23t77.5 -53t27 -78q0 -60 -43 -93t-129 -33q-51 0 -98.5 14z" />
    <glyph glyph-name="uni1E62" unicode="&#x1e62;" horiz-adv-x="520" 
d="M146.5 3.5q-60.5 18.5 -101.5 47.5v80h55v-57q29 -19 76.5 -31t93.5 -12q75 0 114.5 32t39.5 90q0 40 -18.5 66.5t-51 45t-86.5 38.5q-76 28 -121.5 52.5t-70.5 58.5t-25 84q0 81 58.5 122.5t151.5 41.5q56 0 111 -15.5t90 -39.5v-80h-55v57q-26 15 -65 23.5t-82 8.5
q-73 0 -115.5 -28.5t-42.5 -89.5q0 -40 23 -66t53.5 -40.5t98.5 -41.5q67 -26 107 -48.5t65.5 -58.5t25.5 -90q0 -74 -55 -121t-154 -47q-59 0 -119.5 18.5zM234 -64h68v-68h-68v68z" />
    <glyph glyph-name="uni1E63" unicode="&#x1e63;" horiz-adv-x="445" 
d="M129.5 -1q-47.5 14 -84.5 38v70h53v-46q53 -30 133 -30q61 0 89.5 19t28.5 61q0 37 -26.5 59t-93.5 47q-72 27 -105 43t-53.5 42t-20.5 68q0 61 46.5 93t126.5 32q48 0 91 -13t74 -35v-70h-53v46q-23 13 -49.5 19.5t-63.5 6.5q-62 0 -91.5 -18t-29.5 -61
q0 -38 24.5 -56.5t75.5 -35.5q24 -8 36 -13q8 -3 58.5 -23t77.5 -53t27 -78q0 -60 -43 -93t-129 -33q-51 0 -98.5 14zM190 -64h68v-68h-68v68z" />
    <glyph glyph-name="uni1E6C" unicode="&#x1e6c;" horiz-adv-x="527" 
d="M168 45h31q22 0 30 8t8 28v521h-118q-20 0 -28 -7.5t-8 -26.5v-24h-48v103h457v-103h-48v24q0 19 -8 26.5t-28 7.5h-118v-521q0 -20 8 -28t30 -8h31v-45h-191v45zM229 -64h68v-68h-68v68z" />
    <glyph glyph-name="uni1E6D" unicode="&#x1e6d;" horiz-adv-x="399" 
d="M151 23.5q-34 38.5 -34 112.5v299h-82v45h82v117l53 25v-142h157v-45h-157v-300q0 -55 19.5 -79.5t61.5 -24.5q28 0 47 4.5t34 16.5v43h52v-59q-29 -27 -60 -39t-77 -12q-62 0 -96 38.5zM213 -64h68v-68h-68v68z" />
    <glyph glyph-name="uni1E6E" unicode="&#x1e6e;" horiz-adv-x="527" 
d="M168 45h31q22 0 30 8t8 28v521h-118q-20 0 -28 -7.5t-8 -26.5v-24h-48v103h457v-103h-48v24q0 19 -8 26.5t-28 7.5h-118v-521q0 -20 8 -28t30 -8h31v-45h-191v45zM128 -76h271v-45h-271v45z" />
    <glyph glyph-name="uni1E6F" unicode="&#x1e6f;" horiz-adv-x="399" 
d="M151 23.5q-34 38.5 -34 112.5v299h-82v45h82v117l53 25v-142h157v-45h-157v-300q0 -55 19.5 -79.5t61.5 -24.5q28 0 47 4.5t34 16.5v43h52v-59q-29 -27 -60 -39t-77 -12q-62 0 -96 38.5zM120 -76h271v-45h-271v45z" />
    <glyph glyph-name="Wgrave" unicode="&#x1e80;" horiz-adv-x="887" 
d="M297 881h79l85 -178h-48zM125 566q-5 20 -15 28t-34 8h-31v45h116l120 -560l135 451h55l135 -451l121 560h115v-45h-31q-24 0 -34 -8t-15 -28l-128 -566h-48l-143 468l-141 -468h-48z" />
    <glyph glyph-name="wgrave" unicode="&#x1e81;" horiz-adv-x="776" 
d="M252 707h79l85 -178h-48zM102 415q-5 14 -12 18t-28 4h-27v43h101l103 -437l124 394h49l123 -394l105 437h101v-43h-28q-20 0 -27.5 -4t-12.5 -18l-99 -415h-71l-115 367l-115 -367h-71z" />
    <glyph glyph-name="Wacute" unicode="&#x1e82;" horiz-adv-x="887" 
d="M511 881h79l-116 -178h-48zM125 566q-5 20 -15 28t-34 8h-31v45h116l120 -560l135 451h55l135 -451l121 560h115v-45h-31q-24 0 -34 -8t-15 -28l-128 -566h-48l-143 468l-141 -468h-48z" />
    <glyph glyph-name="wacute" unicode="&#x1e83;" horiz-adv-x="776" 
d="M446 707h79l-116 -178h-48zM102 415q-5 14 -12 18t-28 4h-27v43h101l103 -437l124 394h49l123 -394l105 437h101v-43h-28q-20 0 -27.5 -4t-12.5 -18l-99 -415h-71l-115 367l-115 -367h-71z" />
    <glyph glyph-name="Wdieresis" unicode="&#x1e84;" horiz-adv-x="887" 
d="M316 791h68v-68h-68v68zM505 791h68v-68h-68v68zM125 566q-5 20 -15 28t-34 8h-31v45h116l120 -560l135 451h55l135 -451l121 560h115v-45h-31q-24 0 -34 -8t-15 -28l-128 -566h-48l-143 468l-141 -468h-48z" />
    <glyph glyph-name="wdieresis" unicode="&#x1e85;" horiz-adv-x="776" 
d="M260 617h68v-68h-68v68zM449 617h68v-68h-68v68zM102 415q-5 14 -12 18t-28 4h-27v43h101l103 -437l124 394h49l123 -394l105 437h101v-43h-28q-20 0 -27.5 -4t-12.5 -18l-99 -415h-71l-115 367l-115 -367h-71z" />
    <glyph glyph-name="uni1E8E" unicode="&#x1e8e;" horiz-adv-x="664" 
d="M298 771h68v-68h-68v68zM247 43h25q19 0 26.5 8t7.5 28v154l-182 335q-10 18 -23 27t-31 9h-25v43h171v-43h-25q-22 0 -22 -13q0 -9 8 -23l155 -288l155 288q8 14 8 23q0 13 -22 13h-25v43h171v-43h-25q-18 0 -31 -9t-23 -27l-181 -335v-154q0 -20 7.5 -28t26.5 -8h25
v-43h-171v43z" />
    <glyph glyph-name="uni1E8F" unicode="&#x1e8f;" horiz-adv-x="548" 
d="M244 617h68v-68h-68v68zM203 -183q-41 17 -74 50v65h52v-43q40 -43 118 -43q66 0 98.5 38t32.5 107v89q-31 -41 -68 -58t-98 -17q-77 0 -118.5 43t-41.5 121v230q0 20 -7.5 28t-26.5 8h-35v45h122v-310q0 -122 122 -122q66 0 108.5 40.5t42.5 112.5v198q0 20 -7.5 28
t-26.5 8h-35v45h122v-485q0 -88 -48.5 -141.5t-131.5 -53.5q-59 0 -100 17z" />
    <glyph glyph-name="uni1E92" unicode="&#x1e92;" horiz-adv-x="555" 
d="M45 43l395 561h-294q-20 0 -28 -7.5t-8 -26.5v-25h-48v102h437v-43l-395 -561h322q20 0 28 7.5t8 26.5v25h48v-102h-465v43zM252 -64h68v-68h-68v68z" />
    <glyph glyph-name="uni1E93" unicode="&#x1e93;" horiz-adv-x="485" 
d="M45 43l325 394h-224q-20 0 -28 -7.5t-8 -26.5v-25h-48v102h367v-43l-325 -394h252q20 0 28 7.5t8 26.5v25h48v-102h-395v43zM210 -64h68v-68h-68v68z" />
    <glyph glyph-name="uni1E97" unicode="&#x1e97;" horiz-adv-x="399" 
d="M41 715h68v-68h-68v68zM230 715h68v-68h-68v68zM151 23.5q-34 38.5 -34 112.5v299h-82v45h82v117l53 25v-142h157v-45h-157v-300q0 -55 19.5 -79.5t61.5 -24.5q28 0 47 4.5t34 16.5v43h52v-59q-29 -27 -60 -39t-77 -12q-62 0 -96 38.5z" />
    <glyph glyph-name="uni1E9E" unicode="&#x1e9e;" horiz-adv-x="655" 
d="M265 21l21 40q33 -17 63.5 -23.5t70.5 -6.5q69 0 104 40.5t35 106.5q0 79 -33 110.5t-105 31.5h-87v38l159 192q0 22 -19 44t-55 36t-86 14q-97 0 -141.5 -48.5t-44.5 -143.5v-452h-112v43h25q19 0 26.5 8t7.5 28v378q0 106 57.5 169.5t183.5 63.5q67 0 115.5 -21
t73.5 -56t25 -77l-142 -171h22q94 0 137.5 -49t43.5 -138q0 -85 -48.5 -139t-141.5 -54t-155 36z" />
    <glyph glyph-name="uni1EA0" unicode="&#x1ea0;" horiz-adv-x="724" 
d="M45 45h35q41 0 54 36l204 566h49l203 -566q13 -36 54 -36h35v-45h-186v45h58l-59 164h-260l-59 -164h58v-45h-186v45zM476 254l-114 318l-114 -318h228zM328 -64h68v-68h-68v68z" />
    <glyph glyph-name="uni1EA1" unicode="&#x1ea1;" horiz-adv-x="518" 
d="M74.5 19q-39.5 34 -39.5 98q0 69 42 100t119 36l174 12v65q0 64 -25 91.5t-91 27.5q-41 0 -70 -6t-56 -19v-37h-53v61q78 47 177 47q93 0 132 -43t39 -123v-251q0 -22 7.5 -31t24.5 -9h28v-38h-96l-11 61q-56 -76 -188 -76q-74 0 -113.5 34zM323 64.5q47 33.5 47 100.5
v58l-175 -12q-62 -4 -85.5 -25t-23.5 -71q0 -42 26.5 -63t87.5 -21q76 0 123 33.5zM212 -64h68v-68h-68v68z" />
    <glyph glyph-name="uni1EA2" unicode="&#x1ea2;" horiz-adv-x="724" 
d="M335 769q41 0 56.5 12.5t15.5 37.5q0 23 -15 31.5t-50 8.5q-22 0 -48 -8v41q23 9 55 9q49 0 75 -19t26 -63q0 -63 -71 -78v-38h-44v66zM45 45h35q41 0 54 36l204 566h49l203 -566q13 -36 54 -36h35v-45h-186v45h58l-59 164h-260l-59 -164h58v-45h-186v45zM476 254
l-114 318l-114 -318h228z" />
    <glyph glyph-name="uni1EA3" unicode="&#x1ea3;" horiz-adv-x="518" 
d="M226 595q41 0 56.5 12.5t15.5 37.5q0 23 -15 31.5t-50 8.5q-22 0 -48 -8v41q23 9 55 9q49 0 75 -19t26 -63q0 -63 -71 -78v-38h-44v66zM74.5 19q-39.5 34 -39.5 98q0 69 42 100t119 36l174 12v65q0 64 -25 91.5t-91 27.5q-41 0 -70 -6t-56 -19v-37h-53v61q78 47 177 47
q93 0 132 -43t39 -123v-251q0 -22 7.5 -31t24.5 -9h28v-38h-96l-11 61q-56 -76 -188 -76q-74 0 -113.5 34zM323 64.5q47 33.5 47 100.5v58l-175 -12q-62 -4 -85.5 -25t-23.5 -71q0 -42 26.5 -63t87.5 -21q76 0 123 33.5z" />
    <glyph glyph-name="uni1EA4" unicode="&#x1ea4;" horiz-adv-x="724" 
d="M515 923h79l-94 -115h-48zM328 831h69l100 -128h-58l-77 99l-76 -99h-58zM45 45h35q41 0 54 36l204 566h49l203 -566q13 -36 54 -36h35v-45h-186v45h58l-59 164h-260l-59 -164h58v-45h-186v45zM476 254l-114 318l-114 -318h228z" />
    <glyph glyph-name="uni1EA5" unicode="&#x1ea5;" horiz-adv-x="518" 
d="M402 749h79l-94 -115h-48zM215 657h69l100 -128h-58l-77 99l-76 -99h-58zM74.5 19q-39.5 34 -39.5 98q0 69 42 100t119 36l174 12v65q0 64 -25 91.5t-91 27.5q-41 0 -70 -6t-56 -19v-37h-53v61q78 47 177 47q93 0 132 -43t39 -123v-251q0 -22 7.5 -31t24.5 -9h28v-38h-96
l-11 61q-56 -76 -188 -76q-74 0 -113.5 34zM323 64.5q47 33.5 47 100.5v58l-175 -12q-62 -4 -85.5 -25t-23.5 -71q0 -42 26.5 -63t87.5 -21q76 0 123 33.5z" />
    <glyph glyph-name="uni1EA6" unicode="&#x1ea6;" horiz-adv-x="724" 
d="M130 923h79l63 -115h-48zM327 831h69l100 -128h-58l-76 99l-77 -99h-58zM45 45h35q41 0 54 36l204 566h49l203 -566q13 -36 54 -36h35v-45h-186v45h58l-59 164h-260l-59 -164h58v-45h-186v45zM476 254l-114 318l-114 -318h228z" />
    <glyph glyph-name="uni1EA7" unicode="&#x1ea7;" horiz-adv-x="533" 
d="M25 749h79l63 -115h-48zM222 657h69l100 -128h-58l-76 99l-77 -99h-58zM89.5 19q-39.5 34 -39.5 98q0 69 42 100t119 36l174 12v65q0 64 -25 91.5t-91 27.5q-41 0 -70 -6t-56 -19v-37h-53v61q78 47 177 47q93 0 132 -43t39 -123v-251q0 -22 7.5 -31t24.5 -9h28v-38h-96
l-11 61q-56 -76 -188 -76q-74 0 -113.5 34zM338 64.5q47 33.5 47 100.5v58l-175 -12q-62 -4 -85.5 -25t-23.5 -71q0 -42 26.5 -63t87.5 -21q76 0 123 33.5z" />
    <glyph glyph-name="uni1EA8" unicode="&#x1ea8;" horiz-adv-x="724" 
d="M432 869q43 0 57.5 8t14.5 31q0 30 -40 30q-22 0 -48 -8v41q23 9 55 9q38 0 57 -19t19 -53q0 -31 -16.5 -46.5t-54.5 -20.5v-24h-44v52zM328 831h69l100 -128h-58l-77 99l-76 -99h-58zM45 45h35q41 0 54 36l204 566h49l203 -566q13 -36 54 -36h35v-45h-186v45h58l-59 164
h-260l-59 -164h58v-45h-186v45zM476 254l-114 318l-114 -318h228z" />
    <glyph glyph-name="uni1EA9" unicode="&#x1ea9;" horiz-adv-x="518" 
d="M309 695q43 0 57.5 8t14.5 31q0 30 -40 30q-22 0 -48 -8v41q23 9 55 9q38 0 57 -19t19 -53q0 -31 -16.5 -46.5t-54.5 -20.5v-24h-44v52zM205 657h69l100 -128h-58l-77 99l-76 -99h-58zM74.5 19q-39.5 34 -39.5 98q0 69 42 100t119 36l174 12v65q0 64 -25 91.5t-91 27.5
q-41 0 -70 -6t-56 -19v-37h-53v61q78 47 177 47q93 0 132 -43t39 -123v-251q0 -22 7.5 -31t24.5 -9h28v-38h-96l-11 61q-56 -76 -188 -76q-74 0 -113.5 34zM323 64.5q47 33.5 47 100.5v58l-175 -12q-62 -4 -85.5 -25t-23.5 -71q0 -42 26.5 -63t87.5 -21q76 0 123 33.5z" />
    <glyph glyph-name="uni1EAA" unicode="&#x1eaa;" horiz-adv-x="724" 
d="M238.5 927q19.5 21 57.5 21q18 0 35 -7t40 -20q21 -12 33 -17t24 -5q17 0 23.5 12t6.5 37h47q0 -53 -19.5 -74t-57.5 -21q-19 0 -35 6.5t-40 20.5q-22 12 -33 17t-24 5q-17 0 -23.5 -12t-6.5 -37h-47q0 53 19.5 74zM327 831h69l100 -128h-58l-77 99l-76 -99h-58zM45 45
h35q41 0 54 36l204 566h49l203 -566q13 -36 54 -36h35v-45h-186v45h58l-59 164h-260l-59 -164h58v-45h-186v45zM476 254l-114 318l-114 -318h228z" />
    <glyph glyph-name="uni1EAB" unicode="&#x1eab;" horiz-adv-x="518" 
d="M136.5 753q19.5 21 57.5 21q18 0 35 -7t40 -20q21 -12 33 -17t24 -5q17 0 23.5 12t6.5 37h47q0 -53 -19.5 -74t-57.5 -21q-19 0 -35 6.5t-40 20.5q-22 12 -33 17t-24 5q-17 0 -23.5 -12t-6.5 -37h-47q0 53 19.5 74zM225 657h69l100 -128h-58l-77 99l-76 -99h-58zM74.5 19
q-39.5 34 -39.5 98q0 69 42 100t119 36l174 12v65q0 64 -25 91.5t-91 27.5q-41 0 -70 -6t-56 -19v-37h-53v61q78 47 177 47q93 0 132 -43t39 -123v-251q0 -22 7.5 -31t24.5 -9h28v-38h-96l-11 61q-56 -76 -188 -76q-74 0 -113.5 34zM323 64.5q47 33.5 47 100.5v58l-175 -12
q-62 -4 -85.5 -25t-23.5 -71q0 -42 26.5 -63t87.5 -21q76 0 123 33.5z" />
    <glyph glyph-name="uni1EAC" unicode="&#x1eac;" horiz-adv-x="724" 
d="M328 881h69l115 -178h-58l-92 139l-91 -139h-58zM45 45h35q41 0 54 36l204 566h49l203 -566q13 -36 54 -36h35v-45h-186v45h58l-59 164h-260l-59 -164h58v-45h-186v45zM476 254l-114 318l-114 -318h228zM328 -64h68v-68h-68v68z" />
    <glyph glyph-name="uni1EAD" unicode="&#x1ead;" horiz-adv-x="518" 
d="M211 707h69l115 -178h-58l-92 139l-91 -139h-58zM74.5 19q-39.5 34 -39.5 98q0 69 42 100t119 36l174 12v65q0 64 -25 91.5t-91 27.5q-41 0 -70 -6t-56 -19v-37h-53v61q78 47 177 47q93 0 132 -43t39 -123v-251q0 -22 7.5 -31t24.5 -9h28v-38h-96l-11 61
q-56 -76 -188 -76q-74 0 -113.5 34zM323 64.5q47 33.5 47 100.5v58l-175 -12q-62 -4 -85.5 -25t-23.5 -71q0 -42 26.5 -63t87.5 -21q76 0 123 33.5zM212 -64h68v-68h-68v68z" />
    <glyph glyph-name="uni1EAE" unicode="&#x1eae;" horiz-adv-x="724" 
d="M395 980h79l-106 -148h-48zM261.5 738.5q-39.5 35.5 -39.5 94.5h43q0 -42 26.5 -64.5t70.5 -22.5t70.5 22.5t26.5 64.5h43q0 -59 -39.5 -94.5t-100.5 -35.5t-100.5 35.5zM45 45h35q41 0 54 36l204 566h49l203 -566q13 -36 54 -36h35v-45h-186v45h58l-59 164h-260
l-59 -164h58v-45h-186v45zM476 254l-114 318l-114 -318h228z" />
    <glyph glyph-name="uni1EAF" unicode="&#x1eaf;" horiz-adv-x="518" 
d="M290 806h79l-106 -148h-48zM156.5 564.5q-39.5 35.5 -39.5 94.5h43q0 -42 26.5 -64.5t70.5 -22.5t70.5 22.5t26.5 64.5h43q0 -59 -39.5 -94.5t-100.5 -35.5t-100.5 35.5zM74.5 19q-39.5 34 -39.5 98q0 69 42 100t119 36l174 12v65q0 64 -25 91.5t-91 27.5q-41 0 -70 -6
t-56 -19v-37h-53v61q78 47 177 47q93 0 132 -43t39 -123v-251q0 -22 7.5 -31t24.5 -9h28v-38h-96l-11 61q-56 -76 -188 -76q-74 0 -113.5 34zM323 64.5q47 33.5 47 100.5v58l-175 -12q-62 -4 -85.5 -25t-23.5 -71q0 -42 26.5 -63t87.5 -21q76 0 123 33.5z" />
    <glyph glyph-name="uni1EB0" unicode="&#x1eb0;" horiz-adv-x="724" 
d="M255 980h79l75 -148h-48zM261.5 738.5q-39.5 35.5 -39.5 94.5h43q0 -42 26.5 -64.5t70.5 -22.5t70.5 22.5t26.5 64.5h43q0 -59 -39.5 -94.5t-100.5 -35.5t-100.5 35.5zM45 45h35q41 0 54 36l204 566h49l203 -566q13 -36 54 -36h35v-45h-186v45h58l-59 164h-260l-59 -164
h58v-45h-186v45zM476 254l-114 318l-114 -318h228z" />
    <glyph glyph-name="uni1EB1" unicode="&#x1eb1;" horiz-adv-x="518" 
d="M141 806h79l75 -148h-48zM147.5 564.5q-39.5 35.5 -39.5 94.5h43q0 -42 26.5 -64.5t70.5 -22.5t70.5 22.5t26.5 64.5h43q0 -59 -39.5 -94.5t-100.5 -35.5t-100.5 35.5zM74.5 19q-39.5 34 -39.5 98q0 69 42 100t119 36l174 12v65q0 64 -25 91.5t-91 27.5q-41 0 -70 -6
t-56 -19v-37h-53v61q78 47 177 47q93 0 132 -43t39 -123v-251q0 -22 7.5 -31t24.5 -9h28v-38h-96l-11 61q-56 -76 -188 -76q-74 0 -113.5 34zM323 64.5q47 33.5 47 100.5v58l-175 -12q-62 -4 -85.5 -25t-23.5 -71q0 -42 26.5 -63t87.5 -21q76 0 123 33.5z" />
    <glyph glyph-name="uni1EB2" unicode="&#x1eb2;" horiz-adv-x="724" 
d="M331 876q43 0 57.5 8t14.5 31q0 30 -40 30q-22 0 -48 -8v41q23 9 55 9q38 0 57 -19t19 -53q0 -31 -16.5 -46.5t-54.5 -20.5v-24h-44v52zM262.5 738.5q-39.5 35.5 -39.5 94.5h43q0 -42 26.5 -64.5t70.5 -22.5t70.5 22.5t26.5 64.5h43q0 -59 -39.5 -94.5t-100.5 -35.5
t-100.5 35.5zM45 45h35q41 0 54 36l204 566h49l203 -566q13 -36 54 -36h35v-45h-186v45h58l-59 164h-260l-59 -164h58v-45h-186v45zM476 254l-114 318l-114 -318h228z" />
    <glyph glyph-name="uni1EB3" unicode="&#x1eb3;" horiz-adv-x="518" 
d="M220 702q43 0 57.5 8t14.5 31q0 30 -40 30q-22 0 -48 -8v41q23 9 55 9q38 0 57 -19t19 -53q0 -31 -16.5 -46.5t-54.5 -20.5v-24h-44v52zM151.5 564.5q-39.5 35.5 -39.5 94.5h43q0 -42 26.5 -64.5t70.5 -22.5t70.5 22.5t26.5 64.5h43q0 -59 -39.5 -94.5t-100.5 -35.5
t-100.5 35.5zM74.5 19q-39.5 34 -39.5 98q0 69 42 100t119 36l174 12v65q0 64 -25 91.5t-91 27.5q-41 0 -70 -6t-56 -19v-37h-53v61q78 47 177 47q93 0 132 -43t39 -123v-251q0 -22 7.5 -31t24.5 -9h28v-38h-96l-11 61q-56 -76 -188 -76q-74 0 -113.5 34zM323 64.5
q47 33.5 47 100.5v58l-175 -12q-62 -4 -85.5 -25t-23.5 -71q0 -42 26.5 -63t87.5 -21q76 0 123 33.5z" />
    <glyph glyph-name="uni1EB4" unicode="&#x1eb4;" horiz-adv-x="724" 
d="M238.5 949q19.5 21 57.5 21q18 0 35 -7t40 -20q21 -12 33 -17t24 -5q17 0 23.5 12t6.5 37h47q0 -53 -19.5 -74t-57.5 -21q-19 0 -35 6.5t-40 20.5q-22 12 -33 17t-24 5q-17 0 -23.5 -12t-6.5 -37h-47q0 53 19.5 74zM262.5 738.5q-39.5 35.5 -39.5 94.5h43
q0 -42 26.5 -64.5t70.5 -22.5t70.5 22.5t26.5 64.5h43q0 -59 -39.5 -94.5t-100.5 -35.5t-100.5 35.5zM45 45h35q41 0 54 36l204 566h49l203 -566q13 -36 54 -36h35v-45h-186v45h58l-59 164h-260l-59 -164h58v-45h-186v45zM476 254l-114 318l-114 -318h228z" />
    <glyph glyph-name="uni1EB5" unicode="&#x1eb5;" horiz-adv-x="518" 
d="M129.5 775q19.5 21 57.5 21q18 0 35 -7t40 -20q21 -12 33 -17t24 -5q17 0 23.5 12t6.5 37h47q0 -53 -19.5 -74t-57.5 -21q-19 0 -35 6.5t-40 20.5q-22 12 -33.5 17t-23.5 5q-17 0 -23.5 -12t-6.5 -37h-47q0 53 19.5 74zM153.5 564.5q-39.5 35.5 -39.5 94.5h43
q0 -42 26.5 -64.5t70.5 -22.5t70.5 22.5t26.5 64.5h43q0 -59 -39.5 -94.5t-100.5 -35.5t-100.5 35.5zM74.5 19q-39.5 34 -39.5 98q0 69 42 100t119 36l174 12v65q0 64 -25 91.5t-91 27.5q-41 0 -70 -6t-56 -19v-37h-53v61q78 47 177 47q93 0 132 -43t39 -123v-251
q0 -22 7.5 -31t24.5 -9h28v-38h-96l-11 61q-56 -76 -188 -76q-74 0 -113.5 34zM323 64.5q47 33.5 47 100.5v58l-175 -12q-62 -4 -85.5 -25t-23.5 -71q0 -42 26.5 -63t87.5 -21q76 0 123 33.5z" />
    <glyph glyph-name="uni1EB6" unicode="&#x1eb6;" horiz-adv-x="724" 
d="M261.5 738.5q-39.5 35.5 -39.5 94.5h43q0 -42 26.5 -64.5t70.5 -22.5t70.5 22.5t26.5 64.5h43q0 -59 -39.5 -94.5t-100.5 -35.5t-100.5 35.5zM45 45h35q41 0 54 36l204 566h49l203 -566q13 -36 54 -36h35v-45h-186v45h58l-59 164h-260l-59 -164h58v-45h-186v45zM476 254
l-114 318l-114 -318h228zM328 -64h68v-68h-68v68z" />
    <glyph glyph-name="uni1EB7" unicode="&#x1eb7;" horiz-adv-x="518" 
d="M154.5 564.5q-39.5 35.5 -39.5 94.5h43q0 -42 26.5 -64.5t70.5 -22.5t70.5 22.5t26.5 64.5h43q0 -59 -39.5 -94.5t-100.5 -35.5t-100.5 35.5zM74.5 19q-39.5 34 -39.5 98q0 69 42 100t119 36l174 12v65q0 64 -25 91.5t-91 27.5q-41 0 -70 -6t-56 -19v-37h-53v61
q78 47 177 47q93 0 132 -43t39 -123v-251q0 -22 7.5 -31t24.5 -9h28v-38h-96l-11 61q-56 -76 -188 -76q-74 0 -113.5 34zM323 64.5q47 33.5 47 100.5v58l-175 -12q-62 -4 -85.5 -25t-23.5 -71q0 -42 26.5 -63t87.5 -21q76 0 123 33.5zM212 -64h68v-68h-68v68z" />
    <glyph glyph-name="uni1EB8" unicode="&#x1eb8;" horiz-adv-x="543" 
d="M45 45h35q19 0 26.5 8t7.5 28v485q0 20 -7.5 28t-26.5 8h-35v45h453v-103h-48v24q0 19 -8 26.5t-28 7.5h-247v-255h211v-45h-211v-257h247q20 0 28 7.5t8 26.5v25h48v-104h-453v45zM248 -64h68v-68h-68v68z" />
    <glyph glyph-name="uni1EB9" unicode="&#x1eb9;" horiz-adv-x="534" 
d="M160 12.5q-53 27.5 -84 83t-31 136.5q0 130 60.5 196.5t171.5 66.5q106 0 159 -61.5t53 -170.5v-45h-390q0 -97 51.5 -143.5t128.5 -46.5q51 0 83 7.5t57 23.5v34h53v-57q-43 -27 -88 -39t-105 -12q-66 0 -119 27.5zM441 263q0 94 -39.5 140t-124.5 46q-87 0 -132.5 -50
t-45.5 -136h342zM248 -64h68v-68h-68v68z" />
    <glyph glyph-name="uni1EBA" unicode="&#x1eba;" horiz-adv-x="543" 
d="M253 769q41 0 56.5 12.5t15.5 37.5q0 23 -15 31.5t-50 8.5q-22 0 -48 -8v41q23 9 55 9q49 0 75 -19t26 -63q0 -63 -71 -78v-38h-44v66zM45 45h35q19 0 26.5 8t7.5 28v485q0 20 -7.5 28t-26.5 8h-35v45h453v-103h-48v24q0 19 -8 26.5t-28 7.5h-247v-255h211v-45h-211v-257
h247q20 0 28 7.5t8 26.5v25h48v-104h-453v45z" />
    <glyph glyph-name="uni1EBB" unicode="&#x1ebb;" horiz-adv-x="534" 
d="M242 595q41 0 56.5 12.5t15.5 37.5q0 23 -15 31.5t-50 8.5q-22 0 -48 -8v41q23 9 55 9q49 0 75 -19t26 -63q0 -63 -71 -78v-38h-44v66zM160 12.5q-53 27.5 -84 83t-31 136.5q0 130 60.5 196.5t171.5 66.5q106 0 159 -61.5t53 -170.5v-45h-390q0 -97 51.5 -143.5
t128.5 -46.5q51 0 83 7.5t57 23.5v34h53v-57q-43 -27 -88 -39t-105 -12q-66 0 -119 27.5zM441 263q0 94 -39.5 140t-124.5 46q-87 0 -132.5 -50t-45.5 -136h342z" />
    <glyph glyph-name="uni1EBC" unicode="&#x1ebc;" horiz-adv-x="543" 
d="M196 808q25 0 46.5 -8.5t49.5 -24.5q26 -14 40 -20t31 -6q24 0 34.5 12t10.5 47h47q0 -105 -92 -105q-23 0 -42.5 8t-45.5 23q-25 14 -42.5 21t-36.5 7q-24 0 -34.5 -12t-10.5 -47h-47q0 105 92 105zM45 45h35q19 0 26.5 8t7.5 28v485q0 20 -7.5 28t-26.5 8h-35v45h453
v-103h-48v24q0 19 -8 26.5t-28 7.5h-247v-255h211v-45h-211v-257h247q20 0 28 7.5t8 26.5v25h48v-104h-453v45z" />
    <glyph glyph-name="uni1EBD" unicode="&#x1ebd;" horiz-adv-x="534" 
d="M195 634q25 0 46.5 -8.5t49.5 -24.5q26 -14 40 -20t31 -6q24 0 34.5 12t10.5 47h47q0 -105 -92 -105q-23 0 -42.5 8t-45.5 23q-25 14 -42.5 21t-36.5 7q-24 0 -34.5 -12t-10.5 -47h-47q0 105 92 105zM160 12.5q-53 27.5 -84 83t-31 136.5q0 130 60.5 196.5t171.5 66.5
q106 0 159 -61.5t53 -170.5v-45h-390q0 -97 51.5 -143.5t128.5 -46.5q51 0 83 7.5t57 23.5v34h53v-57q-43 -27 -88 -39t-105 -12q-66 0 -119 27.5zM441 263q0 94 -39.5 140t-124.5 46q-87 0 -132.5 -50t-45.5 -136h342z" />
    <glyph glyph-name="uni1EBE" unicode="&#x1ebe;" horiz-adv-x="543" 
d="M443 923h79l-94 -115h-48zM256 831h69l100 -128h-58l-77 99l-76 -99h-58zM45 45h35q19 0 26.5 8t7.5 28v485q0 20 -7.5 28t-26.5 8h-35v45h453v-103h-48v24q0 19 -8 26.5t-28 7.5h-247v-255h211v-45h-211v-257h247q20 0 28 7.5t8 26.5v25h48v-104h-453v45z" />
    <glyph glyph-name="uni1EBF" unicode="&#x1ebf;" horiz-adv-x="534" 
d="M434 749h79l-94 -115h-48zM247 657h69l100 -128h-58l-77 99l-76 -99h-58zM160 12.5q-53 27.5 -84 83t-31 136.5q0 130 60.5 196.5t171.5 66.5q106 0 159 -61.5t53 -170.5v-45h-390q0 -97 51.5 -143.5t128.5 -46.5q51 0 83 7.5t57 23.5v34h53v-57q-43 -27 -88 -39
t-105 -12q-66 0 -119 27.5zM441 263q0 94 -39.5 140t-124.5 46q-87 0 -132.5 -50t-45.5 -136h342z" />
    <glyph glyph-name="uni1EC0" unicode="&#x1ec0;" horiz-adv-x="543" 
d="M67 923h79l63 -115h-48zM264 831h69l100 -128h-58l-76 99l-77 -99h-58zM45 45h35q19 0 26.5 8t7.5 28v485q0 20 -7.5 28t-26.5 8h-35v45h453v-103h-48v24q0 19 -8 26.5t-28 7.5h-247v-255h211v-45h-211v-257h247q20 0 28 7.5t8 26.5v25h48v-104h-453v45z" />
    <glyph glyph-name="uni1EC1" unicode="&#x1ec1;" horiz-adv-x="533" 
d="M40 749h79l63 -115h-48zM237 657h69l100 -128h-58l-76 99l-77 -99h-58zM159 12.5q-53 27.5 -84 83t-31 136.5q0 130 60.5 196.5t171.5 66.5q106 0 159 -61.5t53 -170.5v-45h-390q0 -97 51.5 -143.5t128.5 -46.5q51 0 83 7.5t57 23.5v34h53v-57q-43 -27 -88 -39t-105 -12
q-66 0 -119 27.5zM440 263q0 94 -39.5 140t-124.5 46q-87 0 -132.5 -50t-45.5 -136h342z" />
    <glyph glyph-name="uni1EC2" unicode="&#x1ec2;" horiz-adv-x="543" 
d="M344 869q43 0 57.5 8t14.5 31q0 30 -40 30q-22 0 -48 -8v41q23 9 55 9q38 0 57 -19t19 -53q0 -31 -16.5 -46.5t-54.5 -20.5v-24h-44v52zM240 831h69l100 -128h-58l-77 99l-76 -99h-58zM45 45h35q19 0 26.5 8t7.5 28v485q0 20 -7.5 28t-26.5 8h-35v45h453v-103h-48v24
q0 19 -8 26.5t-28 7.5h-247v-255h211v-45h-211v-257h247q20 0 28 7.5t8 26.5v25h48v-104h-453v45z" />
    <glyph glyph-name="uni1EC3" unicode="&#x1ec3;" horiz-adv-x="534" 
d="M349 695q43 0 57.5 8t14.5 31q0 30 -40 30q-22 0 -48 -8v41q23 9 55 9q38 0 57 -19t19 -53q0 -31 -16.5 -46.5t-54.5 -20.5v-24h-44v52zM245 657h69l100 -128h-58l-77 99l-76 -99h-58zM160 12.5q-53 27.5 -84 83t-31 136.5q0 130 60.5 196.5t171.5 66.5q106 0 159 -61.5
t53 -170.5v-45h-390q0 -97 51.5 -143.5t128.5 -46.5q51 0 83 7.5t57 23.5v34h53v-57q-43 -27 -88 -39t-105 -12q-66 0 -119 27.5zM441 263q0 94 -39.5 140t-124.5 46q-87 0 -132.5 -50t-45.5 -136h342z" />
    <glyph glyph-name="uni1EC4" unicode="&#x1ec4;" horiz-adv-x="543" 
d="M173.5 927q19.5 21 57.5 21q18 0 35 -7t40 -20q21 -12 33 -17t24 -5q17 0 23.5 12t6.5 37h47q0 -53 -19.5 -74t-57.5 -21q-19 0 -35 6.5t-40 20.5q-22 12 -33.5 17t-23.5 5q-17 0 -23.5 -12t-6.5 -37h-47q0 53 19.5 74zM262 831h69l100 -128h-58l-77 99l-76 -99h-58z
M45 45h35q19 0 26.5 8t7.5 28v485q0 20 -7.5 28t-26.5 8h-35v45h453v-103h-48v24q0 19 -8 26.5t-28 7.5h-247v-255h211v-45h-211v-257h247q20 0 28 7.5t8 26.5v25h48v-104h-453v45z" />
    <glyph glyph-name="uni1EC5" unicode="&#x1ec5;" horiz-adv-x="534" 
d="M160.5 753q19.5 21 57.5 21q18 0 35 -7t40 -20q21 -12 33 -17t24 -5q17 0 23.5 12t6.5 37h47q0 -53 -19.5 -74t-57.5 -21q-19 0 -35 6.5t-40 20.5q-22 12 -33.5 17t-23.5 5q-17 0 -23.5 -12t-6.5 -37h-47q0 53 19.5 74zM249 657h69l100 -128h-58l-77 99l-76 -99h-58z
M160 12.5q-53 27.5 -84 83t-31 136.5q0 130 60.5 196.5t171.5 66.5q106 0 159 -61.5t53 -170.5v-45h-390q0 -97 51.5 -143.5t128.5 -46.5q51 0 83 7.5t57 23.5v34h53v-57q-43 -27 -88 -39t-105 -12q-66 0 -119 27.5zM441 263q0 94 -39.5 140t-124.5 46q-87 0 -132.5 -50
t-45.5 -136h342z" />
    <glyph glyph-name="uni1EC6" unicode="&#x1ec6;" horiz-adv-x="543" 
d="M248 881h69l115 -178h-58l-92 139l-91 -139h-58zM45 45h35q19 0 26.5 8t7.5 28v485q0 20 -7.5 28t-26.5 8h-35v45h453v-103h-48v24q0 19 -8 26.5t-28 7.5h-247v-255h211v-45h-211v-257h247q20 0 28 7.5t8 26.5v25h48v-104h-453v45zM248 -64h68v-68h-68v68z" />
    <glyph glyph-name="uni1EC7" unicode="&#x1ec7;" horiz-adv-x="534" 
d="M241 707h69l115 -178h-58l-92 139l-91 -139h-58zM160 12.5q-53 27.5 -84 83t-31 136.5q0 130 60.5 196.5t171.5 66.5q106 0 159 -61.5t53 -170.5v-45h-390q0 -97 51.5 -143.5t128.5 -46.5q51 0 83 7.5t57 23.5v34h53v-57q-43 -27 -88 -39t-105 -12q-66 0 -119 27.5z
M441 263q0 94 -39.5 140t-124.5 46q-87 0 -132.5 -50t-45.5 -136h342zM248 -64h68v-68h-68v68z" />
    </font>
</defs>
</svg>
